<?xml version="1.0" encoding="UTF-8" standalone="no"?><!DOCTYPE svg PUBLIC "-//W3C//DTD SVG 1.0//EN" "http://www.w3.org/TR/2001/REC-SVG-20010904/DTD/svg10.dtd" [ <!ATTLIST svg xmlns:xlink CDATA #FIXED "http://www.w3.org/1999/xlink">]><!-- Generated by dot version 2.7.20051103.0540 (Thu Nov  3 05:48:38 UTC 2005)     For user: Bill Gates --><!-- Title: uml Pages: 1 --><svg width="807pt" height="676pt" viewBox = "0 0 807 676" xmlns="http://www.w3.org/2000/svg" xmlns:xlink="http://www.w3.org/1999/xlink"><g id="graph0" class="graph" style="font-family:Times-Roman;font-size:14.00;"><title>uml</title><polygon style="fill:white;stroke:white;" points="-1,677 -1,-1 808,-1 808,677 -1,677"/><!-- 14502314 --><g id="node1" class="node"><title>14502314</title><a xlink:href="platform%3A%2Fresource%2Fiec61850JAXB2%2Fsrc%2Fcom%2Fiec61850%2Fscl%2Fxsd%2Fuml%2FSCL_SHEMA_Model_as_UML.uml%23_qQIX4G4GEd&#45;tWITpj_mTIQ" xlink:title="tHeader"><polygon style="fill:#e0ffff;stroke:#a30036;stroke-dasharray:5,2;" points="59,106 5,106 5,132 59,132 59,106"/><text text-anchor="middle" x="32" y="123" style="font-family:Arial;font-size:11.00;">tHeader</text></a></g><!-- 26286014 --><g id="node2" class="node"><title>26286014</title><a xlink:href="platform%3A%2Fresource%2Fiec61850JAXB2%2Fsrc%2Fcom%2Fiec61850%2Fscl%2Fxsd%2Fuml%2FSCL_SHEMA_Model_as_UML.uml%23_qSXMqm4GEd&#45;tWITpj_mTIQ" xlink:title="tCommunication"><polygon style="fill:#e0ffff;stroke:#a30036;stroke-dasharray:5,2;" points="171,106 77,106 77,132 171,132 171,106"/><text text-anchor="middle" x="124" y="123" style="font-family:Arial;font-size:11.00;">tCommunication</text></a></g><!-- 18444164 --><g id="node3" class="node"><title>18444164</title><a xlink:href="platform%3A%2Fresource%2Fiec61850JAXB2%2Fsrc%2Fcom%2Fiec61850%2Fscl%2Fxsd%2Fuml%2FSCL_SHEMA_Model_as_UML.uml%23_qQ3&#45;z24GEd&#45;tWITpj_mTIQ" xlink:title="tIED"><polygon style="fill:#e0ffff;stroke:#a30036;stroke-dasharray:5,2;" points="230,106 194,106 194,132 230,132 230,106"/><text text-anchor="middle" x="212" y="123" style="font-family:Arial;font-size:11.00;">tIED</text></a></g><!-- 13053967 --><g id="node4" class="node"><title>13053967</title><a xlink:href="platform%3A%2Fresource%2Fiec61850JAXB2%2Fsrc%2Fcom%2Fiec61850%2Fscl%2Fxsd%2Fuml%2FSCL_SHEMA_Model_as_UML.uml%23_qS9CQG4GEd&#45;tWITpj_mTIQ" xlink:title="tDataTypeTemplates"><polygon style="fill:#e0ffff;stroke:#a30036;stroke-dasharray:5,2;" points="364,106 248,106 248,132 364,132 364,106"/><text text-anchor="middle" x="306" y="123" style="font-family:Arial;font-size:11.00;">tDataTypeTemplates</text></a></g><!-- 32576972 --><g id="node5" class="node"><title>32576972</title><a xlink:href="platform%3A%2Fresource%2Fiec61850JAXB2%2Fsrc%2Fcom%2Fiec61850%2Fscl%2Fxsd%2Fuml%2FSCL_SHEMA_Model_as_UML.uml%23_qQkc_G4GEd&#45;tWITpj_mTIQ" xlink:title="tSubFunction"><polygon style="fill:#e0ffff;stroke:#a30036;stroke-dasharray:5,2;" points="604,278 524,278 524,304 604,304 604,278"/><text text-anchor="middle" x="564" y="295" style="font-family:Arial;font-size:11.00;">tSubFunction</text></a></g><!-- 20250371 --><g id="node6" class="node"><title>20250371</title><a xlink:href="platform%3A%2Fresource%2Fiec61850JAXB2%2Fsrc%2Fcom%2Fiec61850%2Fscl%2Fxsd%2Fuml%2FSCL_SHEMA_Model_as_UML.uml%23_qQbS5m4GEd&#45;tWITpj_mTIQ" xlink:title="tTerminal"><polygon style="fill:#e0ffff;stroke:#a30036;stroke-dasharray:5,2;" points="478,450 418,450 418,476 478,476 478,450"/><text text-anchor="middle" x="448" y="467" style="font-family:Arial;font-size:11.00;">tTerminal</text></a></g><!-- 17315993 --><g id="node7" class="node"><title>17315993</title><a xlink:href="platform%3A%2Fresource%2Fiec61850JAXB2%2Fsrc%2Fcom%2Fiec61850%2Fscl%2Fxsd%2Fuml%2FSCL_SHEMA_Model_as_UML.uml%23_qS9CeG4GEd&#45;tWITpj_mTIQ" xlink:title="_GlobalElements"><polygon style="fill:#e0ffff;stroke:#a30036;stroke-dasharray:5,2;" points="362,6 262,6 262,32 362,32 362,6"/><text text-anchor="middle" x="312" y="23" style="font-family:Arial;font-size:11.00;">_GlobalElements</text></a></g><!-- 11198769 --><g id="node8" class="node"><title>11198769</title><polygon style="fill:#ffffcc;stroke:#ffffcc;" points="192,31 192,7 244,7 244,31 192,31"/><a xlink:href="platform%3A%2Fresource%2Fiec61850JAXB2%2Fsrc%2Fcom%2Fiec61850%2Fscl%2Fxsd%2Fuml%2FSCL_SHEMA_Model_as_UML.uml%23_qS9CWW4GEd&#45;tWITpj_mTIQ" xlink:title="SCL"><clipPath id="mypathfile:/D:/eclipse/configuration/org.eclipse.osgi/bundles/954/1/.cp/icons/full/obj16/Class.gif11198769"><polygon points="209,11 193,11 193,27 209,27 209,11 "/></clipPath><image xlink:href="file:/D:/eclipse/configuration/org.eclipse.osgi/bundles/954/1/.cp/icons/full/obj16/Class.gif" width="16px" height="16px" preserveAspectRatio="xMidYMid meet" x="193" y="11" clip-path="url(#mypathfile:/D:/eclipse/configuration/org.eclipse.osgi/bundles/954/1/.cp/icons/full/obj16/Class.gif11198769)"/><text text-anchor="middle" x="226" y="23" style="font-family:Arial;font-size:13.00;">SCL</text><polygon style="fill:none;stroke:#a30036;" points="192,31 192,7 244,7 244,31 192,31"/></a></g><!-- 11198769&#45;&gt;14502314 --><g id="edge2" class="edge"><title>11198769&#45;&gt;14502314</title><a xlink:href="platform%3A%2Fresource%2Fiec61850JAXB2%2Fsrc%2Fcom%2Fiec61850%2Fscl%2Fxsd%2Fuml%2FSCL_SHEMA_Model_as_UML.uml%23_qS9CW24GEd&#45;tWITpj_mTIQ" xlink:title="Header\n1..1\n"><path style="fill:none;stroke:#a30036;" d="M180,22C152,26 117,34 89,51 71,63 56,82 46,96"/><polygon style="fill:#a30036;stroke:#a30036;" points="180,22 186,25 192,21 186,18 180,22"/><polygon style="fill:#a30036;stroke:#a30036;" points="40,105 49,99 42,103 46,97 42,103 42,94 40,105 40,105"/><text text-anchor="middle" x="109" y="66" style="font-family:Arial;font-size:10.00;">Header</text><text text-anchor="middle" x="109" y="78" style="font-family:Arial;font-size:10.00;">1..1</text></a></g><!-- 11198769&#45;&gt;26286014 --><g id="edge6" class="edge"><title>11198769&#45;&gt;26286014</title><a xlink:href="platform%3A%2Fresource%2Fiec61850JAXB2%2Fsrc%2Fcom%2Fiec61850%2Fscl%2Fxsd%2Fuml%2FSCL_SHEMA_Model_as_UML.uml%23_qS9CZm4GEd&#45;tWITpj_mTIQ" xlink:title="&#171;element&#187; \nCommunication\n0..1\n"><path style="fill:none;stroke:#a30036;" d="M180,26C165,31 148,38 138,51 129,64 125,81 123,95"/><polygon style="fill:#a30036;stroke:#a30036;" points="180,26 187,28 192,23 185,21 180,26"/><polygon style="fill:#a30036;stroke:#a30036;" points="123,105 128,95 123,102 123,95 123,102 119,95 123,105 123,105"/><text text-anchor="middle" x="173" y="60" style="font-family:Arial;font-size:10.00;">&#171;element&#187; </text><text text-anchor="middle" x="173" y="72" style="font-family:Arial;font-size:10.00;">Communication</text><text text-anchor="middle" x="173" y="84" style="font-family:Arial;font-size:10.00;">0..1</text></a></g><!-- 11198769&#45;&gt;18444164 --><g id="edge8" class="edge"><title>11198769&#45;&gt;18444164</title><a xlink:href="platform%3A%2Fresource%2Fiec61850JAXB2%2Fsrc%2Fcom%2Fiec61850%2Fscl%2Fxsd%2Fuml%2FSCL_SHEMA_Model_as_UML.uml%23_qS9CbG4GEd&#45;tWITpj_mTIQ" xlink:title="&#171;element&#187; \nIED\n0..*\n"><path style="fill:none;stroke:#a30036;" d="M216,43C215,59 214,80 214,95"/><polygon style="fill:#a30036;stroke:#a30036;" points="216,43 220,37 217,31 213,37 216,43"/><polygon style="fill:#a30036;stroke:#a30036;" points="213,105 218,95 213,102 214,95 213,102 210,95 213,105 213,105"/><text text-anchor="middle" x="239" y="60" style="font-family:Arial;font-size:10.00;">&#171;element&#187; </text><text text-anchor="middle" x="239" y="72" style="font-family:Arial;font-size:10.00;">IED</text><text text-anchor="middle" x="239" y="84" style="font-family:Arial;font-size:10.00;">0..*</text></a></g><!-- 11198769&#45;&gt;13053967 --><g id="edge10" class="edge"><title>11198769&#45;&gt;13053967</title><a xlink:href="platform%3A%2Fresource%2Fiec61850JAXB2%2Fsrc%2Fcom%2Fiec61850%2Fscl%2Fxsd%2Fuml%2FSCL_SHEMA_Model_as_UML.uml%23_qS9Ccm4GEd&#45;tWITpj_mTIQ" xlink:title="&#171;element&#187; \nDataTypeTemplates\n0..1\n"><path style="fill:none;stroke:#a30036;" d="M252,37C258,41 264,46 269,51 281,65 290,82 297,95"/><polygon style="fill:#a30036;stroke:#a30036;" points="252,37 249,31 242,31 245,38 252,37"/><polygon style="fill:#a30036;stroke:#a30036;" points="301,105 301,94 300,102 297,96 300,102 293,97 301,105 301,105"/><text text-anchor="middle" x="335" y="60" style="font-family:Arial;font-size:10.00;">&#171;element&#187; </text><text text-anchor="middle" x="335" y="72" style="font-family:Arial;font-size:10.00;">DataTypeTemplates</text><text text-anchor="middle" x="335" y="84" style="font-family:Arial;font-size:10.00;">0..1</text></a></g><!-- 11276402 --><g id="node9" class="node"><title>11276402</title><polygon style="fill:#ffffcc;stroke:#ffffcc;" points="382,131 382,107 474,107 474,131 382,131"/><a xlink:href="platform%3A%2Fresource%2Fiec61850JAXB2%2Fsrc%2Fcom%2Fiec61850%2Fscl%2Fxsd%2Fuml%2FSCL_SHEMA_Model_as_UML.uml%23_qQkc1W4GEd&#45;tWITpj_mTIQ" xlink:title="tSubstation"><clipPath id="mypathfile:/D:/eclipse/configuration/org.eclipse.osgi/bundles/954/1/.cp/icons/full/obj16/Class.gif11276402"><polygon points="399,111 383,111 383,127 399,127 399,111 "/></clipPath><image xlink:href="file:/D:/eclipse/configuration/org.eclipse.osgi/bundles/954/1/.cp/icons/full/obj16/Class.gif" width="16px" height="16px" preserveAspectRatio="xMidYMid meet" x="383" y="111" clip-path="url(#mypathfile:/D:/eclipse/configuration/org.eclipse.osgi/bundles/954/1/.cp/icons/full/obj16/Class.gif11276402)"/><text text-anchor="middle" x="436" y="123" style="font-family:Arial;font-size:13.00;">tSubstation</text><polygon style="fill:none;stroke:#a30036;" points="382,131 382,107 474,107 474,131 382,131"/></a></g><!-- 11198769&#45;&gt;11276402 --><g id="edge4" class="edge"><title>11198769&#45;&gt;11276402</title><a xlink:href="platform%3A%2Fresource%2Fiec61850JAXB2%2Fsrc%2Fcom%2Fiec61850%2Fscl%2Fxsd%2Fuml%2FSCL_SHEMA_Model_as_UML.uml%23_qS9CYG4GEd&#45;tWITpj_mTIQ" xlink:title="&#171;element&#187; \nSubstation\n0..*\n"><path style="fill:none;stroke:#a30036;" d="M256,33C312,46 337,22 384,51 401,62 413,82 420,98"/><polygon style="fill:#a30036;stroke:#a30036;" points="256,33 251,28 244,30 249,35 256,33"/><polygon style="fill:#a30036;stroke:#a30036;" points="424,107 424,96 423,104 420,98 423,104 416,100 424,107 424,107"/><text text-anchor="middle" x="437" y="60" style="font-family:Arial;font-size:10.00;">&#171;element&#187; </text><text text-anchor="middle" x="437" y="72" style="font-family:Arial;font-size:10.00;">Substation</text><text text-anchor="middle" x="437" y="84" style="font-family:Arial;font-size:10.00;">0..*</text></a></g><!-- 18464517 --><g id="node10" class="node"><title>18464517</title><polygon style="fill:#ffffcc;stroke:#ffffcc;" points="407,671 407,537 621,537 621,671 407,671"/><a xlink:href="platform%3A%2Fresource%2Fiec61850JAXB2%2Fsrc%2Fcom%2Fiec61850%2Fscl%2Fxsd%2Fuml%2FSCL_SHEMA_Model_as_UML.uml%23_qQbSuG4GEd&#45;tWITpj_mTIQ" xlink:title="tLNode"><clipPath id="mypathfile:/D:/eclipse/configuration/org.eclipse.osgi/bundles/954/1/.cp/icons/full/obj16/Class.gif18464517"><polygon points="424,540 408,540 408,557 424,557 424,540 "/></clipPath><image xlink:href="file:/D:/eclipse/configuration/org.eclipse.osgi/bundles/954/1/.cp/icons/full/obj16/Class.gif" width="16px" height="17px" preserveAspectRatio="xMidYMid meet" x="408" y="540" clip-path="url(#mypathfile:/D:/eclipse/configuration/org.eclipse.osgi/bundles/954/1/.cp/icons/full/obj16/Class.gif18464517)"/><text text-anchor="middle" x="523" y="553" style="font-family:Arial;font-size:13.00;">tLNode</text><polygon style="fill:none;stroke:#a30036;" points="407,560 407,537 621,537 621,560 407,560"/></a><a xlink:href="platform%3A%2Fresource%2Fiec61850JAXB2%2Fsrc%2Fcom%2Fiec61850%2Fscl%2Fxsd%2Fuml%2FSCL_SHEMA_Model_as_UML.uml%23_qP&#45;m7G4GEd&#45;tWITpj_mTIQ" xlink:title="wildcard"><text text-anchor="middle" x="482" y="571" style="font-family:Arial;font-size:11.00;">«any, element» wildcard [0..*]</text></a><a xlink:href="platform%3A%2Fresource%2Fiec61850JAXB2%2Fsrc%2Fcom%2Fiec61850%2Fscl%2Fxsd%2Fuml%2FSCL_SHEMA_Model_as_UML.uml%23_qQIXzG4GEd&#45;tWITpj_mTIQ" xlink:title="wildcard"><text text-anchor="middle" x="470" y="583" style="font-family:Arial;font-size:11.00;">«any, attribute» wildcard</text></a><a xlink:href="platform%3A%2Fresource%2Fiec61850JAXB2%2Fsrc%2Fcom%2Fiec61850%2Fscl%2Fxsd%2Fuml%2FSCL_SHEMA_Model_as_UML.uml%23_qQIX0W4GEd&#45;tWITpj_mTIQ" xlink:title="_attrGroup1"><text text-anchor="middle" x="463" y="595" style="font-family:Arial;font-size:11.00;">_attrGroup1 : agDesc</text></a><a xlink:href="platform%3A%2Fresource%2Fiec61850JAXB2%2Fsrc%2Fcom%2Fiec61850%2Fscl%2Fxsd%2Fuml%2FSCL_SHEMA_Model_as_UML.uml%23_qQbSum4GEd&#45;tWITpj_mTIQ" xlink:title="lnInst"><text text-anchor="middle" x="495" y="607" style="font-family:Arial;font-size:11.00;">«attribute» lnInst : tAnyName [0..1]</text></a><a xlink:href="platform%3A%2Fresource%2Fiec61850JAXB2%2Fsrc%2Fcom%2Fiec61850%2Fscl%2Fxsd%2Fuml%2FSCL_SHEMA_Model_as_UML.uml%23_qQbSvm4GEd&#45;tWITpj_mTIQ" xlink:title="lnClass"><text text-anchor="middle" x="497" y="619" style="font-family:Arial;font-size:11.00;">«attribute» lnClass : tLNClassEnum</text></a><a xlink:href="platform%3A%2Fresource%2Fiec61850JAXB2%2Fsrc%2Fcom%2Fiec61850%2Fscl%2Fxsd%2Fuml%2FSCL_SHEMA_Model_as_UML.uml%23_qQbSwm4GEd&#45;tWITpj_mTIQ" xlink:title="iedName"><text text-anchor="middle" x="514" y="631" style="font-family:Arial;font-size:11.00;">«attribute» iedName : tName [0..1] = None</text></a><a xlink:href="platform%3A%2Fresource%2Fiec61850JAXB2%2Fsrc%2Fcom%2Fiec61850%2Fscl%2Fxsd%2Fuml%2FSCL_SHEMA_Model_as_UML.uml%23_qQbSx24GEd&#45;tWITpj_mTIQ" xlink:title="ldInst"><text text-anchor="middle" x="495" y="643" style="font-family:Arial;font-size:11.00;">«attribute» ldInst : tAnyName [0..1]</text></a><a xlink:href="platform%3A%2Fresource%2Fiec61850JAXB2%2Fsrc%2Fcom%2Fiec61850%2Fscl%2Fxsd%2Fuml%2FSCL_SHEMA_Model_as_UML.uml%23_qQbSy24GEd&#45;tWITpj_mTIQ" xlink:title="prefix"><text text-anchor="middle" x="496" y="655" style="font-family:Arial;font-size:11.00;">«attribute» prefix : tAnyName [0..1]</text></a><a xlink:href="platform%3A%2Fresource%2Fiec61850JAXB2%2Fsrc%2Fcom%2Fiec61850%2Fscl%2Fxsd%2Fuml%2FSCL_SHEMA_Model_as_UML.uml%23_qQbSz24GEd&#45;tWITpj_mTIQ" xlink:title="lnType"><text text-anchor="middle" x="489" y="667" style="font-family:Arial;font-size:11.00;">«attribute» lnType : tName [0..1]</text></a><polygon style="fill:none;stroke:#a30036;" points="407,671 407,560 621,560 621,671 407,671"/></g><!-- 11276402&#45;&gt;18464517 --><g id="edge12" class="edge"><title>11276402&#45;&gt;18464517</title><a xlink:href="platform%3A%2Fresource%2Fiec61850JAXB2%2Fsrc%2Fcom%2Fiec61850%2Fscl%2Fxsd%2Fuml%2FSCL_SHEMA_Model_as_UML.uml%23_qQbSt24GEd&#45;tWITpj_mTIQ" xlink:title="LNode\n0..*\n"><path style="fill:none;stroke:#a30036;" d="M370,135C337,148 303,170 303,205 303,205 303,205 303,463 303,516 349,550 398,571"/><polygon style="fill:#a30036;stroke:#a30036;" points="371,135 378,137 382,131 375,129 371,135"/><polygon style="fill:#a30036;stroke:#a30036;" points="407,575 400,567 404,574 398,571 404,574 396,575 407,575 407,575"/><text text-anchor="middle" x="318" y="332" style="font-family:Arial;font-size:10.00;">LNode</text><text text-anchor="middle" x="318" y="344" style="font-family:Arial;font-size:10.00;">0..*</text></a></g><!-- 3222039 --><g id="node11" class="node"><title>3222039</title><polygon style="fill:#ffffcc;stroke:#ffffcc;" points="375,217 375,193 481,193 481,217 375,217"/><a xlink:href="platform%3A%2Fresource%2Fiec61850JAXB2%2Fsrc%2Fcom%2Fiec61850%2Fscl%2Fxsd%2Fuml%2FSCL_SHEMA_Model_as_UML.uml%23_qQkc2G4GEd&#45;tWITpj_mTIQ" xlink:title="tVoltageLevel"><clipPath id="mypathfile:/D:/eclipse/configuration/org.eclipse.osgi/bundles/954/1/.cp/icons/full/obj16/Class.gif3222039"><polygon points="392,197 376,197 376,213 392,213 392,197 "/></clipPath><image xlink:href="file:/D:/eclipse/configuration/org.eclipse.osgi/bundles/954/1/.cp/icons/full/obj16/Class.gif" width="16px" height="16px" preserveAspectRatio="xMidYMid meet" x="376" y="197" clip-path="url(#mypathfile:/D:/eclipse/configuration/org.eclipse.osgi/bundles/954/1/.cp/icons/full/obj16/Class.gif3222039)"/><text text-anchor="middle" x="436" y="209" style="font-family:Arial;font-size:13.00;">tVoltageLevel</text><polygon style="fill:none;stroke:#a30036;" points="375,217 375,193 481,193 481,217 375,217"/></a></g><!-- 11276402&#45;&gt;3222039 --><g id="edge14" class="edge"><title>11276402&#45;&gt;3222039</title><a xlink:href="platform%3A%2Fresource%2Fiec61850JAXB2%2Fsrc%2Fcom%2Fiec61850%2Fscl%2Fxsd%2Fuml%2FSCL_SHEMA_Model_as_UML.uml%23_qQkc124GEd&#45;tWITpj_mTIQ" xlink:title="VoltageLevel\n1..*\n"><path style="fill:none;stroke:#a30036;" d="M428,143C428,156 428,171 428,183"/><polygon style="fill:#a30036;stroke:#a30036;" points="428,143 432,137 428,131 424,137 428,143"/><polygon style="fill:#a30036;stroke:#a30036;" points="428,193 433,183 428,190 428,183 428,190 424,183 428,193 428,193"/><text text-anchor="middle" x="458" y="160" style="font-family:Arial;font-size:10.00;">VoltageLevel</text><text text-anchor="middle" x="458" y="172" style="font-family:Arial;font-size:10.00;">1..*</text></a></g><!-- 30540641 --><g id="node12" class="node"><title>30540641</title><polygon style="fill:#ffffcc;stroke:#ffffcc;" points="524,217 524,193 604,193 604,217 524,217"/><a xlink:href="platform%3A%2Fresource%2Fiec61850JAXB2%2Fsrc%2Fcom%2Fiec61850%2Fscl%2Fxsd%2Fuml%2FSCL_SHEMA_Model_as_UML.uml%23_qQkc&#45;W4GEd&#45;tWITpj_mTIQ" xlink:title="tFunction"><clipPath id="mypathfile:/D:/eclipse/configuration/org.eclipse.osgi/bundles/954/1/.cp/icons/full/obj16/Class.gif30540641"><polygon points="541,197 525,197 525,213 541,213 541,197 "/></clipPath><image xlink:href="file:/D:/eclipse/configuration/org.eclipse.osgi/bundles/954/1/.cp/icons/full/obj16/Class.gif" width="16px" height="16px" preserveAspectRatio="xMidYMid meet" x="525" y="197" clip-path="url(#mypathfile:/D:/eclipse/configuration/org.eclipse.osgi/bundles/954/1/.cp/icons/full/obj16/Class.gif30540641)"/><text text-anchor="middle" x="572" y="209" style="font-family:Arial;font-size:13.00;">tFunction</text><polygon style="fill:none;stroke:#a30036;" points="524,217 524,193 604,193 604,217 524,217"/></a></g><!-- 11276402&#45;&gt;30540641 --><g id="edge16" class="edge"><title>11276402&#45;&gt;30540641</title><a xlink:href="platform%3A%2Fresource%2Fiec61850JAXB2%2Fsrc%2Fcom%2Fiec61850%2Fscl%2Fxsd%2Fuml%2FSCL_SHEMA_Model_as_UML.uml%23_qQkc&#45;G4GEd&#45;tWITpj_mTIQ" xlink:title="Function\n0..*\n"><path style="fill:none;stroke:#a30036;" d="M465,137C474,141 484,146 492,151 509,162 527,176 541,187"/><polygon style="fill:#a30036;stroke:#a30036;" points="465,137 461,130 454,131 457,137 465,137"/><polygon style="fill:#a30036;stroke:#a30036;" points="549,193 544,183 547,191 541,187 547,191 538,191 549,193 549,193"/><text text-anchor="middle" x="542" y="160" style="font-family:Arial;font-size:10.00;">Function</text><text text-anchor="middle" x="542" y="172" style="font-family:Arial;font-size:10.00;">0..*</text></a></g><!-- 3222039&#45;&gt;18464517 --><g id="edge18" class="edge"><title>3222039&#45;&gt;18464517</title><a xlink:href="platform%3A%2Fresource%2Fiec61850JAXB2%2Fsrc%2Fcom%2Fiec61850%2Fscl%2Fxsd%2Fuml%2FSCL_SHEMA_Model_as_UML.uml%23_qQbSt24GEd&#45;tWITpj_mTIQ" xlink:title="LNode\n0..*\n"><path style="fill:none;stroke:#a30036;" d="M396,224C374,239 349,263 349,291 349,291 349,291 349,463 349,498 371,527 399,548"/><polygon style="fill:#a30036;stroke:#a30036;" points="396,224 403,224 406,217 399,217 396,224"/><polygon style="fill:#a30036;stroke:#a30036;" points="407,554 402,544 405,552 399,548 405,552 396,552 407,554 407,554"/><text text-anchor="middle" x="364" y="374" style="font-family:Arial;font-size:10.00;">LNode</text><text text-anchor="middle" x="364" y="386" style="font-family:Arial;font-size:10.00;">0..*</text></a></g><!-- 715004 --><g id="node13" class="node"><title>715004</title><polygon style="fill:#ffffcc;stroke:#ffffcc;" points="446,303 446,279 500,279 500,303 446,303"/><a xlink:href="platform%3A%2Fresource%2Fiec61850JAXB2%2Fsrc%2Fcom%2Fiec61850%2Fscl%2Fxsd%2Fuml%2FSCL_SHEMA_Model_as_UML.uml%23_qQkc3m4GEd&#45;tWITpj_mTIQ" xlink:title="tBay"><clipPath id="mypathfile:/D:/eclipse/configuration/org.eclipse.osgi/bundles/954/1/.cp/icons/full/obj16/Class.gif715004"><polygon points="463,283 447,283 447,299 463,299 463,283 "/></clipPath><image xlink:href="file:/D:/eclipse/configuration/org.eclipse.osgi/bundles/954/1/.cp/icons/full/obj16/Class.gif" width="16px" height="16px" preserveAspectRatio="xMidYMid meet" x="447" y="283" clip-path="url(#mypathfile:/D:/eclipse/configuration/org.eclipse.osgi/bundles/954/1/.cp/icons/full/obj16/Class.gif715004)"/><text text-anchor="middle" x="481" y="295" style="font-family:Arial;font-size:13.00;">tBay</text><polygon style="fill:none;stroke:#a30036;" points="446,303 446,279 500,279 500,303 446,303"/></a></g><!-- 3222039&#45;&gt;715004 --><g id="edge20" class="edge"><title>3222039&#45;&gt;715004</title><a xlink:href="platform%3A%2Fresource%2Fiec61850JAXB2%2Fsrc%2Fcom%2Fiec61850%2Fscl%2Fxsd%2Fuml%2FSCL_SHEMA_Model_as_UML.uml%23_qQkc3W4GEd&#45;tWITpj_mTIQ" xlink:title="Bay\n1..*\n"><path style="fill:none;stroke:#a30036;" d="M440,228C446,241 455,257 462,270"/><polygon style="fill:#a30036;stroke:#a30036;" points="440,228 440,220 434,217 433,224 440,228"/><polygon style="fill:#a30036;stroke:#a30036;" points="467,279 466,268 466,276 462,270 466,276 458,272 467,279 467,279"/><text text-anchor="middle" x="464" y="244" style="font-family:Arial;font-size:10.00;">Bay</text><text text-anchor="middle" x="464" y="256" style="font-family:Arial;font-size:10.00;">1..*</text></a></g><!-- 30540641&#45;&gt;32576972 --><g id="edge24" class="edge"><title>30540641&#45;&gt;32576972</title><a xlink:href="platform%3A%2Fresource%2Fiec61850JAXB2%2Fsrc%2Fcom%2Fiec61850%2Fscl%2Fxsd%2Fuml%2FSCL_SHEMA_Model_as_UML.uml%23_qQkc&#45;24GEd&#45;tWITpj_mTIQ" xlink:title="SubFunction\n0..*\n"><path style="fill:none;stroke:#a30036;" d="M564,229C564,241 564,255 564,267"/><polygon style="fill:#a30036;stroke:#a30036;" points="564,229 568,223 564,217 560,223 564,229"/><polygon style="fill:#a30036;stroke:#a30036;" points="564,277 569,267 564,274 564,267 564,274 560,267 564,277 564,277"/><text text-anchor="middle" x="592" y="244" style="font-family:Arial;font-size:10.00;">SubFunction</text><text text-anchor="middle" x="592" y="256" style="font-family:Arial;font-size:10.00;">0..*</text></a></g><!-- 30540641&#45;&gt;18464517 --><g id="edge22" class="edge"><title>30540641&#45;&gt;18464517</title><a xlink:href="platform%3A%2Fresource%2Fiec61850JAXB2%2Fsrc%2Fcom%2Fiec61850%2Fscl%2Fxsd%2Fuml%2FSCL_SHEMA_Model_as_UML.uml%23_qQbSt24GEd&#45;tWITpj_mTIQ" xlink:title="LNode\n0..*\n"><path style="fill:none;stroke:#a30036;" d="M616,216C678,230 772,257 772,291 772,291 772,291 772,463 772,533 699,568 631,585"/><polygon style="fill:#a30036;stroke:#a30036;" points="616,216 611,211 604,213 609,218 616,216"/><polygon style="fill:#a30036;stroke:#a30036;" points="621,588 632,589 624,587 631,585 624,587 629,581 621,588 621,588"/><text text-anchor="middle" x="787" y="374" style="font-family:Arial;font-size:10.00;">LNode</text><text text-anchor="middle" x="787" y="386" style="font-family:Arial;font-size:10.00;">0..*</text></a></g><!-- 715004&#45;&gt;18464517 --><g id="edge26" class="edge"><title>715004&#45;&gt;18464517</title><a xlink:href="platform%3A%2Fresource%2Fiec61850JAXB2%2Fsrc%2Fcom%2Fiec61850%2Fscl%2Fxsd%2Fuml%2FSCL_SHEMA_Model_as_UML.uml%23_qQbSt24GEd&#45;tWITpj_mTIQ" xlink:title="LNode\n0..*\n"><path style="fill:none;stroke:#a30036;" d="M456,313C430,348 387,418 409,477 415,495 425,513 437,529"/><polygon style="fill:#a30036;stroke:#a30036;" points="456,313 463,310 463,303 456,306 456,313"/><polygon style="fill:#a30036;stroke:#a30036;" points="444,537 441,527 442,535 437,529 442,535 434,532 444,537 444,537"/><text text-anchor="middle" x="422" y="416" style="font-family:Arial;font-size:10.00;">LNode</text><text text-anchor="middle" x="422" y="428" style="font-family:Arial;font-size:10.00;">0..*</text></a></g><!-- 6827366 --><g id="node14" class="node"><title>6827366</title><polygon style="fill:#ffffcc;stroke:#ffffcc;" points="435,389 435,365 593,365 593,389 435,389"/><a xlink:href="platform%3A%2Fresource%2Fiec61850JAXB2%2Fsrc%2Fcom%2Fiec61850%2Fscl%2Fxsd%2Fuml%2FSCL_SHEMA_Model_as_UML.uml%23_qQkcz24GEd&#45;tWITpj_mTIQ" xlink:title="tConductingEquipment"><clipPath id="mypathfile:/D:/eclipse/configuration/org.eclipse.osgi/bundles/954/1/.cp/icons/full/obj16/Class.gif6827366"><polygon points="452,369 436,369 436,385 452,385 452,369 "/></clipPath><image xlink:href="file:/D:/eclipse/configuration/org.eclipse.osgi/bundles/954/1/.cp/icons/full/obj16/Class.gif" width="16px" height="16px" preserveAspectRatio="xMidYMid meet" x="436" y="369" clip-path="url(#mypathfile:/D:/eclipse/configuration/org.eclipse.osgi/bundles/954/1/.cp/icons/full/obj16/Class.gif6827366)"/><text text-anchor="middle" x="522" y="381" style="font-family:Arial;font-size:13.00;">tConductingEquipment</text><polygon style="fill:none;stroke:#a30036;" points="435,389 435,365 593,365 593,389 435,389"/></a></g><!-- 715004&#45;&gt;6827366 --><g id="edge28" class="edge"><title>715004&#45;&gt;6827366</title><a xlink:href="platform%3A%2Fresource%2Fiec61850JAXB2%2Fsrc%2Fcom%2Fiec61850%2Fscl%2Fxsd%2Fuml%2FSCL_SHEMA_Model_as_UML.uml%23_qQkc4G4GEd&#45;tWITpj_mTIQ" xlink:title="ConductingEquipment\n0..*\n"><path style="fill:none;stroke:#a30036;" d="M484,314C490,327 498,343 504,356"/><polygon style="fill:#a30036;stroke:#a30036;" points="484,314 485,307 479,303 478,310 484,314"/><polygon style="fill:#a30036;stroke:#a30036;" points="508,365 508,354 507,362 504,356 507,362 500,358 508,365 508,365"/><text text-anchor="middle" x="547" y="332" style="font-family:Arial;font-size:10.00;">ConductingEquipment</text><text text-anchor="middle" x="547" y="344" style="font-family:Arial;font-size:10.00;">0..*</text></a></g><!-- 29929093 --><g id="node15" class="node"><title>29929093</title><polygon style="fill:#ffffcc;stroke:#ffffcc;" points="622,431 622,407 756,407 756,431 622,431"/><a xlink:href="platform%3A%2Fresource%2Fiec61850JAXB2%2Fsrc%2Fcom%2Fiec61850%2Fscl%2Fxsd%2Fuml%2FSCL_SHEMA_Model_as_UML.uml%23_qQkc5m4GEd&#45;tWITpj_mTIQ" xlink:title="tConnectivityNode"><clipPath id="mypathfile:/D:/eclipse/configuration/org.eclipse.osgi/bundles/954/1/.cp/icons/full/obj16/Class.gif29929093"><polygon points="639,411 623,411 623,427 639,427 639,411 "/></clipPath><image xlink:href="file:/D:/eclipse/configuration/org.eclipse.osgi/bundles/954/1/.cp/icons/full/obj16/Class.gif" width="16px" height="16px" preserveAspectRatio="xMidYMid meet" x="623" y="411" clip-path="url(#mypathfile:/D:/eclipse/configuration/org.eclipse.osgi/bundles/954/1/.cp/icons/full/obj16/Class.gif29929093)"/><text text-anchor="middle" x="698" y="423" style="font-family:Arial;font-size:13.00;">tConnectivityNode</text><polygon style="fill:none;stroke:#a30036;" points="622,431 622,407 756,407 756,431 622,431"/></a></g><!-- 715004&#45;&gt;29929093 --><g id="edge30" class="edge"><title>715004&#45;&gt;29929093</title><a xlink:href="platform%3A%2Fresource%2Fiec61850JAXB2%2Fsrc%2Fcom%2Fiec61850%2Fscl%2Fxsd%2Fuml%2FSCL_SHEMA_Model_as_UML.uml%23_qQkc5W4GEd&#45;tWITpj_mTIQ" xlink:title="ConnectivityNode\n0..*\n"><path style="fill:none;stroke:#a30036;" d="M512,304C513,305 514,305 515,305 552,316 567,304 601,323 634,341 661,376 676,399"/><polygon style="fill:#a30036;stroke:#a30036;" points="512,304 507,299 500,301 505,306 512,304"/><polygon style="fill:#a30036;stroke:#a30036;" points="681,407 680,396 679,404 676,399 679,404 672,401 681,407 681,407"/><text text-anchor="middle" x="670" y="332" style="font-family:Arial;font-size:10.00;">ConnectivityNode</text><text text-anchor="middle" x="670" y="344" style="font-family:Arial;font-size:10.00;">0..*</text></a></g><!-- 6827366&#45;&gt;20250371 --><g id="edge34" class="edge"><title>6827366&#45;&gt;20250371</title><a xlink:href="platform%3A%2Fresource%2Fiec61850JAXB2%2Fsrc%2Fcom%2Fiec61850%2Fscl%2Fxsd%2Fuml%2FSCL_SHEMA_Model_as_UML.uml%23_qQbS5W4GEd&#45;tWITpj_mTIQ" xlink:title="Terminal\n0..2\n"><path style="fill:none;stroke:#a30036;" d="M473,396C469,399 464,403 461,407 454,417 451,429 449,439"/><polygon style="fill:#a30036;stroke:#a30036;" points="473,396 480,396 483,389 476,389 473,396"/><polygon style="fill:#a30036;stroke:#a30036;" points="448,449 453,439 448,446 449,439 448,446 445,439 448,449 448,449"/><text text-anchor="middle" x="480" y="416" style="font-family:Arial;font-size:10.00;">Terminal</text><text text-anchor="middle" x="480" y="428" style="font-family:Arial;font-size:10.00;">0..2</text></a></g><!-- 6827366&#45;&gt;18464517 --><g id="edge32" class="edge"><title>6827366&#45;&gt;18464517</title><a xlink:href="platform%3A%2Fresource%2Fiec61850JAXB2%2Fsrc%2Fcom%2Fiec61850%2Fscl%2Fxsd%2Fuml%2FSCL_SHEMA_Model_as_UML.uml%23_qQbSt24GEd&#45;tWITpj_mTIQ" xlink:title="LNode\n0..*\n"><path style="fill:none;stroke:#a30036;" d="M514,401C514,431 514,483 514,527"/><polygon style="fill:#a30036;stroke:#a30036;" points="514,401 518,395 514,389 510,395 514,401"/><polygon style="fill:#a30036;stroke:#a30036;" points="514,537 519,527 514,534 514,527 514,534 510,527 514,537 514,537"/><text text-anchor="middle" x="529" y="460" style="font-family:Arial;font-size:10.00;">LNode</text><text text-anchor="middle" x="529" y="472" style="font-family:Arial;font-size:10.00;">0..*</text></a></g><!-- 10370982 --><g id="node16" class="node"><title>10370982</title><polygon style="fill:#ffffcc;stroke:#ffffcc;" points="562,475 562,451 678,451 678,475 562,475"/><a xlink:href="platform%3A%2Fresource%2Fiec61850JAXB2%2Fsrc%2Fcom%2Fiec61850%2Fscl%2Fxsd%2Fuml%2FSCL_SHEMA_Model_as_UML.uml%23_qQkcmG4GEd&#45;tWITpj_mTIQ" xlink:title="tSubEquipment"><clipPath id="mypathfile:/D:/eclipse/configuration/org.eclipse.osgi/bundles/954/1/.cp/icons/full/obj16/Class.gif10370982"><polygon points="579,455 563,455 563,471 579,471 579,455 "/></clipPath><image xlink:href="file:/D:/eclipse/configuration/org.eclipse.osgi/bundles/954/1/.cp/icons/full/obj16/Class.gif" width="16px" height="16px" preserveAspectRatio="xMidYMid meet" x="563" y="455" clip-path="url(#mypathfile:/D:/eclipse/configuration/org.eclipse.osgi/bundles/954/1/.cp/icons/full/obj16/Class.gif10370982)"/><text text-anchor="middle" x="628" y="467" style="font-family:Arial;font-size:13.00;">tSubEquipment</text><polygon style="fill:none;stroke:#a30036;" points="562,475 562,451 678,451 678,475 562,475"/></a></g><!-- 6827366&#45;&gt;10370982 --><g id="edge36" class="edge"><title>6827366&#45;&gt;10370982</title><a xlink:href="platform%3A%2Fresource%2Fiec61850JAXB2%2Fsrc%2Fcom%2Fiec61850%2Fscl%2Fxsd%2Fuml%2FSCL_SHEMA_Model_as_UML.uml%23_qQkcl24GEd&#45;tWITpj_mTIQ" xlink:title="SubEquipment\n0..*\n"><path style="fill:none;stroke:#a30036;" d="M524,400C529,411 537,423 546,431 553,438 561,443 570,447"/><polygon style="fill:#a30036;stroke:#a30036;" points="524,400 525,393 519,389 518,396 524,400"/><polygon style="fill:#a30036;stroke:#a30036;" points="579,451 572,443 576,450 570,447 576,450 568,451 579,451 579,451"/><text text-anchor="middle" x="579" y="416" style="font-family:Arial;font-size:10.00;">SubEquipment</text><text text-anchor="middle" x="579" y="428" style="font-family:Arial;font-size:10.00;">0..*</text></a></g><!-- 29929093&#45;&gt;18464517 --><g id="edge38" class="edge"><title>29929093&#45;&gt;18464517</title><a xlink:href="platform%3A%2Fresource%2Fiec61850JAXB2%2Fsrc%2Fcom%2Fiec61850%2Fscl%2Fxsd%2Fuml%2FSCL_SHEMA_Model_as_UML.uml%23_qQbSt24GEd&#45;tWITpj_mTIQ" xlink:title="LNode\n0..*\n"><path style="fill:none;stroke:#a30036;" d="M692,443C693,454 693,467 687,477 674,503 652,525 629,542"/><polygon style="fill:#a30036;stroke:#a30036;" points="692,443 695,437 691,431 688,437 692,443"/><polygon style="fill:#a30036;stroke:#a30036;" points="621,548 632,546 623,546 629,542 623,546 626,538 621,548 621,548"/><text text-anchor="middle" x="707" y="460" style="font-family:Arial;font-size:10.00;">LNode</text><text text-anchor="middle" x="707" y="472" style="font-family:Arial;font-size:10.00;">0..*</text></a></g><!-- 10370982&#45;&gt;18464517 --><g id="edge40" class="edge"><title>10370982&#45;&gt;18464517</title><a xlink:href="platform%3A%2Fresource%2Fiec61850JAXB2%2Fsrc%2Fcom%2Fiec61850%2Fscl%2Fxsd%2Fuml%2FSCL_SHEMA_Model_as_UML.uml%23_qQbSt24GEd&#45;tWITpj_mTIQ" xlink:title="LNode\n0..*\n"><path style="fill:none;stroke:#a30036;" d="M603,485C594,497 582,512 570,529"/><polygon style="fill:#a30036;stroke:#a30036;" points="604,484 610,482 611,475 604,477 604,484"/><polygon style="fill:#a30036;stroke:#a30036;" points="564,537 574,532 566,535 570,529 566,535 566,526 564,537 564,537"/><text text-anchor="middle" x="608" y="504" style="font-family:Arial;font-size:10.00;">LNode</text><text text-anchor="middle" x="608" y="516" style="font-family:Arial;font-size:10.00;">0..*</text></a></g></g></svg>