<?xml version="1.0" encoding="UTF-8" standalone="no"?><!DOCTYPE svg PUBLIC "-//W3C//DTD SVG 1.0//EN" "http://www.w3.org/TR/2001/REC-SVG-20010904/DTD/svg10.dtd" [ <!ATTLIST svg xmlns:xlink CDATA #FIXED "http://www.w3.org/1999/xlink">]><!-- Generated by dot version 2.7.20051103.0540 (Thu Nov  3 05:48:38 UTC 2005)     For user: Bill Gates --><!-- Title: uml Pages: 1 --><svg width="1050pt" height="706pt" viewBox = "0 0 1050 706" xmlns="http://www.w3.org/2000/svg" xmlns:xlink="http://www.w3.org/1999/xlink"><g id="graph0" class="graph" style="font-family:Times-Roman;font-size:14.00;"><title>uml</title><polygon style="fill:white;stroke:white;" points="-1,707 -1,-1 1051,-1 1051,707 -1,707"/><!-- 309705 --><g id="node1" class="node"><title>309705</title><a xlink:href="platform%3A%2Fresource%2Fiec61850JAXB2%2Fsrc%2Fcom%2Fiec61850%2Fscl%2Fxsd%2Fuml%2FSCL_SHEMA_Model_as_UML.uml%23_qP&#45;m624GEd&#45;tWITpj_mTIQ" xlink:title="tBaseElement"><polygon style="fill:#e0ffff;stroke:#a30036;stroke-dasharray:5,2;" points="271,195 187,195 187,221 271,221 271,195"/><text text-anchor="middle" x="229" y="212" style="font-family:Arial;font-size:11.00;">tBaseElement</text></a></g><!-- 11198769 --><g id="node12" class="node"><title>11198769</title><polygon style="fill:#ffffcc;stroke:#ffffcc;" points="203,343 203,319 255,319 255,343 203,343"/><a xlink:href="platform%3A%2Fresource%2Fiec61850JAXB2%2Fsrc%2Fcom%2Fiec61850%2Fscl%2Fxsd%2Fuml%2FSCL_SHEMA_Model_as_UML.uml%23_qS9CWW4GEd&#45;tWITpj_mTIQ" xlink:title="SCL"><clipPath id="mypathfile:/D:/eclipse/configuration/org.eclipse.osgi/bundles/954/1/.cp/icons/full/obj16/Class.gif11198769"><polygon points="220,323 204,323 204,339 220,339 220,323 "/></clipPath><image xlink:href="file:/D:/eclipse/configuration/org.eclipse.osgi/bundles/954/1/.cp/icons/full/obj16/Class.gif" width="16px" height="16px" preserveAspectRatio="xMidYMid meet" x="204" y="323" clip-path="url(#mypathfile:/D:/eclipse/configuration/org.eclipse.osgi/bundles/954/1/.cp/icons/full/obj16/Class.gif11198769)"/><text text-anchor="middle" x="237" y="335" style="font-family:Arial;font-size:13.00;">SCL</text><polygon style="fill:none;stroke:#a30036;" points="203,343 203,319 255,319 255,343 203,343"/></a></g><!-- 309705&#45;&gt;11198769 --><g id="edge2" class="edge"><title>309705&#45;&gt;11198769</title><path style="fill:none;stroke:#000080;" d="M229,237C229,263 229,300 229,319"/><polygon style="fill:none;stroke:#000080;" points="224,237 229,222 234,237 224,237"/></g><!-- 14502314 --><g id="node2" class="node"><title>14502314</title><a xlink:href="platform%3A%2Fresource%2Fiec61850JAXB2%2Fsrc%2Fcom%2Fiec61850%2Fscl%2Fxsd%2Fuml%2FSCL_SHEMA_Model_as_UML.uml%23_qQIX4G4GEd&#45;tWITpj_mTIQ" xlink:title="tHeader"><polygon style="fill:#e0ffff;stroke:#a30036;stroke-dasharray:5,2;" points="368,418 314,418 314,444 368,444 368,418"/><text text-anchor="middle" x="341" y="435" style="font-family:Arial;font-size:11.00;">tHeader</text></a></g><!-- 26286014 --><g id="node3" class="node"><title>26286014</title><a xlink:href="platform%3A%2Fresource%2Fiec61850JAXB2%2Fsrc%2Fcom%2Fiec61850%2Fscl%2Fxsd%2Fuml%2FSCL_SHEMA_Model_as_UML.uml%23_qSXMqm4GEd&#45;tWITpj_mTIQ" xlink:title="tCommunication"><polygon style="fill:#e0ffff;stroke:#a30036;stroke-dasharray:5,2;" points="99,418 5,418 5,444 99,444 99,418"/><text text-anchor="middle" x="52" y="435" style="font-family:Arial;font-size:11.00;">tCommunication</text></a></g><!-- 18444164 --><g id="node4" class="node"><title>18444164</title><a xlink:href="platform%3A%2Fresource%2Fiec61850JAXB2%2Fsrc%2Fcom%2Fiec61850%2Fscl%2Fxsd%2Fuml%2FSCL_SHEMA_Model_as_UML.uml%23_qQ3&#45;z24GEd&#45;tWITpj_mTIQ" xlink:title="tIED"><polygon style="fill:#e0ffff;stroke:#a30036;stroke-dasharray:5,2;" points="158,418 122,418 122,444 158,444 158,418"/><text text-anchor="middle" x="140" y="435" style="font-family:Arial;font-size:11.00;">tIED</text></a></g><!-- 13053967 --><g id="node5" class="node"><title>13053967</title><a xlink:href="platform%3A%2Fresource%2Fiec61850JAXB2%2Fsrc%2Fcom%2Fiec61850%2Fscl%2Fxsd%2Fuml%2FSCL_SHEMA_Model_as_UML.uml%23_qS9CQG4GEd&#45;tWITpj_mTIQ" xlink:title="tDataTypeTemplates"><polygon style="fill:#e0ffff;stroke:#a30036;stroke-dasharray:5,2;" points="292,418 176,418 176,444 292,444 292,418"/><text text-anchor="middle" x="234" y="435" style="font-family:Arial;font-size:11.00;">tDataTypeTemplates</text></a></g><!-- 32576972 --><g id="node6" class="node"><title>32576972</title><a xlink:href="platform%3A%2Fresource%2Fiec61850JAXB2%2Fsrc%2Fcom%2Fiec61850%2Fscl%2Fxsd%2Fuml%2FSCL_SHEMA_Model_as_UML.uml%23_qQkc_G4GEd&#45;tWITpj_mTIQ" xlink:title="tSubFunction"><polygon style="fill:#e0ffff;stroke:#a30036;stroke-dasharray:5,2;" points="605,590 525,590 525,616 605,616 605,590"/><text text-anchor="middle" x="565" y="607" style="font-family:Arial;font-size:11.00;">tSubFunction</text></a></g><!-- 10118430 --><g id="node7" class="node"><title>10118430</title><a xlink:href="platform%3A%2Fresource%2Fiec61850JAXB2%2Fsrc%2Fcom%2Fiec61850%2Fscl%2Fxsd%2Fuml%2FSCL_SHEMA_Model_as_UML.uml%23_qQIX0m4GEd&#45;tWITpj_mTIQ" xlink:title="tNaming"><polygon style="fill:#e0ffff;stroke:#a30036;stroke-dasharray:5,2;" points="831,6 775,6 775,32 831,32 831,6"/><text text-anchor="middle" x="803" y="23" style="font-family:Arial;font-size:11.00;">tNaming</text></a></g><!-- 8227208 --><g id="node19" class="node"><title>8227208</title><polygon style="fill:#ffffcc;stroke:#ffffcc;" points="741,97 741,73 865,73 865,97 741,97"/><a xlink:href="platform%3A%2Fresource%2Fiec61850JAXB2%2Fsrc%2Fcom%2Fiec61850%2Fscl%2Fxsd%2Fuml%2FSCL_SHEMA_Model_as_UML.uml%23_qQbStW4GEd&#45;tWITpj_mTIQ" xlink:title="tLNodeContainer"><clipPath id="mypathfile:/D:/eclipse/configuration/org.eclipse.osgi/bundles/954/1/.cp/icons/full/obj16/Class.gif8227208"><polygon points="758,77 742,77 742,93 758,93 758,77 "/></clipPath><image xlink:href="file:/D:/eclipse/configuration/org.eclipse.osgi/bundles/954/1/.cp/icons/full/obj16/Class.gif" width="16px" height="16px" preserveAspectRatio="xMidYMid meet" x="742" y="77" clip-path="url(#mypathfile:/D:/eclipse/configuration/org.eclipse.osgi/bundles/954/1/.cp/icons/full/obj16/Class.gif8227208)"/><text text-anchor="middle" x="811" y="89" style="font-family:ArialI;font-size:13.00;">tLNodeContainer</text><polygon style="fill:none;stroke:#a30036;" points="741,97 741,73 865,73 865,97 741,97"/></a></g><!-- 10118430&#45;&gt;8227208 --><g id="edge16" class="edge"><title>10118430&#45;&gt;8227208</title><path style="fill:none;stroke:#000080;" d="M803,48C803,57 803,66 803,73"/><polygon style="fill:none;stroke:#000080;" points="798,48 803,33 808,48 798,48"/></g><!-- 28671960 --><g id="node8" class="node"><title>28671960</title><a xlink:href="platform%3A%2Fresource%2Fiec61850JAXB2%2Fsrc%2Fcom%2Fiec61850%2Fscl%2Fxsd%2Fuml%2FSCL_SHEMA_Model_as_UML.uml%23_qQIXz24GEd&#45;tWITpj_mTIQ" xlink:title="tUnNaming"><polygon style="fill:#e0ffff;stroke:#a30036;stroke-dasharray:5,2;" points="973,72 903,72 903,98 973,98 973,72"/><text text-anchor="middle" x="938" y="89" style="font-family:Arial;font-size:11.00;">tUnNaming</text></a></g><!-- 18464517 --><g id="node22" class="node"><title>18464517</title><polygon style="fill:#ffffcc;stroke:#ffffcc;" points="831,257 831,159 1045,159 1045,257 831,257"/><a xlink:href="platform%3A%2Fresource%2Fiec61850JAXB2%2Fsrc%2Fcom%2Fiec61850%2Fscl%2Fxsd%2Fuml%2FSCL_SHEMA_Model_as_UML.uml%23_qQbSuG4GEd&#45;tWITpj_mTIQ" xlink:title="tLNode"><clipPath id="mypathfile:/D:/eclipse/configuration/org.eclipse.osgi/bundles/954/1/.cp/icons/full/obj16/Class.gif18464517"><polygon points="848,162 832,162 832,179 848,179 848,162 "/></clipPath><image xlink:href="file:/D:/eclipse/configuration/org.eclipse.osgi/bundles/954/1/.cp/icons/full/obj16/Class.gif" width="16px" height="17px" preserveAspectRatio="xMidYMid meet" x="832" y="162" clip-path="url(#mypathfile:/D:/eclipse/configuration/org.eclipse.osgi/bundles/954/1/.cp/icons/full/obj16/Class.gif18464517)"/><text text-anchor="middle" x="947" y="175" style="font-family:Arial;font-size:13.00;">tLNode</text><polygon style="fill:none;stroke:#a30036;" points="831,182 831,159 1045,159 1045,182 831,182"/></a><a xlink:href="platform%3A%2Fresource%2Fiec61850JAXB2%2Fsrc%2Fcom%2Fiec61850%2Fscl%2Fxsd%2Fuml%2FSCL_SHEMA_Model_as_UML.uml%23_qQbSum4GEd&#45;tWITpj_mTIQ" xlink:title="lnInst"><text text-anchor="middle" x="919" y="193" style="font-family:Arial;font-size:11.00;">«attribute» lnInst : tAnyName [0..1]</text></a><a xlink:href="platform%3A%2Fresource%2Fiec61850JAXB2%2Fsrc%2Fcom%2Fiec61850%2Fscl%2Fxsd%2Fuml%2FSCL_SHEMA_Model_as_UML.uml%23_qQbSvm4GEd&#45;tWITpj_mTIQ" xlink:title="lnClass"><text text-anchor="middle" x="921" y="205" style="font-family:Arial;font-size:11.00;">«attribute» lnClass : tLNClassEnum</text></a><a xlink:href="platform%3A%2Fresource%2Fiec61850JAXB2%2Fsrc%2Fcom%2Fiec61850%2Fscl%2Fxsd%2Fuml%2FSCL_SHEMA_Model_as_UML.uml%23_qQbSwm4GEd&#45;tWITpj_mTIQ" xlink:title="iedName"><text text-anchor="middle" x="938" y="217" style="font-family:Arial;font-size:11.00;">«attribute» iedName : tName [0..1] = None</text></a><a xlink:href="platform%3A%2Fresource%2Fiec61850JAXB2%2Fsrc%2Fcom%2Fiec61850%2Fscl%2Fxsd%2Fuml%2FSCL_SHEMA_Model_as_UML.uml%23_qQbSx24GEd&#45;tWITpj_mTIQ" xlink:title="ldInst"><text text-anchor="middle" x="919" y="229" style="font-family:Arial;font-size:11.00;">«attribute» ldInst : tAnyName [0..1]</text></a><a xlink:href="platform%3A%2Fresource%2Fiec61850JAXB2%2Fsrc%2Fcom%2Fiec61850%2Fscl%2Fxsd%2Fuml%2FSCL_SHEMA_Model_as_UML.uml%23_qQbSy24GEd&#45;tWITpj_mTIQ" xlink:title="prefix"><text text-anchor="middle" x="920" y="241" style="font-family:Arial;font-size:11.00;">«attribute» prefix : tAnyName [0..1]</text></a><a xlink:href="platform%3A%2Fresource%2Fiec61850JAXB2%2Fsrc%2Fcom%2Fiec61850%2Fscl%2Fxsd%2Fuml%2FSCL_SHEMA_Model_as_UML.uml%23_qQbSz24GEd&#45;tWITpj_mTIQ" xlink:title="lnType"><text text-anchor="middle" x="913" y="253" style="font-family:Arial;font-size:11.00;">«attribute» lnType : tName [0..1]</text></a><polygon style="fill:none;stroke:#a30036;" points="831,257 831,182 1045,182 1045,257 831,257"/></g><!-- 28671960&#45;&gt;18464517 --><g id="edge22" class="edge"><title>28671960&#45;&gt;18464517</title><path style="fill:none;stroke:#000080;" d="M938,114C938,127 938,144 938,159"/><polygon style="fill:none;stroke:#000080;" points="933,114 938,99 943,114 933,114"/></g><!-- 22119243 --><g id="node9" class="node"><title>22119243</title><a xlink:href="platform%3A%2Fresource%2Fiec61850JAXB2%2Fsrc%2Fcom%2Fiec61850%2Fscl%2Fxsd%2Fuml%2FSCL_SHEMA_Model_as_UML.uml%23_qQbS3W4GEd&#45;tWITpj_mTIQ" xlink:title="tEquipment"><polygon style="fill:#e0ffff;stroke:#a30036;stroke-dasharray:5,2;" points="431,72 361,72 361,98 431,98 431,72"/><text text-anchor="middle" x="396" y="89" style="font-family:Arial;font-size:11.00;">tEquipment</text></a></g><!-- 22756271 --><g id="node23" class="node"><title>22756271</title><polygon style="fill:#ffffcc;stroke:#ffffcc;" points="294,220 294,196 498,196 498,220 294,220"/><a xlink:href="platform%3A%2Fresource%2Fiec61850JAXB2%2Fsrc%2Fcom%2Fiec61850%2Fscl%2Fxsd%2Fuml%2FSCL_SHEMA_Model_as_UML.uml%23_qQbS424GEd&#45;tWITpj_mTIQ" xlink:title="tAbstractConductingEquipment"><clipPath id="mypathfile:/D:/eclipse/configuration/org.eclipse.osgi/bundles/954/1/.cp/icons/full/obj16/Class.gif22756271"><polygon points="311,200 295,200 295,216 311,216 311,200 "/></clipPath><image xlink:href="file:/D:/eclipse/configuration/org.eclipse.osgi/bundles/954/1/.cp/icons/full/obj16/Class.gif" width="16px" height="16px" preserveAspectRatio="xMidYMid meet" x="295" y="200" clip-path="url(#mypathfile:/D:/eclipse/configuration/org.eclipse.osgi/bundles/954/1/.cp/icons/full/obj16/Class.gif22756271)"/><text text-anchor="middle" x="404" y="212" style="font-family:ArialI;font-size:13.00;">tAbstractConductingEquipment</text><polygon style="fill:none;stroke:#a30036;" points="294,220 294,196 498,196 498,220 294,220"/></a></g><!-- 22119243&#45;&gt;22756271 --><g id="edge24" class="edge"><title>22119243&#45;&gt;22756271</title><path style="fill:none;stroke:#000080;" d="M396,114C396,140 396,177 396,196"/><polygon style="fill:none;stroke:#000080;" points="391,114 396,99 401,114 391,114"/></g><!-- 20250371 --><g id="node10" class="node"><title>20250371</title><a xlink:href="platform%3A%2Fresource%2Fiec61850JAXB2%2Fsrc%2Fcom%2Fiec61850%2Fscl%2Fxsd%2Fuml%2FSCL_SHEMA_Model_as_UML.uml%23_qQbS5m4GEd&#45;tWITpj_mTIQ" xlink:title="tTerminal"><polygon style="fill:#e0ffff;stroke:#a30036;stroke-dasharray:5,2;" points="368,318 308,318 308,344 368,344 368,318"/><text text-anchor="middle" x="338" y="335" style="font-family:Arial;font-size:11.00;">tTerminal</text></a></g><!-- 17315993 --><g id="node11" class="node"><title>17315993</title><a xlink:href="platform%3A%2Fresource%2Fiec61850JAXB2%2Fsrc%2Fcom%2Fiec61850%2Fscl%2Fxsd%2Fuml%2FSCL_SHEMA_Model_as_UML.uml%23_qS9CeG4GEd&#45;tWITpj_mTIQ" xlink:title="_GlobalElements"><polygon style="fill:#e0ffff;stroke:#a30036;stroke-dasharray:5,2;" points="949,6 849,6 849,32 949,32 949,6"/><text text-anchor="middle" x="899" y="23" style="font-family:Arial;font-size:11.00;">_GlobalElements</text></a></g><!-- 11198769&#45;&gt;14502314 --><g id="edge28" class="edge"><title>11198769&#45;&gt;14502314</title><a xlink:href="platform%3A%2Fresource%2Fiec61850JAXB2%2Fsrc%2Fcom%2Fiec61850%2Fscl%2Fxsd%2Fuml%2FSCL_SHEMA_Model_as_UML.uml%23_qS9CW24GEd&#45;tWITpj_mTIQ" xlink:title="Header\n1..1\n"><path style="fill:none;stroke:#a30036;" d="M267,337C285,341 305,349 319,363 331,375 337,393 339,407"/><polygon style="fill:#a30036;stroke:#a30036;" points="267,337 262,332 255,334 260,339 267,337"/><polygon style="fill:#a30036;stroke:#a30036;" points="340,417 343,407 340,414 339,407 340,414 335,407 340,417 340,417"/><text text-anchor="middle" x="355" y="378" style="font-family:Arial;font-size:10.00;">Header</text><text text-anchor="middle" x="355" y="390" style="font-family:Arial;font-size:10.00;">1..1</text></a></g><!-- 11198769&#45;&gt;26286014 --><g id="edge32" class="edge"><title>11198769&#45;&gt;26286014</title><a xlink:href="platform%3A%2Fresource%2Fiec61850JAXB2%2Fsrc%2Fcom%2Fiec61850%2Fscl%2Fxsd%2Fuml%2FSCL_SHEMA_Model_as_UML.uml%23_qS9CZm4GEd&#45;tWITpj_mTIQ" xlink:title="&#171;element&#187; \nCommunication\n0..1\n"><path style="fill:none;stroke:#a30036;" d="M191,335C152,340 96,349 79,363 66,374 60,393 56,407"/><polygon style="fill:#a30036;stroke:#a30036;" points="191,335 197,338 203,334 197,331 191,335"/><polygon style="fill:#a30036;stroke:#a30036;" points="54,417 60,408 55,414 56,407 55,414 52,406 54,417 54,417"/><text text-anchor="middle" x="121" y="372" style="font-family:Arial;font-size:10.00;">&#171;element&#187; </text><text text-anchor="middle" x="121" y="384" style="font-family:Arial;font-size:10.00;">Communication</text><text text-anchor="middle" x="121" y="396" style="font-family:Arial;font-size:10.00;">0..1</text></a></g><!-- 11198769&#45;&gt;18444164 --><g id="edge34" class="edge"><title>11198769&#45;&gt;18444164</title><a xlink:href="platform%3A%2Fresource%2Fiec61850JAXB2%2Fsrc%2Fcom%2Fiec61850%2Fscl%2Fxsd%2Fuml%2FSCL_SHEMA_Model_as_UML.uml%23_qS9CbG4GEd&#45;tWITpj_mTIQ" xlink:title="&#171;element&#187; \nIED\n0..*\n"><path style="fill:none;stroke:#a30036;" d="M192,349C186,353 180,358 175,363 163,376 154,394 149,407"/><polygon style="fill:#a30036;stroke:#a30036;" points="192,349 200,349 203,343 196,342 192,349"/><polygon style="fill:#a30036;stroke:#a30036;" points="145,417 153,409 146,414 149,408 146,414 145,406 145,417 145,417"/><text text-anchor="middle" x="204" y="372" style="font-family:Arial;font-size:10.00;">&#171;element&#187; </text><text text-anchor="middle" x="204" y="384" style="font-family:Arial;font-size:10.00;">IED</text><text text-anchor="middle" x="204" y="396" style="font-family:Arial;font-size:10.00;">0..*</text></a></g><!-- 11198769&#45;&gt;13053967 --><g id="edge36" class="edge"><title>11198769&#45;&gt;13053967</title><a xlink:href="platform%3A%2Fresource%2Fiec61850JAXB2%2Fsrc%2Fcom%2Fiec61850%2Fscl%2Fxsd%2Fuml%2FSCL_SHEMA_Model_as_UML.uml%23_qS9Ccm4GEd&#45;tWITpj_mTIQ" xlink:title="&#171;element&#187; \nDataTypeTemplates\n0..1\n"><path style="fill:none;stroke:#a30036;" d="M229,355C229,369 229,385 230,399 230,402 230,404 230,407"/><polygon style="fill:#a30036;stroke:#a30036;" points="229,355 233,349 229,343 225,349 229,355"/><polygon style="fill:#a30036;stroke:#a30036;" points="232,417 234,406 231,414 230,407 231,414 226,408 232,417 232,417"/><text text-anchor="middle" x="275" y="372" style="font-family:Arial;font-size:10.00;">&#171;element&#187; </text><text text-anchor="middle" x="275" y="384" style="font-family:Arial;font-size:10.00;">DataTypeTemplates</text><text text-anchor="middle" x="275" y="396" style="font-family:Arial;font-size:10.00;">0..1</text></a></g><!-- 11276402 --><g id="node13" class="node"><title>11276402</title><polygon style="fill:#ffffcc;stroke:#ffffcc;" points="598,443 598,419 690,419 690,443 598,443"/><a xlink:href="platform%3A%2Fresource%2Fiec61850JAXB2%2Fsrc%2Fcom%2Fiec61850%2Fscl%2Fxsd%2Fuml%2FSCL_SHEMA_Model_as_UML.uml%23_qQkc1W4GEd&#45;tWITpj_mTIQ" xlink:title="tSubstation"><clipPath id="mypathfile:/D:/eclipse/configuration/org.eclipse.osgi/bundles/954/1/.cp/icons/full/obj16/Class.gif11276402"><polygon points="615,423 599,423 599,439 615,439 615,423 "/></clipPath><image xlink:href="file:/D:/eclipse/configuration/org.eclipse.osgi/bundles/954/1/.cp/icons/full/obj16/Class.gif" width="16px" height="16px" preserveAspectRatio="xMidYMid meet" x="599" y="423" clip-path="url(#mypathfile:/D:/eclipse/configuration/org.eclipse.osgi/bundles/954/1/.cp/icons/full/obj16/Class.gif11276402)"/><text text-anchor="middle" x="652" y="435" style="font-family:Arial;font-size:13.00;">tSubstation</text><polygon style="fill:none;stroke:#a30036;" points="598,443 598,419 690,419 690,443 598,443"/></a></g><!-- 11198769&#45;&gt;11276402 --><g id="edge30" class="edge"><title>11198769&#45;&gt;11276402</title><a xlink:href="platform%3A%2Fresource%2Fiec61850JAXB2%2Fsrc%2Fcom%2Fiec61850%2Fscl%2Fxsd%2Fuml%2FSCL_SHEMA_Model_as_UML.uml%23_qS9CYG4GEd&#45;tWITpj_mTIQ" xlink:title="&#171;element&#187; \nSubstation\n0..*\n"><path style="fill:none;stroke:#a30036;" d="M267,339C296,345 338,354 375,363 449,381 533,402 588,416"/><polygon style="fill:#a30036;stroke:#a30036;" points="267,339 262,334 255,336 260,341 267,339"/><polygon style="fill:#a30036;stroke:#a30036;" points="598,419 590,412 595,418 588,416 595,418 587,420 598,419 598,419"/><text text-anchor="middle" x="535" y="372" style="font-family:Arial;font-size:10.00;">&#171;element&#187; </text><text text-anchor="middle" x="535" y="384" style="font-family:Arial;font-size:10.00;">Substation</text><text text-anchor="middle" x="535" y="396" style="font-family:Arial;font-size:10.00;">0..*</text></a></g><!-- 3222039 --><g id="node15" class="node"><title>3222039</title><polygon style="fill:#ffffcc;stroke:#ffffcc;" points="631,529 631,505 737,505 737,529 631,529"/><a xlink:href="platform%3A%2Fresource%2Fiec61850JAXB2%2Fsrc%2Fcom%2Fiec61850%2Fscl%2Fxsd%2Fuml%2FSCL_SHEMA_Model_as_UML.uml%23_qQkc2G4GEd&#45;tWITpj_mTIQ" xlink:title="tVoltageLevel"><clipPath id="mypathfile:/D:/eclipse/configuration/org.eclipse.osgi/bundles/954/1/.cp/icons/full/obj16/Class.gif3222039"><polygon points="648,509 632,509 632,525 648,525 648,509 "/></clipPath><image xlink:href="file:/D:/eclipse/configuration/org.eclipse.osgi/bundles/954/1/.cp/icons/full/obj16/Class.gif" width="16px" height="16px" preserveAspectRatio="xMidYMid meet" x="632" y="509" clip-path="url(#mypathfile:/D:/eclipse/configuration/org.eclipse.osgi/bundles/954/1/.cp/icons/full/obj16/Class.gif3222039)"/><text text-anchor="middle" x="692" y="521" style="font-family:Arial;font-size:13.00;">tVoltageLevel</text><polygon style="fill:none;stroke:#a30036;" points="631,529 631,505 737,505 737,529 631,529"/></a></g><!-- 11276402&#45;&gt;3222039 --><g id="edge38" class="edge"><title>11276402&#45;&gt;3222039</title><a xlink:href="platform%3A%2Fresource%2Fiec61850JAXB2%2Fsrc%2Fcom%2Fiec61850%2Fscl%2Fxsd%2Fuml%2FSCL_SHEMA_Model_as_UML.uml%23_qQkc124GEd&#45;tWITpj_mTIQ" xlink:title="VoltageLevel\n1..*\n"><path style="fill:none;stroke:#a30036;" d="M645,455C646,465 648,477 653,487 655,491 657,494 660,498"/><polygon style="fill:#a30036;stroke:#a30036;" points="645,455 648,449 644,443 641,449 645,455"/><polygon style="fill:#a30036;stroke:#a30036;" points="667,505 663,495 665,503 660,498 665,503 657,501 667,505 667,505"/><text text-anchor="middle" x="683" y="472" style="font-family:Arial;font-size:10.00;">VoltageLevel</text><text text-anchor="middle" x="683" y="484" style="font-family:Arial;font-size:10.00;">1..*</text></a></g><!-- 30540641 --><g id="node16" class="node"><title>30540641</title><polygon style="fill:#ffffcc;stroke:#ffffcc;" points="525,529 525,505 605,505 605,529 525,529"/><a xlink:href="platform%3A%2Fresource%2Fiec61850JAXB2%2Fsrc%2Fcom%2Fiec61850%2Fscl%2Fxsd%2Fuml%2FSCL_SHEMA_Model_as_UML.uml%23_qQkc&#45;W4GEd&#45;tWITpj_mTIQ" xlink:title="tFunction"><clipPath id="mypathfile:/D:/eclipse/configuration/org.eclipse.osgi/bundles/954/1/.cp/icons/full/obj16/Class.gif30540641"><polygon points="542,509 526,509 526,525 542,525 542,509 "/></clipPath><image xlink:href="file:/D:/eclipse/configuration/org.eclipse.osgi/bundles/954/1/.cp/icons/full/obj16/Class.gif" width="16px" height="16px" preserveAspectRatio="xMidYMid meet" x="526" y="509" clip-path="url(#mypathfile:/D:/eclipse/configuration/org.eclipse.osgi/bundles/954/1/.cp/icons/full/obj16/Class.gif30540641)"/><text text-anchor="middle" x="573" y="521" style="font-family:Arial;font-size:13.00;">tFunction</text><polygon style="fill:none;stroke:#a30036;" points="525,529 525,505 605,505 605,529 525,529"/></a></g><!-- 11276402&#45;&gt;30540641 --><g id="edge40" class="edge"><title>11276402&#45;&gt;30540641</title><a xlink:href="platform%3A%2Fresource%2Fiec61850JAXB2%2Fsrc%2Fcom%2Fiec61850%2Fscl%2Fxsd%2Fuml%2FSCL_SHEMA_Model_as_UML.uml%23_qQkc&#45;G4GEd&#45;tWITpj_mTIQ" xlink:title="Function\n0..*\n"><path style="fill:none;stroke:#a30036;" d="M614,450C609,454 604,459 600,463 591,473 582,486 576,496"/><polygon style="fill:#a30036;stroke:#a30036;" points="614,450 621,450 624,443 617,443 614,450"/><polygon style="fill:#a30036;stroke:#a30036;" points="571,505 580,498 572,502 576,496 572,502 572,494 571,505 571,505"/><text text-anchor="middle" x="619" y="472" style="font-family:Arial;font-size:10.00;">Function</text><text text-anchor="middle" x="619" y="484" style="font-family:Arial;font-size:10.00;">0..*</text></a></g><!-- 14104522 --><g id="node14" class="node"><title>14104522</title><polygon style="fill:#ffffcc;stroke:#ffffcc;" points="617,343 617,319 765,319 765,343 617,343"/><a xlink:href="platform%3A%2Fresource%2Fiec61850JAXB2%2Fsrc%2Fcom%2Fiec61850%2Fscl%2Fxsd%2Fuml%2FSCL_SHEMA_Model_as_UML.uml%23_qQbS2W4GEd&#45;tWITpj_mTIQ" xlink:title="tEquipmentContainer"><clipPath id="mypathfile:/D:/eclipse/configuration/org.eclipse.osgi/bundles/954/1/.cp/icons/full/obj16/Class.gif14104522"><polygon points="634,323 618,323 618,339 634,339 634,323 "/></clipPath><image xlink:href="file:/D:/eclipse/configuration/org.eclipse.osgi/bundles/954/1/.cp/icons/full/obj16/Class.gif" width="16px" height="16px" preserveAspectRatio="xMidYMid meet" x="618" y="323" clip-path="url(#mypathfile:/D:/eclipse/configuration/org.eclipse.osgi/bundles/954/1/.cp/icons/full/obj16/Class.gif14104522)"/><text text-anchor="middle" x="699" y="335" style="font-family:ArialI;font-size:13.00;">tEquipmentContainer</text><polygon style="fill:none;stroke:#a30036;" points="617,343 617,319 765,319 765,343 617,343"/></a></g><!-- 14104522&#45;&gt;11276402 --><g id="edge4" class="edge"><title>14104522&#45;&gt;11276402</title><path style="fill:none;stroke:#000080;" d="M679,357C670,377 657,404 650,419"/><polygon style="fill:none;stroke:#000080;" points="674,355 685,343 684,359 674,355"/></g><!-- 14104522&#45;&gt;3222039 --><g id="edge8" class="edge"><title>14104522&#45;&gt;3222039</title><path style="fill:none;stroke:#000080;" d="M703,357C715,389 730,444 713,487 710,494 705,500 700,505"/><polygon style="fill:none;stroke:#000080;" points="698,359 697,343 708,355 698,359"/></g><!-- 715004 --><g id="node18" class="node"><title>715004</title><polygon style="fill:#ffffcc;stroke:#ffffcc;" points="666,615 666,591 720,591 720,615 666,615"/><a xlink:href="platform%3A%2Fresource%2Fiec61850JAXB2%2Fsrc%2Fcom%2Fiec61850%2Fscl%2Fxsd%2Fuml%2FSCL_SHEMA_Model_as_UML.uml%23_qQkc3m4GEd&#45;tWITpj_mTIQ" xlink:title="tBay"><clipPath id="mypathfile:/D:/eclipse/configuration/org.eclipse.osgi/bundles/954/1/.cp/icons/full/obj16/Class.gif715004"><polygon points="683,595 667,595 667,611 683,611 683,595 "/></clipPath><image xlink:href="file:/D:/eclipse/configuration/org.eclipse.osgi/bundles/954/1/.cp/icons/full/obj16/Class.gif" width="16px" height="16px" preserveAspectRatio="xMidYMid meet" x="667" y="595" clip-path="url(#mypathfile:/D:/eclipse/configuration/org.eclipse.osgi/bundles/954/1/.cp/icons/full/obj16/Class.gif715004)"/><text text-anchor="middle" x="701" y="607" style="font-family:Arial;font-size:13.00;">tBay</text><polygon style="fill:none;stroke:#a30036;" points="666,615 666,591 720,591 720,615 666,615"/></a></g><!-- 14104522&#45;&gt;715004 --><g id="edge14" class="edge"><title>14104522&#45;&gt;715004</title><path style="fill:none;stroke:#000080;" d="M716,355C718,357 720,360 722,363 756,430 768,459 746,529 738,554 718,577 705,591"/><polygon style="fill:none;stroke:#000080;" points="712,358 706,343 720,351 712,358"/></g><!-- 3222039&#45;&gt;715004 --><g id="edge42" class="edge"><title>3222039&#45;&gt;715004</title><a xlink:href="platform%3A%2Fresource%2Fiec61850JAXB2%2Fsrc%2Fcom%2Fiec61850%2Fscl%2Fxsd%2Fuml%2FSCL_SHEMA_Model_as_UML.uml%23_qQkc3W4GEd&#45;tWITpj_mTIQ" xlink:title="Bay\n1..*\n"><path style="fill:none;stroke:#a30036;" d="M686,541C688,554 689,569 691,581"/><polygon style="fill:#a30036;stroke:#a30036;" points="686,541 689,535 685,529 682,535 686,541"/><polygon style="fill:#a30036;stroke:#a30036;" points="692,591 695,581 692,588 691,581 692,588 687,581 692,591 692,591"/><text text-anchor="middle" x="697" y="556" style="font-family:Arial;font-size:10.00;">Bay</text><text text-anchor="middle" x="697" y="568" style="font-family:Arial;font-size:10.00;">1..*</text></a></g><!-- 30540641&#45;&gt;32576972 --><g id="edge44" class="edge"><title>30540641&#45;&gt;32576972</title><a xlink:href="platform%3A%2Fresource%2Fiec61850JAXB2%2Fsrc%2Fcom%2Fiec61850%2Fscl%2Fxsd%2Fuml%2FSCL_SHEMA_Model_as_UML.uml%23_qQkc&#45;24GEd&#45;tWITpj_mTIQ" xlink:title="SubFunction\n0..*\n"><path style="fill:none;stroke:#a30036;" d="M565,541C565,553 565,567 565,579"/><polygon style="fill:#a30036;stroke:#a30036;" points="565,541 569,535 565,529 561,535 565,541"/><polygon style="fill:#a30036;stroke:#a30036;" points="565,589 570,579 565,586 565,579 565,586 561,579 565,589 565,589"/><text text-anchor="middle" x="593" y="556" style="font-family:Arial;font-size:10.00;">SubFunction</text><text text-anchor="middle" x="593" y="568" style="font-family:Arial;font-size:10.00;">0..*</text></a></g><!-- 8854053 --><g id="node17" class="node"><title>8854053</title><polygon style="fill:#ffffcc;stroke:#ffffcc;" points="578,220 578,196 744,196 744,220 578,220"/><a xlink:href="platform%3A%2Fresource%2Fiec61850JAXB2%2Fsrc%2Fcom%2Fiec61850%2Fscl%2Fxsd%2Fuml%2FSCL_SHEMA_Model_as_UML.uml%23_qQbS124GEd&#45;tWITpj_mTIQ" xlink:title="tPowerSystemResource"><clipPath id="mypathfile:/D:/eclipse/configuration/org.eclipse.osgi/bundles/954/1/.cp/icons/full/obj16/Class.gif8854053"><polygon points="595,200 579,200 579,216 595,216 595,200 "/></clipPath><image xlink:href="file:/D:/eclipse/configuration/org.eclipse.osgi/bundles/954/1/.cp/icons/full/obj16/Class.gif" width="16px" height="16px" preserveAspectRatio="xMidYMid meet" x="579" y="200" clip-path="url(#mypathfile:/D:/eclipse/configuration/org.eclipse.osgi/bundles/954/1/.cp/icons/full/obj16/Class.gif8854053)"/><text text-anchor="middle" x="670" y="212" style="font-family:ArialI;font-size:13.00;">tPowerSystemResource</text><polygon style="fill:none;stroke:#a30036;" points="578,220 578,196 744,196 744,220 578,220"/></a></g><!-- 8854053&#45;&gt;14104522 --><g id="edge6" class="edge"><title>8854053&#45;&gt;14104522</title><path style="fill:none;stroke:#000080;" d="M668,235C674,261 683,299 688,319"/><polygon style="fill:none;stroke:#000080;" points="663,236 664,220 673,233 663,236"/></g><!-- 8854053&#45;&gt;30540641 --><g id="edge10" class="edge"><title>8854053&#45;&gt;30540641</title><path style="fill:none;stroke:#000080;" d="M646,233C634,255 618,288 608,317 584,386 571,473 567,505"/><polygon style="fill:none;stroke:#000080;" points="642,230 654,220 651,236 642,230"/></g><!-- 10370982 --><g id="node24" class="node"><title>10370982</title><polygon style="fill:#ffffcc;stroke:#ffffcc;" points="424,343 424,319 540,319 540,343 424,343"/><a xlink:href="platform%3A%2Fresource%2Fiec61850JAXB2%2Fsrc%2Fcom%2Fiec61850%2Fscl%2Fxsd%2Fuml%2FSCL_SHEMA_Model_as_UML.uml%23_qQkcmG4GEd&#45;tWITpj_mTIQ" xlink:title="tSubEquipment"><clipPath id="mypathfile:/D:/eclipse/configuration/org.eclipse.osgi/bundles/954/1/.cp/icons/full/obj16/Class.gif10370982"><polygon points="441,323 425,323 425,339 441,339 441,323 "/></clipPath><image xlink:href="file:/D:/eclipse/configuration/org.eclipse.osgi/bundles/954/1/.cp/icons/full/obj16/Class.gif" width="16px" height="16px" preserveAspectRatio="xMidYMid meet" x="425" y="323" clip-path="url(#mypathfile:/D:/eclipse/configuration/org.eclipse.osgi/bundles/954/1/.cp/icons/full/obj16/Class.gif10370982)"/><text text-anchor="middle" x="490" y="335" style="font-family:Arial;font-size:13.00;">tSubEquipment</text><polygon style="fill:none;stroke:#a30036;" points="424,343 424,319 540,319 540,343 424,343"/></a></g><!-- 8854053&#45;&gt;10370982 --><g id="edge26" class="edge"><title>8854053&#45;&gt;10370982</title><path style="fill:none;stroke:#000080;" d="M627,228C606,241 578,259 554,275 534,290 511,307 497,319"/><polygon style="fill:none;stroke:#000080;" points="624,223 640,220 630,232 624,223"/></g><!-- 6827366 --><g id="node20" class="node"><title>6827366</title><polygon style="fill:#ffffcc;stroke:#ffffcc;" points="400,701 400,677 558,677 558,701 400,701"/><a xlink:href="platform%3A%2Fresource%2Fiec61850JAXB2%2Fsrc%2Fcom%2Fiec61850%2Fscl%2Fxsd%2Fuml%2FSCL_SHEMA_Model_as_UML.uml%23_qQkcz24GEd&#45;tWITpj_mTIQ" xlink:title="tConductingEquipment"><clipPath id="mypathfile:/D:/eclipse/configuration/org.eclipse.osgi/bundles/954/1/.cp/icons/full/obj16/Class.gif6827366"><polygon points="417,681 401,681 401,697 417,697 417,681 "/></clipPath><image xlink:href="file:/D:/eclipse/configuration/org.eclipse.osgi/bundles/954/1/.cp/icons/full/obj16/Class.gif" width="16px" height="16px" preserveAspectRatio="xMidYMid meet" x="401" y="681" clip-path="url(#mypathfile:/D:/eclipse/configuration/org.eclipse.osgi/bundles/954/1/.cp/icons/full/obj16/Class.gif6827366)"/><text text-anchor="middle" x="487" y="693" style="font-family:Arial;font-size:13.00;">tConductingEquipment</text><polygon style="fill:none;stroke:#a30036;" points="400,701 400,677 558,677 558,701 400,701"/></a></g><!-- 715004&#45;&gt;6827366 --><g id="edge46" class="edge"><title>715004&#45;&gt;6827366</title><a xlink:href="platform%3A%2Fresource%2Fiec61850JAXB2%2Fsrc%2Fcom%2Fiec61850%2Fscl%2Fxsd%2Fuml%2FSCL_SHEMA_Model_as_UML.uml%23_qQkc4G4GEd&#45;tWITpj_mTIQ" xlink:title="ConductingEquipment\n0..*\n"><path style="fill:none;stroke:#a30036;" d="M655,615C636,620 614,628 594,635 566,646 535,661 512,672"/><polygon style="fill:#a30036;stroke:#a30036;" points="655,615 662,617 666,611 659,609 655,615"/><polygon style="fill:#a30036;stroke:#a30036;" points="503,677 514,676 506,676 512,672 506,676 510,668 503,677 503,677"/><text text-anchor="middle" x="650" y="644" style="font-family:Arial;font-size:10.00;">ConductingEquipment</text><text text-anchor="middle" x="650" y="656" style="font-family:Arial;font-size:10.00;">0..*</text></a></g><!-- 29929093 --><g id="node21" class="node"><title>29929093</title><polygon style="fill:#ffffcc;stroke:#ffffcc;" points="658,701 658,677 792,677 792,701 658,701"/><a xlink:href="platform%3A%2Fresource%2Fiec61850JAXB2%2Fsrc%2Fcom%2Fiec61850%2Fscl%2Fxsd%2Fuml%2FSCL_SHEMA_Model_as_UML.uml%23_qQkc5m4GEd&#45;tWITpj_mTIQ" xlink:title="tConnectivityNode"><clipPath id="mypathfile:/D:/eclipse/configuration/org.eclipse.osgi/bundles/954/1/.cp/icons/full/obj16/Class.gif29929093"><polygon points="675,681 659,681 659,697 675,697 675,681 "/></clipPath><image xlink:href="file:/D:/eclipse/configuration/org.eclipse.osgi/bundles/954/1/.cp/icons/full/obj16/Class.gif" width="16px" height="16px" preserveAspectRatio="xMidYMid meet" x="659" y="681" clip-path="url(#mypathfile:/D:/eclipse/configuration/org.eclipse.osgi/bundles/954/1/.cp/icons/full/obj16/Class.gif29929093)"/><text text-anchor="middle" x="734" y="693" style="font-family:Arial;font-size:13.00;">tConnectivityNode</text><polygon style="fill:none;stroke:#a30036;" points="658,701 658,677 792,677 792,701 658,701"/></a></g><!-- 715004&#45;&gt;29929093 --><g id="edge48" class="edge"><title>715004&#45;&gt;29929093</title><a xlink:href="platform%3A%2Fresource%2Fiec61850JAXB2%2Fsrc%2Fcom%2Fiec61850%2Fscl%2Fxsd%2Fuml%2FSCL_SHEMA_Model_as_UML.uml%23_qQkc5W4GEd&#45;tWITpj_mTIQ" xlink:title="ConnectivityNode\n0..*\n"><path style="fill:none;stroke:#a30036;" d="M699,627C701,637 705,649 709,659 710,662 711,665 712,668"/><polygon style="fill:#a30036;stroke:#a30036;" points="699,627 701,620 696,615 694,622 699,627"/><polygon style="fill:#a30036;stroke:#a30036;" points="717,677 716,666 716,674 712,668 716,674 708,670 717,677 717,677"/><text text-anchor="middle" x="749" y="644" style="font-family:Arial;font-size:10.00;">ConnectivityNode</text><text text-anchor="middle" x="749" y="656" style="font-family:Arial;font-size:10.00;">0..*</text></a></g><!-- 8227208&#45;&gt;8854053 --><g id="edge12" class="edge"><title>8227208&#45;&gt;8854053</title><path style="fill:none;stroke:#000080;" d="M777,107C748,133 699,175 675,196"/><polygon style="fill:none;stroke:#000080;" points="774,103 789,97 781,111 774,103"/></g><!-- 8227208&#45;&gt;29929093 --><g id="edge20" class="edge"><title>8227208&#45;&gt;29929093</title><path style="fill:none;stroke:#000080;" d="M803,112C803,138 803,175 803,208 803,208 803,208 803,603 803,629 805,640 789,659 783,667 774,673 766,677"/><polygon style="fill:none;stroke:#000080;" points="798,112 803,97 808,112 798,112"/></g><!-- 8227208&#45;&gt;18464517 --><g id="edge50" class="edge"><title>8227208&#45;&gt;18464517</title><a xlink:href="platform%3A%2Fresource%2Fiec61850JAXB2%2Fsrc%2Fcom%2Fiec61850%2Fscl%2Fxsd%2Fuml%2FSCL_SHEMA_Model_as_UML.uml%23_qQbSt24GEd&#45;tWITpj_mTIQ" xlink:title="LNode\n0..*\n"><path style="fill:none;stroke:#a30036;" d="M825,105C840,118 859,135 876,152"/><polygon style="fill:#a30036;stroke:#a30036;" points="825,105 823,98 816,97 818,104 825,105"/><polygon style="fill:#a30036;stroke:#a30036;" points="884,159 879,149 882,157 876,152 882,157 874,156 884,159 884,159"/><text text-anchor="middle" x="876" y="126" style="font-family:Arial;font-size:10.00;">LNode</text><text text-anchor="middle" x="876" y="138" style="font-family:Arial;font-size:10.00;">0..*</text></a></g><!-- 22756271&#45;&gt;20250371 --><g id="edge52" class="edge"><title>22756271&#45;&gt;20250371</title><a xlink:href="platform%3A%2Fresource%2Fiec61850JAXB2%2Fsrc%2Fcom%2Fiec61850%2Fscl%2Fxsd%2Fuml%2FSCL_SHEMA_Model_as_UML.uml%23_qQbS5W4GEd&#45;tWITpj_mTIQ" xlink:title="Terminal\n0..2\n"><path style="fill:none;stroke:#a30036;" d="M375,229C363,241 350,257 343,275 339,285 338,297 337,307"/><polygon style="fill:#a30036;stroke:#a30036;" points="375,229 382,227 383,220 376,222 375,229"/><polygon style="fill:#a30036;stroke:#a30036;" points="337,317 342,307 337,314 337,307 337,314 333,307 337,317 337,317"/><text text-anchor="middle" x="366" y="284" style="font-family:Arial;font-size:10.00;">Terminal</text><text text-anchor="middle" x="366" y="296" style="font-family:Arial;font-size:10.00;">0..2</text></a></g><!-- 22756271&#45;&gt;6827366 --><g id="edge18" class="edge"><title>22756271&#45;&gt;6827366</title><path style="fill:none;stroke:#000080;" d="M396,235C396,261 396,298 396,331 396,331 396,331 396,603 396,637 430,663 454,677"/><polygon style="fill:none;stroke:#000080;" points="391,235 396,220 401,235 391,235"/></g><!-- 22756271&#45;&gt;10370982 --><g id="edge54" class="edge"><title>22756271&#45;&gt;10370982</title><a xlink:href="platform%3A%2Fresource%2Fiec61850JAXB2%2Fsrc%2Fcom%2Fiec61850%2Fscl%2Fxsd%2Fuml%2FSCL_SHEMA_Model_as_UML.uml%23_qQkcl24GEd&#45;tWITpj_mTIQ" xlink:title="SubEquipment\n0..*\n"><path style="fill:none;stroke:#a30036;" d="M409,230C421,249 437,277 454,299 457,303 460,308 464,312"/><polygon style="fill:#a30036;stroke:#a30036;" points="409,230 410,223 403,220 403,227 409,230"/><polygon style="fill:#a30036;stroke:#a30036;" points="471,319 467,309 469,317 464,312 469,317 461,315 471,319 471,319"/><text text-anchor="middle" x="488" y="284" style="font-family:Arial;font-size:10.00;">SubEquipment</text><text text-anchor="middle" x="488" y="296" style="font-family:Arial;font-size:10.00;">0..*</text></a></g></g></svg>