<?xml version="1.0" encoding="UTF-8" standalone="no"?><!DOCTYPE svg PUBLIC "-//W3C//DTD SVG 1.0//EN" "http://www.w3.org/TR/2001/REC-SVG-20010904/DTD/svg10.dtd" [ <!ATTLIST svg xmlns:xlink CDATA #FIXED "http://www.w3.org/1999/xlink">]><!-- Generated by dot version 2.7.20051103.0540 (Thu Nov  3 05:48:38 UTC 2005)     For user: Bill Gates --><!-- Title: uml Pages: 1 --><svg width="678pt" height="524pt" viewBox = "0 0 678 524" xmlns="http://www.w3.org/2000/svg" xmlns:xlink="http://www.w3.org/1999/xlink"><g id="graph0" class="graph" style="font-family:Times-Roman;font-size:14.00;"><title>uml</title><polygon style="fill:white;stroke:white;" points="-1,525 -1,-1 679,-1 679,525 -1,525"/><!-- 20656803 --><g id="node1" class="node"><title>20656803</title><a xlink:href="platform%3A%2Fresource%2FUML_SCL%2Fuml%2FSCL_XSD_en_UML.uml%23_lnb9AGuPEd&#45;T6NciM0izgg" xlink:title="tAddress"><polygon style="fill:#e0ffff;stroke:#a30036;stroke-dasharray:5,2;" points="249,462 191,462 191,488 249,488 249,462"/><text text-anchor="middle" x="220" y="479" style="font-family:Arial;font-size:11.00;">tAddress</text></a></g><!-- 32758172 --><g id="node2" class="node"><title>32758172</title><a xlink:href="platform%3A%2Fresource%2FUML_SCL%2Fuml%2FSCL_XSD_en_UML.uml%23_lnb9KGuPEd&#45;T6NciM0izgg" xlink:title="tGSE"><polygon style="fill:#e0ffff;stroke:#a30036;stroke-dasharray:5,2;" points="307,462 267,462 267,488 307,488 307,462"/><text text-anchor="middle" x="287" y="479" style="font-family:Arial;font-size:11.00;">tGSE</text></a></g><!-- 22761706 --><g id="node3" class="node"><title>22761706</title><a xlink:href="platform%3A%2Fresource%2FUML_SCL%2Fuml%2FSCL_XSD_en_UML.uml%23_lnb9NWuPEd&#45;T6NciM0izgg" xlink:title="tSMV"><polygon style="fill:#e0ffff;stroke:#a30036;stroke-dasharray:5,2;" points="367,462 325,462 325,488 367,488 367,462"/><text text-anchor="middle" x="346" y="479" style="font-family:Arial;font-size:11.00;">tSMV</text></a></g><!-- 18125681 --><g id="node4" class="node"><title>18125681</title><a xlink:href="platform%3A%2Fresource%2FUML_SCL%2Fuml%2FSCL_XSD_en_UML.uml%23_lnb9PGuPEd&#45;T6NciM0izgg" xlink:title="tPhysConn"><polygon style="fill:#e0ffff;stroke:#a30036;stroke-dasharray:5,2;" points="453,462 385,462 385,488 453,488 453,462"/><text text-anchor="middle" x="419" y="479" style="font-family:Arial;font-size:11.00;">tPhysConn</text></a></g><!-- 31228273 --><g id="node5" class="node"><title>31228273</title><polygon style="fill:#ffffcc;stroke:#ffffcc;" points="241,67 241,5 391,5 391,67 241,67"/><a xlink:href="platform%3A%2Fresource%2FUML_SCL%2Fuml%2FSCL_XSD_en_UML.uml%23_lnb9F2uPEd&#45;T6NciM0izgg" xlink:title="tCommunication"><clipPath id="mypathfile:/D:/eclipse/configuration/org.eclipse.osgi/bundles/954/1/.cp/icons/full/obj16/Class.gif31228273"><polygon points="258,8 242,8 242,25 258,25 258,8 "/></clipPath><image xlink:href="file:/D:/eclipse/configuration/org.eclipse.osgi/bundles/954/1/.cp/icons/full/obj16/Class.gif" width="16px" height="17px" preserveAspectRatio="xMidYMid meet" x="242" y="8" clip-path="url(#mypathfile:/D:/eclipse/configuration/org.eclipse.osgi/bundles/954/1/.cp/icons/full/obj16/Class.gif31228273)"/><text text-anchor="middle" x="325" y="21" style="font-family:Arial;font-size:13.00;">tCommunication</text><polygon style="fill:none;stroke:#a30036;" points="241,28 241,5 391,5 391,28 241,28"/></a><a xlink:href="platform%3A%2Fresource%2FUML_SCL%2Fuml%2FSCL_XSD_en_UML.uml%23_lkv1omuPEd&#45;T6NciM0izgg" xlink:title="wildcard"><text text-anchor="middle" x="316" y="39" style="font-family:Arial;font-size:11.00;">«any, element» wildcard [0..*]</text></a><a xlink:href="platform%3A%2Fresource%2FUML_SCL%2Fuml%2FSCL_XSD_en_UML.uml%23_lk5mgmuPEd&#45;T6NciM0izgg" xlink:title="wildcard"><text text-anchor="middle" x="304" y="51" style="font-family:Arial;font-size:11.00;">«any, attribute» wildcard</text></a><a xlink:href="platform%3A%2Fresource%2FUML_SCL%2Fuml%2FSCL_XSD_en_UML.uml%23_lk5mh2uPEd&#45;T6NciM0izgg" xlink:title="_attrGroup1"><text text-anchor="middle" x="297" y="63" style="font-family:Arial;font-size:11.00;">_attrGroup1 : agDesc</text></a><polygon style="fill:none;stroke:#a30036;" points="241,67 241,28 391,28 391,67 241,67"/></g><!-- 12144052 --><g id="node6" class="node"><title>12144052</title><polygon style="fill:#ffffcc;stroke:#ffffcc;" points="5,513 5,437 173,437 173,513 5,513"/><a xlink:href="platform%3A%2Fresource%2FUML_SCL%2Fuml%2FSCL_XSD_en_UML.uml%23_lkv1qGuPEd&#45;T6NciM0izgg" xlink:title="tText"><text text-anchor="middle" x="89" y="449" style="font-family:Arial;font-size:11.00;">«complexType» </text><clipPath id="mypathfile:/D:/eclipse/configuration/org.eclipse.osgi/bundles/954/1/.cp/icons/full/obj16/Class.gif12144052"><polygon points="22,454 6,454 6,471 22,471 22,454 "/></clipPath><image xlink:href="file:/D:/eclipse/configuration/org.eclipse.osgi/bundles/954/1/.cp/icons/full/obj16/Class.gif" width="16px" height="17px" preserveAspectRatio="xMidYMid meet" x="6" y="454" clip-path="url(#mypathfile:/D:/eclipse/configuration/org.eclipse.osgi/bundles/954/1/.cp/icons/full/obj16/Class.gif12144052)"/><text text-anchor="middle" x="97" y="467" style="font-family:Arial;font-size:13.00;">tText</text><polygon style="fill:none;stroke:#a30036;" points="5,474 5,437 173,437 173,474 5,474"/></a><a xlink:href="platform%3A%2Fresource%2FUML_SCL%2Fuml%2FSCL_XSD_en_UML.uml%23_lk5mYGuPEd&#45;T6NciM0izgg" xlink:title="wildcard"><text text-anchor="middle" x="67" y="485" style="font-family:Arial;font-size:11.00;">«any, element» wildcard</text></a><a xlink:href="platform%3A%2Fresource%2FUML_SCL%2Fuml%2FSCL_XSD_en_UML.uml%23_lk5mZWuPEd&#45;T6NciM0izgg" xlink:title="wildcard"><text text-anchor="middle" x="68" y="497" style="font-family:Arial;font-size:11.00;">«any, attribute» wildcard</text></a><a xlink:href="platform%3A%2Fresource%2FUML_SCL%2Fuml%2FSCL_XSD_en_UML.uml%23_lk5maWuPEd&#45;T6NciM0izgg" xlink:title="source"><text text-anchor="middle" x="89" y="509" style="font-family:Arial;font-size:11.00;">«attribute» source : anyURI [0..1]</text></a><polygon style="fill:none;stroke:#a30036;" points="5,513 5,474 173,474 173,513 5,513"/></g><!-- 31228273&#45;&gt;12144052 --><g id="edge2" class="edge"><title>31228273&#45;&gt;12144052</title><a xlink:href="platform%3A%2Fresource%2FUML_SCL%2Fuml%2FSCL_XSD_en_UML.uml%23_lkv1p2uPEd&#45;T6NciM0izgg" xlink:title="Text\n0..1\n"><path style="fill:none;stroke:#a30036;" d="M258,74C239,89 220,107 206,127 140,221 109,356 97,427"/><polygon style="fill:#a30036;stroke:#a30036;" points="258,74 265,74 268,67 261,67 258,74"/><polygon style="fill:#a30036;stroke:#a30036;" points="95,437 101,428 96,434 97,427 96,434 93,426 95,437 95,437"/><text text-anchor="middle" x="154" y="252" style="font-family:Arial;font-size:10.00;">Text</text><text text-anchor="middle" x="154" y="264" style="font-family:Arial;font-size:10.00;">0..1</text></a></g><!-- 9379004 --><g id="node7" class="node"><title>9379004</title><polygon style="fill:#ffffcc;stroke:#ffffcc;" points="471,519 471,431 673,431 673,519 471,519"/><a xlink:href="platform%3A%2Fresource%2FUML_SCL%2Fuml%2FSCL_XSD_en_UML.uml%23_lk5mc2uPEd&#45;T6NciM0izgg" xlink:title="tPrivate"><text text-anchor="middle" x="572" y="443" style="font-family:Arial;font-size:11.00;">«complexType» </text><clipPath id="mypathfile:/D:/eclipse/configuration/org.eclipse.osgi/bundles/954/1/.cp/icons/full/obj16/Class.gif9379004"><polygon points="488,448 472,448 472,465 488,465 488,448 "/></clipPath><image xlink:href="file:/D:/eclipse/configuration/org.eclipse.osgi/bundles/954/1/.cp/icons/full/obj16/Class.gif" width="16px" height="17px" preserveAspectRatio="xMidYMid meet" x="472" y="448" clip-path="url(#mypathfile:/D:/eclipse/configuration/org.eclipse.osgi/bundles/954/1/.cp/icons/full/obj16/Class.gif9379004)"/><text text-anchor="middle" x="580" y="461" style="font-family:Arial;font-size:13.00;">tPrivate</text><polygon style="fill:none;stroke:#a30036;" points="471,468 471,431 673,431 673,468 471,468"/></a><a xlink:href="platform%3A%2Fresource%2FUML_SCL%2Fuml%2FSCL_XSD_en_UML.uml%23_lk5mYGuPEd&#45;T6NciM0izgg" xlink:title="wildcard"><text text-anchor="middle" x="533" y="479" style="font-family:Arial;font-size:11.00;">«any, element» wildcard</text></a><a xlink:href="platform%3A%2Fresource%2FUML_SCL%2Fuml%2FSCL_XSD_en_UML.uml%23_lk5mZWuPEd&#45;T6NciM0izgg" xlink:title="wildcard"><text text-anchor="middle" x="534" y="491" style="font-family:Arial;font-size:11.00;">«any, attribute» wildcard</text></a><a xlink:href="platform%3A%2Fresource%2FUML_SCL%2Fuml%2FSCL_XSD_en_UML.uml%23_lk5mdWuPEd&#45;T6NciM0izgg" xlink:title="type"><text text-anchor="middle" x="572" y="503" style="font-family:Arial;font-size:11.00;">«attribute» type : normalizedString [0..1]</text></a><a xlink:href="platform%3A%2Fresource%2FUML_SCL%2Fuml%2FSCL_XSD_en_UML.uml%23_lk5meWuPEd&#45;T6NciM0izgg" xlink:title="source"><text text-anchor="middle" x="555" y="515" style="font-family:Arial;font-size:11.00;">«attribute» source : anyURI [0..1]</text></a><polygon style="fill:none;stroke:#a30036;" points="471,519 471,468 673,468 673,519 471,519"/></g><!-- 31228273&#45;&gt;9379004 --><g id="edge4" class="edge"><title>31228273&#45;&gt;9379004</title><a xlink:href="platform%3A%2Fresource%2FUML_SCL%2Fuml%2FSCL_XSD_en_UML.uml%23_lk5mcmuPEd&#45;T6NciM0izgg" xlink:title="Private\n0..*\n"><path style="fill:none;stroke:#a30036;" d="M369,75C388,90 409,108 426,127 480,190 490,210 523,285 541,329 555,382 562,421"/><polygon style="fill:#a30036;stroke:#a30036;" points="368,74 366,68 359,67 361,74 368,74"/><polygon style="fill:#a30036;stroke:#a30036;" points="564,431 566,420 563,428 562,421 563,428 558,422 564,431 564,431"/><text text-anchor="middle" x="529" y="252" style="font-family:Arial;font-size:10.00;">Private</text><text text-anchor="middle" x="529" y="264" style="font-family:Arial;font-size:10.00;">0..*</text></a></g><!-- 33218960 --><g id="node8" class="node"><title>33218960</title><polygon style="fill:#ffffcc;stroke:#ffffcc;" points="215,225 215,127 417,127 417,225 215,225"/><a xlink:href="platform%3A%2Fresource%2FUML_SCL%2Fuml%2FSCL_XSD_en_UML.uml%23_lnb9GmuPEd&#45;T6NciM0izgg" xlink:title="tSubNetwork"><clipPath id="mypathfile:/D:/eclipse/configuration/org.eclipse.osgi/bundles/954/1/.cp/icons/full/obj16/Class.gif33218960"><polygon points="232,130 216,130 216,147 232,147 232,130 "/></clipPath><image xlink:href="file:/D:/eclipse/configuration/org.eclipse.osgi/bundles/954/1/.cp/icons/full/obj16/Class.gif" width="16px" height="17px" preserveAspectRatio="xMidYMid meet" x="216" y="130" clip-path="url(#mypathfile:/D:/eclipse/configuration/org.eclipse.osgi/bundles/954/1/.cp/icons/full/obj16/Class.gif33218960)"/><text text-anchor="middle" x="324" y="143" style="font-family:Arial;font-size:13.00;">tSubNetwork</text><polygon style="fill:none;stroke:#a30036;" points="215,150 215,127 417,127 417,150 215,150"/></a><a xlink:href="platform%3A%2Fresource%2FUML_SCL%2Fuml%2FSCL_XSD_en_UML.uml%23_lkv1omuPEd&#45;T6NciM0izgg" xlink:title="wildcard"><text text-anchor="middle" x="290" y="161" style="font-family:Arial;font-size:11.00;">«any, element» wildcard [0..*]</text></a><a xlink:href="platform%3A%2Fresource%2FUML_SCL%2Fuml%2FSCL_XSD_en_UML.uml%23_lk5mgmuPEd&#45;T6NciM0izgg" xlink:title="wildcard"><text text-anchor="middle" x="278" y="173" style="font-family:Arial;font-size:11.00;">«any, attribute» wildcard</text></a><a xlink:href="platform%3A%2Fresource%2FUML_SCL%2Fuml%2FSCL_XSD_en_UML.uml%23_lk5mimuPEd&#45;T6NciM0izgg" xlink:title="name"><text text-anchor="middle" x="280" y="185" style="font-family:Arial;font-size:11.00;">«attribute» name : tName</text></a><a xlink:href="platform%3A%2Fresource%2FUML_SCL%2Fuml%2FSCL_XSD_en_UML.uml%23_lk5mjmuPEd&#45;T6NciM0izgg" xlink:title="_attrGroup1"><text text-anchor="middle" x="271" y="197" style="font-family:Arial;font-size:11.00;">_attrGroup1 : agDesc</text></a><a xlink:href="platform%3A%2Fresource%2FUML_SCL%2Fuml%2FSCL_XSD_en_UML.uml%23_lnb9HGuPEd&#45;T6NciM0izgg" xlink:title="BitRate"><text text-anchor="middle" x="305" y="209" style="font-family:Arial;font-size:11.00;">BitRate : tBitRateInMbPerSec [0..1]</text></a><a xlink:href="platform%3A%2Fresource%2FUML_SCL%2Fuml%2FSCL_XSD_en_UML.uml%23_lnb9VGuPEd&#45;T6NciM0izgg" xlink:title="type"><text text-anchor="middle" x="316" y="221" style="font-family:Arial;font-size:11.00;">«attribute» type : normalizedString [0..1]</text></a><polygon style="fill:none;stroke:#a30036;" points="215,225 215,150 417,150 417,225 215,225"/></g><!-- 31228273&#45;&gt;33218960 --><g id="edge6" class="edge"><title>31228273&#45;&gt;33218960</title><a xlink:href="platform%3A%2Fresource%2FUML_SCL%2Fuml%2FSCL_XSD_en_UML.uml%23_lnb9GWuPEd&#45;T6NciM0izgg" xlink:title="SubNetwork\n1..*\n"><path style="fill:none;stroke:#a30036;" d="M316,79C316,92 316,104 316,117"/><polygon style="fill:#a30036;stroke:#a30036;" points="316,79 320,73 316,67 312,73 316,79"/><polygon style="fill:#a30036;stroke:#a30036;" points="316,127 321,117 316,124 316,117 316,124 312,117 316,127 316,127"/><text text-anchor="middle" x="343" y="94" style="font-family:Arial;font-size:10.00;">SubNetwork</text><text text-anchor="middle" x="343" y="106" style="font-family:Arial;font-size:10.00;">1..*</text></a></g><!-- 33218960&#45;&gt;12144052 --><g id="edge8" class="edge"><title>33218960&#45;&gt;12144052</title><a xlink:href="platform%3A%2Fresource%2FUML_SCL%2Fuml%2FSCL_XSD_en_UML.uml%23_lkv1p2uPEd&#45;T6NciM0izgg" xlink:title="Text\n0..1\n"><path style="fill:none;stroke:#a30036;" d="M258,234C242,250 227,268 213,285 176,331 140,388 116,428"/><polygon style="fill:#a30036;stroke:#a30036;" points="258,234 265,232 266,225 259,227 258,234"/><polygon style="fill:#a30036;stroke:#a30036;" points="111,437 120,430 112,434 116,428 112,434 112,426 111,437 111,437"/><text text-anchor="middle" x="222" y="325" style="font-family:Arial;font-size:10.00;">Text</text><text text-anchor="middle" x="222" y="337" style="font-family:Arial;font-size:10.00;">0..1</text></a></g><!-- 33218960&#45;&gt;9379004 --><g id="edge10" class="edge"><title>33218960&#45;&gt;9379004</title><a xlink:href="platform%3A%2Fresource%2FUML_SCL%2Fuml%2FSCL_XSD_en_UML.uml%23_lk5mcmuPEd&#45;T6NciM0izgg" xlink:title="Private\n0..*\n"><path style="fill:none;stroke:#a30036;" d="M374,234C377,237 380,240 382,243 436,303 493,375 531,423"/><polygon style="fill:#a30036;stroke:#a30036;" points="374,234 373,227 366,225 367,232 374,234"/><polygon style="fill:#a30036;stroke:#a30036;" points="537,431 535,420 535,429 531,423 535,429 527,426 537,431 537,431"/><text text-anchor="middle" x="502" y="325" style="font-family:Arial;font-size:10.00;">Private</text><text text-anchor="middle" x="502" y="337" style="font-family:Arial;font-size:10.00;">0..*</text></a></g><!-- 4515627 --><g id="node9" class="node"><title>4515627</title><polygon style="fill:#ffffcc;stroke:#ffffcc;" points="241,371 241,285 391,285 391,371 241,371"/><a xlink:href="platform%3A%2Fresource%2FUML_SCL%2Fuml%2FSCL_XSD_en_UML.uml%23_lnb9IGuPEd&#45;T6NciM0izgg" xlink:title="tConnectedAP"><clipPath id="mypathfile:/D:/eclipse/configuration/org.eclipse.osgi/bundles/954/1/.cp/icons/full/obj16/Class.gif4515627"><polygon points="258,288 242,288 242,305 258,305 258,288 "/></clipPath><image xlink:href="file:/D:/eclipse/configuration/org.eclipse.osgi/bundles/954/1/.cp/icons/full/obj16/Class.gif" width="16px" height="17px" preserveAspectRatio="xMidYMid meet" x="242" y="288" clip-path="url(#mypathfile:/D:/eclipse/configuration/org.eclipse.osgi/bundles/954/1/.cp/icons/full/obj16/Class.gif4515627)"/><text text-anchor="middle" x="325" y="301" style="font-family:Arial;font-size:13.00;">tConnectedAP</text><polygon style="fill:none;stroke:#a30036;" points="241,308 241,285 391,285 391,308 241,308"/></a><a xlink:href="platform%3A%2Fresource%2FUML_SCL%2Fuml%2FSCL_XSD_en_UML.uml%23_lkv1omuPEd&#45;T6NciM0izgg" xlink:title="wildcard"><text text-anchor="middle" x="316" y="319" style="font-family:Arial;font-size:11.00;">«any, element» wildcard [0..*]</text></a><a xlink:href="platform%3A%2Fresource%2FUML_SCL%2Fuml%2FSCL_XSD_en_UML.uml%23_lk5mgmuPEd&#45;T6NciM0izgg" xlink:title="wildcard"><text text-anchor="middle" x="304" y="331" style="font-family:Arial;font-size:11.00;">«any, attribute» wildcard</text></a><a xlink:href="platform%3A%2Fresource%2FUML_SCL%2Fuml%2FSCL_XSD_en_UML.uml%23_lk5mh2uPEd&#45;T6NciM0izgg" xlink:title="_attrGroup1"><text text-anchor="middle" x="297" y="343" style="font-family:Arial;font-size:11.00;">_attrGroup1 : agDesc</text></a><a xlink:href="platform%3A%2Fresource%2FUML_SCL%2Fuml%2FSCL_XSD_en_UML.uml%23_lnb9SGuPEd&#45;T6NciM0izgg" xlink:title="iedName"><text text-anchor="middle" x="315" y="355" style="font-family:Arial;font-size:11.00;">«attribute» iedName : tName</text></a><a xlink:href="platform%3A%2Fresource%2FUML_SCL%2Fuml%2FSCL_XSD_en_UML.uml%23_lnb9TGuPEd&#45;T6NciM0izgg" xlink:title="apName"><text text-anchor="middle" x="314" y="367" style="font-family:Arial;font-size:11.00;">«attribute» apName : tName</text></a><polygon style="fill:none;stroke:#a30036;" points="241,371 241,308 391,308 391,371 241,371"/></g><!-- 33218960&#45;&gt;4515627 --><g id="edge12" class="edge"><title>33218960&#45;&gt;4515627</title><a xlink:href="platform%3A%2Fresource%2FUML_SCL%2Fuml%2FSCL_XSD_en_UML.uml%23_lnb9H2uPEd&#45;T6NciM0izgg" xlink:title="ConnectedAP\n1..*\n"><path style="fill:none;stroke:#a30036;" d="M316,237C316,249 316,263 316,275"/><polygon style="fill:#a30036;stroke:#a30036;" points="316,237 320,231 316,225 312,231 316,237"/><polygon style="fill:#a30036;stroke:#a30036;" points="316,285 321,275 316,282 316,275 316,282 312,275 316,285 316,285"/><text text-anchor="middle" x="347" y="252" style="font-family:Arial;font-size:10.00;">ConnectedAP</text><text text-anchor="middle" x="347" y="264" style="font-family:Arial;font-size:10.00;">1..*</text></a></g><!-- 4515627&#45;&gt;20656803 --><g id="edge18" class="edge"><title>4515627&#45;&gt;20656803</title><a xlink:href="platform%3A%2Fresource%2FUML_SCL%2Fuml%2FSCL_XSD_en_UML.uml%23_lnb9ImuPEd&#45;T6NciM0izgg" xlink:title="Address\n0..1\n"><path style="fill:none;stroke:#a30036;" d="M260,381C258,383 256,386 254,389 241,409 232,434 227,451"/><polygon style="fill:#a30036;stroke:#a30036;" points="261,380 267,378 268,371 261,373 261,380"/><polygon style="fill:#a30036;stroke:#a30036;" points="224,461 231,453 225,458 227,451 225,458 223,450 224,461 224,461"/><text text-anchor="middle" x="273" y="398" style="font-family:Arial;font-size:10.00;">Address</text><text text-anchor="middle" x="273" y="410" style="font-family:Arial;font-size:10.00;">0..1</text></a></g><!-- 4515627&#45;&gt;32758172 --><g id="edge20" class="edge"><title>4515627&#45;&gt;32758172</title><a xlink:href="platform%3A%2Fresource%2FUML_SCL%2Fuml%2FSCL_XSD_en_UML.uml%23_lnb9J2uPEd&#45;T6NciM0izgg" xlink:title="GSE\n0..*\n"><path style="fill:none;stroke:#a30036;" d="M303,383C303,385 302,387 302,389 298,410 294,434 291,451"/><polygon style="fill:#a30036;stroke:#a30036;" points="303,383 308,378 306,371 301,376 303,383"/><polygon style="fill:#a30036;stroke:#a30036;" points="289,461 295,452 290,458 291,451 290,458 287,450 289,461 289,461"/><text text-anchor="middle" x="313" y="398" style="font-family:Arial;font-size:10.00;">GSE</text><text text-anchor="middle" x="313" y="410" style="font-family:Arial;font-size:10.00;">0..*</text></a></g><!-- 4515627&#45;&gt;22761706 --><g id="edge22" class="edge"><title>4515627&#45;&gt;22761706</title><a xlink:href="platform%3A%2Fresource%2FUML_SCL%2Fuml%2FSCL_XSD_en_UML.uml%23_lnb9NGuPEd&#45;T6NciM0izgg" xlink:title="SMV\n0..*\n"><path style="fill:none;stroke:#a30036;" d="M327,383C332,406 338,433 341,451"/><polygon style="fill:#a30036;stroke:#a30036;" points="327,383 330,376 325,371 322,378 327,383"/><polygon style="fill:#a30036;stroke:#a30036;" points="343,461 345,450 342,458 341,451 342,458 337,452 343,461 343,461"/><text text-anchor="middle" x="343" y="398" style="font-family:Arial;font-size:10.00;">SMV</text><text text-anchor="middle" x="343" y="410" style="font-family:Arial;font-size:10.00;">0..*</text></a></g><!-- 4515627&#45;&gt;18125681 --><g id="edge24" class="edge"><title>4515627&#45;&gt;18125681</title><a xlink:href="platform%3A%2Fresource%2FUML_SCL%2Fuml%2FSCL_XSD_en_UML.uml%23_lnb9O2uPEd&#45;T6NciM0izgg" xlink:title="PhysConn\n0..*\n"><path style="fill:none;stroke:#a30036;" d="M353,381C371,406 391,434 404,453"/><polygon style="fill:#a30036;stroke:#a30036;" points="353,381 353,374 346,371 346,378 353,381"/><polygon style="fill:#a30036;stroke:#a30036;" points="410,461 408,450 408,459 404,453 408,459 400,456 410,461 410,461"/><text text-anchor="middle" x="395" y="398" style="font-family:Arial;font-size:10.00;">PhysConn</text><text text-anchor="middle" x="395" y="410" style="font-family:Arial;font-size:10.00;">0..*</text></a></g><!-- 4515627&#45;&gt;12144052 --><g id="edge14" class="edge"><title>4515627&#45;&gt;12144052</title><a xlink:href="platform%3A%2Fresource%2FUML_SCL%2Fuml%2FSCL_XSD_en_UML.uml%23_lkv1p2uPEd&#45;T6NciM0izgg" xlink:title="Text\n0..1\n"><path style="fill:none;stroke:#a30036;" d="M235,377C229,381 223,385 217,389 196,403 173,418 153,431"/><polygon style="fill:#a30036;stroke:#a30036;" points="235,377 243,377 246,371 239,370 235,377"/><polygon style="fill:#a30036;stroke:#a30036;" points="145,437 156,435 147,435 153,431 147,435 150,427 145,437 145,437"/><text text-anchor="middle" x="226" y="398" style="font-family:Arial;font-size:10.00;">Text</text><text text-anchor="middle" x="226" y="410" style="font-family:Arial;font-size:10.00;">0..1</text></a></g><!-- 4515627&#45;&gt;9379004 --><g id="edge16" class="edge"><title>4515627&#45;&gt;9379004</title><a xlink:href="platform%3A%2Fresource%2FUML_SCL%2Fuml%2FSCL_XSD_en_UML.uml%23_lk5mcmuPEd&#45;T6NciM0izgg" xlink:title="Private\n0..*\n"><path style="fill:none;stroke:#a30036;" d="M402,377C429,393 459,410 487,426"/><polygon style="fill:#a30036;stroke:#a30036;" points="402,377 398,370 391,371 394,377 402,377"/><polygon style="fill:#a30036;stroke:#a30036;" points="496,431 489,422 493,430 487,426 493,430 485,430 496,431 496,431"/><text text-anchor="middle" x="474" y="398" style="font-family:Arial;font-size:10.00;">Private</text><text text-anchor="middle" x="474" y="410" style="font-family:Arial;font-size:10.00;">0..*</text></a></g></g></svg>