<?xml version="1.0" encoding="UTF-8" standalone="no"?><!DOCTYPE svg PUBLIC "-//W3C//DTD SVG 1.0//EN" "http://www.w3.org/TR/2001/REC-SVG-20010904/DTD/svg10.dtd" [ <!ATTLIST svg xmlns:xlink CDATA #FIXED "http://www.w3.org/1999/xlink">]><!-- Generated by dot version 2.7.20051103.0540 (Thu Nov  3 05:48:38 UTC 2005)     For user: Bill Gates --><!-- Title: uml Pages: 1 --><svg width="1364pt" height="528pt" viewBox = "0 0 1364 528" xmlns="http://www.w3.org/2000/svg" xmlns:xlink="http://www.w3.org/1999/xlink"><g id="graph0" class="graph" style="font-family:Times-Roman;font-size:14.00;"><title>uml</title><polygon style="fill:white;stroke:white;" points="-1,529 -1,-1 1365,-1 1365,529 -1,529"/><!-- 10947228 --><g id="node1" class="node"><title>10947228</title><polygon style="fill:#ffffcc;stroke:#ffffcc;" points="769,180 769,142 915,142 915,180 769,180"/><a xlink:href="platform%3A%2Fresource%2FUML_SCL%2Fuml%2FSCL_XSD_en_UML.uml%23_ln4pFmuPEd&#45;T6NciM0izgg" xlink:title="tDataTypeTemplates"><clipPath id="mypathfile:/D:/eclipse/configuration/org.eclipse.osgi/bundles/954/1/.cp/icons/full/obj16/Class.gif10947228"><polygon points="786,145 770,145 770,162 786,162 786,145 "/></clipPath><image xlink:href="file:/D:/eclipse/configuration/org.eclipse.osgi/bundles/954/1/.cp/icons/full/obj16/Class.gif" width="16px" height="17px" preserveAspectRatio="xMidYMid meet" x="770" y="145" clip-path="url(#mypathfile:/D:/eclipse/configuration/org.eclipse.osgi/bundles/954/1/.cp/icons/full/obj16/Class.gif10947228)"/><text text-anchor="middle" x="850" y="158" style="font-family:Arial;font-size:13.00;">tDataTypeTemplates</text><polygon style="fill:none;stroke:#a30036;" points="769,165 769,142 915,142 915,165 769,165"/></a><text text-anchor="middle" x="842" y="176" style="font-family:Arial;font-size:11.00;"> </text><polygon style="fill:none;stroke:#a30036;" points="769,180 769,165 915,165 915,180 769,180"/></g><!-- 30598766 --><g id="node2" class="node"><title>30598766</title><polygon style="fill:#ffffcc;stroke:#ffffcc;" points="128,359 128,309 318,309 318,359 128,359"/><a xlink:href="platform%3A%2Fresource%2FUML_SCL%2Fuml%2FSCL_XSD_en_UML.uml%23_lnu4JmuPEd&#45;T6NciM0izgg" xlink:title="tLNodeType"><clipPath id="mypathfile:/D:/eclipse/configuration/org.eclipse.osgi/bundles/954/1/.cp/icons/full/obj16/Class.gif30598766"><polygon points="145,312 129,312 129,329 145,329 145,312 "/></clipPath><image xlink:href="file:/D:/eclipse/configuration/org.eclipse.osgi/bundles/954/1/.cp/icons/full/obj16/Class.gif" width="16px" height="17px" preserveAspectRatio="xMidYMid meet" x="129" y="312" clip-path="url(#mypathfile:/D:/eclipse/configuration/org.eclipse.osgi/bundles/954/1/.cp/icons/full/obj16/Class.gif30598766)"/><text text-anchor="middle" x="232" y="325" style="font-family:Arial;font-size:13.00;">tLNodeType</text><polygon style="fill:none;stroke:#a30036;" points="128,332 128,309 318,309 318,332 128,332"/></a><a xlink:href="platform%3A%2Fresource%2FUML_SCL%2Fuml%2FSCL_XSD_en_UML.uml%23_lnu4QGuPEd&#45;T6NciM0izgg" xlink:title="iedType"><text text-anchor="middle" x="223" y="343" style="font-family:Arial;font-size:11.00;">«attribute» iedType : tAnyName [0..1]</text></a><a xlink:href="platform%3A%2Fresource%2FUML_SCL%2Fuml%2FSCL_XSD_en_UML.uml%23_lnu4RGuPEd&#45;T6NciM0izgg" xlink:title="lnClass"><text text-anchor="middle" x="218" y="355" style="font-family:Arial;font-size:11.00;">«attribute» lnClass : tLNClassEnum</text></a><polygon style="fill:none;stroke:#a30036;" points="128,359 128,332 318,332 318,359 128,359"/></g><!-- 10947228&#45;&gt;30598766 --><g id="edge30" class="edge"><title>10947228&#45;&gt;30598766</title><a xlink:href="platform%3A%2Fresource%2FUML_SCL%2Fuml%2FSCL_XSD_en_UML.uml%23_ln4pF2uPEd&#45;T6NciM0izgg" xlink:title="LNodeType\n1..*\n"><path style="fill:none;stroke:#a30036;" d="M786,184C777,187 768,190 760,193 694,213 529,249 461,261 402,272 385,261 327,279 308,285 289,295 272,304"/><polygon style="fill:#a30036;stroke:#a30036;" points="786,184 793,186 797,180 790,178 786,184"/><polygon style="fill:#a30036;stroke:#a30036;" points="263,309 274,308 266,308 272,304 266,308 270,300 263,309 263,309"/><text text-anchor="middle" x="723" y="233" style="font-family:Arial;font-size:10.00;">LNodeType</text><text text-anchor="middle" x="723" y="245" style="font-family:Arial;font-size:10.00;">1..*</text></a></g><!-- 22052455 --><g id="node3" class="node"><title>22052455</title><polygon style="fill:#ffffcc;stroke:#ffffcc;" points="946,366 946,302 1136,302 1136,366 946,366"/><a xlink:href="platform%3A%2Fresource%2FUML_SCL%2Fuml%2FSCL_XSD_en_UML.uml%23_lnu4SGuPEd&#45;T6NciM0izgg" xlink:title="tDOType"><text text-anchor="middle" x="1041" y="314" style="font-family:Arial;font-size:11.00;">«complexType, choice» </text><clipPath id="mypathfile:/D:/eclipse/configuration/org.eclipse.osgi/bundles/954/1/.cp/icons/full/obj16/Class.gif22052455"><polygon points="963,319 947,319 947,336 963,336 963,319 "/></clipPath><image xlink:href="file:/D:/eclipse/configuration/org.eclipse.osgi/bundles/954/1/.cp/icons/full/obj16/Class.gif" width="16px" height="17px" preserveAspectRatio="xMidYMid meet" x="947" y="319" clip-path="url(#mypathfile:/D:/eclipse/configuration/org.eclipse.osgi/bundles/954/1/.cp/icons/full/obj16/Class.gif22052455)"/><text text-anchor="middle" x="1049" y="332" style="font-family:Arial;font-size:13.00;">tDOType</text><polygon style="fill:none;stroke:#a30036;" points="946,339 946,302 1136,302 1136,339 946,339"/></a><a xlink:href="platform%3A%2Fresource%2FUML_SCL%2Fuml%2FSCL_XSD_en_UML.uml%23_ln4o9WuPEd&#45;T6NciM0izgg" xlink:title="iedType"><text text-anchor="middle" x="1041" y="350" style="font-family:Arial;font-size:11.00;">«attribute» iedType : tAnyName [0..1]</text></a><a xlink:href="platform%3A%2Fresource%2FUML_SCL%2Fuml%2FSCL_XSD_en_UML.uml%23_ln4o&#45;WuPEd&#45;T6NciM0izgg" xlink:title="cdc"><text text-anchor="middle" x="1018" y="362" style="font-family:Arial;font-size:11.00;">«attribute» cdc : tCDCEnum</text></a><polygon style="fill:none;stroke:#a30036;" points="946,366 946,339 1136,339 1136,366 946,366"/></g><!-- 10947228&#45;&gt;22052455 --><g id="edge32" class="edge"><title>10947228&#45;&gt;22052455</title><a xlink:href="platform%3A%2Fresource%2FUML_SCL%2Fuml%2FSCL_XSD_en_UML.uml%23_ln4pHGuPEd&#45;T6NciM0izgg" xlink:title="DOType\n1..*\n"><path style="fill:none;stroke:#a30036;" d="M876,188C885,195 895,204 905,211 937,238 972,271 1000,295"/><polygon style="fill:#a30036;stroke:#a30036;" points="876,188 874,181 867,180 869,187 876,188"/><polygon style="fill:#a30036;stroke:#a30036;" points="1007,302 1003,292 1005,300 1000,295 1005,300 997,298 1007,302 1007,302"/><text text-anchor="middle" x="976" y="233" style="font-family:Arial;font-size:10.00;">DOType</text><text text-anchor="middle" x="976" y="245" style="font-family:Arial;font-size:10.00;">1..*</text></a></g><!-- 29029213 --><g id="node4" class="node"><title>29029213</title><polygon style="fill:#ffffcc;stroke:#ffffcc;" points="588,353 588,315 778,315 778,353 588,353"/><a xlink:href="platform%3A%2Fresource%2FUML_SCL%2Fuml%2FSCL_XSD_en_UML.uml%23_ln4o_WuPEd&#45;T6NciM0izgg" xlink:title="tDAType"><clipPath id="mypathfile:/D:/eclipse/configuration/org.eclipse.osgi/bundles/954/1/.cp/icons/full/obj16/Class.gif29029213"><polygon points="605,318 589,318 589,335 605,335 605,318 "/></clipPath><image xlink:href="file:/D:/eclipse/configuration/org.eclipse.osgi/bundles/954/1/.cp/icons/full/obj16/Class.gif" width="16px" height="17px" preserveAspectRatio="xMidYMid meet" x="589" y="318" clip-path="url(#mypathfile:/D:/eclipse/configuration/org.eclipse.osgi/bundles/954/1/.cp/icons/full/obj16/Class.gif29029213)"/><text text-anchor="middle" x="691" y="331" style="font-family:Arial;font-size:13.00;">tDAType</text><polygon style="fill:none;stroke:#a30036;" points="588,338 588,315 778,315 778,338 588,338"/></a><a xlink:href="platform%3A%2Fresource%2FUML_SCL%2Fuml%2FSCL_XSD_en_UML.uml%23_ln4pBmuPEd&#45;T6NciM0izgg" xlink:title="iedType"><text text-anchor="middle" x="683" y="349" style="font-family:Arial;font-size:11.00;">«attribute» iedType : tAnyName [0..1]</text></a><polygon style="fill:none;stroke:#a30036;" points="588,353 588,338 778,338 778,353 588,353"/></g><!-- 10947228&#45;&gt;29029213 --><g id="edge34" class="edge"><title>10947228&#45;&gt;29029213</title><a xlink:href="platform%3A%2Fresource%2FUML_SCL%2Fuml%2FSCL_XSD_en_UML.uml%23_ln4pIWuPEd&#45;T6NciM0izgg" xlink:title="DAType\n0..*\n"><path style="fill:none;stroke:#a30036;" d="M816,189C786,222 736,276 707,307"/><polygon style="fill:#a30036;stroke:#a30036;" points="816,189 823,187 824,180 817,182 816,189"/><polygon style="fill:#a30036;stroke:#a30036;" points="700,315 710,310 702,313 707,307 702,313 703,305 700,315 700,315"/><text text-anchor="middle" x="812" y="233" style="font-family:Arial;font-size:10.00;">DAType</text><text text-anchor="middle" x="812" y="245" style="font-family:Arial;font-size:10.00;">0..*</text></a></g><!-- 7469133 --><g id="node5" class="node"><title>7469133</title><polygon style="fill:#ffffcc;stroke:#ffffcc;" points="796,353 796,315 928,315 928,353 796,353"/><a xlink:href="platform%3A%2Fresource%2FUML_SCL%2Fuml%2FSCL_XSD_en_UML.uml%23_ln4pCmuPEd&#45;T6NciM0izgg" xlink:title="tEnumType"><clipPath id="mypathfile:/D:/eclipse/configuration/org.eclipse.osgi/bundles/954/1/.cp/icons/full/obj16/Class.gif7469133"><polygon points="813,318 797,318 797,335 813,335 813,318 "/></clipPath><image xlink:href="file:/D:/eclipse/configuration/org.eclipse.osgi/bundles/954/1/.cp/icons/full/obj16/Class.gif" width="16px" height="17px" preserveAspectRatio="xMidYMid meet" x="797" y="318" clip-path="url(#mypathfile:/D:/eclipse/configuration/org.eclipse.osgi/bundles/954/1/.cp/icons/full/obj16/Class.gif7469133)"/><text text-anchor="middle" x="871" y="331" style="font-family:Arial;font-size:13.00;">tEnumType</text><polygon style="fill:none;stroke:#a30036;" points="796,338 796,315 928,315 928,338 796,338"/></a><a xlink:href="platform%3A%2Fresource%2FUML_SCL%2Fuml%2FSCL_XSD_en_UML.uml%23_ln4pDGuPEd&#45;T6NciM0izgg" xlink:title="EnumVal"><text text-anchor="middle" x="862" y="349" style="font-family:Arial;font-size:11.00;">EnumVal : tEnumVal [1..*]</text></a><polygon style="fill:none;stroke:#a30036;" points="796,353 796,338 928,338 928,353 796,353"/></g><!-- 10947228&#45;&gt;7469133 --><g id="edge36" class="edge"><title>10947228&#45;&gt;7469133</title><a xlink:href="platform%3A%2Fresource%2FUML_SCL%2Fuml%2FSCL_XSD_en_UML.uml%23_ln4pJmuPEd&#45;T6NciM0izgg" xlink:title="EnumType\n0..*\n"><path style="fill:none;stroke:#a30036;" d="M845,192C849,224 855,274 859,305"/><polygon style="fill:#a30036;stroke:#a30036;" points="845,192 848,186 844,180 841,186 845,192"/><polygon style="fill:#a30036;stroke:#a30036;" points="860,315 863,305 860,312 859,305 860,312 855,305 860,315 860,315"/><text text-anchor="middle" x="876" y="233" style="font-family:Arial;font-size:10.00;">EnumType</text><text text-anchor="middle" x="876" y="245" style="font-family:Arial;font-size:10.00;">0..*</text></a></g><!-- 12351093 --><g id="node7" class="node"><title>12351093</title><polygon style="fill:#ffffcc;stroke:#ffffcc;" points="5,523 5,449 257,449 257,523 5,523"/><a xlink:href="platform%3A%2Fresource%2FUML_SCL%2Fuml%2FSCL_XSD_en_UML.uml%23_lnu4KWuPEd&#45;T6NciM0izgg" xlink:title="tDO"><clipPath id="mypathfile:/D:/eclipse/configuration/org.eclipse.osgi/bundles/954/1/.cp/icons/full/obj16/Class.gif12351093"><polygon points="22,452 6,452 6,469 22,469 22,452 "/></clipPath><image xlink:href="file:/D:/eclipse/configuration/org.eclipse.osgi/bundles/954/1/.cp/icons/full/obj16/Class.gif" width="16px" height="17px" preserveAspectRatio="xMidYMid meet" x="6" y="452" clip-path="url(#mypathfile:/D:/eclipse/configuration/org.eclipse.osgi/bundles/954/1/.cp/icons/full/obj16/Class.gif12351093)"/><text text-anchor="middle" x="140" y="465" style="font-family:Arial;font-size:13.00;">tDO</text><polygon style="fill:none;stroke:#a30036;" points="5,472 5,449 257,449 257,472 5,472"/></a><a xlink:href="platform%3A%2Fresource%2FUML_SCL%2Fuml%2FSCL_XSD_en_UML.uml%23_lnu4K2uPEd&#45;T6NciM0izgg" xlink:title="name"><text text-anchor="middle" x="95" y="483" style="font-family:Arial;font-size:11.00;">«attribute» name : tRestrName1stU</text></a><a xlink:href="platform%3A%2Fresource%2FUML_SCL%2Fuml%2FSCL_XSD_en_UML.uml%23_lnu4L2uPEd&#45;T6NciM0izgg" xlink:title="type"><text text-anchor="middle" x="67" y="495" style="font-family:Arial;font-size:11.00;">«attribute» type : tName</text></a><a xlink:href="platform%3A%2Fresource%2FUML_SCL%2Fuml%2FSCL_XSD_en_UML.uml%23_lnu4M2uPEd&#45;T6NciM0izgg" xlink:title="accessControl"><text text-anchor="middle" x="131" y="507" style="font-family:Arial;font-size:11.00;">«attribute» accessControl : normalizedString [0..1]</text></a><a xlink:href="platform%3A%2Fresource%2FUML_SCL%2Fuml%2FSCL_XSD_en_UML.uml%23_lnu4N2uPEd&#45;T6NciM0izgg" xlink:title="transient"><text text-anchor="middle" x="114" y="519" style="font-family:Arial;font-size:11.00;">«attribute» transient : boolean [0..1] = false</text></a><polygon style="fill:none;stroke:#a30036;" points="5,523 5,472 257,472 257,523 5,523"/></g><!-- 30598766&#45;&gt;12351093 --><g id="edge38" class="edge"><title>30598766&#45;&gt;12351093</title><a xlink:href="platform%3A%2Fresource%2FUML_SCL%2Fuml%2FSCL_XSD_en_UML.uml%23_lnu4KGuPEd&#45;T6NciM0izgg" xlink:title="DO\n1..*\n"><path style="fill:none;stroke:#a30036;" d="M202,369C189,390 173,418 159,440"/><polygon style="fill:#a30036;stroke:#a30036;" points="202,369 208,366 208,359 201,362 202,369"/><polygon style="fill:#a30036;stroke:#a30036;" points="154,449 163,442 155,446 159,440 155,446 155,438 154,449 154,449"/><text text-anchor="middle" x="185" y="416" style="font-family:Arial;font-size:10.00;">DO</text><text text-anchor="middle" x="185" y="428" style="font-family:Arial;font-size:10.00;">1..*</text></a></g><!-- 16429940 --><g id="node8" class="node"><title>16429940</title><polygon style="fill:#ffffcc;stroke:#ffffcc;" points="1049,505 1049,467 1173,467 1173,505 1049,505"/><a xlink:href="platform%3A%2Fresource%2FUML_SCL%2Fuml%2FSCL_XSD_en_UML.uml%23_lnu4TGuPEd&#45;T6NciM0izgg" xlink:title="tSDO"><clipPath id="mypathfile:/D:/eclipse/configuration/org.eclipse.osgi/bundles/954/1/.cp/icons/full/obj16/Class.gif16429940"><polygon points="1066,470 1050,470 1050,487 1066,487 1066,470 "/></clipPath><image xlink:href="file:/D:/eclipse/configuration/org.eclipse.osgi/bundles/954/1/.cp/icons/full/obj16/Class.gif" width="16px" height="17px" preserveAspectRatio="xMidYMid meet" x="1050" y="470" clip-path="url(#mypathfile:/D:/eclipse/configuration/org.eclipse.osgi/bundles/954/1/.cp/icons/full/obj16/Class.gif16429940)"/><text text-anchor="middle" x="1120" y="483" style="font-family:Arial;font-size:13.00;">tSDO</text><polygon style="fill:none;stroke:#a30036;" points="1049,490 1049,467 1173,467 1173,490 1049,490"/></a><a xlink:href="platform%3A%2Fresource%2FUML_SCL%2Fuml%2FSCL_XSD_en_UML.uml%23_lnu4TmuPEd&#45;T6NciM0izgg" xlink:title="type"><text text-anchor="middle" x="1111" y="501" style="font-family:Arial;font-size:11.00;">«attribute» type : tName</text></a><polygon style="fill:none;stroke:#a30036;" points="1049,505 1049,490 1173,490 1173,505 1049,505"/></g><!-- 22052455&#45;&gt;16429940 --><g id="edge40" class="edge"><title>22052455&#45;&gt;16429940</title><a xlink:href="platform%3A%2Fresource%2FUML_SCL%2Fuml%2FSCL_XSD_en_UML.uml%23_lnu4S2uPEd&#45;T6NciM0izgg" xlink:title="SDO\n1..1\n"><path style="fill:none;stroke:#a30036;" d="M1061,377C1072,403 1087,435 1097,458"/><polygon style="fill:#a30036;stroke:#a30036;" points="1061,377 1062,370 1056,366 1055,373 1061,377"/><polygon style="fill:#a30036;stroke:#a30036;" points="1102,467 1101,456 1101,464 1097,458 1101,464 1093,460 1102,467 1102,467"/><text text-anchor="middle" x="1094" y="416" style="font-family:Arial;font-size:10.00;">SDO</text><text text-anchor="middle" x="1094" y="428" style="font-family:Arial;font-size:10.00;">1..1</text></a></g><!-- 21513880 --><g id="node9" class="node"><title>21513880</title><polygon style="fill:#ffffcc;stroke:#ffffcc;" points="735,511 735,461 869,461 869,511 735,511"/><a xlink:href="platform%3A%2Fresource%2FUML_SCL%2Fuml%2FSCL_XSD_en_UML.uml%23_lnu4V2uPEd&#45;T6NciM0izgg" xlink:title="tDA"><clipPath id="mypathfile:/D:/eclipse/configuration/org.eclipse.osgi/bundles/954/1/.cp/icons/full/obj16/Class.gif21513880"><polygon points="752,464 736,464 736,481 752,481 752,464 "/></clipPath><image xlink:href="file:/D:/eclipse/configuration/org.eclipse.osgi/bundles/954/1/.cp/icons/full/obj16/Class.gif" width="16px" height="17px" preserveAspectRatio="xMidYMid meet" x="736" y="464" clip-path="url(#mypathfile:/D:/eclipse/configuration/org.eclipse.osgi/bundles/954/1/.cp/icons/full/obj16/Class.gif21513880)"/><text text-anchor="middle" x="811" y="477" style="font-family:Arial;font-size:13.00;">tDA</text><polygon style="fill:none;stroke:#a30036;" points="735,484 735,461 869,461 869,484 735,484"/></a><a xlink:href="platform%3A%2Fresource%2FUML_SCL%2Fuml%2FSCL_XSD_en_UML.uml%23_lnu4WWuPEd&#45;T6NciM0izgg" xlink:title="_attrGroup1"><text text-anchor="middle" x="802" y="495" style="font-family:Arial;font-size:11.00;">_attrGroup1 : agDATrgOp</text></a><a xlink:href="platform%3A%2Fresource%2FUML_SCL%2Fuml%2FSCL_XSD_en_UML.uml%23_lnu4WmuPEd&#45;T6NciM0izgg" xlink:title="fc"><text text-anchor="middle" x="798" y="507" style="font-family:Arial;font-size:11.00;">«attribute» fc : tFCEnum</text></a><polygon style="fill:none;stroke:#a30036;" points="735,511 735,484 869,484 869,511 735,511"/></g><!-- 22052455&#45;&gt;21513880 --><g id="edge42" class="edge"><title>22052455&#45;&gt;21513880</title><a xlink:href="platform%3A%2Fresource%2FUML_SCL%2Fuml%2FSCL_XSD_en_UML.uml%23_lnu4VmuPEd&#45;T6NciM0izgg" xlink:title="DA\n1..1\n"><path style="fill:none;stroke:#a30036;" d="M981,372C940,398 888,432 851,455"/><polygon style="fill:#a30036;stroke:#a30036;" points="981,372 988,373 991,366 984,366 981,372"/><polygon style="fill:#a30036;stroke:#a30036;" points="842,461 853,459 844,459 850,455 844,459 848,452 842,461 842,461"/><text text-anchor="middle" x="929" y="416" style="font-family:Arial;font-size:10.00;">DA</text><text text-anchor="middle" x="929" y="428" style="font-family:Arial;font-size:10.00;">1..1</text></a></g><!-- 9565412 --><g id="node10" class="node"><title>9565412</title><polygon style="fill:#ffffcc;stroke:#ffffcc;" points="496,505 496,467 554,467 554,505 496,505"/><a xlink:href="platform%3A%2Fresource%2FUML_SCL%2Fuml%2FSCL_XSD_en_UML.uml%23_ln4pAGuPEd&#45;T6NciM0izgg" xlink:title="tBDA"><clipPath id="mypathfile:/D:/eclipse/configuration/org.eclipse.osgi/bundles/954/1/.cp/icons/full/obj16/Class.gif9565412"><polygon points="513,470 497,470 497,487 513,487 513,470 "/></clipPath><image xlink:href="file:/D:/eclipse/configuration/org.eclipse.osgi/bundles/954/1/.cp/icons/full/obj16/Class.gif" width="16px" height="17px" preserveAspectRatio="xMidYMid meet" x="497" y="470" clip-path="url(#mypathfile:/D:/eclipse/configuration/org.eclipse.osgi/bundles/954/1/.cp/icons/full/obj16/Class.gif9565412)"/><text text-anchor="middle" x="533" y="483" style="font-family:Arial;font-size:13.00;">tBDA</text><polygon style="fill:none;stroke:#a30036;" points="496,490 496,467 554,467 554,490 496,490"/></a><text text-anchor="middle" x="525" y="501" style="font-family:Arial;font-size:11.00;"> </text><polygon style="fill:none;stroke:#a30036;" points="496,505 496,490 554,490 554,505 496,505"/></g><!-- 29029213&#45;&gt;9565412 --><g id="edge44" class="edge"><title>29029213&#45;&gt;9565412</title><a xlink:href="platform%3A%2Fresource%2FUML_SCL%2Fuml%2FSCL_XSD_en_UML.uml%23_ln4o_2uPEd&#45;T6NciM0izgg" xlink:title="BDA\n1..*\n"><path style="fill:none;stroke:#a30036;" d="M654,361C625,389 580,433 552,460"/><polygon style="fill:#a30036;stroke:#a30036;" points="654,361 661,360 663,353 656,354 654,361"/><polygon style="fill:#a30036;stroke:#a30036;" points="545,467 555,463 547,465 552,460 547,465 549,457 545,467 545,467"/><text text-anchor="middle" x="615" y="416" style="font-family:Arial;font-size:10.00;">BDA</text><text text-anchor="middle" x="615" y="428" style="font-family:Arial;font-size:10.00;">1..*</text></a></g><!-- 32226664 --><g id="node6" class="node"><title>32226664</title><polygon style="fill:#ffffcc;stroke:#ffffcc;" points="639,186 639,136 751,136 751,186 639,186"/><a xlink:href="platform%3A%2Fresource%2FUML_SCL%2Fuml%2FSCL_XSD_en_UML.uml%23_lk5mj2uPEd&#45;T6NciM0izgg" xlink:title="tIDNaming"><clipPath id="mypathfile:/D:/eclipse/configuration/org.eclipse.osgi/bundles/954/1/.cp/icons/full/obj16/Class.gif32226664"><polygon points="656,139 640,139 640,156 656,156 656,139 "/></clipPath><image xlink:href="file:/D:/eclipse/configuration/org.eclipse.osgi/bundles/954/1/.cp/icons/full/obj16/Class.gif" width="16px" height="17px" preserveAspectRatio="xMidYMid meet" x="640" y="139" clip-path="url(#mypathfile:/D:/eclipse/configuration/org.eclipse.osgi/bundles/954/1/.cp/icons/full/obj16/Class.gif32226664)"/><text text-anchor="middle" x="704" y="152" style="font-family:ArialI;font-size:13.00;">tIDNaming</text><polygon style="fill:none;stroke:#a30036;" points="639,159 639,136 751,136 751,159 639,159"/></a><a xlink:href="platform%3A%2Fresource%2FUML_SCL%2Fuml%2FSCL_XSD_en_UML.uml%23_lk5mkWuPEd&#45;T6NciM0izgg" xlink:title="id"><text text-anchor="middle" x="695" y="170" style="font-family:Arial;font-size:11.00;">«attribute» id : tName</text></a><a xlink:href="platform%3A%2Fresource%2FUML_SCL%2Fuml%2FSCL_XSD_en_UML.uml%23_lk5mlWuPEd&#45;T6NciM0izgg" xlink:title="_attrGroup1"><text text-anchor="middle" x="695" y="182" style="font-family:Arial;font-size:11.00;">_attrGroup1 : agDesc</text></a><polygon style="fill:none;stroke:#a30036;" points="639,186 639,159 751,159 751,186 639,186"/></g><!-- 32226664&#45;&gt;30598766 --><g id="edge2" class="edge"><title>32226664&#45;&gt;30598766</title><path style="fill:none;stroke:#000080;" d="M624,180C549,201 428,237 327,279 307,288 285,299 267,309"/><polygon style="fill:none;stroke:#000080;" points="623,175 639,176 626,185 623,175"/></g><!-- 32226664&#45;&gt;22052455 --><g id="edge4" class="edge"><title>32226664&#45;&gt;22052455</title><path style="fill:none;stroke:#000080;" d="M757,192C758,192 759,193 760,193 790,205 804,192 830,211 850,227 837,246 858,261 886,283 903,267 937,279 953,285 971,294 986,302"/><polygon style="fill:none;stroke:#000080;" points="755,197 743,186 759,187 755,197"/></g><!-- 32226664&#45;&gt;29029213 --><g id="edge6" class="edge"><title>32226664&#45;&gt;29029213</title><path style="fill:none;stroke:#000080;" d="M677,200C675,204 674,207 674,211 667,247 673,290 678,315"/><polygon style="fill:none;stroke:#000080;" points="672,198 682,186 682,202 672,198"/></g><!-- 32226664&#45;&gt;7469133 --><g id="edge8" class="edge"><title>32226664&#45;&gt;7469133</title><path style="fill:none;stroke:#000080;" d="M734,197C738,201 742,206 746,211 761,232 757,242 774,261 791,282 815,302 833,315"/><polygon style="fill:none;stroke:#000080;" points="730,200 723,186 737,193 730,200"/></g><!-- 4961632 --><g id="node11" class="node"><title>4961632</title><polygon style="fill:#ffffcc;stroke:#ffffcc;" points="868,62 868,12 1018,12 1018,62 868,62"/><a xlink:href="platform%3A%2Fresource%2FUML_SCL%2Fuml%2FSCL_XSD_en_UML.uml%23_lkv1oWuPEd&#45;T6NciM0izgg" xlink:title="tBaseElement"><clipPath id="mypathfile:/D:/eclipse/configuration/org.eclipse.osgi/bundles/954/1/.cp/icons/full/obj16/Class.gif4961632"><polygon points="885,15 869,15 869,32 885,32 885,15 "/></clipPath><image xlink:href="file:/D:/eclipse/configuration/org.eclipse.osgi/bundles/954/1/.cp/icons/full/obj16/Class.gif" width="16px" height="17px" preserveAspectRatio="xMidYMid meet" x="869" y="15" clip-path="url(#mypathfile:/D:/eclipse/configuration/org.eclipse.osgi/bundles/954/1/.cp/icons/full/obj16/Class.gif4961632)"/><text text-anchor="middle" x="952" y="28" style="font-family:ArialI;font-size:13.00;">tBaseElement</text><polygon style="fill:none;stroke:#a30036;" points="868,35 868,12 1018,12 1018,35 868,35"/></a><a xlink:href="platform%3A%2Fresource%2FUML_SCL%2Fuml%2FSCL_XSD_en_UML.uml%23_lkv1omuPEd&#45;T6NciM0izgg" xlink:title="wildcard"><text text-anchor="middle" x="943" y="46" style="font-family:Arial;font-size:11.00;">«any, element» wildcard [0..*]</text></a><a xlink:href="platform%3A%2Fresource%2FUML_SCL%2Fuml%2FSCL_XSD_en_UML.uml%23_lk5mgmuPEd&#45;T6NciM0izgg" xlink:title="wildcard"><text text-anchor="middle" x="931" y="58" style="font-family:Arial;font-size:11.00;">«any, attribute» wildcard</text></a><polygon style="fill:none;stroke:#a30036;" points="868,62 868,35 1018,35 1018,62 868,62"/></g><!-- 4961632&#45;&gt;32226664 --><g id="edge10" class="edge"><title>4961632&#45;&gt;32226664</title><path style="fill:none;stroke:#000080;" d="M879,69C838,89 784,116 745,136"/><polygon style="fill:none;stroke:#000080;" points="877,64 893,62 882,73 877,64"/></g><!-- 16082078 --><g id="node12" class="node"><title>16082078</title><polygon style="fill:#ffffcc;stroke:#ffffcc;" points="397,180 397,142 509,142 509,180 397,180"/><a xlink:href="platform%3A%2Fresource%2FUML_SCL%2Fuml%2FSCL_XSD_en_UML.uml%23_lk5mhWuPEd&#45;T6NciM0izgg" xlink:title="tUnNaming"><clipPath id="mypathfile:/D:/eclipse/configuration/org.eclipse.osgi/bundles/954/1/.cp/icons/full/obj16/Class.gif16082078"><polygon points="414,145 398,145 398,162 414,162 414,145 "/></clipPath><image xlink:href="file:/D:/eclipse/configuration/org.eclipse.osgi/bundles/954/1/.cp/icons/full/obj16/Class.gif" width="16px" height="17px" preserveAspectRatio="xMidYMid meet" x="398" y="145" clip-path="url(#mypathfile:/D:/eclipse/configuration/org.eclipse.osgi/bundles/954/1/.cp/icons/full/obj16/Class.gif16082078)"/><text text-anchor="middle" x="462" y="158" style="font-family:ArialI;font-size:13.00;">tUnNaming</text><polygon style="fill:none;stroke:#a30036;" points="397,165 397,142 509,142 509,165 397,165"/></a><a xlink:href="platform%3A%2Fresource%2FUML_SCL%2Fuml%2FSCL_XSD_en_UML.uml%23_lk5mh2uPEd&#45;T6NciM0izgg" xlink:title="_attrGroup1"><text text-anchor="middle" x="453" y="176" style="font-family:Arial;font-size:11.00;">_attrGroup1 : agDesc</text></a><polygon style="fill:none;stroke:#a30036;" points="397,180 397,165 509,165 509,180 397,180"/></g><!-- 4961632&#45;&gt;16082078 --><g id="edge20" class="edge"><title>4961632&#45;&gt;16082078</title><path style="fill:none;stroke:#000080;" d="M853,60C753,85 593,126 509,147"/><polygon style="fill:none;stroke:#000080;" points="852,55 868,56 855,65 852,55"/></g><!-- 15618603 --><g id="node13" class="node"><title>15618603</title><polygon style="fill:#ffffcc;stroke:#ffffcc;" points="1083,261 1083,211 1213,211 1213,261 1083,261"/><a xlink:href="platform%3A%2Fresource%2FUML_SCL%2Fuml%2FSCL_XSD_en_UML.uml%23_lk5miGuPEd&#45;T6NciM0izgg" xlink:title="tNaming"><clipPath id="mypathfile:/D:/eclipse/configuration/org.eclipse.osgi/bundles/954/1/.cp/icons/full/obj16/Class.gif15618603"><polygon points="1100,214 1084,214 1084,231 1100,231 1100,214 "/></clipPath><image xlink:href="file:/D:/eclipse/configuration/org.eclipse.osgi/bundles/954/1/.cp/icons/full/obj16/Class.gif" width="16px" height="17px" preserveAspectRatio="xMidYMid meet" x="1084" y="214" clip-path="url(#mypathfile:/D:/eclipse/configuration/org.eclipse.osgi/bundles/954/1/.cp/icons/full/obj16/Class.gif15618603)"/><text text-anchor="middle" x="1156" y="227" style="font-family:ArialI;font-size:13.00;">tNaming</text><polygon style="fill:none;stroke:#a30036;" points="1083,234 1083,211 1213,211 1213,234 1083,234"/></a><a xlink:href="platform%3A%2Fresource%2FUML_SCL%2Fuml%2FSCL_XSD_en_UML.uml%23_lk5mimuPEd&#45;T6NciM0izgg" xlink:title="name"><text text-anchor="middle" x="1148" y="245" style="font-family:Arial;font-size:11.00;">«attribute» name : tName</text></a><a xlink:href="platform%3A%2Fresource%2FUML_SCL%2Fuml%2FSCL_XSD_en_UML.uml%23_lk5mjmuPEd&#45;T6NciM0izgg" xlink:title="_attrGroup1"><text text-anchor="middle" x="1139" y="257" style="font-family:Arial;font-size:11.00;">_attrGroup1 : agDesc</text></a><polygon style="fill:none;stroke:#a30036;" points="1083,261 1083,234 1213,234 1213,261 1083,261"/></g><!-- 4961632&#45;&gt;15618603 --><g id="edge22" class="edge"><title>4961632&#45;&gt;15618603</title><path style="fill:none;stroke:#000080;" d="M936,77C933,112 933,163 962,193 970,202 1033,216 1083,225"/><polygon style="fill:none;stroke:#000080;" points="931,76 938,62 941,78 931,76"/></g><!-- 12144052 --><g id="node15" class="node"><title>12144052</title><polygon style="fill:#ffffcc;stroke:#ffffcc;" points="1191,187 1191,135 1359,135 1359,187 1191,187"/><a xlink:href="platform%3A%2Fresource%2FUML_SCL%2Fuml%2FSCL_XSD_en_UML.uml%23_lkv1qGuPEd&#45;T6NciM0izgg" xlink:title="tText"><text text-anchor="middle" x="1275" y="147" style="font-family:Arial;font-size:11.00;">«complexType» </text><clipPath id="mypathfile:/D:/eclipse/configuration/org.eclipse.osgi/bundles/954/1/.cp/icons/full/obj16/Class.gif12144052"><polygon points="1208,152 1192,152 1192,169 1208,169 1208,152 "/></clipPath><image xlink:href="file:/D:/eclipse/configuration/org.eclipse.osgi/bundles/954/1/.cp/icons/full/obj16/Class.gif" width="16px" height="17px" preserveAspectRatio="xMidYMid meet" x="1192" y="152" clip-path="url(#mypathfile:/D:/eclipse/configuration/org.eclipse.osgi/bundles/954/1/.cp/icons/full/obj16/Class.gif12144052)"/><text text-anchor="middle" x="1283" y="165" style="font-family:Arial;font-size:13.00;">tText</text><polygon style="fill:none;stroke:#a30036;" points="1191,172 1191,135 1359,135 1359,172 1191,172"/></a><a xlink:href="platform%3A%2Fresource%2FUML_SCL%2Fuml%2FSCL_XSD_en_UML.uml%23_lk5maWuPEd&#45;T6NciM0izgg" xlink:title="source"><text text-anchor="middle" x="1275" y="183" style="font-family:Arial;font-size:11.00;">«attribute» source : anyURI [0..1]</text></a><polygon style="fill:none;stroke:#a30036;" points="1191,187 1191,172 1359,172 1359,187 1191,187"/></g><!-- 4961632&#45;&gt;12144052 --><g id="edge46" class="edge"><title>4961632&#45;&gt;12144052</title><a xlink:href="platform%3A%2Fresource%2FUML_SCL%2Fuml%2FSCL_XSD_en_UML.uml%23_lkv1p2uPEd&#45;T6NciM0izgg" xlink:title="Text\n0..1\n"><path style="fill:none;stroke:#a30036;" d="M1021,66C1074,86 1144,111 1197,131"/><polygon style="fill:#a30036;stroke:#a30036;" points="1021,66 1017,60 1010,62 1014,68 1021,66"/><polygon style="fill:#a30036;stroke:#a30036;" points="1206,135 1199,127 1203,134 1197,131 1203,134 1195,135 1206,135 1206,135"/><text text-anchor="middle" x="1137" y="96" style="font-family:Arial;font-size:10.00;">Text</text><text text-anchor="middle" x="1137" y="108" style="font-family:Arial;font-size:10.00;">0..1</text></a></g><!-- 9379004 --><g id="node16" class="node"><title>9379004</title><polygon style="fill:#ffffcc;stroke:#ffffcc;" points="971,193 971,129 1173,129 1173,193 971,193"/><a xlink:href="platform%3A%2Fresource%2FUML_SCL%2Fuml%2FSCL_XSD_en_UML.uml%23_lk5mc2uPEd&#45;T6NciM0izgg" xlink:title="tPrivate"><text text-anchor="middle" x="1072" y="141" style="font-family:Arial;font-size:11.00;">«complexType» </text><clipPath id="mypathfile:/D:/eclipse/configuration/org.eclipse.osgi/bundles/954/1/.cp/icons/full/obj16/Class.gif9379004"><polygon points="988,146 972,146 972,163 988,163 988,146 "/></clipPath><image xlink:href="file:/D:/eclipse/configuration/org.eclipse.osgi/bundles/954/1/.cp/icons/full/obj16/Class.gif" width="16px" height="17px" preserveAspectRatio="xMidYMid meet" x="972" y="146" clip-path="url(#mypathfile:/D:/eclipse/configuration/org.eclipse.osgi/bundles/954/1/.cp/icons/full/obj16/Class.gif9379004)"/><text text-anchor="middle" x="1080" y="159" style="font-family:Arial;font-size:13.00;">tPrivate</text><polygon style="fill:none;stroke:#a30036;" points="971,166 971,129 1173,129 1173,166 971,166"/></a><a xlink:href="platform%3A%2Fresource%2FUML_SCL%2Fuml%2FSCL_XSD_en_UML.uml%23_lk5mdWuPEd&#45;T6NciM0izgg" xlink:title="type"><text text-anchor="middle" x="1072" y="177" style="font-family:Arial;font-size:11.00;">«attribute» type : normalizedString [0..1]</text></a><a xlink:href="platform%3A%2Fresource%2FUML_SCL%2Fuml%2FSCL_XSD_en_UML.uml%23_lk5meWuPEd&#45;T6NciM0izgg" xlink:title="source"><text text-anchor="middle" x="1055" y="189" style="font-family:Arial;font-size:11.00;">«attribute» source : anyURI [0..1]</text></a><polygon style="fill:none;stroke:#a30036;" points="971,193 971,166 1173,166 1173,193 971,193"/></g><!-- 4961632&#45;&gt;9379004 --><g id="edge48" class="edge"><title>4961632&#45;&gt;9379004</title><a xlink:href="platform%3A%2Fresource%2FUML_SCL%2Fuml%2FSCL_XSD_en_UML.uml%23_lk5mcmuPEd&#45;T6NciM0izgg" xlink:title="Private\n0..*\n"><path style="fill:none;stroke:#a30036;" d="M978,70C995,86 1014,105 1032,122"/><polygon style="fill:#a30036;stroke:#a30036;" points="978,70 976,63 969,62 971,69 978,70"/><polygon style="fill:#a30036;stroke:#a30036;" points="1039,129 1035,119 1037,127 1032,122 1037,127 1029,125 1039,129 1039,129"/><text text-anchor="middle" x="1030" y="96" style="font-family:Arial;font-size:10.00;">Private</text><text text-anchor="middle" x="1030" y="108" style="font-family:Arial;font-size:10.00;">0..*</text></a></g><!-- 16082078&#45;&gt;12351093 --><g id="edge12" class="edge"><title>16082078&#45;&gt;12351093</title><path style="fill:none;stroke:#000080;" d="M382,176C294,196 150,236 119,279 84,329 101,404 116,449"/><polygon style="fill:none;stroke:#000080;" points="381,171 397,173 383,181 381,171"/></g><!-- 30290485 --><g id="node14" class="node"><title>30290485</title><polygon style="fill:#ffffcc;stroke:#ffffcc;" points="336,389 336,279 570,279 570,389 336,389"/><a xlink:href="platform%3A%2Fresource%2FUML_SCL%2Fuml%2FSCL_XSD_en_UML.uml%23_lnu4B2uPEd&#45;T6NciM0izgg" xlink:title="tAbstractDataAttribute"><clipPath id="mypathfile:/D:/eclipse/configuration/org.eclipse.osgi/bundles/954/1/.cp/icons/full/obj16/Class.gif30290485"><polygon points="353,282 337,282 337,299 353,299 353,282 "/></clipPath><image xlink:href="file:/D:/eclipse/configuration/org.eclipse.osgi/bundles/954/1/.cp/icons/full/obj16/Class.gif" width="16px" height="17px" preserveAspectRatio="xMidYMid meet" x="337" y="282" clip-path="url(#mypathfile:/D:/eclipse/configuration/org.eclipse.osgi/bundles/954/1/.cp/icons/full/obj16/Class.gif30290485)"/><text text-anchor="middle" x="462" y="295" style="font-family:ArialI;font-size:13.00;">tAbstractDataAttribute</text><polygon style="fill:none;stroke:#a30036;" points="336,302 336,279 570,279 570,302 336,302"/></a><a xlink:href="platform%3A%2Fresource%2FUML_SCL%2Fuml%2FSCL_XSD_en_UML.uml%23_lnu4CWuPEd&#45;T6NciM0izgg" xlink:title="Val"><text text-anchor="middle" x="374" y="313" style="font-family:Arial;font-size:11.00;">Val : tVal [0..*]</text></a><a xlink:href="platform%3A%2Fresource%2FUML_SCL%2Fuml%2FSCL_XSD_en_UML.uml%23_lnu4DGuPEd&#45;T6NciM0izgg" xlink:title="name"><text text-anchor="middle" x="437" y="325" style="font-family:Arial;font-size:11.00;">«attribute» name : tAttributeNameEnum</text></a><a xlink:href="platform%3A%2Fresource%2FUML_SCL%2Fuml%2FSCL_XSD_en_UML.uml%23_lnu4EGuPEd&#45;T6NciM0izgg" xlink:title="sAddr"><text text-anchor="middle" x="441" y="337" style="font-family:Arial;font-size:11.00;">«attribute» sAddr : normalizedString [0..1]</text></a><a xlink:href="platform%3A%2Fresource%2FUML_SCL%2Fuml%2FSCL_XSD_en_UML.uml%23_lnu4FGuPEd&#45;T6NciM0izgg" xlink:title="bType"><text text-anchor="middle" x="428" y="349" style="font-family:Arial;font-size:11.00;">«attribute» bType : tBasicTypeEnum</text></a><a xlink:href="platform%3A%2Fresource%2FUML_SCL%2Fuml%2FSCL_XSD_en_UML.uml%23_lnu4GGuPEd&#45;T6NciM0izgg" xlink:title="valKind"><text text-anchor="middle" x="453" y="361" style="font-family:Arial;font-size:11.00;">«attribute» valKind : tValKindEnum [0..1] = Set</text></a><a xlink:href="platform%3A%2Fresource%2FUML_SCL%2Fuml%2FSCL_XSD_en_UML.uml%23_lnu4HWuPEd&#45;T6NciM0izgg" xlink:title="type"><text text-anchor="middle" x="422" y="373" style="font-family:Arial;font-size:11.00;">«attribute» type : tAnyName [0..1]</text></a><a xlink:href="platform%3A%2Fresource%2FUML_SCL%2Fuml%2FSCL_XSD_en_UML.uml%23_lnu4IWuPEd&#45;T6NciM0izgg" xlink:title="count"><text text-anchor="middle" x="437" y="385" style="font-family:Arial;font-size:11.00;">«attribute» count : unsignedInt [0..1] = 0</text></a><polygon style="fill:none;stroke:#a30036;" points="336,389 336,302 570,302 570,389 336,389"/></g><!-- 16082078&#45;&gt;30290485 --><g id="edge24" class="edge"><title>16082078&#45;&gt;30290485</title><path style="fill:none;stroke:#000080;" d="M453,195C453,219 453,251 453,279"/><polygon style="fill:none;stroke:#000080;" points="448,195 453,180 458,195 448,195"/></g><!-- 15618603&#45;&gt;16429940 --><g id="edge14" class="edge"><title>15618603&#45;&gt;16429940</title><path style="fill:none;stroke:#000080;" d="M1151,276C1152,308 1152,352 1145,389 1139,417 1128,448 1120,467"/><polygon style="fill:none;stroke:#000080;" points="1146,276 1150,261 1156,276 1146,276"/></g><!-- 30290485&#45;&gt;21513880 --><g id="edge16" class="edge"><title>30290485&#45;&gt;21513880</title><path style="fill:none;stroke:#000080;" d="M528,398C545,411 563,422 582,431 630,455 690,469 735,477"/><polygon style="fill:none;stroke:#000080;" points="525,402 516,389 531,394 525,402"/></g><!-- 30290485&#45;&gt;9565412 --><g id="edge18" class="edge"><title>30290485&#45;&gt;9565412</title><path style="fill:none;stroke:#000080;" d="M486,403C497,426 508,451 516,467"/><polygon style="fill:none;stroke:#000080;" points="481,405 479,389 490,400 481,405"/></g><!-- 27034775 --><g id="node17" class="node"><title>27034775</title><polygon style="fill:#ffffcc;stroke:#ffffcc;" points="1067,69 1067,5 1297,5 1297,69 1067,69"/><a xlink:href="platform%3A%2Fresource%2FUML_SCL%2Fuml%2FSCL_XSD_en_UML.uml%23_lkv1qWuPEd&#45;T6NciM0izgg" xlink:title="tAnyContentFromOtherNamespace"><text text-anchor="middle" x="1182" y="17" style="font-family:Arial;font-size:11.00;">«complexType» </text><clipPath id="mypathfile:/D:/eclipse/configuration/org.eclipse.osgi/bundles/954/1/.cp/icons/full/obj16/Class.gif27034775"><polygon points="1084,22 1068,22 1068,39 1084,39 1084,22 "/></clipPath><image xlink:href="file:/D:/eclipse/configuration/org.eclipse.osgi/bundles/954/1/.cp/icons/full/obj16/Class.gif" width="16px" height="17px" preserveAspectRatio="xMidYMid meet" x="1068" y="22" clip-path="url(#mypathfile:/D:/eclipse/configuration/org.eclipse.osgi/bundles/954/1/.cp/icons/full/obj16/Class.gif27034775)"/><text text-anchor="middle" x="1191" y="35" style="font-family:ArialI;font-size:13.00;">tAnyContentFromOtherNamespace</text><polygon style="fill:none;stroke:#a30036;" points="1067,42 1067,5 1297,5 1297,42 1067,42"/></a><a xlink:href="platform%3A%2Fresource%2FUML_SCL%2Fuml%2FSCL_XSD_en_UML.uml%23_lk5mYGuPEd&#45;T6NciM0izgg" xlink:title="wildcard"><text text-anchor="middle" x="1129" y="53" style="font-family:Arial;font-size:11.00;">«any, element» wildcard</text></a><a xlink:href="platform%3A%2Fresource%2FUML_SCL%2Fuml%2FSCL_XSD_en_UML.uml%23_lk5mZWuPEd&#45;T6NciM0izgg" xlink:title="wildcard"><text text-anchor="middle" x="1130" y="65" style="font-family:Arial;font-size:11.00;">«any, attribute» wildcard</text></a><polygon style="fill:none;stroke:#a30036;" points="1067,69 1067,42 1297,42 1297,69 1067,69"/></g><!-- 27034775&#45;&gt;12144052 --><g id="edge26" class="edge"><title>27034775&#45;&gt;12144052</title><path style="fill:none;stroke:#000080;" d="M1215,81C1229,99 1244,119 1255,135"/><polygon style="fill:none;stroke:#000080;" points="1211,84 1206,69 1219,78 1211,84"/></g><!-- 27034775&#45;&gt;9379004 --><g id="edge28" class="edge"><title>27034775&#45;&gt;9379004</title><path style="fill:none;stroke:#000080;" d="M1143,81C1129,96 1114,114 1101,129"/><polygon style="fill:none;stroke:#000080;" points="1139,77 1153,69 1147,84 1139,77"/></g></g></svg>