<?xml version="1.0" encoding="UTF-8" standalone="no"?><!DOCTYPE svg PUBLIC "-//W3C//DTD SVG 1.0//EN" "http://www.w3.org/TR/2001/REC-SVG-20010904/DTD/svg10.dtd" [ <!ATTLIST svg xmlns:xlink CDATA #FIXED "http://www.w3.org/1999/xlink">]><!-- Generated by dot version 2.7.20051103.0540 (Thu Nov  3 05:48:38 UTC 2005)     For user: Bill Gates --><!-- Title: uml Pages: 1 --><svg width="609pt" height="160pt" viewBox = "0 0 609 160" xmlns="http://www.w3.org/2000/svg" xmlns:xlink="http://www.w3.org/1999/xlink"><g id="graph0" class="graph" style="font-family:Times-Roman;font-size:14.00;"><title>uml</title><polygon style="fill:white;stroke:white;" points="-1,161 -1,-1 610,-1 610,161 -1,161"/><!-- 12144052 --><g id="node1" class="node"><title>12144052</title><a xlink:href="platform%3A%2Fresource%2FUML_SCL%2Fuml%2FSCL_XSD_en_UML.uml%23_lkv1qGuPEd&#45;T6NciM0izgg" xlink:title="tText"><polygon style="fill:#e0ffff;stroke:#a30036;stroke-dasharray:5,2;" points="43,128 5,128 5,154 43,154 43,128"/><text text-anchor="middle" x="24" y="145" style="font-family:Arial;font-size:11.00;">tText</text></a></g><!-- 9379004 --><g id="node2" class="node"><title>9379004</title><a xlink:href="platform%3A%2Fresource%2FUML_SCL%2Fuml%2FSCL_XSD_en_UML.uml%23_lk5mc2uPEd&#45;T6NciM0izgg" xlink:title="tPrivate"><polygon style="fill:#e0ffff;stroke:#a30036;stroke-dasharray:5,2;" points="113,128 61,128 61,154 113,154 113,128"/><text text-anchor="middle" x="87" y="145" style="font-family:Arial;font-size:11.00;">tPrivate</text></a></g><!-- 19029492 --><g id="node3" class="node"><title>19029492</title><a xlink:href="platform%3A%2Fresource%2FUML_SCL%2Fuml%2FSCL_XSD_en_UML.uml%23_lk5mlmuPEd&#45;T6NciM0izgg" xlink:title="tHeader"><polygon style="fill:#e0ffff;stroke:#a30036;stroke-dasharray:5,2;" points="185,128 131,128 131,154 185,154 185,128"/><text text-anchor="middle" x="158" y="145" style="font-family:Arial;font-size:11.00;">tHeader</text></a></g><!-- 26413858 --><g id="node4" class="node"><title>26413858</title><a xlink:href="platform%3A%2Fresource%2FUML_SCL%2Fuml%2FSCL_XSD_en_UML.uml%23_llgDiGuPEd&#45;T6NciM0izgg" xlink:title="tSubstation"><polygon style="fill:#e0ffff;stroke:#a30036;stroke-dasharray:5,2;" points="273,128 203,128 203,154 273,154 273,128"/><text text-anchor="middle" x="238" y="145" style="font-family:Arial;font-size:11.00;">tSubstation</text></a></g><!-- 31228273 --><g id="node5" class="node"><title>31228273</title><a xlink:href="platform%3A%2Fresource%2FUML_SCL%2Fuml%2FSCL_XSD_en_UML.uml%23_lnb9F2uPEd&#45;T6NciM0izgg" xlink:title="tCommunication"><polygon style="fill:#e0ffff;stroke:#a30036;stroke-dasharray:5,2;" points="385,128 291,128 291,154 385,154 385,128"/><text text-anchor="middle" x="338" y="145" style="font-family:Arial;font-size:11.00;">tCommunication</text></a></g><!-- 30593327 --><g id="node6" class="node"><title>30593327</title><a xlink:href="platform%3A%2Fresource%2FUML_SCL%2Fuml%2FSCL_XSD_en_UML.uml%23_lly&#45;dGuPEd&#45;T6NciM0izgg" xlink:title="tIED"><polygon style="fill:#e0ffff;stroke:#a30036;stroke-dasharray:5,2;" points="439,128 403,128 403,154 439,154 439,128"/><text text-anchor="middle" x="421" y="145" style="font-family:Arial;font-size:11.00;">tIED</text></a></g><!-- 10947228 --><g id="node7" class="node"><title>10947228</title><a xlink:href="platform%3A%2Fresource%2FUML_SCL%2Fuml%2FSCL_XSD_en_UML.uml%23_ln4pFmuPEd&#45;T6NciM0izgg" xlink:title="tDataTypeTemplates"><polygon style="fill:#e0ffff;stroke:#a30036;stroke-dasharray:5,2;" points="573,128 457,128 457,154 573,154 573,128"/><text text-anchor="middle" x="515" y="145" style="font-family:Arial;font-size:11.00;">tDataTypeTemplates</text></a></g><!-- 20069057 --><g id="node8" class="node"><title>20069057</title><polygon style="fill:#ffffcc;stroke:#ffffcc;" points="163,55 163,5 313,5 313,55 163,55"/><a xlink:href="platform%3A%2Fresource%2FUML_SCL%2Fuml%2FSCL_XSD_en_UML.uml%23_ln4pL2uPEd&#45;T6NciM0izgg" xlink:title="SCL"><clipPath id="mypathfile:/D:/eclipse/configuration/org.eclipse.osgi/bundles/954/1/.cp/icons/full/obj16/Class.gif20069057"><polygon points="180,8 164,8 164,25 180,25 180,8 "/></clipPath><image xlink:href="file:/D:/eclipse/configuration/org.eclipse.osgi/bundles/954/1/.cp/icons/full/obj16/Class.gif" width="16px" height="17px" preserveAspectRatio="xMidYMid meet" x="164" y="8" clip-path="url(#mypathfile:/D:/eclipse/configuration/org.eclipse.osgi/bundles/954/1/.cp/icons/full/obj16/Class.gif20069057)"/><text text-anchor="middle" x="246" y="21" style="font-family:Arial;font-size:13.00;">SCL</text><polygon style="fill:none;stroke:#a30036;" points="163,28 163,5 313,5 313,28 163,28"/></a><a xlink:href="platform%3A%2Fresource%2FUML_SCL%2Fuml%2FSCL_XSD_en_UML.uml%23_lkv1omuPEd&#45;T6NciM0izgg" xlink:title="wildcard"><text text-anchor="middle" x="238" y="39" style="font-family:Arial;font-size:11.00;">«any, element» wildcard [0..*]</text></a><a xlink:href="platform%3A%2Fresource%2FUML_SCL%2Fuml%2FSCL_XSD_en_UML.uml%23_lk5mgmuPEd&#45;T6NciM0izgg" xlink:title="wildcard"><text text-anchor="middle" x="226" y="51" style="font-family:Arial;font-size:11.00;">«any, attribute» wildcard</text></a><polygon style="fill:none;stroke:#a30036;" points="163,55 163,28 313,28 313,55 163,55"/></g><!-- 20069057&#45;&gt;12144052 --><g id="edge2" class="edge"><title>20069057&#45;&gt;12144052</title><a xlink:href="platform%3A%2Fresource%2FUML_SCL%2Fuml%2FSCL_XSD_en_UML.uml%23_lkv1p2uPEd&#45;T6NciM0izgg" xlink:title="Text\n0..1\n"><path style="fill:none;stroke:#a30036;" d="M151,46C129,53 107,61 87,73 68,85 51,104 39,119"/><polygon style="fill:#a30036;stroke:#a30036;" points="151,46 158,48 163,43 156,41 151,46"/><polygon style="fill:#a30036;stroke:#a30036;" points="33,127 43,122 35,125 39,119 35,125 35,116 33,127 33,127"/><text text-anchor="middle" x="103" y="88" style="font-family:Arial;font-size:10.00;">Text</text><text text-anchor="middle" x="103" y="100" style="font-family:Arial;font-size:10.00;">0..1</text></a></g><!-- 20069057&#45;&gt;9379004 --><g id="edge4" class="edge"><title>20069057&#45;&gt;9379004</title><a xlink:href="platform%3A%2Fresource%2FUML_SCL%2Fuml%2FSCL_XSD_en_UML.uml%23_lk5mcmuPEd&#45;T6NciM0izgg" xlink:title="Private\n0..*\n"><path style="fill:none;stroke:#a30036;" d="M159,61C153,64 147,69 141,73 125,86 111,105 101,119"/><polygon style="fill:#a30036;stroke:#a30036;" points="159,61 167,61 170,55 163,54 159,61"/><polygon style="fill:#a30036;stroke:#a30036;" points="95,127 105,122 97,125 101,119 97,125 97,116 95,127 95,127"/><text text-anchor="middle" x="157" y="88" style="font-family:Arial;font-size:10.00;">Private</text><text text-anchor="middle" x="157" y="100" style="font-family:Arial;font-size:10.00;">0..*</text></a></g><!-- 20069057&#45;&gt;19029492 --><g id="edge6" class="edge"><title>20069057&#45;&gt;19029492</title><a xlink:href="platform%3A%2Fresource%2FUML_SCL%2Fuml%2FSCL_XSD_en_UML.uml%23_ln4pMWuPEd&#45;T6NciM0izgg" xlink:title="Header\n1..1\n"><path style="fill:none;stroke:#a30036;" d="M207,65C205,67 203,70 201,73 190,87 179,105 171,118"/><polygon style="fill:#a30036;stroke:#a30036;" points="208,64 214,62 215,55 208,57 208,64"/><polygon style="fill:#a30036;stroke:#a30036;" points="166,127 175,120 167,124 171,118 167,124 167,116 166,127 166,127"/><text text-anchor="middle" x="217" y="88" style="font-family:Arial;font-size:10.00;">Header</text><text text-anchor="middle" x="217" y="100" style="font-family:Arial;font-size:10.00;">1..1</text></a></g><!-- 20069057&#45;&gt;26413858 --><g id="edge8" class="edge"><title>20069057&#45;&gt;26413858</title><a xlink:href="platform%3A%2Fresource%2FUML_SCL%2Fuml%2FSCL_XSD_en_UML.uml%23_ln4pNmuPEd&#45;T6NciM0izgg" xlink:title="&#171;element&#187; \nSubstation\n0..*\n"><path style="fill:none;stroke:#a30036;" d="M238,67C238,84 238,102 238,117"/><polygon style="fill:#a30036;stroke:#a30036;" points="238,67 242,61 238,55 234,61 238,67"/><polygon style="fill:#a30036;stroke:#a30036;" points="238,127 243,117 238,124 238,117 238,124 234,117 238,127 238,127"/><text text-anchor="middle" x="263" y="82" style="font-family:Arial;font-size:10.00;">&#171;element&#187; </text><text text-anchor="middle" x="263" y="94" style="font-family:Arial;font-size:10.00;">Substation</text><text text-anchor="middle" x="263" y="106" style="font-family:Arial;font-size:10.00;">0..*</text></a></g><!-- 20069057&#45;&gt;31228273 --><g id="edge10" class="edge"><title>20069057&#45;&gt;31228273</title><a xlink:href="platform%3A%2Fresource%2FUML_SCL%2Fuml%2FSCL_XSD_en_UML.uml%23_ln4pPGuPEd&#45;T6NciM0izgg" xlink:title="&#171;element&#187; \nCommunication\n0..1\n"><path style="fill:none;stroke:#a30036;" d="M282,63C286,66 290,70 293,73 305,87 317,105 325,118"/><polygon style="fill:#a30036;stroke:#a30036;" points="282,63 280,56 273,55 275,62 282,63"/><polygon style="fill:#a30036;stroke:#a30036;" points="331,127 329,116 329,125 325,119 329,125 322,121 331,127 331,127"/><text text-anchor="middle" x="352" y="82" style="font-family:Arial;font-size:10.00;">&#171;element&#187; </text><text text-anchor="middle" x="352" y="94" style="font-family:Arial;font-size:10.00;">Communication</text><text text-anchor="middle" x="352" y="106" style="font-family:Arial;font-size:10.00;">0..1</text></a></g><!-- 20069057&#45;&gt;30593327 --><g id="edge12" class="edge"><title>20069057&#45;&gt;30593327</title><a xlink:href="platform%3A%2Fresource%2FUML_SCL%2Fuml%2FSCL_XSD_en_UML.uml%23_ln4pQmuPEd&#45;T6NciM0izgg" xlink:title="&#171;element&#187; \nIED\n0..*\n"><path style="fill:none;stroke:#a30036;" d="M325,48C354,54 381,63 392,73 405,84 412,103 416,117"/><polygon style="fill:#a30036;stroke:#a30036;" points="325,48 320,43 313,45 318,50 325,48"/><polygon style="fill:#a30036;stroke:#a30036;" points="419,127 420,116 418,124 416,117 418,124 412,119 419,127 419,127"/><text text-anchor="middle" x="436" y="82" style="font-family:Arial;font-size:10.00;">&#171;element&#187; </text><text text-anchor="middle" x="436" y="94" style="font-family:Arial;font-size:10.00;">IED</text><text text-anchor="middle" x="436" y="106" style="font-family:Arial;font-size:10.00;">0..*</text></a></g><!-- 20069057&#45;&gt;10947228 --><g id="edge14" class="edge"><title>20069057&#45;&gt;10947228</title><a xlink:href="platform%3A%2Fresource%2FUML_SCL%2Fuml%2FSCL_XSD_en_UML.uml%23_ln4pSGuPEd&#45;T6NciM0izgg" xlink:title="&#171;element&#187; \nDataTypeTemplates\n0..1\n"><path style="fill:none;stroke:#a30036;" d="M325,40C379,48 443,58 466,73 482,84 495,103 504,118"/><polygon style="fill:#a30036;stroke:#a30036;" points="325,40 320,35 313,38 318,43 325,40"/><polygon style="fill:#a30036;stroke:#a30036;" points="509,127 508,116 508,124 504,118 508,124 500,120 509,127 509,127"/><text text-anchor="middle" x="540" y="82" style="font-family:Arial;font-size:10.00;">&#171;element&#187; </text><text text-anchor="middle" x="540" y="94" style="font-family:Arial;font-size:10.00;">DataTypeTemplates</text><text text-anchor="middle" x="540" y="106" style="font-family:Arial;font-size:10.00;">0..1</text></a></g></g></svg>