<?xml version="1.0" encoding="UTF-8" standalone="no"?><!DOCTYPE svg PUBLIC "-//W3C//DTD SVG 1.0//EN" "http://www.w3.org/TR/2001/REC-SVG-20010904/DTD/svg10.dtd" [ <!ATTLIST svg xmlns:xlink CDATA #FIXED "http://www.w3.org/1999/xlink">]><!-- Generated by dot version 2.7.20051103.0540 (Thu Nov  3 05:48:38 UTC 2005)     For user: Bill Gates --><!-- Title: uml Pages: 1 --><svg width="533pt" height="550pt" viewBox = "0 0 533 550" xmlns="http://www.w3.org/2000/svg" xmlns:xlink="http://www.w3.org/1999/xlink"><g id="graph0" class="graph" style="font-family:Times-Roman;font-size:14.00;"><title>uml</title><polygon style="fill:white;stroke:white;" points="-1,551 -1,-1 534,-1 534,551 -1,551"/><!-- 14016938 --><g id="node1" class="node"><title>14016938</title><a xlink:href="platform%3A%2Fresource%2FUML_SCL%2Fuml%2FSCL_XSD_en_UML.uml%23_llgDeGuPEd&#45;T6NciM0izgg" xlink:title="tGeneralEquipment"><polygon style="fill:#e0ffff;stroke:#a30036;stroke-dasharray:5,2;" points="300,518 190,518 190,544 300,544 300,518"/><text text-anchor="middle" x="245" y="535" style="font-family:Arial;font-size:11.00;">tGeneralEquipment</text></a></g><!-- 6392392 --><g id="node2" class="node"><title>6392392</title><a xlink:href="platform%3A%2Fresource%2FUML_SCL%2Fuml%2FSCL_XSD_en_UML.uml%23_llgDkWuPEd&#45;T6NciM0izgg" xlink:title="tBay"><polygon style="fill:#e0ffff;stroke:#a30036;stroke-dasharray:5,2;" points="41,518 5,518 5,544 41,544 41,518"/><text text-anchor="middle" x="23" y="535" style="font-family:Arial;font-size:11.00;">tBay</text></a></g><!-- 16282826 --><g id="node3" class="node"><title>16282826</title><a xlink:href="platform%3A%2Fresource%2FUML_SCL%2Fuml%2FSCL_XSD_en_UML.uml%23_llgDr2uPEd&#45;T6NciM0izgg" xlink:title="tSubFunction"><polygon style="fill:#e0ffff;stroke:#a30036;stroke-dasharray:5,2;" points="139,518 59,518 59,544 139,544 139,518"/><text text-anchor="middle" x="99" y="535" style="font-family:Arial;font-size:11.00;">tSubFunction</text></a></g><!-- 15618603 --><g id="node4" class="node"><title>15618603</title><a xlink:href="platform%3A%2Fresource%2FUML_SCL%2Fuml%2FSCL_XSD_en_UML.uml%23_lk5miGuPEd&#45;T6NciM0izgg" xlink:title="tNaming"><polygon style="fill:#e0ffff;stroke:#a30036;stroke-dasharray:5,2;" points="494,6 438,6 438,32 494,32 494,6"/><text text-anchor="middle" x="466" y="23" style="font-family:Arial;font-size:11.00;">tNaming</text></a></g><!-- 6467458 --><g id="node11" class="node"><title>6467458</title><polygon style="fill:#ffffcc;stroke:#ffffcc;" points="404,109 404,71 528,71 528,109 404,109"/><a xlink:href="platform%3A%2Fresource%2FUML_SCL%2Fuml%2FSCL_XSD_en_UML.uml%23_llMhcWuPEd&#45;T6NciM0izgg" xlink:title="tLNodeContainer"><clipPath id="mypathfile:/D:/eclipse/configuration/org.eclipse.osgi/bundles/954/1/.cp/icons/full/obj16/Class.gif6467458"><polygon points="421,74 405,74 405,91 421,91 421,74 "/></clipPath><image xlink:href="file:/D:/eclipse/configuration/org.eclipse.osgi/bundles/954/1/.cp/icons/full/obj16/Class.gif" width="16px" height="17px" preserveAspectRatio="xMidYMid meet" x="405" y="74" clip-path="url(#mypathfile:/D:/eclipse/configuration/org.eclipse.osgi/bundles/954/1/.cp/icons/full/obj16/Class.gif6467458)"/><text text-anchor="middle" x="474" y="87" style="font-family:ArialI;font-size:13.00;">tLNodeContainer</text><polygon style="fill:none;stroke:#a30036;" points="404,94 404,71 528,71 528,94 404,94"/></a><text text-anchor="middle" x="466" y="105" style="font-family:Arial;font-size:11.00;"> </text><polygon style="fill:none;stroke:#a30036;" points="404,109 404,94 528,94 528,109 404,109"/></g><!-- 15618603&#45;&gt;6467458 --><g id="edge12" class="edge"><title>15618603&#45;&gt;6467458</title><path style="fill:none;stroke:#000080;" d="M466,48C466,56 466,64 466,71"/><polygon style="fill:none;stroke:#000080;" points="461,48 466,33 471,48 461,48"/></g><!-- 9972571 --><g id="node5" class="node"><title>9972571</title><a xlink:href="platform%3A%2Fresource%2FUML_SCL%2Fuml%2FSCL_XSD_en_UML.uml%23_llMhdGuPEd&#45;T6NciM0izgg" xlink:title="tLNode"><polygon style="fill:#e0ffff;stroke:#a30036;stroke-dasharray:5,2;" points="523,175 473,175 473,201 523,201 523,175"/><text text-anchor="middle" x="498" y="192" style="font-family:Arial;font-size:11.00;">tLNode</text></a></g><!-- 26413858 --><g id="node6" class="node"><title>26413858</title><polygon style="fill:#ffffcc;stroke:#ffffcc;" points="139,359 139,321 231,321 231,359 139,359"/><a xlink:href="platform%3A%2Fresource%2FUML_SCL%2Fuml%2FSCL_XSD_en_UML.uml%23_llgDiGuPEd&#45;T6NciM0izgg" xlink:title="tSubstation"><clipPath id="mypathfile:/D:/eclipse/configuration/org.eclipse.osgi/bundles/954/1/.cp/icons/full/obj16/Class.gif26413858"><polygon points="156,324 140,324 140,341 156,341 156,324 "/></clipPath><image xlink:href="file:/D:/eclipse/configuration/org.eclipse.osgi/bundles/954/1/.cp/icons/full/obj16/Class.gif" width="16px" height="17px" preserveAspectRatio="xMidYMid meet" x="140" y="324" clip-path="url(#mypathfile:/D:/eclipse/configuration/org.eclipse.osgi/bundles/954/1/.cp/icons/full/obj16/Class.gif26413858)"/><text text-anchor="middle" x="193" y="337" style="font-family:Arial;font-size:13.00;">tSubstation</text><polygon style="fill:none;stroke:#a30036;" points="139,344 139,321 231,321 231,344 139,344"/></a><text text-anchor="middle" x="185" y="355" style="font-family:Arial;font-size:11.00;"> </text><polygon style="fill:none;stroke:#a30036;" points="139,359 139,344 231,344 231,359 139,359"/></g><!-- 3271021 --><g id="node8" class="node"><title>3271021</title><polygon style="fill:#ffffcc;stroke:#ffffcc;" points="5,457 5,419 127,419 127,457 5,457"/><a xlink:href="platform%3A%2Fresource%2FUML_SCL%2Fuml%2FSCL_XSD_en_UML.uml%23_llgDi2uPEd&#45;T6NciM0izgg" xlink:title="tVoltageLevel"><clipPath id="mypathfile:/D:/eclipse/configuration/org.eclipse.osgi/bundles/954/1/.cp/icons/full/obj16/Class.gif3271021"><polygon points="22,422 6,422 6,439 22,439 22,422 "/></clipPath><image xlink:href="file:/D:/eclipse/configuration/org.eclipse.osgi/bundles/954/1/.cp/icons/full/obj16/Class.gif" width="16px" height="17px" preserveAspectRatio="xMidYMid meet" x="6" y="422" clip-path="url(#mypathfile:/D:/eclipse/configuration/org.eclipse.osgi/bundles/954/1/.cp/icons/full/obj16/Class.gif3271021)"/><text text-anchor="middle" x="74" y="435" style="font-family:Arial;font-size:13.00;">tVoltageLevel</text><polygon style="fill:none;stroke:#a30036;" points="5,442 5,419 127,419 127,442 5,442"/></a><a xlink:href="platform%3A%2Fresource%2FUML_SCL%2Fuml%2FSCL_XSD_en_UML.uml%23_llgDjWuPEd&#45;T6NciM0izgg" xlink:title="Voltage"><text text-anchor="middle" x="66" y="453" style="font-family:Arial;font-size:11.00;">Voltage : tVoltage [0..1]</text></a><polygon style="fill:none;stroke:#a30036;" points="5,457 5,442 127,442 127,457 5,457"/></g><!-- 26413858&#45;&gt;3271021 --><g id="edge14" class="edge"><title>26413858&#45;&gt;3271021</title><a xlink:href="platform%3A%2Fresource%2FUML_SCL%2Fuml%2FSCL_XSD_en_UML.uml%23_llgDimuPEd&#45;T6NciM0izgg" xlink:title="VoltageLevel\n1..*\n"><path style="fill:none;stroke:#a30036;" d="M138,365C132,369 126,373 121,377 109,387 97,400 87,411"/><polygon style="fill:#a30036;stroke:#a30036;" points="138,365 145,366 148,359 141,359 138,365"/><polygon style="fill:#a30036;stroke:#a30036;" points="81,419 91,414 83,417 87,411 83,417 83,408 81,419 81,419"/><text text-anchor="middle" x="157" y="386" style="font-family:Arial;font-size:10.00;">VoltageLevel</text><text text-anchor="middle" x="157" y="398" style="font-family:Arial;font-size:10.00;">1..*</text></a></g><!-- 21506757 --><g id="node9" class="node"><title>21506757</title><polygon style="fill:#ffffcc;stroke:#ffffcc;" points="145,457 145,419 225,419 225,457 145,457"/><a xlink:href="platform%3A%2Fresource%2FUML_SCL%2Fuml%2FSCL_XSD_en_UML.uml%23_llgDrGuPEd&#45;T6NciM0izgg" xlink:title="tFunction"><clipPath id="mypathfile:/D:/eclipse/configuration/org.eclipse.osgi/bundles/954/1/.cp/icons/full/obj16/Class.gif21506757"><polygon points="162,422 146,422 146,439 162,439 162,422 "/></clipPath><image xlink:href="file:/D:/eclipse/configuration/org.eclipse.osgi/bundles/954/1/.cp/icons/full/obj16/Class.gif" width="16px" height="17px" preserveAspectRatio="xMidYMid meet" x="146" y="422" clip-path="url(#mypathfile:/D:/eclipse/configuration/org.eclipse.osgi/bundles/954/1/.cp/icons/full/obj16/Class.gif21506757)"/><text text-anchor="middle" x="193" y="435" style="font-family:Arial;font-size:13.00;">tFunction</text><polygon style="fill:none;stroke:#a30036;" points="145,442 145,419 225,419 225,442 145,442"/></a><text text-anchor="middle" x="185" y="453" style="font-family:Arial;font-size:11.00;"> </text><polygon style="fill:none;stroke:#a30036;" points="145,457 145,442 225,442 225,457 145,457"/></g><!-- 26413858&#45;&gt;21506757 --><g id="edge16" class="edge"><title>26413858&#45;&gt;21506757</title><a xlink:href="platform%3A%2Fresource%2FUML_SCL%2Fuml%2FSCL_XSD_en_UML.uml%23_llgDq2uPEd&#45;T6NciM0izgg" xlink:title="Function\n0..*\n"><path style="fill:none;stroke:#a30036;" d="M185,371C185,383 185,397 185,409"/><polygon style="fill:#a30036;stroke:#a30036;" points="185,371 189,365 185,359 181,365 185,371"/><polygon style="fill:#a30036;stroke:#a30036;" points="185,419 190,409 185,416 185,409 185,416 181,409 185,419 185,419"/><text text-anchor="middle" x="205" y="386" style="font-family:Arial;font-size:10.00;">Function</text><text text-anchor="middle" x="205" y="398" style="font-family:Arial;font-size:10.00;">0..*</text></a></g><!-- 15048422 --><g id="node7" class="node"><title>15048422</title><polygon style="fill:#ffffcc;stroke:#ffffcc;" points="148,283 148,245 296,245 296,283 148,283"/><a xlink:href="platform%3A%2Fresource%2FUML_SCL%2Fuml%2FSCL_XSD_en_UML.uml%23_llMhlWuPEd&#45;T6NciM0izgg" xlink:title="tEquipmentContainer"><clipPath id="mypathfile:/D:/eclipse/configuration/org.eclipse.osgi/bundles/954/1/.cp/icons/full/obj16/Class.gif15048422"><polygon points="165,248 149,248 149,265 165,265 165,248 "/></clipPath><image xlink:href="file:/D:/eclipse/configuration/org.eclipse.osgi/bundles/954/1/.cp/icons/full/obj16/Class.gif" width="16px" height="17px" preserveAspectRatio="xMidYMid meet" x="149" y="248" clip-path="url(#mypathfile:/D:/eclipse/configuration/org.eclipse.osgi/bundles/954/1/.cp/icons/full/obj16/Class.gif15048422)"/><text text-anchor="middle" x="230" y="261" style="font-family:ArialI;font-size:13.00;">tEquipmentContainer</text><polygon style="fill:none;stroke:#a30036;" points="148,268 148,245 296,245 296,268 148,268"/></a><text text-anchor="middle" x="222" y="279" style="font-family:Arial;font-size:11.00;"> </text><polygon style="fill:none;stroke:#a30036;" points="148,283 148,268 296,268 296,283 148,283"/></g><!-- 15048422&#45;&gt;14016938 --><g id="edge18" class="edge"><title>15048422&#45;&gt;14016938</title><a xlink:href="platform%3A%2Fresource%2FUML_SCL%2Fuml%2FSCL_XSD_en_UML.uml%23_llgDd2uPEd&#45;T6NciM0izgg" xlink:title="GeneralEquipment\n0..*\n"><path style="fill:none;stroke:#a30036;" d="M232,295C235,303 238,312 240,321 257,389 260,406 265,475 266,486 268,489 265,499 264,502 263,506 261,508"/><polygon style="fill:#a30036;stroke:#a30036;" points="232,295 234,288 229,283 227,290 232,295"/><polygon style="fill:#a30036;stroke:#a30036;" points="256,517 265,510 257,514 261,508 257,514 257,506 256,517 256,517"/><text text-anchor="middle" x="302" y="386" style="font-family:Arial;font-size:10.00;">GeneralEquipment</text><text text-anchor="middle" x="302" y="398" style="font-family:Arial;font-size:10.00;">0..*</text></a></g><!-- 15048422&#45;&gt;26413858 --><g id="edge2" class="edge"><title>15048422&#45;&gt;26413858</title><path style="fill:none;stroke:#000080;" d="M206,297C202,305 198,313 194,321"/><polygon style="fill:none;stroke:#000080;" points="202,294 213,283 211,299 202,294"/></g><!-- 15048422&#45;&gt;3271021 --><g id="edge6" class="edge"><title>15048422&#45;&gt;3271021</title><path style="fill:none;stroke:#000080;" d="M169,291C155,300 141,310 130,321 102,350 83,394 73,419"/><polygon style="fill:none;stroke:#000080;" points="166,286 182,283 172,295 166,286"/></g><!-- 3271021&#45;&gt;6392392 --><g id="edge20" class="edge"><title>3271021&#45;&gt;6392392</title><a xlink:href="platform%3A%2Fresource%2FUML_SCL%2Fuml%2FSCL_XSD_en_UML.uml%23_llgDkGuPEd&#45;T6NciM0izgg" xlink:title="Bay\n1..*\n"><path style="fill:none;stroke:#a30036;" d="M52,468C46,481 39,496 33,508"/><polygon style="fill:#a30036;stroke:#a30036;" points="52,468 58,464 57,457 51,461 52,468"/><polygon style="fill:#a30036;stroke:#a30036;" points="29,517 37,510 30,514 33,508 30,514 29,506 29,517 29,517"/><text text-anchor="middle" x="60" y="484" style="font-family:Arial;font-size:10.00;">Bay</text><text text-anchor="middle" x="60" y="496" style="font-family:Arial;font-size:10.00;">1..*</text></a></g><!-- 21506757&#45;&gt;14016938 --><g id="edge24" class="edge"><title>21506757&#45;&gt;14016938</title><a xlink:href="platform%3A%2Fresource%2FUML_SCL%2Fuml%2FSCL_XSD_en_UML.uml%23_llgDumuPEd&#45;T6NciM0izgg" xlink:title="GeneralEquipment\n0..*\n"><path style="fill:none;stroke:#a30036;" d="M175,469C174,479 174,490 180,499 183,504 187,508 191,512"/><polygon style="fill:#a30036;stroke:#a30036;" points="175,469 180,464 178,457 173,462 175,469"/><polygon style="fill:#a30036;stroke:#a30036;" points="200,517 193,508 197,516 191,512 197,516 189,516 200,517 200,517"/><text text-anchor="middle" x="223" y="484" style="font-family:Arial;font-size:10.00;">GeneralEquipment</text><text text-anchor="middle" x="223" y="496" style="font-family:Arial;font-size:10.00;">0..*</text></a></g><!-- 21506757&#45;&gt;16282826 --><g id="edge22" class="edge"><title>21506757&#45;&gt;16282826</title><a xlink:href="platform%3A%2Fresource%2FUML_SCL%2Fuml%2FSCL_XSD_en_UML.uml%23_llgDrmuPEd&#45;T6NciM0izgg" xlink:title="SubFunction\n0..*\n"><path style="fill:none;stroke:#a30036;" d="M134,459C127,463 120,469 115,475 108,485 104,497 102,507"/><polygon style="fill:#a30036;stroke:#a30036;" points="134,459 142,459 145,453 138,452 134,459"/><polygon style="fill:#a30036;stroke:#a30036;" points="100,517 106,508 101,514 102,507 101,514 98,506 100,517 100,517"/><text text-anchor="middle" x="147" y="484" style="font-family:Arial;font-size:10.00;">SubFunction</text><text text-anchor="middle" x="147" y="496" style="font-family:Arial;font-size:10.00;">0..*</text></a></g><!-- 7073350 --><g id="node10" class="node"><title>7073350</title><polygon style="fill:#ffffcc;stroke:#ffffcc;" points="289,207 289,169 455,169 455,207 289,207"/><a xlink:href="platform%3A%2Fresource%2FUML_SCL%2Fuml%2FSCL_XSD_en_UML.uml%23_llMhk2uPEd&#45;T6NciM0izgg" xlink:title="tPowerSystemResource"><clipPath id="mypathfile:/D:/eclipse/configuration/org.eclipse.osgi/bundles/954/1/.cp/icons/full/obj16/Class.gif7073350"><polygon points="306,172 290,172 290,189 306,189 306,172 "/></clipPath><image xlink:href="file:/D:/eclipse/configuration/org.eclipse.osgi/bundles/954/1/.cp/icons/full/obj16/Class.gif" width="16px" height="17px" preserveAspectRatio="xMidYMid meet" x="290" y="172" clip-path="url(#mypathfile:/D:/eclipse/configuration/org.eclipse.osgi/bundles/954/1/.cp/icons/full/obj16/Class.gif7073350)"/><text text-anchor="middle" x="381" y="185" style="font-family:ArialI;font-size:13.00;">tPowerSystemResource</text><polygon style="fill:none;stroke:#a30036;" points="289,192 289,169 455,169 455,192 289,192"/></a><text text-anchor="middle" x="372" y="203" style="font-family:Arial;font-size:11.00;"> </text><polygon style="fill:none;stroke:#a30036;" points="289,207 289,192 455,192 455,207 289,207"/></g><!-- 7073350&#45;&gt;15048422 --><g id="edge4" class="edge"><title>7073350&#45;&gt;15048422</title><path style="fill:none;stroke:#000080;" d="M321,214C301,224 279,235 260,245"/><polygon style="fill:none;stroke:#000080;" points="318,209 334,207 323,219 318,209"/></g><!-- 7073350&#45;&gt;21506757 --><g id="edge8" class="edge"><title>7073350&#45;&gt;21506757</title><path style="fill:none;stroke:#000080;" d="M379,222C387,269 393,353 348,401 332,419 268,429 225,434"/><polygon style="fill:none;stroke:#000080;" points="374,223 376,207 384,221 374,223"/></g><!-- 6467458&#45;&gt;9972571 --><g id="edge26" class="edge"><title>6467458&#45;&gt;9972571</title><a xlink:href="platform%3A%2Fresource%2FUML_SCL%2Fuml%2FSCL_XSD_en_UML.uml%23_llMhc2uPEd&#45;T6NciM0izgg" xlink:title="LNode\n0..*\n"><path style="fill:none;stroke:#a30036;" d="M476,120C481,134 486,151 491,164"/><polygon style="fill:#a30036;stroke:#a30036;" points="476,120 478,113 472,109 470,116 476,120"/><polygon style="fill:#a30036;stroke:#a30036;" points="494,174 495,163 493,171 491,164 493,171 487,166 494,174 494,174"/><text text-anchor="middle" x="498" y="136" style="font-family:Arial;font-size:10.00;">LNode</text><text text-anchor="middle" x="498" y="148" style="font-family:Arial;font-size:10.00;">0..*</text></a></g><!-- 6467458&#45;&gt;7073350 --><g id="edge10" class="edge"><title>6467458&#45;&gt;7073350</title><path style="fill:none;stroke:#000080;" d="M436,120C422,136 404,155 390,169"/><polygon style="fill:none;stroke:#000080;" points="433,116 447,109 440,123 433,116"/></g></g></svg>