<?xml version="1.0" encoding="UTF-8" standalone="no"?><!DOCTYPE svg PUBLIC "-//W3C//DTD SVG 1.0//EN" "http://www.w3.org/TR/2001/REC-SVG-20010904/DTD/svg10.dtd" [ <!ATTLIST svg xmlns:xlink CDATA #FIXED "http://www.w3.org/1999/xlink">]><!-- Generated by dot version 2.7.20051103.0540 (Thu Nov  3 05:48:38 UTC 2005)     For user: Bill Gates --><!-- Title: uml Pages: 1 --><svg width="934pt" height="450pt" viewBox = "0 0 934 450" xmlns="http://www.w3.org/2000/svg" xmlns:xlink="http://www.w3.org/1999/xlink"><g id="graph0" class="graph" style="font-family:Times-Roman;font-size:14.00;"><title>uml</title><polygon style="fill:white;stroke:white;" points="-1,451 -1,-1 935,-1 935,451 -1,451"/><!-- 10947228 --><g id="node1" class="node"><title>10947228</title><polygon style="fill:#ffffcc;stroke:#ffffcc;" points="486,43 486,5 632,5 632,43 486,43"/><a xlink:href="platform%3A%2Fresource%2FUML_SCL%2Fuml%2FSCL_XSD_en_UML.uml%23_ln4pFmuPEd&#45;T6NciM0izgg" xlink:title="tDataTypeTemplates"><clipPath id="mypathfile:/D:/eclipse/configuration/org.eclipse.osgi/bundles/954/1/.cp/icons/full/obj16/Class.gif10947228"><polygon points="503,8 487,8 487,25 503,25 503,8 "/></clipPath><image xlink:href="file:/D:/eclipse/configuration/org.eclipse.osgi/bundles/954/1/.cp/icons/full/obj16/Class.gif" width="16px" height="17px" preserveAspectRatio="xMidYMid meet" x="487" y="8" clip-path="url(#mypathfile:/D:/eclipse/configuration/org.eclipse.osgi/bundles/954/1/.cp/icons/full/obj16/Class.gif10947228)"/><text text-anchor="middle" x="567" y="21" style="font-family:Arial;font-size:13.00;">tDataTypeTemplates</text><polygon style="fill:none;stroke:#a30036;" points="486,28 486,5 632,5 632,28 486,28"/></a><text text-anchor="middle" x="559" y="39" style="font-family:Arial;font-size:11.00;"> </text><polygon style="fill:none;stroke:#a30036;" points="486,43 486,28 632,28 632,43 486,43"/></g><!-- 30598766 --><g id="node2" class="node"><title>30598766</title><polygon style="fill:#ffffcc;stroke:#ffffcc;" points="147,208 147,110 337,110 337,208 147,208"/><a xlink:href="platform%3A%2Fresource%2FUML_SCL%2Fuml%2FSCL_XSD_en_UML.uml%23_lnu4JmuPEd&#45;T6NciM0izgg" xlink:title="tLNodeType"><clipPath id="mypathfile:/D:/eclipse/configuration/org.eclipse.osgi/bundles/954/1/.cp/icons/full/obj16/Class.gif30598766"><polygon points="164,113 148,113 148,130 164,130 164,113 "/></clipPath><image xlink:href="file:/D:/eclipse/configuration/org.eclipse.osgi/bundles/954/1/.cp/icons/full/obj16/Class.gif" width="16px" height="17px" preserveAspectRatio="xMidYMid meet" x="148" y="113" clip-path="url(#mypathfile:/D:/eclipse/configuration/org.eclipse.osgi/bundles/954/1/.cp/icons/full/obj16/Class.gif30598766)"/><text text-anchor="middle" x="251" y="126" style="font-family:Arial;font-size:13.00;">tLNodeType</text><polygon style="fill:none;stroke:#a30036;" points="147,133 147,110 337,110 337,133 147,133"/></a><a xlink:href="platform%3A%2Fresource%2FUML_SCL%2Fuml%2FSCL_XSD_en_UML.uml%23_lkv1omuPEd&#45;T6NciM0izgg" xlink:title="wildcard"><text text-anchor="middle" x="222" y="144" style="font-family:Arial;font-size:11.00;">«any, element» wildcard [0..*]</text></a><a xlink:href="platform%3A%2Fresource%2FUML_SCL%2Fuml%2FSCL_XSD_en_UML.uml%23_lk5mgmuPEd&#45;T6NciM0izgg" xlink:title="wildcard"><text text-anchor="middle" x="210" y="156" style="font-family:Arial;font-size:11.00;">«any, attribute» wildcard</text></a><a xlink:href="platform%3A%2Fresource%2FUML_SCL%2Fuml%2FSCL_XSD_en_UML.uml%23_lk5mkWuPEd&#45;T6NciM0izgg" xlink:title="id"><text text-anchor="middle" x="203" y="168" style="font-family:Arial;font-size:11.00;">«attribute» id : tName</text></a><a xlink:href="platform%3A%2Fresource%2FUML_SCL%2Fuml%2FSCL_XSD_en_UML.uml%23_lk5mlWuPEd&#45;T6NciM0izgg" xlink:title="_attrGroup1"><text text-anchor="middle" x="203" y="180" style="font-family:Arial;font-size:11.00;">_attrGroup1 : agDesc</text></a><a xlink:href="platform%3A%2Fresource%2FUML_SCL%2Fuml%2FSCL_XSD_en_UML.uml%23_lnu4QGuPEd&#45;T6NciM0izgg" xlink:title="iedType"><text text-anchor="middle" x="242" y="192" style="font-family:Arial;font-size:11.00;">«attribute» iedType : tAnyName [0..1]</text></a><a xlink:href="platform%3A%2Fresource%2FUML_SCL%2Fuml%2FSCL_XSD_en_UML.uml%23_lnu4RGuPEd&#45;T6NciM0izgg" xlink:title="lnClass"><text text-anchor="middle" x="237" y="204" style="font-family:Arial;font-size:11.00;">«attribute» lnClass : tLNClassEnum</text></a><polygon style="fill:none;stroke:#a30036;" points="147,208 147,133 337,133 337,208 147,208"/></g><!-- 10947228&#45;&gt;30598766 --><g id="edge2" class="edge"><title>10947228&#45;&gt;30598766</title><a xlink:href="platform%3A%2Fresource%2FUML_SCL%2Fuml%2FSCL_XSD_en_UML.uml%23_ln4pF2uPEd&#45;T6NciM0izgg" xlink:title="LNodeType\n1..*\n"><path style="fill:none;stroke:#a30036;" d="M497,47C484,52 471,56 459,61 411,80 398,82 351,103 349,104 347,105 345,106"/><polygon style="fill:#a30036;stroke:#a30036;" points="497,47 504,49 508,43 501,41 497,47"/><polygon style="fill:#a30036;stroke:#a30036;" points="336,110 347,110 339,109 345,106 339,109 343,102 336,110 336,110"/><text text-anchor="middle" x="491" y="70" style="font-family:Arial;font-size:10.00;">LNodeType</text><text text-anchor="middle" x="491" y="82" style="font-family:Arial;font-size:10.00;">1..*</text></a></g><!-- 22052455 --><g id="node3" class="node"><title>22052455</title><polygon style="fill:#ffffcc;stroke:#ffffcc;" points="360,215 360,103 550,103 550,215 360,215"/><a xlink:href="platform%3A%2Fresource%2FUML_SCL%2Fuml%2FSCL_XSD_en_UML.uml%23_lnu4SGuPEd&#45;T6NciM0izgg" xlink:title="tDOType"><text text-anchor="middle" x="455" y="115" style="font-family:Arial;font-size:11.00;">«complexType, choice» </text><clipPath id="mypathfile:/D:/eclipse/configuration/org.eclipse.osgi/bundles/954/1/.cp/icons/full/obj16/Class.gif22052455"><polygon points="377,120 361,120 361,137 377,137 377,120 "/></clipPath><image xlink:href="file:/D:/eclipse/configuration/org.eclipse.osgi/bundles/954/1/.cp/icons/full/obj16/Class.gif" width="16px" height="17px" preserveAspectRatio="xMidYMid meet" x="361" y="120" clip-path="url(#mypathfile:/D:/eclipse/configuration/org.eclipse.osgi/bundles/954/1/.cp/icons/full/obj16/Class.gif22052455)"/><text text-anchor="middle" x="463" y="133" style="font-family:Arial;font-size:13.00;">tDOType</text><polygon style="fill:none;stroke:#a30036;" points="360,140 360,103 550,103 550,140 360,140"/></a><a xlink:href="platform%3A%2Fresource%2FUML_SCL%2Fuml%2FSCL_XSD_en_UML.uml%23_lkv1omuPEd&#45;T6NciM0izgg" xlink:title="wildcard"><text text-anchor="middle" x="435" y="151" style="font-family:Arial;font-size:11.00;">«any, element» wildcard [0..*]</text></a><a xlink:href="platform%3A%2Fresource%2FUML_SCL%2Fuml%2FSCL_XSD_en_UML.uml%23_lk5mgmuPEd&#45;T6NciM0izgg" xlink:title="wildcard"><text text-anchor="middle" x="423" y="163" style="font-family:Arial;font-size:11.00;">«any, attribute» wildcard</text></a><a xlink:href="platform%3A%2Fresource%2FUML_SCL%2Fuml%2FSCL_XSD_en_UML.uml%23_lk5mkWuPEd&#45;T6NciM0izgg" xlink:title="id"><text text-anchor="middle" x="416" y="175" style="font-family:Arial;font-size:11.00;">«attribute» id : tName</text></a><a xlink:href="platform%3A%2Fresource%2FUML_SCL%2Fuml%2FSCL_XSD_en_UML.uml%23_lk5mlWuPEd&#45;T6NciM0izgg" xlink:title="_attrGroup1"><text text-anchor="middle" x="416" y="187" style="font-family:Arial;font-size:11.00;">_attrGroup1 : agDesc</text></a><a xlink:href="platform%3A%2Fresource%2FUML_SCL%2Fuml%2FSCL_XSD_en_UML.uml%23_ln4o9WuPEd&#45;T6NciM0izgg" xlink:title="iedType"><text text-anchor="middle" x="455" y="199" style="font-family:Arial;font-size:11.00;">«attribute» iedType : tAnyName [0..1]</text></a><a xlink:href="platform%3A%2Fresource%2FUML_SCL%2Fuml%2FSCL_XSD_en_UML.uml%23_ln4o&#45;WuPEd&#45;T6NciM0izgg" xlink:title="cdc"><text text-anchor="middle" x="432" y="211" style="font-family:Arial;font-size:11.00;">«attribute» cdc : tCDCEnum</text></a><polygon style="fill:none;stroke:#a30036;" points="360,215 360,140 550,140 550,215 360,215"/></g><!-- 10947228&#45;&gt;22052455 --><g id="edge4" class="edge"><title>10947228&#45;&gt;22052455</title><a xlink:href="platform%3A%2Fresource%2FUML_SCL%2Fuml%2FSCL_XSD_en_UML.uml%23_ln4pHGuPEd&#45;T6NciM0izgg" xlink:title="DOType\n1..*\n"><path style="fill:none;stroke:#a30036;" d="M537,53C528,65 516,80 504,95"/><polygon style="fill:#a30036;stroke:#a30036;" points="537,53 544,50 544,43 537,46 537,53"/><polygon style="fill:#a30036;stroke:#a30036;" points="498,103 508,98 500,101 504,95 500,101 500,92 498,103 498,103"/><text text-anchor="middle" x="552" y="70" style="font-family:Arial;font-size:10.00;">DOType</text><text text-anchor="middle" x="552" y="82" style="font-family:Arial;font-size:10.00;">1..*</text></a></g><!-- 29029213 --><g id="node4" class="node"><title>29029213</title><polygon style="fill:#ffffcc;stroke:#ffffcc;" points="568,202 568,116 758,116 758,202 568,202"/><a xlink:href="platform%3A%2Fresource%2FUML_SCL%2Fuml%2FSCL_XSD_en_UML.uml%23_ln4o_WuPEd&#45;T6NciM0izgg" xlink:title="tDAType"><clipPath id="mypathfile:/D:/eclipse/configuration/org.eclipse.osgi/bundles/954/1/.cp/icons/full/obj16/Class.gif29029213"><polygon points="585,119 569,119 569,136 585,136 585,119 "/></clipPath><image xlink:href="file:/D:/eclipse/configuration/org.eclipse.osgi/bundles/954/1/.cp/icons/full/obj16/Class.gif" width="16px" height="17px" preserveAspectRatio="xMidYMid meet" x="569" y="119" clip-path="url(#mypathfile:/D:/eclipse/configuration/org.eclipse.osgi/bundles/954/1/.cp/icons/full/obj16/Class.gif29029213)"/><text text-anchor="middle" x="671" y="132" style="font-family:Arial;font-size:13.00;">tDAType</text><polygon style="fill:none;stroke:#a30036;" points="568,139 568,116 758,116 758,139 568,139"/></a><a xlink:href="platform%3A%2Fresource%2FUML_SCL%2Fuml%2FSCL_XSD_en_UML.uml%23_lkv1omuPEd&#45;T6NciM0izgg" xlink:title="wildcard"><text text-anchor="middle" x="643" y="150" style="font-family:Arial;font-size:11.00;">«any, element» wildcard [0..*]</text></a><a xlink:href="platform%3A%2Fresource%2FUML_SCL%2Fuml%2FSCL_XSD_en_UML.uml%23_lk5mgmuPEd&#45;T6NciM0izgg" xlink:title="wildcard"><text text-anchor="middle" x="631" y="162" style="font-family:Arial;font-size:11.00;">«any, attribute» wildcard</text></a><a xlink:href="platform%3A%2Fresource%2FUML_SCL%2Fuml%2FSCL_XSD_en_UML.uml%23_lk5mkWuPEd&#45;T6NciM0izgg" xlink:title="id"><text text-anchor="middle" x="624" y="174" style="font-family:Arial;font-size:11.00;">«attribute» id : tName</text></a><a xlink:href="platform%3A%2Fresource%2FUML_SCL%2Fuml%2FSCL_XSD_en_UML.uml%23_lk5mlWuPEd&#45;T6NciM0izgg" xlink:title="_attrGroup1"><text text-anchor="middle" x="624" y="186" style="font-family:Arial;font-size:11.00;">_attrGroup1 : agDesc</text></a><a xlink:href="platform%3A%2Fresource%2FUML_SCL%2Fuml%2FSCL_XSD_en_UML.uml%23_ln4pBmuPEd&#45;T6NciM0izgg" xlink:title="iedType"><text text-anchor="middle" x="663" y="198" style="font-family:Arial;font-size:11.00;">«attribute» iedType : tAnyName [0..1]</text></a><polygon style="fill:none;stroke:#a30036;" points="568,202 568,139 758,139 758,202 568,202"/></g><!-- 10947228&#45;&gt;29029213 --><g id="edge6" class="edge"><title>10947228&#45;&gt;29029213</title><a xlink:href="platform%3A%2Fresource%2FUML_SCL%2Fuml%2FSCL_XSD_en_UML.uml%23_ln4pIWuPEd&#45;T6NciM0izgg" xlink:title="DAType\n0..*\n"><path style="fill:none;stroke:#a30036;" d="M581,53C593,69 609,89 624,108"/><polygon style="fill:#a30036;stroke:#a30036;" points="581,53 581,46 574,43 574,50 581,53"/><polygon style="fill:#a30036;stroke:#a30036;" points="630,116 628,105 628,114 624,108 628,114 620,111 630,116 630,116"/><text text-anchor="middle" x="624" y="70" style="font-family:Arial;font-size:10.00;">DAType</text><text text-anchor="middle" x="624" y="82" style="font-family:Arial;font-size:10.00;">0..*</text></a></g><!-- 7469133 --><g id="node5" class="node"><title>7469133</title><polygon style="fill:#ffffcc;stroke:#ffffcc;" points="776,202 776,116 926,116 926,202 776,202"/><a xlink:href="platform%3A%2Fresource%2FUML_SCL%2Fuml%2FSCL_XSD_en_UML.uml%23_ln4pCmuPEd&#45;T6NciM0izgg" xlink:title="tEnumType"><clipPath id="mypathfile:/D:/eclipse/configuration/org.eclipse.osgi/bundles/954/1/.cp/icons/full/obj16/Class.gif7469133"><polygon points="793,119 777,119 777,136 793,136 793,119 "/></clipPath><image xlink:href="file:/D:/eclipse/configuration/org.eclipse.osgi/bundles/954/1/.cp/icons/full/obj16/Class.gif" width="16px" height="17px" preserveAspectRatio="xMidYMid meet" x="777" y="119" clip-path="url(#mypathfile:/D:/eclipse/configuration/org.eclipse.osgi/bundles/954/1/.cp/icons/full/obj16/Class.gif7469133)"/><text text-anchor="middle" x="860" y="132" style="font-family:Arial;font-size:13.00;">tEnumType</text><polygon style="fill:none;stroke:#a30036;" points="776,139 776,116 926,116 926,139 776,139"/></a><a xlink:href="platform%3A%2Fresource%2FUML_SCL%2Fuml%2FSCL_XSD_en_UML.uml%23_lkv1omuPEd&#45;T6NciM0izgg" xlink:title="wildcard"><text text-anchor="middle" x="851" y="150" style="font-family:Arial;font-size:11.00;">«any, element» wildcard [0..*]</text></a><a xlink:href="platform%3A%2Fresource%2FUML_SCL%2Fuml%2FSCL_XSD_en_UML.uml%23_lk5mgmuPEd&#45;T6NciM0izgg" xlink:title="wildcard"><text text-anchor="middle" x="839" y="162" style="font-family:Arial;font-size:11.00;">«any, attribute» wildcard</text></a><a xlink:href="platform%3A%2Fresource%2FUML_SCL%2Fuml%2FSCL_XSD_en_UML.uml%23_lk5mkWuPEd&#45;T6NciM0izgg" xlink:title="id"><text text-anchor="middle" x="832" y="174" style="font-family:Arial;font-size:11.00;">«attribute» id : tName</text></a><a xlink:href="platform%3A%2Fresource%2FUML_SCL%2Fuml%2FSCL_XSD_en_UML.uml%23_lk5mlWuPEd&#45;T6NciM0izgg" xlink:title="_attrGroup1"><text text-anchor="middle" x="832" y="186" style="font-family:Arial;font-size:11.00;">_attrGroup1 : agDesc</text></a><a xlink:href="platform%3A%2Fresource%2FUML_SCL%2Fuml%2FSCL_XSD_en_UML.uml%23_ln4pDGuPEd&#45;T6NciM0izgg" xlink:title="EnumVal"><text text-anchor="middle" x="842" y="198" style="font-family:Arial;font-size:11.00;">EnumVal : tEnumVal [1..*]</text></a><polygon style="fill:none;stroke:#a30036;" points="776,202 776,139 926,139 926,202 776,202"/></g><!-- 10947228&#45;&gt;7469133 --><g id="edge8" class="edge"><title>10947228&#45;&gt;7469133</title><a xlink:href="platform%3A%2Fresource%2FUML_SCL%2Fuml%2FSCL_XSD_en_UML.uml%23_ln4pJmuPEd&#45;T6NciM0izgg" xlink:title="EnumType\n0..*\n"><path style="fill:none;stroke:#a30036;" d="M631,47C672,61 723,81 767,103 771,105 776,108 780,111"/><polygon style="fill:#a30036;stroke:#a30036;" points="631,47 627,41 620,43 624,49 631,47"/><polygon style="fill:#a30036;stroke:#a30036;" points="789,116 782,107 786,115 780,111 786,115 778,115 789,116 789,116"/><text text-anchor="middle" x="745" y="70" style="font-family:Arial;font-size:10.00;">EnumType</text><text text-anchor="middle" x="745" y="82" style="font-family:Arial;font-size:10.00;">0..*</text></a></g><!-- 12351093 --><g id="node6" class="node"><title>12351093</title><polygon style="fill:#ffffcc;stroke:#ffffcc;" points="5,415 5,305 257,305 257,415 5,415"/><a xlink:href="platform%3A%2Fresource%2FUML_SCL%2Fuml%2FSCL_XSD_en_UML.uml%23_lnu4KWuPEd&#45;T6NciM0izgg" xlink:title="tDO"><clipPath id="mypathfile:/D:/eclipse/configuration/org.eclipse.osgi/bundles/954/1/.cp/icons/full/obj16/Class.gif12351093"><polygon points="22,308 6,308 6,325 22,325 22,308 "/></clipPath><image xlink:href="file:/D:/eclipse/configuration/org.eclipse.osgi/bundles/954/1/.cp/icons/full/obj16/Class.gif" width="16px" height="17px" preserveAspectRatio="xMidYMid meet" x="6" y="308" clip-path="url(#mypathfile:/D:/eclipse/configuration/org.eclipse.osgi/bundles/954/1/.cp/icons/full/obj16/Class.gif12351093)"/><text text-anchor="middle" x="140" y="321" style="font-family:Arial;font-size:13.00;">tDO</text><polygon style="fill:none;stroke:#a30036;" points="5,328 5,305 257,305 257,328 5,328"/></a><a xlink:href="platform%3A%2Fresource%2FUML_SCL%2Fuml%2FSCL_XSD_en_UML.uml%23_lkv1omuPEd&#45;T6NciM0izgg" xlink:title="wildcard"><text text-anchor="middle" x="80" y="339" style="font-family:Arial;font-size:11.00;">«any, element» wildcard [0..*]</text></a><a xlink:href="platform%3A%2Fresource%2FUML_SCL%2Fuml%2FSCL_XSD_en_UML.uml%23_lk5mgmuPEd&#45;T6NciM0izgg" xlink:title="wildcard"><text text-anchor="middle" x="68" y="351" style="font-family:Arial;font-size:11.00;">«any, attribute» wildcard</text></a><a xlink:href="platform%3A%2Fresource%2FUML_SCL%2Fuml%2FSCL_XSD_en_UML.uml%23_lk5mh2uPEd&#45;T6NciM0izgg" xlink:title="_attrGroup1"><text text-anchor="middle" x="61" y="363" style="font-family:Arial;font-size:11.00;">_attrGroup1 : agDesc</text></a><a xlink:href="platform%3A%2Fresource%2FUML_SCL%2Fuml%2FSCL_XSD_en_UML.uml%23_lnu4K2uPEd&#45;T6NciM0izgg" xlink:title="name"><text text-anchor="middle" x="95" y="375" style="font-family:Arial;font-size:11.00;">«attribute» name : tRestrName1stU</text></a><a xlink:href="platform%3A%2Fresource%2FUML_SCL%2Fuml%2FSCL_XSD_en_UML.uml%23_lnu4L2uPEd&#45;T6NciM0izgg" xlink:title="type"><text text-anchor="middle" x="67" y="387" style="font-family:Arial;font-size:11.00;">«attribute» type : tName</text></a><a xlink:href="platform%3A%2Fresource%2FUML_SCL%2Fuml%2FSCL_XSD_en_UML.uml%23_lnu4M2uPEd&#45;T6NciM0izgg" xlink:title="accessControl"><text text-anchor="middle" x="131" y="399" style="font-family:Arial;font-size:11.00;">«attribute» accessControl : normalizedString [0..1]</text></a><a xlink:href="platform%3A%2Fresource%2FUML_SCL%2Fuml%2FSCL_XSD_en_UML.uml%23_lnu4N2uPEd&#45;T6NciM0izgg" xlink:title="transient"><text text-anchor="middle" x="114" y="411" style="font-family:Arial;font-size:11.00;">«attribute» transient : boolean [0..1] = false</text></a><polygon style="fill:none;stroke:#a30036;" points="5,415 5,328 257,328 257,415 5,415"/></g><!-- 30598766&#45;&gt;12351093 --><g id="edge10" class="edge"><title>30598766&#45;&gt;12351093</title><a xlink:href="platform%3A%2Fresource%2FUML_SCL%2Fuml%2FSCL_XSD_en_UML.uml%23_lnu4KGuPEd&#45;T6NciM0izgg" xlink:title="DO\n1..*\n"><path style="fill:none;stroke:#a30036;" d="M209,219C196,243 180,272 167,296"/><polygon style="fill:#a30036;stroke:#a30036;" points="209,219 216,215 215,208 209,211 209,219"/><polygon style="fill:#a30036;stroke:#a30036;" points="162,305 171,298 163,302 167,296 163,302 163,294 162,305 162,305"/><text text-anchor="middle" x="209" y="242" style="font-family:Arial;font-size:10.00;">DO</text><text text-anchor="middle" x="209" y="254" style="font-family:Arial;font-size:10.00;">1..*</text></a></g><!-- 16429940 --><g id="node7" class="node"><title>16429940</title><polygon style="fill:#ffffcc;stroke:#ffffcc;" points="275,403 275,317 425,317 425,403 275,403"/><a xlink:href="platform%3A%2Fresource%2FUML_SCL%2Fuml%2FSCL_XSD_en_UML.uml%23_lnu4TGuPEd&#45;T6NciM0izgg" xlink:title="tSDO"><clipPath id="mypathfile:/D:/eclipse/configuration/org.eclipse.osgi/bundles/954/1/.cp/icons/full/obj16/Class.gif16429940"><polygon points="292,320 276,320 276,337 292,337 292,320 "/></clipPath><image xlink:href="file:/D:/eclipse/configuration/org.eclipse.osgi/bundles/954/1/.cp/icons/full/obj16/Class.gif" width="16px" height="17px" preserveAspectRatio="xMidYMid meet" x="276" y="320" clip-path="url(#mypathfile:/D:/eclipse/configuration/org.eclipse.osgi/bundles/954/1/.cp/icons/full/obj16/Class.gif16429940)"/><text text-anchor="middle" x="359" y="333" style="font-family:Arial;font-size:13.00;">tSDO</text><polygon style="fill:none;stroke:#a30036;" points="275,340 275,317 425,317 425,340 275,340"/></a><a xlink:href="platform%3A%2Fresource%2FUML_SCL%2Fuml%2FSCL_XSD_en_UML.uml%23_lkv1omuPEd&#45;T6NciM0izgg" xlink:title="wildcard"><text text-anchor="middle" x="350" y="351" style="font-family:Arial;font-size:11.00;">«any, element» wildcard [0..*]</text></a><a xlink:href="platform%3A%2Fresource%2FUML_SCL%2Fuml%2FSCL_XSD_en_UML.uml%23_lk5mgmuPEd&#45;T6NciM0izgg" xlink:title="wildcard"><text text-anchor="middle" x="338" y="363" style="font-family:Arial;font-size:11.00;">«any, attribute» wildcard</text></a><a xlink:href="platform%3A%2Fresource%2FUML_SCL%2Fuml%2FSCL_XSD_en_UML.uml%23_lk5mimuPEd&#45;T6NciM0izgg" xlink:title="name"><text text-anchor="middle" x="340" y="375" style="font-family:Arial;font-size:11.00;">«attribute» name : tName</text></a><a xlink:href="platform%3A%2Fresource%2FUML_SCL%2Fuml%2FSCL_XSD_en_UML.uml%23_lk5mjmuPEd&#45;T6NciM0izgg" xlink:title="_attrGroup1"><text text-anchor="middle" x="331" y="387" style="font-family:Arial;font-size:11.00;">_attrGroup1 : agDesc</text></a><a xlink:href="platform%3A%2Fresource%2FUML_SCL%2Fuml%2FSCL_XSD_en_UML.uml%23_lnu4TmuPEd&#45;T6NciM0izgg" xlink:title="type"><text text-anchor="middle" x="337" y="399" style="font-family:Arial;font-size:11.00;">«attribute» type : tName</text></a><polygon style="fill:none;stroke:#a30036;" points="275,403 275,340 425,340 425,403 275,403"/></g><!-- 22052455&#45;&gt;16429940 --><g id="edge12" class="edge"><title>22052455&#45;&gt;16429940</title><a xlink:href="platform%3A%2Fresource%2FUML_SCL%2Fuml%2FSCL_XSD_en_UML.uml%23_lnu4S2uPEd&#45;T6NciM0izgg" xlink:title="SDO\n1..1\n"><path style="fill:none;stroke:#a30036;" d="M420,226C406,253 390,283 377,308"/><polygon style="fill:#a30036;stroke:#a30036;" points="420,226 427,222 426,215 420,218 420,226"/><polygon style="fill:#a30036;stroke:#a30036;" points="373,317 381,310 374,314 377,308 374,314 373,306 373,317 373,317"/><text text-anchor="middle" x="427" y="242" style="font-family:Arial;font-size:10.00;">SDO</text><text text-anchor="middle" x="427" y="254" style="font-family:Arial;font-size:10.00;">1..1</text></a></g><!-- 21513880 --><g id="node8" class="node"><title>21513880</title><polygon style="fill:#ffffcc;stroke:#ffffcc;" points="443,445 443,275 677,275 677,445 443,445"/><a xlink:href="platform%3A%2Fresource%2FUML_SCL%2Fuml%2FSCL_XSD_en_UML.uml%23_lnu4V2uPEd&#45;T6NciM0izgg" xlink:title="tDA"><clipPath id="mypathfile:/D:/eclipse/configuration/org.eclipse.osgi/bundles/954/1/.cp/icons/full/obj16/Class.gif21513880"><polygon points="460,278 444,278 444,295 460,295 460,278 "/></clipPath><image xlink:href="file:/D:/eclipse/configuration/org.eclipse.osgi/bundles/954/1/.cp/icons/full/obj16/Class.gif" width="16px" height="17px" preserveAspectRatio="xMidYMid meet" x="444" y="278" clip-path="url(#mypathfile:/D:/eclipse/configuration/org.eclipse.osgi/bundles/954/1/.cp/icons/full/obj16/Class.gif21513880)"/><text text-anchor="middle" x="569" y="291" style="font-family:Arial;font-size:13.00;">tDA</text><polygon style="fill:none;stroke:#a30036;" points="443,298 443,275 677,275 677,298 443,298"/></a><a xlink:href="platform%3A%2Fresource%2FUML_SCL%2Fuml%2FSCL_XSD_en_UML.uml%23_lkv1omuPEd&#45;T6NciM0izgg" xlink:title="wildcard"><text text-anchor="middle" x="518" y="309" style="font-family:Arial;font-size:11.00;">«any, element» wildcard [0..*]</text></a><a xlink:href="platform%3A%2Fresource%2FUML_SCL%2Fuml%2FSCL_XSD_en_UML.uml%23_lk5mgmuPEd&#45;T6NciM0izgg" xlink:title="wildcard"><text text-anchor="middle" x="506" y="321" style="font-family:Arial;font-size:11.00;">«any, attribute» wildcard</text></a><a xlink:href="platform%3A%2Fresource%2FUML_SCL%2Fuml%2FSCL_XSD_en_UML.uml%23_lk5mh2uPEd&#45;T6NciM0izgg" xlink:title="_attrGroup1"><text text-anchor="middle" x="499" y="333" style="font-family:Arial;font-size:11.00;">_attrGroup1 : agDesc</text></a><a xlink:href="platform%3A%2Fresource%2FUML_SCL%2Fuml%2FSCL_XSD_en_UML.uml%23_lnu4CWuPEd&#45;T6NciM0izgg" xlink:title="Val"><text text-anchor="middle" x="481" y="345" style="font-family:Arial;font-size:11.00;">Val : tVal [0..*]</text></a><a xlink:href="platform%3A%2Fresource%2FUML_SCL%2Fuml%2FSCL_XSD_en_UML.uml%23_lnu4DGuPEd&#45;T6NciM0izgg" xlink:title="name"><text text-anchor="middle" x="544" y="357" style="font-family:Arial;font-size:11.00;">«attribute» name : tAttributeNameEnum</text></a><a xlink:href="platform%3A%2Fresource%2FUML_SCL%2Fuml%2FSCL_XSD_en_UML.uml%23_lnu4EGuPEd&#45;T6NciM0izgg" xlink:title="sAddr"><text text-anchor="middle" x="548" y="369" style="font-family:Arial;font-size:11.00;">«attribute» sAddr : normalizedString [0..1]</text></a><a xlink:href="platform%3A%2Fresource%2FUML_SCL%2Fuml%2FSCL_XSD_en_UML.uml%23_lnu4FGuPEd&#45;T6NciM0izgg" xlink:title="bType"><text text-anchor="middle" x="535" y="381" style="font-family:Arial;font-size:11.00;">«attribute» bType : tBasicTypeEnum</text></a><a xlink:href="platform%3A%2Fresource%2FUML_SCL%2Fuml%2FSCL_XSD_en_UML.uml%23_lnu4GGuPEd&#45;T6NciM0izgg" xlink:title="valKind"><text text-anchor="middle" x="560" y="393" style="font-family:Arial;font-size:11.00;">«attribute» valKind : tValKindEnum [0..1] = Set</text></a><a xlink:href="platform%3A%2Fresource%2FUML_SCL%2Fuml%2FSCL_XSD_en_UML.uml%23_lnu4HWuPEd&#45;T6NciM0izgg" xlink:title="type"><text text-anchor="middle" x="529" y="405" style="font-family:Arial;font-size:11.00;">«attribute» type : tAnyName [0..1]</text></a><a xlink:href="platform%3A%2Fresource%2FUML_SCL%2Fuml%2FSCL_XSD_en_UML.uml%23_lnu4IWuPEd&#45;T6NciM0izgg" xlink:title="count"><text text-anchor="middle" x="544" y="417" style="font-family:Arial;font-size:11.00;">«attribute» count : unsignedInt [0..1] = 0</text></a><a xlink:href="platform%3A%2Fresource%2FUML_SCL%2Fuml%2FSCL_XSD_en_UML.uml%23_lnu4WWuPEd&#45;T6NciM0izgg" xlink:title="_attrGroup1"><text text-anchor="middle" x="510" y="429" style="font-family:Arial;font-size:11.00;">_attrGroup1 : agDATrgOp</text></a><a xlink:href="platform%3A%2Fresource%2FUML_SCL%2Fuml%2FSCL_XSD_en_UML.uml%23_lnu4WmuPEd&#45;T6NciM0izgg" xlink:title="fc"><text text-anchor="middle" x="506" y="441" style="font-family:Arial;font-size:11.00;">«attribute» fc : tFCEnum</text></a><polygon style="fill:none;stroke:#a30036;" points="443,445 443,298 677,298 677,445 443,445"/></g><!-- 22052455&#45;&gt;21513880 --><g id="edge14" class="edge"><title>22052455&#45;&gt;21513880</title><a xlink:href="platform%3A%2Fresource%2FUML_SCL%2Fuml%2FSCL_XSD_en_UML.uml%23_lnu4VmuPEd&#45;T6NciM0izgg" xlink:title="DA\n1..1\n"><path style="fill:none;stroke:#a30036;" d="M490,226C496,239 504,253 510,266"/><polygon style="fill:#a30036;stroke:#a30036;" points="490,226 490,218 484,215 483,222 490,226"/><polygon style="fill:#a30036;stroke:#a30036;" points="515,275 514,264 514,272 510,266 514,272 506,268 515,275 515,275"/><text text-anchor="middle" x="514" y="242" style="font-family:Arial;font-size:10.00;">DA</text><text text-anchor="middle" x="514" y="254" style="font-family:Arial;font-size:10.00;">1..1</text></a></g><!-- 9565412 --><g id="node9" class="node"><title>9565412</title><polygon style="fill:#ffffcc;stroke:#ffffcc;" points="695,433 695,287 929,287 929,433 695,433"/><a xlink:href="platform%3A%2Fresource%2FUML_SCL%2Fuml%2FSCL_XSD_en_UML.uml%23_ln4pAGuPEd&#45;T6NciM0izgg" xlink:title="tBDA"><clipPath id="mypathfile:/D:/eclipse/configuration/org.eclipse.osgi/bundles/954/1/.cp/icons/full/obj16/Class.gif9565412"><polygon points="712,290 696,290 696,307 712,307 712,290 "/></clipPath><image xlink:href="file:/D:/eclipse/configuration/org.eclipse.osgi/bundles/954/1/.cp/icons/full/obj16/Class.gif" width="16px" height="17px" preserveAspectRatio="xMidYMid meet" x="696" y="290" clip-path="url(#mypathfile:/D:/eclipse/configuration/org.eclipse.osgi/bundles/954/1/.cp/icons/full/obj16/Class.gif9565412)"/><text text-anchor="middle" x="820" y="303" style="font-family:Arial;font-size:13.00;">tBDA</text><polygon style="fill:none;stroke:#a30036;" points="695,310 695,287 929,287 929,310 695,310"/></a><a xlink:href="platform%3A%2Fresource%2FUML_SCL%2Fuml%2FSCL_XSD_en_UML.uml%23_lkv1omuPEd&#45;T6NciM0izgg" xlink:title="wildcard"><text text-anchor="middle" x="770" y="321" style="font-family:Arial;font-size:11.00;">«any, element» wildcard [0..*]</text></a><a xlink:href="platform%3A%2Fresource%2FUML_SCL%2Fuml%2FSCL_XSD_en_UML.uml%23_lk5mgmuPEd&#45;T6NciM0izgg" xlink:title="wildcard"><text text-anchor="middle" x="758" y="333" style="font-family:Arial;font-size:11.00;">«any, attribute» wildcard</text></a><a xlink:href="platform%3A%2Fresource%2FUML_SCL%2Fuml%2FSCL_XSD_en_UML.uml%23_lk5mh2uPEd&#45;T6NciM0izgg" xlink:title="_attrGroup1"><text text-anchor="middle" x="751" y="345" style="font-family:Arial;font-size:11.00;">_attrGroup1 : agDesc</text></a><a xlink:href="platform%3A%2Fresource%2FUML_SCL%2Fuml%2FSCL_XSD_en_UML.uml%23_lnu4CWuPEd&#45;T6NciM0izgg" xlink:title="Val"><text text-anchor="middle" x="733" y="357" style="font-family:Arial;font-size:11.00;">Val : tVal [0..*]</text></a><a xlink:href="platform%3A%2Fresource%2FUML_SCL%2Fuml%2FSCL_XSD_en_UML.uml%23_lnu4DGuPEd&#45;T6NciM0izgg" xlink:title="name"><text text-anchor="middle" x="796" y="369" style="font-family:Arial;font-size:11.00;">«attribute» name : tAttributeNameEnum</text></a><a xlink:href="platform%3A%2Fresource%2FUML_SCL%2Fuml%2FSCL_XSD_en_UML.uml%23_lnu4EGuPEd&#45;T6NciM0izgg" xlink:title="sAddr"><text text-anchor="middle" x="800" y="381" style="font-family:Arial;font-size:11.00;">«attribute» sAddr : normalizedString [0..1]</text></a><a xlink:href="platform%3A%2Fresource%2FUML_SCL%2Fuml%2FSCL_XSD_en_UML.uml%23_lnu4FGuPEd&#45;T6NciM0izgg" xlink:title="bType"><text text-anchor="middle" x="787" y="393" style="font-family:Arial;font-size:11.00;">«attribute» bType : tBasicTypeEnum</text></a><a xlink:href="platform%3A%2Fresource%2FUML_SCL%2Fuml%2FSCL_XSD_en_UML.uml%23_lnu4GGuPEd&#45;T6NciM0izgg" xlink:title="valKind"><text text-anchor="middle" x="812" y="405" style="font-family:Arial;font-size:11.00;">«attribute» valKind : tValKindEnum [0..1] = Set</text></a><a xlink:href="platform%3A%2Fresource%2FUML_SCL%2Fuml%2FSCL_XSD_en_UML.uml%23_lnu4HWuPEd&#45;T6NciM0izgg" xlink:title="type"><text text-anchor="middle" x="781" y="417" style="font-family:Arial;font-size:11.00;">«attribute» type : tAnyName [0..1]</text></a><a xlink:href="platform%3A%2Fresource%2FUML_SCL%2Fuml%2FSCL_XSD_en_UML.uml%23_lnu4IWuPEd&#45;T6NciM0izgg" xlink:title="count"><text text-anchor="middle" x="796" y="429" style="font-family:Arial;font-size:11.00;">«attribute» count : unsignedInt [0..1] = 0</text></a><polygon style="fill:none;stroke:#a30036;" points="695,433 695,310 929,310 929,433 695,433"/></g><!-- 29029213&#45;&gt;9565412 --><g id="edge16" class="edge"><title>29029213&#45;&gt;9565412</title><a xlink:href="platform%3A%2Fresource%2FUML_SCL%2Fuml%2FSCL_XSD_en_UML.uml%23_ln4o_2uPEd&#45;T6NciM0izgg" xlink:title="BDA\n1..*\n"><path style="fill:none;stroke:#a30036;" d="M702,212C717,232 735,256 752,279"/><polygon style="fill:#a30036;stroke:#a30036;" points="702,212 702,205 695,202 695,209 702,212"/><polygon style="fill:#a30036;stroke:#a30036;" points="758,287 756,276 756,285 752,279 756,285 748,282 758,287 758,287"/><text text-anchor="middle" x="742" y="242" style="font-family:Arial;font-size:10.00;">BDA</text><text text-anchor="middle" x="742" y="254" style="font-family:Arial;font-size:10.00;">1..*</text></a></g></g></svg>