<?xml version="1.0" encoding="UTF-8" standalone="no"?><!DOCTYPE svg PUBLIC "-//W3C//DTD SVG 1.0//EN" "http://www.w3.org/TR/2001/REC-SVG-20010904/DTD/svg10.dtd" [ <!ATTLIST svg xmlns:xlink CDATA #FIXED "http://www.w3.org/1999/xlink">]><!-- Generated by dot version 2.7.20051103.0540 (Thu Nov  3 05:48:38 UTC 2005)     For user: Bill Gates --><!-- Title: uml Pages: 1 --><svg width="855pt" height="730pt" viewBox = "0 0 855 730" xmlns="http://www.w3.org/2000/svg" xmlns:xlink="http://www.w3.org/1999/xlink"><g id="graph0" class="graph" style="font-family:Times-Roman;font-size:14.00;"><title>uml</title><polygon style="fill:white;stroke:white;" points="-1,731 -1,-1 856,-1 856,731 -1,731"/><!-- 6392392 --><g id="node1" class="node"><title>6392392</title><a xlink:href="platform%3A%2Fresource%2FUML_SCL%2Fuml%2FSCL_XSD_en_UML.uml%23_llgDkWuPEd&#45;T6NciM0izgg" xlink:title="tBay"><polygon style="fill:#e0ffff;stroke:#a30036;stroke-dasharray:5,2;" points="200,321 164,321 164,347 200,347 200,321"/><text text-anchor="middle" x="182" y="338" style="font-family:Arial;font-size:11.00;">tBay</text></a></g><!-- 16282826 --><g id="node2" class="node"><title>16282826</title><a xlink:href="platform%3A%2Fresource%2FUML_SCL%2Fuml%2FSCL_XSD_en_UML.uml%23_llgDr2uPEd&#45;T6NciM0izgg" xlink:title="tSubFunction"><polygon style="fill:#e0ffff;stroke:#a30036;stroke-dasharray:5,2;" points="741,321 661,321 661,347 741,347 741,321"/><text text-anchor="middle" x="701" y="338" style="font-family:Arial;font-size:11.00;">tSubFunction</text></a></g><!-- 26413858 --><g id="node3" class="node"><title>26413858</title><polygon style="fill:#ffffcc;stroke:#ffffcc;" points="307,79 307,5 457,5 457,79 307,79"/><a xlink:href="platform%3A%2Fresource%2FUML_SCL%2Fuml%2FSCL_XSD_en_UML.uml%23_llgDiGuPEd&#45;T6NciM0izgg" xlink:title="tSubstation"><clipPath id="mypathfile:/D:/eclipse/configuration/org.eclipse.osgi/bundles/954/1/.cp/icons/full/obj16/Class.gif26413858"><polygon points="324,8 308,8 308,25 324,25 324,8 "/></clipPath><image xlink:href="file:/D:/eclipse/configuration/org.eclipse.osgi/bundles/954/1/.cp/icons/full/obj16/Class.gif" width="16px" height="17px" preserveAspectRatio="xMidYMid meet" x="308" y="8" clip-path="url(#mypathfile:/D:/eclipse/configuration/org.eclipse.osgi/bundles/954/1/.cp/icons/full/obj16/Class.gif26413858)"/><text text-anchor="middle" x="390" y="21" style="font-family:Arial;font-size:13.00;">tSubstation</text><polygon style="fill:none;stroke:#a30036;" points="307,28 307,5 457,5 457,28 307,28"/></a><a xlink:href="platform%3A%2Fresource%2FUML_SCL%2Fuml%2FSCL_XSD_en_UML.uml%23_lkv1omuPEd&#45;T6NciM0izgg" xlink:title="wildcard"><text text-anchor="middle" x="382" y="39" style="font-family:Arial;font-size:11.00;">«any, element» wildcard [0..*]</text></a><a xlink:href="platform%3A%2Fresource%2FUML_SCL%2Fuml%2FSCL_XSD_en_UML.uml%23_lk5mgmuPEd&#45;T6NciM0izgg" xlink:title="wildcard"><text text-anchor="middle" x="370" y="51" style="font-family:Arial;font-size:11.00;">«any, attribute» wildcard</text></a><a xlink:href="platform%3A%2Fresource%2FUML_SCL%2Fuml%2FSCL_XSD_en_UML.uml%23_lk5mimuPEd&#45;T6NciM0izgg" xlink:title="name"><text text-anchor="middle" x="372" y="63" style="font-family:Arial;font-size:11.00;">«attribute» name : tName</text></a><a xlink:href="platform%3A%2Fresource%2FUML_SCL%2Fuml%2FSCL_XSD_en_UML.uml%23_lk5mjmuPEd&#45;T6NciM0izgg" xlink:title="_attrGroup1"><text text-anchor="middle" x="363" y="75" style="font-family:Arial;font-size:11.00;">_attrGroup1 : agDesc</text></a><polygon style="fill:none;stroke:#a30036;" points="307,79 307,28 457,28 457,79 307,79"/></g><!-- 12144052 --><g id="node4" class="node"><title>12144052</title><polygon style="fill:#ffffcc;stroke:#ffffcc;" points="279,719 279,643 447,643 447,719 279,719"/><a xlink:href="platform%3A%2Fresource%2FUML_SCL%2Fuml%2FSCL_XSD_en_UML.uml%23_lkv1qGuPEd&#45;T6NciM0izgg" xlink:title="tText"><text text-anchor="middle" x="363" y="655" style="font-family:Arial;font-size:11.00;">«complexType» </text><clipPath id="mypathfile:/D:/eclipse/configuration/org.eclipse.osgi/bundles/954/1/.cp/icons/full/obj16/Class.gif12144052"><polygon points="296,660 280,660 280,677 296,677 296,660 "/></clipPath><image xlink:href="file:/D:/eclipse/configuration/org.eclipse.osgi/bundles/954/1/.cp/icons/full/obj16/Class.gif" width="16px" height="17px" preserveAspectRatio="xMidYMid meet" x="280" y="660" clip-path="url(#mypathfile:/D:/eclipse/configuration/org.eclipse.osgi/bundles/954/1/.cp/icons/full/obj16/Class.gif12144052)"/><text text-anchor="middle" x="371" y="673" style="font-family:Arial;font-size:13.00;">tText</text><polygon style="fill:none;stroke:#a30036;" points="279,680 279,643 447,643 447,680 279,680"/></a><a xlink:href="platform%3A%2Fresource%2FUML_SCL%2Fuml%2FSCL_XSD_en_UML.uml%23_lk5mYGuPEd&#45;T6NciM0izgg" xlink:title="wildcard"><text text-anchor="middle" x="341" y="691" style="font-family:Arial;font-size:11.00;">«any, element» wildcard</text></a><a xlink:href="platform%3A%2Fresource%2FUML_SCL%2Fuml%2FSCL_XSD_en_UML.uml%23_lk5mZWuPEd&#45;T6NciM0izgg" xlink:title="wildcard"><text text-anchor="middle" x="342" y="703" style="font-family:Arial;font-size:11.00;">«any, attribute» wildcard</text></a><a xlink:href="platform%3A%2Fresource%2FUML_SCL%2Fuml%2FSCL_XSD_en_UML.uml%23_lk5maWuPEd&#45;T6NciM0izgg" xlink:title="source"><text text-anchor="middle" x="363" y="715" style="font-family:Arial;font-size:11.00;">«attribute» source : anyURI [0..1]</text></a><polygon style="fill:none;stroke:#a30036;" points="279,719 279,680 447,680 447,719 279,719"/></g><!-- 26413858&#45;&gt;12144052 --><g id="edge2" class="edge"><title>26413858&#45;&gt;12144052</title><a xlink:href="platform%3A%2Fresource%2FUML_SCL%2Fuml%2FSCL_XSD_en_UML.uml%23_lkv1p2uPEd&#45;T6NciM0izgg" xlink:title="Text\n0..1\n"><path style="fill:none;stroke:#a30036;" d="M295,58C188,80 23,124 23,182 23,182 23,182 23,510 23,621 168,660 269,674"/><polygon style="fill:#a30036;stroke:#a30036;" points="295,58 302,61 307,56 300,53 295,58"/><polygon style="fill:#a30036;stroke:#a30036;" points="279,675 269,670 276,675 269,674 276,675 269,678 279,675 279,675"/><text text-anchor="middle" x="33" y="331" style="font-family:Arial;font-size:10.00;">Text</text><text text-anchor="middle" x="33" y="343" style="font-family:Arial;font-size:10.00;">0..1</text></a></g><!-- 9379004 --><g id="node5" class="node"><title>9379004</title><polygon style="fill:#ffffcc;stroke:#ffffcc;" points="482,725 482,637 684,637 684,725 482,725"/><a xlink:href="platform%3A%2Fresource%2FUML_SCL%2Fuml%2FSCL_XSD_en_UML.uml%23_lk5mc2uPEd&#45;T6NciM0izgg" xlink:title="tPrivate"><text text-anchor="middle" x="583" y="649" style="font-family:Arial;font-size:11.00;">«complexType» </text><clipPath id="mypathfile:/D:/eclipse/configuration/org.eclipse.osgi/bundles/954/1/.cp/icons/full/obj16/Class.gif9379004"><polygon points="499,654 483,654 483,671 499,671 499,654 "/></clipPath><image xlink:href="file:/D:/eclipse/configuration/org.eclipse.osgi/bundles/954/1/.cp/icons/full/obj16/Class.gif" width="16px" height="17px" preserveAspectRatio="xMidYMid meet" x="483" y="654" clip-path="url(#mypathfile:/D:/eclipse/configuration/org.eclipse.osgi/bundles/954/1/.cp/icons/full/obj16/Class.gif9379004)"/><text text-anchor="middle" x="591" y="667" style="font-family:Arial;font-size:13.00;">tPrivate</text><polygon style="fill:none;stroke:#a30036;" points="482,674 482,637 684,637 684,674 482,674"/></a><a xlink:href="platform%3A%2Fresource%2FUML_SCL%2Fuml%2FSCL_XSD_en_UML.uml%23_lk5mYGuPEd&#45;T6NciM0izgg" xlink:title="wildcard"><text text-anchor="middle" x="544" y="685" style="font-family:Arial;font-size:11.00;">«any, element» wildcard</text></a><a xlink:href="platform%3A%2Fresource%2FUML_SCL%2Fuml%2FSCL_XSD_en_UML.uml%23_lk5mZWuPEd&#45;T6NciM0izgg" xlink:title="wildcard"><text text-anchor="middle" x="545" y="697" style="font-family:Arial;font-size:11.00;">«any, attribute» wildcard</text></a><a xlink:href="platform%3A%2Fresource%2FUML_SCL%2Fuml%2FSCL_XSD_en_UML.uml%23_lk5mdWuPEd&#45;T6NciM0izgg" xlink:title="type"><text text-anchor="middle" x="583" y="709" style="font-family:Arial;font-size:11.00;">«attribute» type : normalizedString [0..1]</text></a><a xlink:href="platform%3A%2Fresource%2FUML_SCL%2Fuml%2FSCL_XSD_en_UML.uml%23_lk5meWuPEd&#45;T6NciM0izgg" xlink:title="source"><text text-anchor="middle" x="566" y="721" style="font-family:Arial;font-size:11.00;">«attribute» source : anyURI [0..1]</text></a><polygon style="fill:none;stroke:#a30036;" points="482,725 482,674 684,674 684,725 482,725"/></g><!-- 26413858&#45;&gt;9379004 --><g id="edge4" class="edge"><title>26413858&#45;&gt;9379004</title><a xlink:href="platform%3A%2Fresource%2FUML_SCL%2Fuml%2FSCL_XSD_en_UML.uml%23_lk5mcmuPEd&#45;T6NciM0izgg" xlink:title="Private\n0..*\n"><path style="fill:none;stroke:#a30036;" d="M469,53C596,70 817,110 817,182 817,182 817,182 817,510 817,577 755,621 693,647"/><polygon style="fill:#a30036;stroke:#a30036;" points="469,53 464,48 457,51 462,56 469,53"/><polygon style="fill:#a30036;stroke:#a30036;" points="684,651 695,651 687,650 693,647 687,650 691,643 684,651 684,651"/><text text-anchor="middle" x="833" y="331" style="font-family:Arial;font-size:10.00;">Private</text><text text-anchor="middle" x="833" y="343" style="font-family:Arial;font-size:10.00;">0..*</text></a></g><!-- 9972571 --><g id="node6" class="node"><title>9972571</title><polygon style="fill:#ffffcc;stroke:#ffffcc;" points="256,577 256,443 470,443 470,577 256,577"/><a xlink:href="platform%3A%2Fresource%2FUML_SCL%2Fuml%2FSCL_XSD_en_UML.uml%23_llMhdGuPEd&#45;T6NciM0izgg" xlink:title="tLNode"><clipPath id="mypathfile:/D:/eclipse/configuration/org.eclipse.osgi/bundles/954/1/.cp/icons/full/obj16/Class.gif9972571"><polygon points="273,446 257,446 257,463 273,463 273,446 "/></clipPath><image xlink:href="file:/D:/eclipse/configuration/org.eclipse.osgi/bundles/954/1/.cp/icons/full/obj16/Class.gif" width="16px" height="17px" preserveAspectRatio="xMidYMid meet" x="257" y="446" clip-path="url(#mypathfile:/D:/eclipse/configuration/org.eclipse.osgi/bundles/954/1/.cp/icons/full/obj16/Class.gif9972571)"/><text text-anchor="middle" x="372" y="459" style="font-family:Arial;font-size:13.00;">tLNode</text><polygon style="fill:none;stroke:#a30036;" points="256,466 256,443 470,443 470,466 256,466"/></a><a xlink:href="platform%3A%2Fresource%2FUML_SCL%2Fuml%2FSCL_XSD_en_UML.uml%23_lkv1omuPEd&#45;T6NciM0izgg" xlink:title="wildcard"><text text-anchor="middle" x="331" y="477" style="font-family:Arial;font-size:11.00;">«any, element» wildcard [0..*]</text></a><a xlink:href="platform%3A%2Fresource%2FUML_SCL%2Fuml%2FSCL_XSD_en_UML.uml%23_lk5mgmuPEd&#45;T6NciM0izgg" xlink:title="wildcard"><text text-anchor="middle" x="319" y="489" style="font-family:Arial;font-size:11.00;">«any, attribute» wildcard</text></a><a xlink:href="platform%3A%2Fresource%2FUML_SCL%2Fuml%2FSCL_XSD_en_UML.uml%23_lk5mh2uPEd&#45;T6NciM0izgg" xlink:title="_attrGroup1"><text text-anchor="middle" x="312" y="501" style="font-family:Arial;font-size:11.00;">_attrGroup1 : agDesc</text></a><a xlink:href="platform%3A%2Fresource%2FUML_SCL%2Fuml%2FSCL_XSD_en_UML.uml%23_llMhdmuPEd&#45;T6NciM0izgg" xlink:title="lnInst"><text text-anchor="middle" x="344" y="513" style="font-family:Arial;font-size:11.00;">«attribute» lnInst : tAnyName [0..1]</text></a><a xlink:href="platform%3A%2Fresource%2FUML_SCL%2Fuml%2FSCL_XSD_en_UML.uml%23_llMhemuPEd&#45;T6NciM0izgg" xlink:title="lnClass"><text text-anchor="middle" x="346" y="525" style="font-family:Arial;font-size:11.00;">«attribute» lnClass : tLNClassEnum</text></a><a xlink:href="platform%3A%2Fresource%2FUML_SCL%2Fuml%2FSCL_XSD_en_UML.uml%23_llMhfmuPEd&#45;T6NciM0izgg" xlink:title="iedName"><text text-anchor="middle" x="363" y="537" style="font-family:Arial;font-size:11.00;">«attribute» iedName : tName [0..1] = None</text></a><a xlink:href="platform%3A%2Fresource%2FUML_SCL%2Fuml%2FSCL_XSD_en_UML.uml%23_llMhg2uPEd&#45;T6NciM0izgg" xlink:title="ldInst"><text text-anchor="middle" x="344" y="549" style="font-family:Arial;font-size:11.00;">«attribute» ldInst : tAnyName [0..1]</text></a><a xlink:href="platform%3A%2Fresource%2FUML_SCL%2Fuml%2FSCL_XSD_en_UML.uml%23_llMhh2uPEd&#45;T6NciM0izgg" xlink:title="prefix"><text text-anchor="middle" x="345" y="561" style="font-family:Arial;font-size:11.00;">«attribute» prefix : tAnyName [0..1]</text></a><a xlink:href="platform%3A%2Fresource%2FUML_SCL%2Fuml%2FSCL_XSD_en_UML.uml%23_llMhi2uPEd&#45;T6NciM0izgg" xlink:title="lnType"><text text-anchor="middle" x="338" y="573" style="font-family:Arial;font-size:11.00;">«attribute» lnType : tName [0..1]</text></a><polygon style="fill:none;stroke:#a30036;" points="256,577 256,466 470,466 470,577 256,577"/></g><!-- 26413858&#45;&gt;9972571 --><g id="edge6" class="edge"><title>26413858&#45;&gt;9972571</title><a xlink:href="platform%3A%2Fresource%2FUML_SCL%2Fuml%2FSCL_XSD_en_UML.uml%23_llMhc2uPEd&#45;T6NciM0izgg" xlink:title="LNode\n0..*\n"><path style="fill:none;stroke:#a30036;" d="M380,91C377,139 367,213 335,267 328,278 319,274 314,285 295,325 306,341 314,383 317,400 322,417 328,434"/><polygon style="fill:#a30036;stroke:#a30036;" points="380,91 384,85 381,79 377,85 380,91"/><polygon style="fill:#a30036;stroke:#a30036;" points="332,443 332,432 331,440 328,434 331,440 324,436 332,443 332,443"/><text text-anchor="middle" x="361" y="252" style="font-family:Arial;font-size:10.00;">LNode</text><text text-anchor="middle" x="361" y="264" style="font-family:Arial;font-size:10.00;">0..*</text></a></g><!-- 14016938 --><g id="node7" class="node"><title>14016938</title><polygon style="fill:#ffffcc;stroke:#ffffcc;" points="323,383 323,285 539,285 539,383 323,383"/><a xlink:href="platform%3A%2Fresource%2FUML_SCL%2Fuml%2FSCL_XSD_en_UML.uml%23_llgDeGuPEd&#45;T6NciM0izgg" xlink:title="tGeneralEquipment"><clipPath id="mypathfile:/D:/eclipse/configuration/org.eclipse.osgi/bundles/954/1/.cp/icons/full/obj16/Class.gif14016938"><polygon points="340,288 324,288 324,305 340,305 340,288 "/></clipPath><image xlink:href="file:/D:/eclipse/configuration/org.eclipse.osgi/bundles/954/1/.cp/icons/full/obj16/Class.gif" width="16px" height="17px" preserveAspectRatio="xMidYMid meet" x="324" y="288" clip-path="url(#mypathfile:/D:/eclipse/configuration/org.eclipse.osgi/bundles/954/1/.cp/icons/full/obj16/Class.gif14016938)"/><text text-anchor="middle" x="440" y="301" style="font-family:Arial;font-size:13.00;">tGeneralEquipment</text><polygon style="fill:none;stroke:#a30036;" points="323,308 323,285 539,285 539,308 323,308"/></a><a xlink:href="platform%3A%2Fresource%2FUML_SCL%2Fuml%2FSCL_XSD_en_UML.uml%23_lkv1omuPEd&#45;T6NciM0izgg" xlink:title="wildcard"><text text-anchor="middle" x="398" y="319" style="font-family:Arial;font-size:11.00;">«any, element» wildcard [0..*]</text></a><a xlink:href="platform%3A%2Fresource%2FUML_SCL%2Fuml%2FSCL_XSD_en_UML.uml%23_lk5mgmuPEd&#45;T6NciM0izgg" xlink:title="wildcard"><text text-anchor="middle" x="386" y="331" style="font-family:Arial;font-size:11.00;">«any, attribute» wildcard</text></a><a xlink:href="platform%3A%2Fresource%2FUML_SCL%2Fuml%2FSCL_XSD_en_UML.uml%23_lk5mimuPEd&#45;T6NciM0izgg" xlink:title="name"><text text-anchor="middle" x="388" y="343" style="font-family:Arial;font-size:11.00;">«attribute» name : tName</text></a><a xlink:href="platform%3A%2Fresource%2FUML_SCL%2Fuml%2FSCL_XSD_en_UML.uml%23_lk5mjmuPEd&#45;T6NciM0izgg" xlink:title="_attrGroup1"><text text-anchor="middle" x="379" y="355" style="font-family:Arial;font-size:11.00;">_attrGroup1 : agDesc</text></a><a xlink:href="platform%3A%2Fresource%2FUML_SCL%2Fuml%2FSCL_XSD_en_UML.uml%23_llMhm2uPEd&#45;T6NciM0izgg" xlink:title="_attrGroup1"><text text-anchor="middle" x="382" y="367" style="font-family:Arial;font-size:11.00;">_attrGroup1 : agVirtual</text></a><a xlink:href="platform%3A%2Fresource%2FUML_SCL%2Fuml%2FSCL_XSD_en_UML.uml%23_llgDemuPEd&#45;T6NciM0izgg" xlink:title="type"><text text-anchor="middle" x="431" y="379" style="font-family:Arial;font-size:11.00;">«attribute» type : tGeneralEquipmentEnum</text></a><polygon style="fill:none;stroke:#a30036;" points="323,383 323,308 539,308 539,383 323,383"/></g><!-- 26413858&#45;&gt;14016938 --><g id="edge8" class="edge"><title>26413858&#45;&gt;14016938</title><a xlink:href="platform%3A%2Fresource%2FUML_SCL%2Fuml%2FSCL_XSD_en_UML.uml%23_llgDd2uPEd&#45;T6NciM0izgg" xlink:title="GeneralEquipment\n0..*\n"><path style="fill:none;stroke:#a30036;" d="M390,91C398,142 412,221 421,275"/><polygon style="fill:#a30036;stroke:#a30036;" points="390,91 393,84 388,79 385,86 390,91"/><polygon style="fill:#a30036;stroke:#a30036;" points="423,285 425,274 422,282 421,275 422,282 417,276 423,285 423,285"/><text text-anchor="middle" x="453" y="179" style="font-family:Arial;font-size:10.00;">GeneralEquipment</text><text text-anchor="middle" x="453" y="191" style="font-family:Arial;font-size:10.00;">0..*</text></a></g><!-- 3271021 --><g id="node8" class="node"><title>3271021</title><polygon style="fill:#ffffcc;stroke:#ffffcc;" points="124,225 124,139 274,139 274,225 124,225"/><a xlink:href="platform%3A%2Fresource%2FUML_SCL%2Fuml%2FSCL_XSD_en_UML.uml%23_llgDi2uPEd&#45;T6NciM0izgg" xlink:title="tVoltageLevel"><clipPath id="mypathfile:/D:/eclipse/configuration/org.eclipse.osgi/bundles/954/1/.cp/icons/full/obj16/Class.gif3271021"><polygon points="141,142 125,142 125,159 141,159 141,142 "/></clipPath><image xlink:href="file:/D:/eclipse/configuration/org.eclipse.osgi/bundles/954/1/.cp/icons/full/obj16/Class.gif" width="16px" height="17px" preserveAspectRatio="xMidYMid meet" x="125" y="142" clip-path="url(#mypathfile:/D:/eclipse/configuration/org.eclipse.osgi/bundles/954/1/.cp/icons/full/obj16/Class.gif3271021)"/><text text-anchor="middle" x="207" y="155" style="font-family:Arial;font-size:13.00;">tVoltageLevel</text><polygon style="fill:none;stroke:#a30036;" points="124,162 124,139 274,139 274,162 124,162"/></a><a xlink:href="platform%3A%2Fresource%2FUML_SCL%2Fuml%2FSCL_XSD_en_UML.uml%23_lkv1omuPEd&#45;T6NciM0izgg" xlink:title="wildcard"><text text-anchor="middle" x="199" y="173" style="font-family:Arial;font-size:11.00;">«any, element» wildcard [0..*]</text></a><a xlink:href="platform%3A%2Fresource%2FUML_SCL%2Fuml%2FSCL_XSD_en_UML.uml%23_lk5mgmuPEd&#45;T6NciM0izgg" xlink:title="wildcard"><text text-anchor="middle" x="187" y="185" style="font-family:Arial;font-size:11.00;">«any, attribute» wildcard</text></a><a xlink:href="platform%3A%2Fresource%2FUML_SCL%2Fuml%2FSCL_XSD_en_UML.uml%23_lk5mimuPEd&#45;T6NciM0izgg" xlink:title="name"><text text-anchor="middle" x="189" y="197" style="font-family:Arial;font-size:11.00;">«attribute» name : tName</text></a><a xlink:href="platform%3A%2Fresource%2FUML_SCL%2Fuml%2FSCL_XSD_en_UML.uml%23_lk5mjmuPEd&#45;T6NciM0izgg" xlink:title="_attrGroup1"><text text-anchor="middle" x="180" y="209" style="font-family:Arial;font-size:11.00;">_attrGroup1 : agDesc</text></a><a xlink:href="platform%3A%2Fresource%2FUML_SCL%2Fuml%2FSCL_XSD_en_UML.uml%23_llgDjWuPEd&#45;T6NciM0izgg" xlink:title="Voltage"><text text-anchor="middle" x="185" y="221" style="font-family:Arial;font-size:11.00;">Voltage : tVoltage [0..1]</text></a><polygon style="fill:none;stroke:#a30036;" points="124,225 124,162 274,162 274,225 124,225"/></g><!-- 26413858&#45;&gt;3271021 --><g id="edge10" class="edge"><title>26413858&#45;&gt;3271021</title><a xlink:href="platform%3A%2Fresource%2FUML_SCL%2Fuml%2FSCL_XSD_en_UML.uml%23_llgDimuPEd&#45;T6NciM0izgg" xlink:title="VoltageLevel\n1..*\n"><path style="fill:none;stroke:#a30036;" d="M300,86C294,89 288,93 283,97 270,108 257,120 244,132"/><polygon style="fill:#a30036;stroke:#a30036;" points="300,86 307,86 310,79 303,79 300,86"/><polygon style="fill:#a30036;stroke:#a30036;" points="237,139 247,135 239,137 244,132 239,137 241,129 237,139 237,139"/><text text-anchor="middle" x="313" y="106" style="font-family:Arial;font-size:10.00;">VoltageLevel</text><text text-anchor="middle" x="313" y="118" style="font-family:Arial;font-size:10.00;">1..*</text></a></g><!-- 21506757 --><g id="node9" class="node"><title>21506757</title><polygon style="fill:#ffffcc;stroke:#ffffcc;" points="539,219 539,145 689,145 689,219 539,219"/><a xlink:href="platform%3A%2Fresource%2FUML_SCL%2Fuml%2FSCL_XSD_en_UML.uml%23_llgDrGuPEd&#45;T6NciM0izgg" xlink:title="tFunction"><clipPath id="mypathfile:/D:/eclipse/configuration/org.eclipse.osgi/bundles/954/1/.cp/icons/full/obj16/Class.gif21506757"><polygon points="556,148 540,148 540,165 556,165 556,148 "/></clipPath><image xlink:href="file:/D:/eclipse/configuration/org.eclipse.osgi/bundles/954/1/.cp/icons/full/obj16/Class.gif" width="16px" height="17px" preserveAspectRatio="xMidYMid meet" x="540" y="148" clip-path="url(#mypathfile:/D:/eclipse/configuration/org.eclipse.osgi/bundles/954/1/.cp/icons/full/obj16/Class.gif21506757)"/><text text-anchor="middle" x="622" y="161" style="font-family:Arial;font-size:13.00;">tFunction</text><polygon style="fill:none;stroke:#a30036;" points="539,168 539,145 689,145 689,168 539,168"/></a><a xlink:href="platform%3A%2Fresource%2FUML_SCL%2Fuml%2FSCL_XSD_en_UML.uml%23_lkv1omuPEd&#45;T6NciM0izgg" xlink:title="wildcard"><text text-anchor="middle" x="614" y="179" style="font-family:Arial;font-size:11.00;">«any, element» wildcard [0..*]</text></a><a xlink:href="platform%3A%2Fresource%2FUML_SCL%2Fuml%2FSCL_XSD_en_UML.uml%23_lk5mgmuPEd&#45;T6NciM0izgg" xlink:title="wildcard"><text text-anchor="middle" x="602" y="191" style="font-family:Arial;font-size:11.00;">«any, attribute» wildcard</text></a><a xlink:href="platform%3A%2Fresource%2FUML_SCL%2Fuml%2FSCL_XSD_en_UML.uml%23_lk5mimuPEd&#45;T6NciM0izgg" xlink:title="name"><text text-anchor="middle" x="604" y="203" style="font-family:Arial;font-size:11.00;">«attribute» name : tName</text></a><a xlink:href="platform%3A%2Fresource%2FUML_SCL%2Fuml%2FSCL_XSD_en_UML.uml%23_lk5mjmuPEd&#45;T6NciM0izgg" xlink:title="_attrGroup1"><text text-anchor="middle" x="595" y="215" style="font-family:Arial;font-size:11.00;">_attrGroup1 : agDesc</text></a><polygon style="fill:none;stroke:#a30036;" points="539,219 539,168 689,168 689,219 539,219"/></g><!-- 26413858&#45;&gt;21506757 --><g id="edge12" class="edge"><title>26413858&#45;&gt;21506757</title><a xlink:href="platform%3A%2Fresource%2FUML_SCL%2Fuml%2FSCL_XSD_en_UML.uml%23_llgDq2uPEd&#45;T6NciM0izgg" xlink:title="Function\n0..*\n"><path style="fill:none;stroke:#a30036;" d="M454,86C482,103 515,123 543,140"/><polygon style="fill:#a30036;stroke:#a30036;" points="454,86 451,79 444,79 447,86 454,86"/><polygon style="fill:#a30036;stroke:#a30036;" points="552,145 545,136 549,144 543,140 549,144 541,144 552,145 552,145"/><text text-anchor="middle" x="523" y="106" style="font-family:Arial;font-size:10.00;">Function</text><text text-anchor="middle" x="523" y="118" style="font-family:Arial;font-size:10.00;">0..*</text></a></g><!-- 9972571&#45;&gt;12144052 --><g id="edge14" class="edge"><title>9972571&#45;&gt;12144052</title><a xlink:href="platform%3A%2Fresource%2FUML_SCL%2Fuml%2FSCL_XSD_en_UML.uml%23_lkv1p2uPEd&#45;T6NciM0izgg" xlink:title="Text\n0..1\n"><path style="fill:none;stroke:#a30036;" d="M363,589C363,603 363,619 363,633"/><polygon style="fill:#a30036;stroke:#a30036;" points="363,589 367,583 363,577 359,583 363,589"/><polygon style="fill:#a30036;stroke:#a30036;" points="363,643 368,633 363,640 363,633 363,640 359,633 363,643 363,643"/><text text-anchor="middle" x="372" y="604" style="font-family:Arial;font-size:10.00;">Text</text><text text-anchor="middle" x="372" y="616" style="font-family:Arial;font-size:10.00;">0..1</text></a></g><!-- 9972571&#45;&gt;9379004 --><g id="edge16" class="edge"><title>9972571&#45;&gt;9379004</title><a xlink:href="platform%3A%2Fresource%2FUML_SCL%2Fuml%2FSCL_XSD_en_UML.uml%23_lk5mcmuPEd&#45;T6NciM0izgg" xlink:title="Private\n0..*\n"><path style="fill:none;stroke:#a30036;" d="M459,584C479,600 500,616 518,630"/><polygon style="fill:#a30036;stroke:#a30036;" points="459,584 456,577 449,577 452,584 459,584"/><polygon style="fill:#a30036;stroke:#a30036;" points="526,637 521,627 524,635 518,630 524,635 516,634 526,637 526,637"/><text text-anchor="middle" x="514" y="604" style="font-family:Arial;font-size:10.00;">Private</text><text text-anchor="middle" x="514" y="616" style="font-family:Arial;font-size:10.00;">0..*</text></a></g><!-- 14016938&#45;&gt;12144052 --><g id="edge18" class="edge"><title>14016938&#45;&gt;12144052</title><a xlink:href="platform%3A%2Fresource%2FUML_SCL%2Fuml%2FSCL_XSD_en_UML.uml%23_lkv1p2uPEd&#45;T6NciM0izgg" xlink:title="Text\n0..1\n"><path style="fill:none;stroke:#a30036;" d="M462,394C484,445 505,518 479,577 469,600 450,620 432,636"/><polygon style="fill:#a30036;stroke:#a30036;" points="462,394 463,387 457,383 456,390 462,394"/><polygon style="fill:#a30036;stroke:#a30036;" points="424,643 434,640 426,641 432,636 426,641 429,633 424,643 424,643"/><text text-anchor="middle" x="499" y="507" style="font-family:Arial;font-size:10.00;">Text</text><text text-anchor="middle" x="499" y="519" style="font-family:Arial;font-size:10.00;">0..1</text></a></g><!-- 14016938&#45;&gt;9379004 --><g id="edge20" class="edge"><title>14016938&#45;&gt;9379004</title><a xlink:href="platform%3A%2Fresource%2FUML_SCL%2Fuml%2FSCL_XSD_en_UML.uml%23_lk5mcmuPEd&#45;T6NciM0izgg" xlink:title="Private\n0..*\n"><path style="fill:none;stroke:#a30036;" d="M476,393C478,395 480,398 482,401 495,420 502,423 513,443 543,503 562,578 573,627"/><polygon style="fill:#a30036;stroke:#a30036;" points="475,392 475,385 468,383 469,390 475,392"/><polygon style="fill:#a30036;stroke:#a30036;" points="575,637 577,626 574,634 573,627 574,634 569,628 575,637 575,637"/><text text-anchor="middle" x="575" y="507" style="font-family:Arial;font-size:10.00;">Private</text><text text-anchor="middle" x="575" y="519" style="font-family:Arial;font-size:10.00;">0..*</text></a></g><!-- 14016938&#45;&gt;9972571 --><g id="edge22" class="edge"><title>14016938&#45;&gt;9972571</title><a xlink:href="platform%3A%2Fresource%2FUML_SCL%2Fuml%2FSCL_XSD_en_UML.uml%23_llMhc2uPEd&#45;T6NciM0izgg" xlink:title="LNode\n0..*\n"><path style="fill:none;stroke:#a30036;" d="M408,394C403,407 398,420 393,434"/><polygon style="fill:#a30036;stroke:#a30036;" points="408,394 414,390 412,383 406,387 408,394"/><polygon style="fill:#a30036;stroke:#a30036;" points="389,443 397,436 390,440 393,434 390,440 389,432 389,443 389,443"/><text text-anchor="middle" x="419" y="410" style="font-family:Arial;font-size:10.00;">LNode</text><text text-anchor="middle" x="419" y="422" style="font-family:Arial;font-size:10.00;">0..*</text></a></g><!-- 3271021&#45;&gt;6392392 --><g id="edge32" class="edge"><title>3271021&#45;&gt;6392392</title><a xlink:href="platform%3A%2Fresource%2FUML_SCL%2Fuml%2FSCL_XSD_en_UML.uml%23_llgDkGuPEd&#45;T6NciM0izgg" xlink:title="Bay\n1..*\n"><path style="fill:none;stroke:#a30036;" d="M185,237C185,239 184,241 184,243 181,266 180,292 181,310"/><polygon style="fill:#a30036;stroke:#a30036;" points="185,237 190,232 187,225 182,230 185,237"/><polygon style="fill:#a30036;stroke:#a30036;" points="181,320 186,310 181,317 181,310 181,317 177,310 181,320 181,320"/><text text-anchor="middle" x="193" y="252" style="font-family:Arial;font-size:10.00;">Bay</text><text text-anchor="middle" x="193" y="264" style="font-family:Arial;font-size:10.00;">1..*</text></a></g><!-- 3271021&#45;&gt;12144052 --><g id="edge24" class="edge"><title>3271021&#45;&gt;12144052</title><a xlink:href="platform%3A%2Fresource%2FUML_SCL%2Fuml%2FSCL_XSD_en_UML.uml%23_lkv1p2uPEd&#45;T6NciM0izgg" xlink:title="Text\n0..1\n"><path style="fill:none;stroke:#a30036;" d="M137,234C124,249 113,266 108,285 93,346 96,366 114,425 144,518 143,554 214,619 230,634 250,645 270,654"/><polygon style="fill:#a30036;stroke:#a30036;" points="137,234 144,232 145,225 138,227 137,234"/><polygon style="fill:#a30036;stroke:#a30036;" points="279,658 272,650 276,657 270,654 276,657 268,658 279,658 279,658"/><text text-anchor="middle" x="124" y="410" style="font-family:Arial;font-size:10.00;">Text</text><text text-anchor="middle" x="124" y="422" style="font-family:Arial;font-size:10.00;">0..1</text></a></g><!-- 3271021&#45;&gt;9379004 --><g id="edge26" class="edge"><title>3271021&#45;&gt;9379004</title><a xlink:href="platform%3A%2Fresource%2FUML_SCL%2Fuml%2FSCL_XSD_en_UML.uml%23_lk5mcmuPEd&#45;T6NciM0izgg" xlink:title="Private\n0..*\n"><path style="fill:none;stroke:#a30036;" d="M205,237C217,345 241,571 247,577 306,653 362,613 456,637 461,638 467,640 472,642"/><polygon style="fill:#a30036;stroke:#a30036;" points="205,237 208,231 204,225 201,231 205,237"/><polygon style="fill:#a30036;stroke:#a30036;" points="482,645 474,638 479,644 472,642 479,644 471,646 482,645 482,645"/><text text-anchor="middle" x="240" y="410" style="font-family:Arial;font-size:10.00;">Private</text><text text-anchor="middle" x="240" y="422" style="font-family:Arial;font-size:10.00;">0..*</text></a></g><!-- 3271021&#45;&gt;9972571 --><g id="edge28" class="edge"><title>3271021&#45;&gt;9972571</title><a xlink:href="platform%3A%2Fresource%2FUML_SCL%2Fuml%2FSCL_XSD_en_UML.uml%23_llMhc2uPEd&#45;T6NciM0izgg" xlink:title="LNode\n0..*\n"><path style="fill:none;stroke:#a30036;" d="M152,235C141,250 131,267 125,285 112,327 103,346 125,383 151,428 200,458 246,477"/><polygon style="fill:#a30036;stroke:#a30036;" points="152,235 159,232 159,225 152,228 152,235"/><polygon style="fill:#a30036;stroke:#a30036;" points="256,481 248,473 253,480 247,477 253,480 245,481 256,481 256,481"/><text text-anchor="middle" x="143" y="331" style="font-family:Arial;font-size:10.00;">LNode</text><text text-anchor="middle" x="143" y="343" style="font-family:Arial;font-size:10.00;">0..*</text></a></g><!-- 3271021&#45;&gt;14016938 --><g id="edge30" class="edge"><title>3271021&#45;&gt;14016938</title><a xlink:href="platform%3A%2Fresource%2FUML_SCL%2Fuml%2FSCL_XSD_en_UML.uml%23_llgDd2uPEd&#45;T6NciM0izgg" xlink:title="GeneralEquipment\n0..*\n"><path style="fill:none;stroke:#a30036;" d="M223,235C231,247 239,258 250,267 268,283 291,295 314,304"/><polygon style="fill:#a30036;stroke:#a30036;" points="223,235 224,228 217,225 217,232 223,235"/><polygon style="fill:#a30036;stroke:#a30036;" points="323,307 315,300 320,306 314,304 320,306 312,308 323,307 323,307"/><text text-anchor="middle" x="292" y="252" style="font-family:Arial;font-size:10.00;">GeneralEquipment</text><text text-anchor="middle" x="292" y="264" style="font-family:Arial;font-size:10.00;">0..*</text></a></g><!-- 21506757&#45;&gt;16282826 --><g id="edge40" class="edge"><title>21506757&#45;&gt;16282826</title><a xlink:href="platform%3A%2Fresource%2FUML_SCL%2Fuml%2FSCL_XSD_en_UML.uml%23_llgDrmuPEd&#45;T6NciM0izgg" xlink:title="SubFunction\n0..*\n"><path style="fill:none;stroke:#a30036;" d="M641,229C657,257 675,290 688,311"/><polygon style="fill:#a30036;stroke:#a30036;" points="641,229 642,222 635,219 635,226 641,229"/><polygon style="fill:#a30036;stroke:#a30036;" points="693,320 692,309 692,317 688,311 692,317 684,313 693,320 693,320"/><text text-anchor="middle" x="687" y="252" style="font-family:Arial;font-size:10.00;">SubFunction</text><text text-anchor="middle" x="687" y="264" style="font-family:Arial;font-size:10.00;">0..*</text></a></g><!-- 21506757&#45;&gt;12144052 --><g id="edge34" class="edge"><title>21506757&#45;&gt;12144052</title><a xlink:href="platform%3A%2Fresource%2FUML_SCL%2Fuml%2FSCL_XSD_en_UML.uml%23_lkv1p2uPEd&#45;T6NciM0izgg" xlink:title="Text\n0..1\n"><path style="fill:none;stroke:#a30036;" d="M626,231C641,310 661,469 596,577 564,630 530,618 473,637 468,639 462,641 457,643"/><polygon style="fill:#a30036;stroke:#a30036;" points="626,231 628,224 623,219 621,226 626,231"/><polygon style="fill:#a30036;stroke:#a30036;" points="447,647 458,647 450,646 456,643 450,646 455,639 447,647 447,647"/><text text-anchor="middle" x="649" y="410" style="font-family:Arial;font-size:10.00;">Text</text><text text-anchor="middle" x="649" y="422" style="font-family:Arial;font-size:10.00;">0..1</text></a></g><!-- 21506757&#45;&gt;9379004 --><g id="edge36" class="edge"><title>21506757&#45;&gt;9379004</title><a xlink:href="platform%3A%2Fresource%2FUML_SCL%2Fuml%2FSCL_XSD_en_UML.uml%23_lk5mcmuPEd&#45;T6NciM0izgg" xlink:title="Private\n0..*\n"><path style="fill:none;stroke:#a30036;" d="M698,226C706,231 713,237 720,243 767,286 761,321 750,383 729,494 723,528 658,619 655,622 652,626 650,629"/><polygon style="fill:#a30036;stroke:#a30036;" points="698,226 695,219 688,219 691,226 698,226"/><polygon style="fill:#a30036;stroke:#a30036;" points="643,637 653,632 645,635 650,629 645,635 646,627 643,637 643,637"/><text text-anchor="middle" x="760" y="410" style="font-family:Arial;font-size:10.00;">Private</text><text text-anchor="middle" x="760" y="422" style="font-family:Arial;font-size:10.00;">0..*</text></a></g><!-- 21506757&#45;&gt;9972571 --><g id="edge38" class="edge"><title>21506757&#45;&gt;9972571</title><a xlink:href="platform%3A%2Fresource%2FUML_SCL%2Fuml%2FSCL_XSD_en_UML.uml%23_llMhc2uPEd&#45;T6NciM0izgg" xlink:title="LNode\n0..*\n"><path style="fill:none;stroke:#a30036;" d="M602,231C588,283 567,359 548,383 537,398 509,418 478,439"/><polygon style="fill:#a30036;stroke:#a30036;" points="602,231 607,226 605,219 600,224 602,231"/><polygon style="fill:#a30036;stroke:#a30036;" points="470,445 481,443 472,443 478,439 472,443 475,435 470,445 470,445"/><text text-anchor="middle" x="601" y="331" style="font-family:Arial;font-size:10.00;">LNode</text><text text-anchor="middle" x="601" y="343" style="font-family:Arial;font-size:10.00;">0..*</text></a></g><!-- 21506757&#45;&gt;14016938 --><g id="edge42" class="edge"><title>21506757&#45;&gt;14016938</title><a xlink:href="platform%3A%2Fresource%2FUML_SCL%2Fuml%2FSCL_XSD_en_UML.uml%23_llgDumuPEd&#45;T6NciM0izgg" xlink:title="GeneralEquipment\n0..*\n"><path style="fill:none;stroke:#a30036;" d="M528,209C510,218 491,229 476,243 466,253 459,264 453,276"/><polygon style="fill:#a30036;stroke:#a30036;" points="528,209 535,210 539,204 532,203 528,209"/><polygon style="fill:#a30036;stroke:#a30036;" points="448,285 457,278 449,282 453,276 449,282 449,274 448,285 448,285"/><text text-anchor="middle" x="519" y="252" style="font-family:Arial;font-size:10.00;">GeneralEquipment</text><text text-anchor="middle" x="519" y="264" style="font-family:Arial;font-size:10.00;">0..*</text></a></g></g></svg>