<?xml version="1.0" encoding="UTF-8" standalone="no"?><!DOCTYPE svg PUBLIC "-//W3C//DTD SVG 1.0//EN" "http://www.w3.org/TR/2001/REC-SVG-20010904/DTD/svg10.dtd" [ <!ATTLIST svg xmlns:xlink CDATA #FIXED "http://www.w3.org/1999/xlink">]><!-- Generated by dot version 2.7.20051103.0540 (Thu Nov  3 05:48:38 UTC 2005)     For user: Bill Gates --><!-- Title: uml Pages: 1 --><svg width="488pt" height="134pt" viewBox = "0 0 488 134" xmlns="http://www.w3.org/2000/svg" xmlns:xlink="http://www.w3.org/1999/xlink"><g id="graph0" class="graph" style="font-family:Times-Roman;font-size:14.00;"><title>uml</title><polygon style="fill:white;stroke:white;" points="-1,135 -1,-1 489,-1 489,135 -1,135"/><!-- 6251340 --><g id="node1" class="node"><title>6251340</title><a xlink:href="platform%3A%2Fresource%2FSCL_XSD%2Foriginal%2FSCL&#45;UML.uml%23_1Q8cR9WtEd&#45;l6pFmray_dw" xlink:title="tHeader"><polygon style="fill:#e0ffff;stroke:#a30036;stroke-dasharray:5,2;" points="59,102 5,102 5,128 59,128 59,102"/><text text-anchor="middle" x="32" y="119" style="font-family:Arial;font-size:11.00;">tHeader</text></a></g><!-- 23848942 --><g id="node2" class="node"><title>23848942</title><a xlink:href="platform%3A%2Fresource%2FSCL_XSD%2Foriginal%2FSCL&#45;UML.uml%23_1RYhUdWtEd&#45;l6pFmray_dw" xlink:title="tSubstation"><polygon style="fill:#e0ffff;stroke:#a30036;stroke-dasharray:5,2;" points="147,102 77,102 77,128 147,128 147,102"/><text text-anchor="middle" x="112" y="119" style="font-family:Arial;font-size:11.00;">tSubstation</text></a></g><!-- 2624458 --><g id="node3" class="node"><title>2624458</title><a xlink:href="platform%3A%2Fresource%2FSCL_XSD%2Foriginal%2FSCL&#45;UML.uml%23_1S4WENWtEd&#45;l6pFmray_dw" xlink:title="tCommunication"><polygon style="fill:#e0ffff;stroke:#a30036;stroke-dasharray:5,2;" points="259,102 165,102 165,128 259,128 259,102"/><text text-anchor="middle" x="212" y="119" style="font-family:Arial;font-size:11.00;">tCommunication</text></a></g><!-- 28372402 --><g id="node4" class="node"><title>28372402</title><a xlink:href="platform%3A%2Fresource%2FSCL_XSD%2Foriginal%2FSCL&#45;UML.uml%23_1RsDWdWtEd&#45;l6pFmray_dw" xlink:title="tIED"><polygon style="fill:#e0ffff;stroke:#a30036;stroke-dasharray:5,2;" points="318,102 282,102 282,128 318,128 318,102"/><text text-anchor="middle" x="300" y="119" style="font-family:Arial;font-size:11.00;">tIED</text></a></g><!-- 17205004 --><g id="node5" class="node"><title>17205004</title><a xlink:href="platform%3A%2Fresource%2FSCL_XSD%2Foriginal%2FSCL&#45;UML.uml%23_1UEo9NWtEd&#45;l6pFmray_dw" xlink:title="tDataTypeTemplates"><polygon style="fill:#e0ffff;stroke:#a30036;stroke-dasharray:5,2;" points="452,102 336,102 336,128 452,128 452,102"/><text text-anchor="middle" x="394" y="119" style="font-family:Arial;font-size:11.00;">tDataTypeTemplates</text></a></g><!-- 31214809 --><g id="node6" class="node"><title>31214809</title><polygon style="fill:#ffffcc;stroke:#ffffcc;" points="180,29 180,5 232,5 232,29 180,29"/><a xlink:href="platform%3A%2Fresource%2FSCL_XSD%2Foriginal%2FSCL&#45;UML.uml%23_1UEpDdWtEd&#45;l6pFmray_dw" xlink:title="SCL"><clipPath id="mypathfile:/D:/Hypermodel-UML-eclipse/hyperModel-3.1/configuration/org.eclipse.osgi/bundles/269/1/.cp/icons/full/obj16/Class.gif31214809"><polygon points="197,9 181,9 181,25 197,25 197,9 "/></clipPath><image xlink:href="file:/D:/Hypermodel-UML-eclipse/hyperModel-3.1/configuration/org.eclipse.osgi/bundles/269/1/.cp/icons/full/obj16/Class.gif" width="16px" height="16px" preserveAspectRatio="xMidYMid meet" x="181" y="9" clip-path="url(#mypathfile:/D:/Hypermodel-UML-eclipse/hyperModel-3.1/configuration/org.eclipse.osgi/bundles/269/1/.cp/icons/full/obj16/Class.gif31214809)"/><text text-anchor="middle" x="214" y="21" style="font-family:Arial;font-size:13.00;">SCL</text><polygon style="fill:none;stroke:#a30036;" points="180,29 180,5 232,5 232,29 180,29"/></a></g><!-- 31214809&#45;&gt;6251340 --><g id="edge2" class="edge"><title>31214809&#45;&gt;6251340</title><a xlink:href="platform%3A%2Fresource%2FSCL_XSD%2Foriginal%2FSCL&#45;UML.uml%23_1UEpD9WtEd&#45;l6pFmray_dw" xlink:title="Header\n1..1\n"><path style="fill:none;stroke:#a30036;" d="M168,21C143,25 112,32 88,47 70,59 55,78 45,92"/><polygon style="fill:#a30036;stroke:#a30036;" points="168,21 175,24 180,19 173,16 168,21"/><polygon style="fill:#a30036;stroke:#a30036;" points="40,101 49,94 41,98 45,92 41,98 41,90 40,101 40,101"/><text text-anchor="middle" x="107" y="62" style="font-family:Arial;font-size:10.00;">Header</text><text text-anchor="middle" x="107" y="74" style="font-family:Arial;font-size:10.00;">1..1</text></a></g><!-- 31214809&#45;&gt;23848942 --><g id="edge4" class="edge"><title>31214809&#45;&gt;23848942</title><a xlink:href="platform%3A%2Fresource%2FSCL_XSD%2Foriginal%2FSCL&#45;UML.uml%23_1UEpFNWtEd&#45;l6pFmray_dw" xlink:title="&#171;element&#187; \nSubstation\n0..*\n"><path style="fill:none;stroke:#a30036;" d="M169,32C162,36 155,41 149,47 136,60 127,78 121,91"/><polygon style="fill:#a30036;stroke:#a30036;" points="169,32 176,33 180,27 173,26 169,32"/><polygon style="fill:#a30036;stroke:#a30036;" points="117,101 125,93 118,98 121,92 118,98 117,90 117,101 117,101"/><text text-anchor="middle" x="174" y="56" style="font-family:Arial;font-size:10.00;">&#171;element&#187; </text><text text-anchor="middle" x="174" y="68" style="font-family:Arial;font-size:10.00;">Substation</text><text text-anchor="middle" x="174" y="80" style="font-family:Arial;font-size:10.00;">0..*</text></a></g><!-- 31214809&#45;&gt;2624458 --><g id="edge6" class="edge"><title>31214809&#45;&gt;2624458</title><a xlink:href="platform%3A%2Fresource%2FSCL_XSD%2Foriginal%2FSCL&#45;UML.uml%23_1UEpGtWtEd&#45;l6pFmray_dw" xlink:title="&#171;element&#187; \nCommunication\n0..1\n"><path style="fill:none;stroke:#a30036;" d="M205,41C205,54 206,69 207,83 207,86 207,88 207,91"/><polygon style="fill:#a30036;stroke:#a30036;" points="205,41 209,35 206,29 202,35 205,41"/><polygon style="fill:#a30036;stroke:#a30036;" points="209,101 211,90 208,98 207,91 208,98 203,92 209,101 209,101"/><text text-anchor="middle" x="242" y="56" style="font-family:Arial;font-size:10.00;">&#171;element&#187; </text><text text-anchor="middle" x="242" y="68" style="font-family:Arial;font-size:10.00;">Communication</text><text text-anchor="middle" x="242" y="80" style="font-family:Arial;font-size:10.00;">0..1</text></a></g><!-- 31214809&#45;&gt;28372402 --><g id="edge8" class="edge"><title>31214809&#45;&gt;28372402</title><a xlink:href="platform%3A%2Fresource%2FSCL_XSD%2Foriginal%2FSCL&#45;UML.uml%23_1UEpINWtEd&#45;l6pFmray_dw" xlink:title="&#171;element&#187; \nIED\n0..*\n"><path style="fill:none;stroke:#a30036;" d="M243,26C256,31 269,37 278,47 289,60 294,77 297,91"/><polygon style="fill:#a30036;stroke:#a30036;" points="243,26 239,20 232,22 236,28 243,26"/><polygon style="fill:#a30036;stroke:#a30036;" points="299,101 301,90 298,98 297,91 298,98 293,92 299,101 299,101"/><text text-anchor="middle" x="319" y="56" style="font-family:Arial;font-size:10.00;">&#171;element&#187; </text><text text-anchor="middle" x="319" y="68" style="font-family:Arial;font-size:10.00;">IED</text><text text-anchor="middle" x="319" y="80" style="font-family:Arial;font-size:10.00;">0..*</text></a></g><!-- 31214809&#45;&gt;17205004 --><g id="edge10" class="edge"><title>31214809&#45;&gt;17205004</title><a xlink:href="platform%3A%2Fresource%2FSCL_XSD%2Foriginal%2FSCL&#45;UML.uml%23_1UEpJtWtEd&#45;l6pFmray_dw" xlink:title="&#171;element&#187; \nDataTypeTemplates\n0..1\n"><path style="fill:none;stroke:#a30036;" d="M244,22C281,27 332,35 349,47 364,58 376,77 383,92"/><polygon style="fill:#a30036;stroke:#a30036;" points="244,22 239,17 232,20 237,25 244,22"/><polygon style="fill:#a30036;stroke:#a30036;" points="388,101 387,90 387,98 383,92 387,98 379,94 388,101 388,101"/><text text-anchor="middle" x="421" y="56" style="font-family:Arial;font-size:10.00;">&#171;element&#187; </text><text text-anchor="middle" x="421" y="68" style="font-family:Arial;font-size:10.00;">DataTypeTemplates</text><text text-anchor="middle" x="421" y="80" style="font-family:Arial;font-size:10.00;">0..1</text></a></g></g></svg>