<?xml version="1.0" encoding="UTF-8" standalone="no"?><!DOCTYPE svg PUBLIC "-//W3C//DTD SVG 1.0//EN" "http://www.w3.org/TR/2001/REC-SVG-20010904/DTD/svg10.dtd" [ <!ATTLIST svg xmlns:xlink CDATA #FIXED "http://www.w3.org/1999/xlink">]><!-- Generated by dot version 2.7.20051103.0540 (Thu Nov  3 05:48:38 UTC 2005)     For user: Bill Gates --><!-- Title: uml Pages: 1 --><svg width="250pt" height="214pt" viewBox = "0 0 250 214" xmlns="http://www.w3.org/2000/svg" xmlns:xlink="http://www.w3.org/1999/xlink"><g id="graph0" class="graph" style="font-family:Times-Roman;font-size:14.00;"><title>uml</title><polygon style="fill:white;stroke:white;" points="-1,215 -1,-1 251,-1 251,215 -1,215"/><!-- 1292795 --><g id="node1" class="node"><title>1292795</title><polygon style="fill:#ffffcc;stroke:#ffffcc;" points="5,119 5,95 103,95 103,119 5,119"/><a xlink:href="platform%3A%2Fresource%2FSCL_XSD%2Foriginal%2FSCL&#45;UML.uml%23_1T63_tWtEd&#45;l6pFmray_dw" xlink:title="tLNodeType"><clipPath id="mypathfile:/D:/Hypermodel-UML-eclipse/hyperModel-3.1/configuration/org.eclipse.osgi/bundles/269/1/.cp/icons/full/obj16/Class.gif1292795"><polygon points="22,99 6,99 6,115 22,115 22,99 "/></clipPath><image xlink:href="file:/D:/Hypermodel-UML-eclipse/hyperModel-3.1/configuration/org.eclipse.osgi/bundles/269/1/.cp/icons/full/obj16/Class.gif" width="16px" height="16px" preserveAspectRatio="xMidYMid meet" x="6" y="99" clip-path="url(#mypathfile:/D:/Hypermodel-UML-eclipse/hyperModel-3.1/configuration/org.eclipse.osgi/bundles/269/1/.cp/icons/full/obj16/Class.gif1292795)"/><text text-anchor="middle" x="63" y="111" style="font-family:Arial;font-size:13.00;">tLNodeType</text><polygon style="fill:none;stroke:#a30036;" points="5,119 5,95 103,95 103,119 5,119"/></a></g><!-- 16952283 --><g id="node2" class="node"><title>16952283</title><polygon style="fill:#ffffcc;stroke:#ffffcc;" points="28,209 28,185 80,185 80,209 28,209"/><a xlink:href="platform%3A%2Fresource%2FSCL_XSD%2Foriginal%2FSCL&#45;UML.uml%23_1T64AdWtEd&#45;l6pFmray_dw" xlink:title="tDO"><clipPath id="mypathfile:/D:/Hypermodel-UML-eclipse/hyperModel-3.1/configuration/org.eclipse.osgi/bundles/269/1/.cp/icons/full/obj16/Class.gif16952283"><polygon points="45,189 29,189 29,205 45,205 45,189 "/></clipPath><image xlink:href="file:/D:/Hypermodel-UML-eclipse/hyperModel-3.1/configuration/org.eclipse.osgi/bundles/269/1/.cp/icons/full/obj16/Class.gif" width="16px" height="16px" preserveAspectRatio="xMidYMid meet" x="29" y="189" clip-path="url(#mypathfile:/D:/Hypermodel-UML-eclipse/hyperModel-3.1/configuration/org.eclipse.osgi/bundles/269/1/.cp/icons/full/obj16/Class.gif16952283)"/><text text-anchor="middle" x="63" y="201" style="font-family:Arial;font-size:13.00;">tDO</text><polygon style="fill:none;stroke:#a30036;" points="28,209 28,185 80,185 80,209 28,209"/></a></g><!-- 1292795&#45;&gt;16952283 --><g id="edge2" class="edge"><title>1292795&#45;&gt;16952283</title><a xlink:href="platform%3A%2Fresource%2FSCL_XSD%2Foriginal%2FSCL&#45;UML.uml%23_1T64ANWtEd&#45;l6pFmray_dw" xlink:title="DO\n1..*\n"><path style="fill:none;stroke:#a30036;" d="M54,131C54,145 54,162 54,175"/><polygon style="fill:#a30036;stroke:#a30036;" points="54,131 58,125 54,119 50,125 54,131"/><polygon style="fill:#a30036;stroke:#a30036;" points="54,185 59,175 54,182 54,175 54,182 50,175 54,185 54,185"/><text text-anchor="middle" x="62" y="152" style="font-family:Arial;font-size:10.00;">DO</text><text text-anchor="middle" x="62" y="164" style="font-family:Arial;font-size:10.00;">1..*</text></a></g><!-- 472206 --><g id="node3" class="node"><title>472206</title><polygon style="fill:#ffffcc;stroke:#ffffcc;" points="121,125 121,89 245,89 245,125 121,125"/><a xlink:href="platform%3A%2Fresource%2FSCL_XSD%2Foriginal%2FSCL&#45;UML.uml%23_1T64INWtEd&#45;l6pFmray_dw" xlink:title="tDOType"><text text-anchor="middle" x="183" y="100" style="font-family:Arial;font-size:11.00;">«complexType, choice» </text><clipPath id="mypathfile:/D:/Hypermodel-UML-eclipse/hyperModel-3.1/configuration/org.eclipse.osgi/bundles/269/1/.cp/icons/full/obj16/Class.gif472206"><polygon points="138,105 122,105 122,122 138,122 138,105 "/></clipPath><image xlink:href="file:/D:/Hypermodel-UML-eclipse/hyperModel-3.1/configuration/org.eclipse.osgi/bundles/269/1/.cp/icons/full/obj16/Class.gif" width="16px" height="17px" preserveAspectRatio="xMidYMid meet" x="122" y="105" clip-path="url(#mypathfile:/D:/Hypermodel-UML-eclipse/hyperModel-3.1/configuration/org.eclipse.osgi/bundles/269/1/.cp/icons/full/obj16/Class.gif472206)"/><text text-anchor="middle" x="191" y="118" style="font-family:Arial;font-size:13.00;">tDOType</text><polygon style="fill:none;stroke:#a30036;" points="121,125 121,89 245,89 245,125 121,125"/></a></g><!-- 17205004 --><g id="node4" class="node"><title>17205004</title><polygon style="fill:#ffffcc;stroke:#ffffcc;" points="59,29 59,5 205,5 205,29 59,29"/><a xlink:href="platform%3A%2Fresource%2FSCL_XSD%2Foriginal%2FSCL&#45;UML.uml%23_1UEo9NWtEd&#45;l6pFmray_dw" xlink:title="tDataTypeTemplates"><clipPath id="mypathfile:/D:/Hypermodel-UML-eclipse/hyperModel-3.1/configuration/org.eclipse.osgi/bundles/269/1/.cp/icons/full/obj16/Class.gif17205004"><polygon points="76,9 60,9 60,25 76,25 76,9 "/></clipPath><image xlink:href="file:/D:/Hypermodel-UML-eclipse/hyperModel-3.1/configuration/org.eclipse.osgi/bundles/269/1/.cp/icons/full/obj16/Class.gif" width="16px" height="16px" preserveAspectRatio="xMidYMid meet" x="60" y="9" clip-path="url(#mypathfile:/D:/Hypermodel-UML-eclipse/hyperModel-3.1/configuration/org.eclipse.osgi/bundles/269/1/.cp/icons/full/obj16/Class.gif17205004)"/><text text-anchor="middle" x="140" y="21" style="font-family:Arial;font-size:13.00;">tDataTypeTemplates</text><polygon style="fill:none;stroke:#a30036;" points="59,29 59,5 205,5 205,29 59,29"/></a></g><!-- 17205004&#45;&gt;1292795 --><g id="edge4" class="edge"><title>17205004&#45;&gt;1292795</title><a xlink:href="platform%3A%2Fresource%2FSCL_XSD%2Foriginal%2FSCL&#45;UML.uml%23_1UEo9dWtEd&#45;l6pFmray_dw" xlink:title="LNodeType\n1..*\n"><path style="fill:none;stroke:#a30036;" d="M104,36C100,40 96,43 92,47 82,59 72,74 65,86"/><polygon style="fill:#a30036;stroke:#a30036;" points="104,36 111,36 114,29 107,29 104,36"/><polygon style="fill:#a30036;stroke:#a30036;" points="60,95 69,88 61,92 65,86 61,92 61,84 60,95 60,95"/><text text-anchor="middle" x="121" y="56" style="font-family:Arial;font-size:10.00;">LNodeType</text><text text-anchor="middle" x="121" y="68" style="font-family:Arial;font-size:10.00;">1..*</text></a></g><!-- 17205004&#45;&gt;472206 --><g id="edge6" class="edge"><title>17205004&#45;&gt;472206</title><a xlink:href="platform%3A%2Fresource%2FSCL_XSD%2Foriginal%2FSCL&#45;UML.uml%23_1UEo&#45;tWtEd&#45;l6pFmray_dw" xlink:title="DOType\n1..*\n"><path style="fill:none;stroke:#a30036;" d="M145,40C152,52 161,67 168,80"/><polygon style="fill:#a30036;stroke:#a30036;" points="145,40 145,32 139,29 138,36 145,40"/><polygon style="fill:#a30036;stroke:#a30036;" points="173,89 172,78 172,86 168,80 172,86 164,82 173,89 173,89"/><text text-anchor="middle" x="180" y="56" style="font-family:Arial;font-size:10.00;">DOType</text><text text-anchor="middle" x="180" y="68" style="font-family:Arial;font-size:10.00;">1..*</text></a></g></g></svg>