<?xml version="1.0" encoding="UTF-8" standalone="no"?><!DOCTYPE svg PUBLIC "-//W3C//DTD SVG 1.0//EN" "http://www.w3.org/TR/2001/REC-SVG-20010904/DTD/svg10.dtd" [ <!ATTLIST svg xmlns:xlink CDATA #FIXED "http://www.w3.org/1999/xlink">]><!-- Generated by dot version 2.7.20051103.0540 (Thu Nov  3 05:48:38 UTC 2005)     For user: Bill Gates --><!-- Title: uml Pages: 1 --><svg width="718pt" height="276pt" viewBox = "0 0 718 276" xmlns="http://www.w3.org/2000/svg" xmlns:xlink="http://www.w3.org/1999/xlink"><g id="graph0" class="graph" style="font-family:Times-Roman;font-size:14.00;"><title>uml</title><polygon style="fill:white;stroke:white;" points="-1,277 -1,-1 719,-1 719,277 -1,277"/><!-- 1613992 --><g id="node1" class="node"><title>1613992</title><polygon style="fill:#ffffcc;stroke:#ffffcc;" points="159,181 159,157 313,157 313,181 159,181"/><a xlink:href="platform%3A%2Fresource%2FSCL_XSD%2Foriginal%2FSCL&#45;UML.uml%23_1T6339WtEd&#45;l6pFmray_dw" xlink:title="tAbstractDataAttribute"><clipPath id="mypathfile:/D:/Hypermodel-UML-eclipse/hyperModel-3.1/configuration/org.eclipse.osgi/bundles/269/1/.cp/icons/full/obj16/Class.gif1613992"><polygon points="176,161 160,161 160,177 176,177 176,161 "/></clipPath><image xlink:href="file:/D:/Hypermodel-UML-eclipse/hyperModel-3.1/configuration/org.eclipse.osgi/bundles/269/1/.cp/icons/full/obj16/Class.gif" width="16px" height="16px" preserveAspectRatio="xMidYMid meet" x="160" y="161" clip-path="url(#mypathfile:/D:/Hypermodel-UML-eclipse/hyperModel-3.1/configuration/org.eclipse.osgi/bundles/269/1/.cp/icons/full/obj16/Class.gif1613992)"/><text text-anchor="middle" x="245" y="173" style="font-family:ArialI;font-size:13.00;">tAbstractDataAttribute</text><polygon style="fill:none;stroke:#a30036;" points="159,181 159,157 313,157 313,181 159,181"/></a></g><!-- 19403364 --><g id="node6" class="node"><title>19403364</title><polygon style="fill:#ffffcc;stroke:#ffffcc;" points="324,271 324,247 374,247 374,271 324,271"/><a xlink:href="platform%3A%2Fresource%2FSCL_XSD%2Foriginal%2FSCL&#45;UML.uml%23_1UEox9WtEd&#45;l6pFmray_dw" xlink:title="tDA"><clipPath id="mypathfile:/D:/Hypermodel-UML-eclipse/hyperModel-3.1/configuration/org.eclipse.osgi/bundles/269/1/.cp/icons/full/obj16/Class.gif19403364"><polygon points="341,251 325,251 325,267 341,267 341,251 "/></clipPath><image xlink:href="file:/D:/Hypermodel-UML-eclipse/hyperModel-3.1/configuration/org.eclipse.osgi/bundles/269/1/.cp/icons/full/obj16/Class.gif" width="16px" height="16px" preserveAspectRatio="xMidYMid meet" x="325" y="251" clip-path="url(#mypathfile:/D:/Hypermodel-UML-eclipse/hyperModel-3.1/configuration/org.eclipse.osgi/bundles/269/1/.cp/icons/full/obj16/Class.gif19403364)"/><text text-anchor="middle" x="358" y="263" style="font-family:Arial;font-size:13.00;">tDA</text><polygon style="fill:none;stroke:#a30036;" points="324,271 324,247 374,247 374,271 324,271"/></a></g><!-- 1613992&#45;&gt;19403364 --><g id="edge12" class="edge"><title>1613992&#45;&gt;19403364</title><path style="fill:none;stroke:#000080;" d="M263,190C285,208 316,233 334,247"/><polygon style="fill:none;stroke:#000080;" points="260,194 251,181 266,186 260,194"/></g><!-- 18965738 --><g id="node8" class="node"><title>18965738</title><polygon style="fill:#ffffcc;stroke:#ffffcc;" points="431,271 431,247 489,247 489,271 431,271"/><a xlink:href="platform%3A%2Fresource%2FSCL_XSD%2Foriginal%2FSCL&#45;UML.uml%23_1UEo3tWtEd&#45;l6pFmray_dw" xlink:title="tBDA"><clipPath id="mypathfile:/D:/Hypermodel-UML-eclipse/hyperModel-3.1/configuration/org.eclipse.osgi/bundles/269/1/.cp/icons/full/obj16/Class.gif18965738"><polygon points="448,251 432,251 432,267 448,267 448,251 "/></clipPath><image xlink:href="file:/D:/Hypermodel-UML-eclipse/hyperModel-3.1/configuration/org.eclipse.osgi/bundles/269/1/.cp/icons/full/obj16/Class.gif" width="16px" height="16px" preserveAspectRatio="xMidYMid meet" x="432" y="251" clip-path="url(#mypathfile:/D:/Hypermodel-UML-eclipse/hyperModel-3.1/configuration/org.eclipse.osgi/bundles/269/1/.cp/icons/full/obj16/Class.gif18965738)"/><text text-anchor="middle" x="468" y="263" style="font-family:Arial;font-size:13.00;">tBDA</text><polygon style="fill:none;stroke:#a30036;" points="431,271 431,247 489,247 489,271 431,271"/></a></g><!-- 1613992&#45;&gt;18965738 --><g id="edge16" class="edge"><title>1613992&#45;&gt;18965738</title><path style="fill:none;stroke:#000080;" d="M280,187C325,205 392,232 431,247"/><polygon style="fill:none;stroke:#000080;" points="278,192 266,181 282,182 278,192"/></g><!-- 1292795 --><g id="node2" class="node"><title>1292795</title><polygon style="fill:#ffffcc;stroke:#ffffcc;" points="43,181 43,157 141,157 141,181 43,181"/><a xlink:href="platform%3A%2Fresource%2FSCL_XSD%2Foriginal%2FSCL&#45;UML.uml%23_1T63_tWtEd&#45;l6pFmray_dw" xlink:title="tLNodeType"><clipPath id="mypathfile:/D:/Hypermodel-UML-eclipse/hyperModel-3.1/configuration/org.eclipse.osgi/bundles/269/1/.cp/icons/full/obj16/Class.gif1292795"><polygon points="60,161 44,161 44,177 60,177 60,161 "/></clipPath><image xlink:href="file:/D:/Hypermodel-UML-eclipse/hyperModel-3.1/configuration/org.eclipse.osgi/bundles/269/1/.cp/icons/full/obj16/Class.gif" width="16px" height="16px" preserveAspectRatio="xMidYMid meet" x="44" y="161" clip-path="url(#mypathfile:/D:/Hypermodel-UML-eclipse/hyperModel-3.1/configuration/org.eclipse.osgi/bundles/269/1/.cp/icons/full/obj16/Class.gif1292795)"/><text text-anchor="middle" x="101" y="173" style="font-family:Arial;font-size:13.00;">tLNodeType</text><polygon style="fill:none;stroke:#a30036;" points="43,181 43,157 141,157 141,181 43,181"/></a></g><!-- 16952283 --><g id="node3" class="node"><title>16952283</title><polygon style="fill:#ffffcc;stroke:#ffffcc;" points="9,271 9,247 61,247 61,271 9,271"/><a xlink:href="platform%3A%2Fresource%2FSCL_XSD%2Foriginal%2FSCL&#45;UML.uml%23_1T64AdWtEd&#45;l6pFmray_dw" xlink:title="tDO"><clipPath id="mypathfile:/D:/Hypermodel-UML-eclipse/hyperModel-3.1/configuration/org.eclipse.osgi/bundles/269/1/.cp/icons/full/obj16/Class.gif16952283"><polygon points="26,251 10,251 10,267 26,267 26,251 "/></clipPath><image xlink:href="file:/D:/Hypermodel-UML-eclipse/hyperModel-3.1/configuration/org.eclipse.osgi/bundles/269/1/.cp/icons/full/obj16/Class.gif" width="16px" height="16px" preserveAspectRatio="xMidYMid meet" x="10" y="251" clip-path="url(#mypathfile:/D:/Hypermodel-UML-eclipse/hyperModel-3.1/configuration/org.eclipse.osgi/bundles/269/1/.cp/icons/full/obj16/Class.gif16952283)"/><text text-anchor="middle" x="44" y="263" style="font-family:Arial;font-size:13.00;">tDO</text><polygon style="fill:none;stroke:#a30036;" points="9,271 9,247 61,247 61,271 9,271"/></a></g><!-- 1292795&#45;&gt;16952283 --><g id="edge26" class="edge"><title>1292795&#45;&gt;16952283</title><a xlink:href="platform%3A%2Fresource%2FSCL_XSD%2Foriginal%2FSCL&#45;UML.uml%23_1T64ANWtEd&#45;l6pFmray_dw" xlink:title="DO\n1..*\n"><path style="fill:none;stroke:#a30036;" d="M78,191C69,206 57,224 49,238"/><polygon style="fill:#a30036;stroke:#a30036;" points="78,191 84,188 84,181 77,184 78,191"/><polygon style="fill:#a30036;stroke:#a30036;" points="43,247 52,241 45,245 49,239 45,245 45,236 43,247 43,247"/><text text-anchor="middle" x="77" y="214" style="font-family:Arial;font-size:10.00;">DO</text><text text-anchor="middle" x="77" y="226" style="font-family:Arial;font-size:10.00;">1..*</text></a></g><!-- 472206 --><g id="node4" class="node"><title>472206</title><polygon style="fill:#ffffcc;stroke:#ffffcc;" points="443,187 443,151 567,151 567,187 443,187"/><a xlink:href="platform%3A%2Fresource%2FSCL_XSD%2Foriginal%2FSCL&#45;UML.uml%23_1T64INWtEd&#45;l6pFmray_dw" xlink:title="tDOType"><text text-anchor="middle" x="505" y="162" style="font-family:Arial;font-size:11.00;">«complexType, choice» </text><clipPath id="mypathfile:/D:/Hypermodel-UML-eclipse/hyperModel-3.1/configuration/org.eclipse.osgi/bundles/269/1/.cp/icons/full/obj16/Class.gif472206"><polygon points="460,167 444,167 444,184 460,184 460,167 "/></clipPath><image xlink:href="file:/D:/Hypermodel-UML-eclipse/hyperModel-3.1/configuration/org.eclipse.osgi/bundles/269/1/.cp/icons/full/obj16/Class.gif" width="16px" height="17px" preserveAspectRatio="xMidYMid meet" x="444" y="167" clip-path="url(#mypathfile:/D:/Hypermodel-UML-eclipse/hyperModel-3.1/configuration/org.eclipse.osgi/bundles/269/1/.cp/icons/full/obj16/Class.gif472206)"/><text text-anchor="middle" x="513" y="180" style="font-family:Arial;font-size:13.00;">tDOType</text><polygon style="fill:none;stroke:#a30036;" points="443,187 443,151 567,151 567,187 443,187"/></a></g><!-- 31737144 --><g id="node5" class="node"><title>31737144</title><polygon style="fill:#ffffcc;stroke:#ffffcc;" points="583,271 583,247 643,247 643,271 583,271"/><a xlink:href="platform%3A%2Fresource%2FSCL_XSD%2Foriginal%2FSCL&#45;UML.uml%23_1T64JNWtEd&#45;l6pFmray_dw" xlink:title="tSDO"><clipPath id="mypathfile:/D:/Hypermodel-UML-eclipse/hyperModel-3.1/configuration/org.eclipse.osgi/bundles/269/1/.cp/icons/full/obj16/Class.gif31737144"><polygon points="600,251 584,251 584,267 600,267 600,251 "/></clipPath><image xlink:href="file:/D:/Hypermodel-UML-eclipse/hyperModel-3.1/configuration/org.eclipse.osgi/bundles/269/1/.cp/icons/full/obj16/Class.gif" width="16px" height="16px" preserveAspectRatio="xMidYMid meet" x="584" y="251" clip-path="url(#mypathfile:/D:/Hypermodel-UML-eclipse/hyperModel-3.1/configuration/org.eclipse.osgi/bundles/269/1/.cp/icons/full/obj16/Class.gif31737144)"/><text text-anchor="middle" x="622" y="263" style="font-family:Arial;font-size:13.00;">tSDO</text><polygon style="fill:none;stroke:#a30036;" points="583,271 583,247 643,247 643,271 583,271"/></a></g><!-- 472206&#45;&gt;31737144 --><g id="edge28" class="edge"><title>472206&#45;&gt;31737144</title><a xlink:href="platform%3A%2Fresource%2FSCL_XSD%2Foriginal%2FSCL&#45;UML.uml%23_1T64I9WtEd&#45;l6pFmray_dw" xlink:title="SDO\n1..1\n"><path style="fill:none;stroke:#a30036;" d="M519,198C525,209 533,221 543,229 552,237 562,243 573,247"/><polygon style="fill:#a30036;stroke:#a30036;" points="519,198 519,190 513,187 512,194 519,198"/><polygon style="fill:#a30036;stroke:#a30036;" points="583,251 575,243 580,250 574,247 580,250 572,251 583,251 583,251"/><text text-anchor="middle" x="554" y="214" style="font-family:Arial;font-size:10.00;">SDO</text><text text-anchor="middle" x="554" y="226" style="font-family:Arial;font-size:10.00;">1..1</text></a></g><!-- 472206&#45;&gt;19403364 --><g id="edge30" class="edge"><title>472206&#45;&gt;19403364</title><a xlink:href="platform%3A%2Fresource%2FSCL_XSD%2Foriginal%2FSCL&#45;UML.uml%23_1UEoxtWtEd&#45;l6pFmray_dw" xlink:title="DA\n1..1\n"><path style="fill:none;stroke:#a30036;" d="M463,193C437,209 403,229 379,242"/><polygon style="fill:#a30036;stroke:#a30036;" points="463,193 470,194 473,187 466,187 463,193"/><polygon style="fill:#a30036;stroke:#a30036;" points="370,247 381,246 373,246 379,242 373,246 377,238 370,247 370,247"/><text text-anchor="middle" x="452" y="214" style="font-family:Arial;font-size:10.00;">DA</text><text text-anchor="middle" x="452" y="226" style="font-family:Arial;font-size:10.00;">1..1</text></a></g><!-- 4592974 --><g id="node7" class="node"><title>4592974</title><polygon style="fill:#ffffcc;stroke:#ffffcc;" points="585,181 585,157 661,157 661,181 585,181"/><a xlink:href="platform%3A%2Fresource%2FSCL_XSD%2Foriginal%2FSCL&#45;UML.uml%23_1UEo29WtEd&#45;l6pFmray_dw" xlink:title="tDAType"><clipPath id="mypathfile:/D:/Hypermodel-UML-eclipse/hyperModel-3.1/configuration/org.eclipse.osgi/bundles/269/1/.cp/icons/full/obj16/Class.gif4592974"><polygon points="602,161 586,161 586,177 602,177 602,161 "/></clipPath><image xlink:href="file:/D:/Hypermodel-UML-eclipse/hyperModel-3.1/configuration/org.eclipse.osgi/bundles/269/1/.cp/icons/full/obj16/Class.gif" width="16px" height="16px" preserveAspectRatio="xMidYMid meet" x="586" y="161" clip-path="url(#mypathfile:/D:/Hypermodel-UML-eclipse/hyperModel-3.1/configuration/org.eclipse.osgi/bundles/269/1/.cp/icons/full/obj16/Class.gif4592974)"/><text text-anchor="middle" x="631" y="173" style="font-family:Arial;font-size:13.00;">tDAType</text><polygon style="fill:none;stroke:#a30036;" points="585,181 585,157 661,157 661,181 585,181"/></a></g><!-- 4592974&#45;&gt;18965738 --><g id="edge32" class="edge"><title>4592974&#45;&gt;18965738</title><a xlink:href="platform%3A%2Fresource%2FSCL_XSD%2Foriginal%2FSCL&#45;UML.uml%23_1UEo3dWtEd&#45;l6pFmray_dw" xlink:title="BDA\n1..*\n"><path style="fill:none;stroke:#a30036;" d="M607,191C596,204 581,220 565,229 545,241 520,249 499,253"/><polygon style="fill:#a30036;stroke:#a30036;" points="607,191 614,188 614,181 607,184 607,191"/><polygon style="fill:#a30036;stroke:#a30036;" points="489,255 500,257 492,254 499,253 492,254 498,249 489,255 489,255"/><text text-anchor="middle" x="605" y="214" style="font-family:Arial;font-size:10.00;">BDA</text><text text-anchor="middle" x="605" y="226" style="font-family:Arial;font-size:10.00;">1..*</text></a></g><!-- 2150666 --><g id="node9" class="node"><title>2150666</title><polygon style="fill:#ffffcc;stroke:#ffffcc;" points="331,181 331,157 425,157 425,181 331,181"/><a xlink:href="platform%3A%2Fresource%2FSCL_XSD%2Foriginal%2FSCL&#45;UML.uml%23_1UEo6NWtEd&#45;l6pFmray_dw" xlink:title="tEnumType"><clipPath id="mypathfile:/D:/Hypermodel-UML-eclipse/hyperModel-3.1/configuration/org.eclipse.osgi/bundles/269/1/.cp/icons/full/obj16/Class.gif2150666"><polygon points="348,161 332,161 332,177 348,177 348,161 "/></clipPath><image xlink:href="file:/D:/Hypermodel-UML-eclipse/hyperModel-3.1/configuration/org.eclipse.osgi/bundles/269/1/.cp/icons/full/obj16/Class.gif" width="16px" height="16px" preserveAspectRatio="xMidYMid meet" x="332" y="161" clip-path="url(#mypathfile:/D:/Hypermodel-UML-eclipse/hyperModel-3.1/configuration/org.eclipse.osgi/bundles/269/1/.cp/icons/full/obj16/Class.gif2150666)"/><text text-anchor="middle" x="387" y="173" style="font-family:Arial;font-size:13.00;">tEnumType</text><polygon style="fill:none;stroke:#a30036;" points="331,181 331,157 425,157 425,181 331,181"/></a></g><!-- 17205004 --><g id="node10" class="node"><title>17205004</title><polygon style="fill:#ffffcc;stroke:#ffffcc;" points="344,91 344,67 490,67 490,91 344,91"/><a xlink:href="platform%3A%2Fresource%2FSCL_XSD%2Foriginal%2FSCL&#45;UML.uml%23_1UEo9NWtEd&#45;l6pFmray_dw" xlink:title="tDataTypeTemplates"><clipPath id="mypathfile:/D:/Hypermodel-UML-eclipse/hyperModel-3.1/configuration/org.eclipse.osgi/bundles/269/1/.cp/icons/full/obj16/Class.gif17205004"><polygon points="361,71 345,71 345,87 361,87 361,71 "/></clipPath><image xlink:href="file:/D:/Hypermodel-UML-eclipse/hyperModel-3.1/configuration/org.eclipse.osgi/bundles/269/1/.cp/icons/full/obj16/Class.gif" width="16px" height="16px" preserveAspectRatio="xMidYMid meet" x="345" y="71" clip-path="url(#mypathfile:/D:/Hypermodel-UML-eclipse/hyperModel-3.1/configuration/org.eclipse.osgi/bundles/269/1/.cp/icons/full/obj16/Class.gif17205004)"/><text text-anchor="middle" x="425" y="83" style="font-family:Arial;font-size:13.00;">tDataTypeTemplates</text><polygon style="fill:none;stroke:#a30036;" points="344,91 344,67 490,67 490,91 344,91"/></a></g><!-- 17205004&#45;&gt;1292795 --><g id="edge34" class="edge"><title>17205004&#45;&gt;1292795</title><a xlink:href="platform%3A%2Fresource%2FSCL_XSD%2Foriginal%2FSCL&#45;UML.uml%23_1UEo9dWtEd&#45;l6pFmray_dw" xlink:title="LNodeType\n1..*\n"><path style="fill:none;stroke:#a30036;" d="M359,94C305,108 223,131 150,151 147,152 144,153 141,154"/><polygon style="fill:#a30036;stroke:#a30036;" points="359,94 366,96 371,91 364,89 359,94"/><polygon style="fill:#a30036;stroke:#a30036;" points="131,157 142,158 134,156 141,154 134,156 139,150 131,157 131,157"/><text text-anchor="middle" x="337" y="118" style="font-family:Arial;font-size:10.00;">LNodeType</text><text text-anchor="middle" x="337" y="130" style="font-family:Arial;font-size:10.00;">1..*</text></a></g><!-- 17205004&#45;&gt;472206 --><g id="edge36" class="edge"><title>17205004&#45;&gt;472206</title><a xlink:href="platform%3A%2Fresource%2FSCL_XSD%2Foriginal%2FSCL&#45;UML.uml%23_1UEo&#45;tWtEd&#45;l6pFmray_dw" xlink:title="DOType\n1..*\n"><path style="fill:none;stroke:#a30036;" d="M435,100C444,110 455,123 465,133 469,137 473,140 477,144"/><polygon style="fill:#a30036;stroke:#a30036;" points="435,100 434,93 427,91 428,98 435,100"/><polygon style="fill:#a30036;stroke:#a30036;" points="484,151 480,141 482,149 477,144 482,149 474,147 484,151 484,151"/><text text-anchor="middle" x="484" y="118" style="font-family:Arial;font-size:10.00;">DOType</text><text text-anchor="middle" x="484" y="130" style="font-family:Arial;font-size:10.00;">1..*</text></a></g><!-- 17205004&#45;&gt;4592974 --><g id="edge38" class="edge"><title>17205004&#45;&gt;4592974</title><a xlink:href="platform%3A%2Fresource%2FSCL_XSD%2Foriginal%2FSCL&#45;UML.uml%23_1UEo_9WtEd&#45;l6pFmray_dw" xlink:title="DAType\n0..*\n"><path style="fill:none;stroke:#a30036;" d="M471,95C482,99 493,104 503,109 519,118 519,125 534,133 538,136 561,145 582,153"/><polygon style="fill:#a30036;stroke:#a30036;" points="471,95 467,89 460,91 464,97 471,95"/><polygon style="fill:#a30036;stroke:#a30036;" points="591,157 584,149 588,156 582,153 588,156 580,157 591,157 591,157"/><text text-anchor="middle" x="552" y="118" style="font-family:Arial;font-size:10.00;">DAType</text><text text-anchor="middle" x="552" y="130" style="font-family:Arial;font-size:10.00;">0..*</text></a></g><!-- 17205004&#45;&gt;2150666 --><g id="edge40" class="edge"><title>17205004&#45;&gt;2150666</title><a xlink:href="platform%3A%2Fresource%2FSCL_XSD%2Foriginal%2FSCL&#45;UML.uml%23_1UEpBNWtEd&#45;l6pFmray_dw" xlink:title="EnumType\n0..*\n"><path style="fill:none;stroke:#a30036;" d="M377,98C373,101 370,105 368,109 362,121 364,135 368,148"/><polygon style="fill:#a30036;stroke:#a30036;" points="377,98 384,98 387,91 380,91 377,98"/><polygon style="fill:#a30036;stroke:#a30036;" points="372,157 372,146 371,154 368,148 371,154 364,150 372,157 372,157"/><text text-anchor="middle" x="396" y="118" style="font-family:Arial;font-size:10.00;">EnumType</text><text text-anchor="middle" x="396" y="130" style="font-family:Arial;font-size:10.00;">0..*</text></a></g><!-- 7662824 --><g id="node11" class="node"><title>7662824</title><polygon style="fill:#ffffcc;stroke:#ffffcc;" points="190,91 190,67 282,67 282,91 190,91"/><a xlink:href="platform%3A%2Fresource%2FSCL_XSD%2Foriginal%2FSCL&#45;UML.uml%23_1QyrZNWtEd&#45;l6pFmray_dw" xlink:title="tUnNaming"><clipPath id="mypathfile:/D:/Hypermodel-UML-eclipse/hyperModel-3.1/configuration/org.eclipse.osgi/bundles/269/1/.cp/icons/full/obj16/Class.gif7662824"><polygon points="207,71 191,71 191,87 207,87 207,71 "/></clipPath><image xlink:href="file:/D:/Hypermodel-UML-eclipse/hyperModel-3.1/configuration/org.eclipse.osgi/bundles/269/1/.cp/icons/full/obj16/Class.gif" width="16px" height="16px" preserveAspectRatio="xMidYMid meet" x="191" y="71" clip-path="url(#mypathfile:/D:/Hypermodel-UML-eclipse/hyperModel-3.1/configuration/org.eclipse.osgi/bundles/269/1/.cp/icons/full/obj16/Class.gif7662824)"/><text text-anchor="middle" x="245" y="83" style="font-family:ArialI;font-size:13.00;">tUnNaming</text><polygon style="fill:none;stroke:#a30036;" points="190,91 190,67 282,67 282,91 190,91"/></a></g><!-- 7662824&#45;&gt;1613992 --><g id="edge2" class="edge"><title>7662824&#45;&gt;1613992</title><path style="fill:none;stroke:#000080;" d="M236,106C236,123 236,144 236,157"/><polygon style="fill:none;stroke:#000080;" points="231,106 236,91 241,106 231,106"/></g><!-- 7662824&#45;&gt;16952283 --><g id="edge6" class="edge"><title>7662824&#45;&gt;16952283</title><path style="fill:none;stroke:#000080;" d="M175,93C122,106 51,128 34,151 14,181 24,225 31,247"/><polygon style="fill:none;stroke:#000080;" points="174,88 190,89 177,98 174,88"/></g><!-- 21339247 --><g id="node12" class="node"><title>21339247</title><polygon style="fill:#ffffcc;stroke:#ffffcc;" points="509,91 509,67 597,67 597,91 509,91"/><a xlink:href="platform%3A%2Fresource%2FSCL_XSD%2Foriginal%2FSCL&#45;UML.uml%23_1Q8cQNWtEd&#45;l6pFmray_dw" xlink:title="tIDNaming"><clipPath id="mypathfile:/D:/Hypermodel-UML-eclipse/hyperModel-3.1/configuration/org.eclipse.osgi/bundles/269/1/.cp/icons/full/obj16/Class.gif21339247"><polygon points="526,71 510,71 510,87 526,87 526,71 "/></clipPath><image xlink:href="file:/D:/Hypermodel-UML-eclipse/hyperModel-3.1/configuration/org.eclipse.osgi/bundles/269/1/.cp/icons/full/obj16/Class.gif" width="16px" height="16px" preserveAspectRatio="xMidYMid meet" x="510" y="71" clip-path="url(#mypathfile:/D:/Hypermodel-UML-eclipse/hyperModel-3.1/configuration/org.eclipse.osgi/bundles/269/1/.cp/icons/full/obj16/Class.gif21339247)"/><text text-anchor="middle" x="562" y="83" style="font-family:ArialI;font-size:13.00;">tIDNaming</text><polygon style="fill:none;stroke:#a30036;" points="509,91 509,67 597,67 597,91 509,91"/></a></g><!-- 21339247&#45;&gt;1292795 --><g id="edge4" class="edge"><title>21339247&#45;&gt;1292795</title><path style="fill:none;stroke:#000080;" d="M494,93C472,99 450,105 439,109 418,118 415,127 392,133 289,163 256,131 150,151 143,153 135,155 128,157"/><polygon style="fill:none;stroke:#000080;" points="493,88 509,90 495,98 493,88"/></g><!-- 21339247&#45;&gt;472206 --><g id="edge8" class="edge"><title>21339247&#45;&gt;472206</title><path style="fill:none;stroke:#000080;" d="M564,105C566,115 566,125 562,133 558,140 552,146 546,151"/><polygon style="fill:none;stroke:#000080;" points="559,107 559,91 569,103 559,107"/></g><!-- 21339247&#45;&gt;4592974 --><g id="edge14" class="edge"><title>21339247&#45;&gt;4592974</title><path style="fill:none;stroke:#000080;" d="M572,103C573,105 575,107 577,109 589,126 604,145 613,157"/><polygon style="fill:none;stroke:#000080;" points="568,106 562,91 576,99 568,106"/></g><!-- 21339247&#45;&gt;2150666 --><g id="edge18" class="edge"><title>21339247&#45;&gt;2150666</title><path style="fill:none;stroke:#000080;" d="M520,99C516,103 511,106 506,109 493,119 493,125 478,133 467,139 440,149 416,157"/><polygon style="fill:none;stroke:#000080;" points="517,94 533,91 523,103 517,94"/></g><!-- 17712783 --><g id="node13" class="node"><title>17712783</title><polygon style="fill:#ffffcc;stroke:#ffffcc;" points="639,133 639,109 713,109 713,133 639,133"/><a xlink:href="platform%3A%2Fresource%2FSCL_XSD%2Foriginal%2FSCL&#45;UML.uml%23_1QyrZ9WtEd&#45;l6pFmray_dw" xlink:title="tNaming"><clipPath id="mypathfile:/D:/Hypermodel-UML-eclipse/hyperModel-3.1/configuration/org.eclipse.osgi/bundles/269/1/.cp/icons/full/obj16/Class.gif17712783"><polygon points="656,113 640,113 640,129 656,129 656,113 "/></clipPath><image xlink:href="file:/D:/Hypermodel-UML-eclipse/hyperModel-3.1/configuration/org.eclipse.osgi/bundles/269/1/.cp/icons/full/obj16/Class.gif" width="16px" height="16px" preserveAspectRatio="xMidYMid meet" x="640" y="113" clip-path="url(#mypathfile:/D:/Hypermodel-UML-eclipse/hyperModel-3.1/configuration/org.eclipse.osgi/bundles/269/1/.cp/icons/full/obj16/Class.gif17712783)"/><text text-anchor="middle" x="684" y="125" style="font-family:ArialI;font-size:13.00;">tNaming</text><polygon style="fill:none;stroke:#a30036;" points="639,133 639,109 713,109 713,133 639,133"/></a></g><!-- 17712783&#45;&gt;31737144 --><g id="edge10" class="edge"><title>17712783&#45;&gt;31737144</title><path style="fill:none;stroke:#000080;" d="M677,148C676,160 674,175 670,187 660,211 640,233 626,247"/><polygon style="fill:none;stroke:#000080;" points="672,148 677,133 682,148 672,148"/></g><!-- 9343370 --><g id="node14" class="node"><title>9343370</title><polygon style="fill:#ffffcc;stroke:#ffffcc;" points="499,29 499,5 607,5 607,29 499,29"/><a xlink:href="platform%3A%2Fresource%2FSCL_XSD%2Foriginal%2FSCL&#45;UML.uml%23_1QfwtdWtEd&#45;l6pFmray_dw" xlink:title="tBaseElement"><clipPath id="mypathfile:/D:/Hypermodel-UML-eclipse/hyperModel-3.1/configuration/org.eclipse.osgi/bundles/269/1/.cp/icons/full/obj16/Class.gif9343370"><polygon points="516,9 500,9 500,25 516,25 516,9 "/></clipPath><image xlink:href="file:/D:/Hypermodel-UML-eclipse/hyperModel-3.1/configuration/org.eclipse.osgi/bundles/269/1/.cp/icons/full/obj16/Class.gif" width="16px" height="16px" preserveAspectRatio="xMidYMid meet" x="500" y="9" clip-path="url(#mypathfile:/D:/Hypermodel-UML-eclipse/hyperModel-3.1/configuration/org.eclipse.osgi/bundles/269/1/.cp/icons/full/obj16/Class.gif9343370)"/><text text-anchor="middle" x="562" y="21" style="font-family:ArialI;font-size:13.00;">tBaseElement</text><polygon style="fill:none;stroke:#a30036;" points="499,29 499,5 607,5 607,29 499,29"/></a></g><!-- 9343370&#45;&gt;7662824 --><g id="edge20" class="edge"><title>9343370&#45;&gt;7662824</title><path style="fill:none;stroke:#000080;" d="M484,31C423,42 335,60 282,70"/><polygon style="fill:none;stroke:#000080;" points="483,26 499,28 485,36 483,26"/></g><!-- 9343370&#45;&gt;21339247 --><g id="edge22" class="edge"><title>9343370&#45;&gt;21339247</title><path style="fill:none;stroke:#000080;" d="M553,44C553,52 553,60 553,67"/><polygon style="fill:none;stroke:#000080;" points="548,44 553,29 558,44 548,44"/></g><!-- 9343370&#45;&gt;17712783 --><g id="edge24" class="edge"><title>9343370&#45;&gt;17712783</title><path style="fill:none;stroke:#000080;" d="M580,39C604,60 641,92 661,109"/><polygon style="fill:none;stroke:#000080;" points="576,43 568,29 583,35 576,43"/></g></g></svg>