<?xml version="1.0" encoding="UTF-8" standalone="no"?><!DOCTYPE svg PUBLIC "-//W3C//DTD SVG 1.0//EN" "http://www.w3.org/TR/2001/REC-SVG-20010904/DTD/svg10.dtd" [ <!ATTLIST svg xmlns:xlink CDATA #FIXED "http://www.w3.org/1999/xlink">]><!-- Generated by dot version 2.7.20051103.0540 (Thu Nov  3 05:48:38 UTC 2005)     For user: Bill Gates --><!-- Title: uml Pages: 1 --><svg width="634pt" height="578pt" viewBox = "0 0 634 578" xmlns="http://www.w3.org/2000/svg" xmlns:xlink="http://www.w3.org/1999/xlink"><g id="graph0" class="graph" style="font-family:Times-Roman;font-size:14.00;"><title>uml</title><polygon style="fill:white;stroke:white;" points="-1,579 -1,-1 635,-1 635,579 -1,579"/><!-- 31214809 --><g id="node1" class="node"><title>31214809</title><polygon style="fill:#ffffcc;stroke:#ffffcc;" points="152,131 152,93 204,93 204,131 152,131"/><a xlink:href="platform%3A%2Fresource%2FSCL_XSD%2Foriginal%2FSCL&#45;UML.uml%23_1UEpDdWtEd&#45;l6pFmray_dw" xlink:title="SCL"><clipPath id="mypathfile:/D:/Hypermodel-UML-eclipse/hyperModel-3.1/configuration/org.eclipse.osgi/bundles/269/1/.cp/icons/full/obj16/Class.gif31214809"><polygon points="169,96 153,96 153,113 169,113 169,96 "/></clipPath><image xlink:href="file:/D:/Hypermodel-UML-eclipse/hyperModel-3.1/configuration/org.eclipse.osgi/bundles/269/1/.cp/icons/full/obj16/Class.gif" width="16px" height="17px" preserveAspectRatio="xMidYMid meet" x="153" y="96" clip-path="url(#mypathfile:/D:/Hypermodel-UML-eclipse/hyperModel-3.1/configuration/org.eclipse.osgi/bundles/269/1/.cp/icons/full/obj16/Class.gif31214809)"/><text text-anchor="middle" x="186" y="109" style="font-family:Arial;font-size:13.00;">SCL</text><polygon style="fill:none;stroke:#a30036;" points="152,116 152,93 204,93 204,116 152,116"/></a><text text-anchor="middle" x="178" y="127" style="font-family:Arial;font-size:11.00;"> </text><polygon style="fill:none;stroke:#a30036;" points="152,131 152,116 204,116 204,131 152,131"/></g><!-- 6251340 --><g id="node3" class="node"><title>6251340</title><polygon style="fill:#ffffcc;stroke:#ffffcc;" points="5,277 5,191 225,191 225,277 5,277"/><a xlink:href="platform%3A%2Fresource%2FSCL_XSD%2Foriginal%2FSCL&#45;UML.uml%23_1Q8cR9WtEd&#45;l6pFmray_dw" xlink:title="tHeader"><clipPath id="mypathfile:/D:/Hypermodel-UML-eclipse/hyperModel-3.1/configuration/org.eclipse.osgi/bundles/269/1/.cp/icons/full/obj16/Class.gif6251340"><polygon points="22,194 6,194 6,211 22,211 22,194 "/></clipPath><image xlink:href="file:/D:/Hypermodel-UML-eclipse/hyperModel-3.1/configuration/org.eclipse.osgi/bundles/269/1/.cp/icons/full/obj16/Class.gif" width="16px" height="17px" preserveAspectRatio="xMidYMid meet" x="6" y="194" clip-path="url(#mypathfile:/D:/Hypermodel-UML-eclipse/hyperModel-3.1/configuration/org.eclipse.osgi/bundles/269/1/.cp/icons/full/obj16/Class.gif6251340)"/><text text-anchor="middle" x="123" y="207" style="font-family:Arial;font-size:13.00;">tHeader</text><polygon style="fill:none;stroke:#a30036;" points="5,214 5,191 225,191 225,214 5,214"/></a><a xlink:href="platform%3A%2Fresource%2FSCL_XSD%2Foriginal%2FSCL&#45;UML.uml%23_1Q8cddWtEd&#45;l6pFmray_dw" xlink:title="id"><text text-anchor="middle" x="86" y="225" style="font-family:Arial;font-size:11.00;">«attribute» id : normalizedString</text></a><a xlink:href="platform%3A%2Fresource%2FSCL_XSD%2Foriginal%2FSCL&#45;UML.uml%23_1Q8cedWtEd&#45;l6pFmray_dw" xlink:title="version"><text text-anchor="middle" x="114" y="237" style="font-family:Arial;font-size:11.00;">«attribute» version : normalizedString [0..1]</text></a><a xlink:href="platform%3A%2Fresource%2FSCL_XSD%2Foriginal%2FSCL&#45;UML.uml%23_1Q8cfdWtEd&#45;l6pFmray_dw" xlink:title="revision"><text text-anchor="middle" x="115" y="249" style="font-family:Arial;font-size:11.00;">«attribute» revision : normalizedString [0..1]</text></a><a xlink:href="platform%3A%2Fresource%2FSCL_XSD%2Foriginal%2FSCL&#45;UML.uml%23_1Q8cgdWtEd&#45;l6pFmray_dw" xlink:title="toolID"><text text-anchor="middle" x="110" y="261" style="font-family:Arial;font-size:11.00;">«attribute» toolID : normalizedString [0..1]</text></a><a xlink:href="platform%3A%2Fresource%2FSCL_XSD%2Foriginal%2FSCL&#45;UML.uml%23_1RFmMdWtEd&#45;l6pFmray_dw" xlink:title="nameStructure"><text text-anchor="middle" x="112" y="273" style="font-family:Arial;font-size:11.00;">«attribute» nameStructure : anonymous_2</text></a><polygon style="fill:none;stroke:#a30036;" points="5,277 5,214 225,214 225,277 5,277"/></g><!-- 31214809&#45;&gt;6251340 --><g id="edge10" class="edge"><title>31214809&#45;&gt;6251340</title><a xlink:href="platform%3A%2Fresource%2FSCL_XSD%2Foriginal%2FSCL&#45;UML.uml%23_1UEpD9WtEd&#45;l6pFmray_dw" xlink:title="Header\n1..1\n"><path style="fill:none;stroke:#a30036;" d="M162,142C156,154 148,168 141,182"/><polygon style="fill:#a30036;stroke:#a30036;" points="162,142 169,138 168,131 162,134 162,142"/><polygon style="fill:#a30036;stroke:#a30036;" points="137,191 145,184 138,188 141,182 138,188 137,180 137,191 137,191"/><text text-anchor="middle" x="174" y="158" style="font-family:Arial;font-size:10.00;">Header</text><text text-anchor="middle" x="174" y="170" style="font-family:Arial;font-size:10.00;">1..1</text></a></g><!-- 9343370 --><g id="node2" class="node"><title>9343370</title><polygon style="fill:#ffffcc;stroke:#ffffcc;" points="178,55 178,5 328,5 328,55 178,55"/><a xlink:href="platform%3A%2Fresource%2FSCL_XSD%2Foriginal%2FSCL&#45;UML.uml%23_1QfwtdWtEd&#45;l6pFmray_dw" xlink:title="tBaseElement"><clipPath id="mypathfile:/D:/Hypermodel-UML-eclipse/hyperModel-3.1/configuration/org.eclipse.osgi/bundles/269/1/.cp/icons/full/obj16/Class.gif9343370"><polygon points="195,8 179,8 179,25 195,25 195,8 "/></clipPath><image xlink:href="file:/D:/Hypermodel-UML-eclipse/hyperModel-3.1/configuration/org.eclipse.osgi/bundles/269/1/.cp/icons/full/obj16/Class.gif" width="16px" height="17px" preserveAspectRatio="xMidYMid meet" x="179" y="8" clip-path="url(#mypathfile:/D:/Hypermodel-UML-eclipse/hyperModel-3.1/configuration/org.eclipse.osgi/bundles/269/1/.cp/icons/full/obj16/Class.gif9343370)"/><text text-anchor="middle" x="262" y="21" style="font-family:ArialI;font-size:13.00;">tBaseElement</text><polygon style="fill:none;stroke:#a30036;" points="178,28 178,5 328,5 328,28 178,28"/></a><a xlink:href="platform%3A%2Fresource%2FSCL_XSD%2Foriginal%2FSCL&#45;UML.uml%23_1Qo6QNWtEd&#45;l6pFmray_dw" xlink:title="wildcard"><text text-anchor="middle" x="253" y="39" style="font-family:Arial;font-size:11.00;">«any, element» wildcard [0..*]</text></a><a xlink:href="platform%3A%2Fresource%2FSCL_XSD%2Foriginal%2FSCL&#45;UML.uml%23_1QyrYdWtEd&#45;l6pFmray_dw" xlink:title="wildcard"><text text-anchor="middle" x="241" y="51" style="font-family:Arial;font-size:11.00;">«any, attribute» wildcard</text></a><polygon style="fill:none;stroke:#a30036;" points="178,55 178,28 328,28 328,55 178,55"/></g><!-- 9343370&#45;&gt;31214809 --><g id="edge2" class="edge"><title>9343370&#45;&gt;31214809</title><path style="fill:none;stroke:#000080;" d="M220,66C212,75 203,85 196,93"/><polygon style="fill:none;stroke:#000080;" points="216,63 230,55 224,70 216,63"/></g><!-- 19898081 --><g id="node4" class="node"><title>19898081</title><polygon style="fill:#ffffcc;stroke:#ffffcc;" points="187,395 187,343 355,343 355,395 187,395"/><a xlink:href="platform%3A%2Fresource%2FSCL_XSD%2Foriginal%2FSCL&#45;UML.uml%23_1Qo6RtWtEd&#45;l6pFmray_dw" xlink:title="tText"><text text-anchor="middle" x="271" y="355" style="font-family:Arial;font-size:11.00;">«complexType» </text><clipPath id="mypathfile:/D:/Hypermodel-UML-eclipse/hyperModel-3.1/configuration/org.eclipse.osgi/bundles/269/1/.cp/icons/full/obj16/Class.gif19898081"><polygon points="204,360 188,360 188,377 204,377 204,360 "/></clipPath><image xlink:href="file:/D:/Hypermodel-UML-eclipse/hyperModel-3.1/configuration/org.eclipse.osgi/bundles/269/1/.cp/icons/full/obj16/Class.gif" width="16px" height="17px" preserveAspectRatio="xMidYMid meet" x="188" y="360" clip-path="url(#mypathfile:/D:/Hypermodel-UML-eclipse/hyperModel-3.1/configuration/org.eclipse.osgi/bundles/269/1/.cp/icons/full/obj16/Class.gif19898081)"/><text text-anchor="middle" x="279" y="373" style="font-family:Arial;font-size:13.00;">tText</text><polygon style="fill:none;stroke:#a30036;" points="187,380 187,343 355,343 355,380 187,380"/></a><a xlink:href="platform%3A%2Fresource%2FSCL_XSD%2Foriginal%2FSCL&#45;UML.uml%23_1QyrRtWtEd&#45;l6pFmray_dw" xlink:title="source"><text text-anchor="middle" x="271" y="391" style="font-family:Arial;font-size:11.00;">«attribute» source : anyURI [0..1]</text></a><polygon style="fill:none;stroke:#a30036;" points="187,395 187,380 355,380 355,395 187,395"/></g><!-- 9343370&#45;&gt;19898081 --><g id="edge12" class="edge"><title>9343370&#45;&gt;19898081</title><a xlink:href="platform%3A%2Fresource%2FSCL_XSD%2Foriginal%2FSCL&#45;UML.uml%23_1Qo6RdWtEd&#45;l6pFmray_dw" xlink:title="Text\n0..1\n"><path style="fill:none;stroke:#a30036;" d="M255,67C259,133 265,268 269,333"/><polygon style="fill:#a30036;stroke:#a30036;" points="255,67 258,61 254,55 251,61 255,67"/><polygon style="fill:#a30036;stroke:#a30036;" points="270,343 273,333 270,340 269,333 270,340 265,333 270,343 270,343"/><text text-anchor="middle" x="269" y="158" style="font-family:Arial;font-size:10.00;">Text</text><text text-anchor="middle" x="269" y="170" style="font-family:Arial;font-size:10.00;">0..1</text></a></g><!-- 28336652 --><g id="node5" class="node"><title>28336652</title><polygon style="fill:#ffffcc;stroke:#ffffcc;" points="427,401 427,337 629,337 629,401 427,401"/><a xlink:href="platform%3A%2Fresource%2FSCL_XSD%2Foriginal%2FSCL&#45;UML.uml%23_1QyrUNWtEd&#45;l6pFmray_dw" xlink:title="tPrivate"><text text-anchor="middle" x="528" y="349" style="font-family:Arial;font-size:11.00;">«complexType» </text><clipPath id="mypathfile:/D:/Hypermodel-UML-eclipse/hyperModel-3.1/configuration/org.eclipse.osgi/bundles/269/1/.cp/icons/full/obj16/Class.gif28336652"><polygon points="444,354 428,354 428,371 444,371 444,354 "/></clipPath><image xlink:href="file:/D:/Hypermodel-UML-eclipse/hyperModel-3.1/configuration/org.eclipse.osgi/bundles/269/1/.cp/icons/full/obj16/Class.gif" width="16px" height="17px" preserveAspectRatio="xMidYMid meet" x="428" y="354" clip-path="url(#mypathfile:/D:/Hypermodel-UML-eclipse/hyperModel-3.1/configuration/org.eclipse.osgi/bundles/269/1/.cp/icons/full/obj16/Class.gif28336652)"/><text text-anchor="middle" x="536" y="367" style="font-family:Arial;font-size:13.00;">tPrivate</text><polygon style="fill:none;stroke:#a30036;" points="427,374 427,337 629,337 629,374 427,374"/></a><a xlink:href="platform%3A%2Fresource%2FSCL_XSD%2Foriginal%2FSCL&#45;UML.uml%23_1QyrVNWtEd&#45;l6pFmray_dw" xlink:title="type"><text text-anchor="middle" x="528" y="385" style="font-family:Arial;font-size:11.00;">«attribute» type : normalizedString [0..1]</text></a><a xlink:href="platform%3A%2Fresource%2FSCL_XSD%2Foriginal%2FSCL&#45;UML.uml%23_1QyrWNWtEd&#45;l6pFmray_dw" xlink:title="source"><text text-anchor="middle" x="511" y="397" style="font-family:Arial;font-size:11.00;">«attribute» source : anyURI [0..1]</text></a><polygon style="fill:none;stroke:#a30036;" points="427,401 427,374 629,374 629,401 427,401"/></g><!-- 9343370&#45;&gt;28336652 --><g id="edge14" class="edge"><title>9343370&#45;&gt;28336652</title><a xlink:href="platform%3A%2Fresource%2FSCL_XSD%2Foriginal%2FSCL&#45;UML.uml%23_1QyrT9WtEd&#45;l6pFmray_dw" xlink:title="Private\n0..*\n"><path style="fill:none;stroke:#a30036;" d="M339,57C401,82 480,124 520,191 544,232 542,288 537,327"/><polygon style="fill:#a30036;stroke:#a30036;" points="339,57 335,51 328,53 332,59 339,57"/><polygon style="fill:#a30036;stroke:#a30036;" points="535,337 541,328 536,334 537,327 536,334 533,326 535,337 535,337"/><text text-anchor="middle" x="520" y="158" style="font-family:Arial;font-size:10.00;">Private</text><text text-anchor="middle" x="520" y="170" style="font-family:Arial;font-size:10.00;">0..*</text></a></g><!-- 6251340&#45;&gt;19898081 --><g id="edge16" class="edge"><title>6251340&#45;&gt;19898081</title><a xlink:href="platform%3A%2Fresource%2FSCL_XSD%2Foriginal%2FSCL&#45;UML.uml%23_1Q8cSNWtEd&#45;l6pFmray_dw" xlink:title="Text\n0..1\n"><path style="fill:none;stroke:#a30036;" d="M174,285C194,302 215,320 233,336"/><polygon style="fill:#a30036;stroke:#a30036;" points="174,285 172,278 165,277 167,284 174,285"/><polygon style="fill:#a30036;stroke:#a30036;" points="241,343 236,333 239,341 233,336 239,341 231,340 241,343 241,343"/><text text-anchor="middle" x="220" y="304" style="font-family:Arial;font-size:10.00;">Text</text><text text-anchor="middle" x="220" y="316" style="font-family:Arial;font-size:10.00;">0..1</text></a></g><!-- 19185043 --><g id="node6" class="node"><title>19185043</title><polygon style="fill:#ffffcc;stroke:#ffffcc;" points="61,388 61,350 169,350 169,388 61,388"/><a xlink:href="platform%3A%2Fresource%2FSCL_XSD%2Foriginal%2FSCL&#45;UML.uml%23_1Q8cTtWtEd&#45;l6pFmray_dw" xlink:title="anonymous_1"><clipPath id="mypathfile:/D:/Hypermodel-UML-eclipse/hyperModel-3.1/configuration/org.eclipse.osgi/bundles/269/1/.cp/icons/full/obj16/Class.gif19185043"><polygon points="78,353 62,353 62,370 78,370 78,353 "/></clipPath><image xlink:href="file:/D:/Hypermodel-UML-eclipse/hyperModel-3.1/configuration/org.eclipse.osgi/bundles/269/1/.cp/icons/full/obj16/Class.gif" width="16px" height="17px" preserveAspectRatio="xMidYMid meet" x="62" y="353" clip-path="url(#mypathfile:/D:/Hypermodel-UML-eclipse/hyperModel-3.1/configuration/org.eclipse.osgi/bundles/269/1/.cp/icons/full/obj16/Class.gif19185043)"/><text text-anchor="middle" x="124" y="366" style="font-family:Arial;font-size:13.00;">anonymous_1</text><polygon style="fill:none;stroke:#a30036;" points="61,373 61,350 169,350 169,373 61,373"/></a><text text-anchor="middle" x="115" y="384" style="font-family:Arial;font-size:11.00;"> </text><polygon style="fill:none;stroke:#a30036;" points="61,388 61,373 169,373 169,388 61,388"/></g><!-- 6251340&#45;&gt;19185043 --><g id="edge18" class="edge"><title>6251340&#45;&gt;19185043</title><a xlink:href="platform%3A%2Fresource%2FSCL_XSD%2Foriginal%2FSCL&#45;UML.uml%23_1Q8cTdWtEd&#45;l6pFmray_dw" xlink:title="History\n0..1\n"><path style="fill:none;stroke:#a30036;" d="M115,289C115,307 115,325 115,340"/><polygon style="fill:#a30036;stroke:#a30036;" points="115,289 119,283 115,277 111,283 115,289"/><polygon style="fill:#a30036;stroke:#a30036;" points="115,350 120,340 115,347 115,340 115,347 111,340 115,350 115,350"/><text text-anchor="middle" x="131" y="304" style="font-family:Arial;font-size:10.00;">History</text><text text-anchor="middle" x="131" y="316" style="font-family:Arial;font-size:10.00;">0..1</text></a></g><!-- 8327720 --><g id="node8" class="node"><title>8327720</title><polygon style="fill:#ffffcc;stroke:#ffffcc;" points="207,573 207,461 413,461 413,573 207,573"/><a xlink:href="platform%3A%2Fresource%2FSCL_XSD%2Foriginal%2FSCL&#45;UML.uml%23_1Q8cUNWtEd&#45;l6pFmray_dw" xlink:title="tHitem"><text text-anchor="middle" x="310" y="473" style="font-family:Arial;font-size:11.00;">«complexType» </text><clipPath id="mypathfile:/D:/Hypermodel-UML-eclipse/hyperModel-3.1/configuration/org.eclipse.osgi/bundles/269/1/.cp/icons/full/obj16/Class.gif8327720"><polygon points="224,478 208,478 208,495 224,495 224,478 "/></clipPath><image xlink:href="file:/D:/Hypermodel-UML-eclipse/hyperModel-3.1/configuration/org.eclipse.osgi/bundles/269/1/.cp/icons/full/obj16/Class.gif" width="16px" height="17px" preserveAspectRatio="xMidYMid meet" x="208" y="478" clip-path="url(#mypathfile:/D:/Hypermodel-UML-eclipse/hyperModel-3.1/configuration/org.eclipse.osgi/bundles/269/1/.cp/icons/full/obj16/Class.gif8327720)"/><text text-anchor="middle" x="318" y="491" style="font-family:Arial;font-size:13.00;">tHitem</text><polygon style="fill:none;stroke:#a30036;" points="207,498 207,461 413,461 413,498 207,498"/></a><a xlink:href="platform%3A%2Fresource%2FSCL_XSD%2Foriginal%2FSCL&#45;UML.uml%23_1Q8cVNWtEd&#45;l6pFmray_dw" xlink:title="version"><text text-anchor="middle" x="302" y="509" style="font-family:Arial;font-size:11.00;">«attribute» version : normalizedString</text></a><a xlink:href="platform%3A%2Fresource%2FSCL_XSD%2Foriginal%2FSCL&#45;UML.uml%23_1Q8cWNWtEd&#45;l6pFmray_dw" xlink:title="revision"><text text-anchor="middle" x="303" y="521" style="font-family:Arial;font-size:11.00;">«attribute» revision : normalizedString</text></a><a xlink:href="platform%3A%2Fresource%2FSCL_XSD%2Foriginal%2FSCL&#45;UML.uml%23_1Q8cXNWtEd&#45;l6pFmray_dw" xlink:title="when"><text text-anchor="middle" x="297" y="533" style="font-family:Arial;font-size:11.00;">«attribute» when : normalizedString</text></a><a xlink:href="platform%3A%2Fresource%2FSCL_XSD%2Foriginal%2FSCL&#45;UML.uml%23_1Q8cYNWtEd&#45;l6pFmray_dw" xlink:title="who"><text text-anchor="middle" x="308" y="545" style="font-family:Arial;font-size:11.00;">«attribute» who : normalizedString [0..1]</text></a><a xlink:href="platform%3A%2Fresource%2FSCL_XSD%2Foriginal%2FSCL&#45;UML.uml%23_1Q8cZNWtEd&#45;l6pFmray_dw" xlink:title="what"><text text-anchor="middle" x="310" y="557" style="font-family:Arial;font-size:11.00;">«attribute» what : normalizedString [0..1]</text></a><a xlink:href="platform%3A%2Fresource%2FSCL_XSD%2Foriginal%2FSCL&#45;UML.uml%23_1Q8caNWtEd&#45;l6pFmray_dw" xlink:title="why"><text text-anchor="middle" x="308" y="569" style="font-family:Arial;font-size:11.00;">«attribute» why : normalizedString [0..1]</text></a><polygon style="fill:none;stroke:#a30036;" points="207,573 207,498 413,498 413,573 207,573"/></g><!-- 19185043&#45;&gt;8327720 --><g id="edge20" class="edge"><title>19185043&#45;&gt;8327720</title><a xlink:href="platform%3A%2Fresource%2FSCL_XSD%2Foriginal%2FSCL&#45;UML.uml%23_1Q8cT9WtEd&#45;l6pFmray_dw" xlink:title="Hitem\n1..*\n"><path style="fill:none;stroke:#a30036;" d="M150,395C171,411 200,434 228,455"/><polygon style="fill:#a30036;stroke:#a30036;" points="150,395 147,388 140,388 143,395 150,395"/><polygon style="fill:#a30036;stroke:#a30036;" points="236,461 231,451 234,459 228,455 234,459 225,459 236,461 236,461"/><text text-anchor="middle" x="225" y="428" style="font-family:Arial;font-size:10.00;">Hitem</text><text text-anchor="middle" x="225" y="440" style="font-family:Arial;font-size:10.00;">1..*</text></a></g><!-- 2976630 --><g id="node7" class="node"><title>2976630</title><polygon style="fill:#ffffcc;stroke:#ffffcc;" points="281,266 281,202 511,202 511,266 281,266"/><a xlink:href="platform%3A%2Fresource%2FSCL_XSD%2Foriginal%2FSCL&#45;UML.uml%23_1Qo6SdWtEd&#45;l6pFmray_dw" xlink:title="tAnyContentFromOtherNamespace"><text text-anchor="middle" x="396" y="214" style="font-family:Arial;font-size:11.00;">«complexType» </text><clipPath id="mypathfile:/D:/Hypermodel-UML-eclipse/hyperModel-3.1/configuration/org.eclipse.osgi/bundles/269/1/.cp/icons/full/obj16/Class.gif2976630"><polygon points="298,219 282,219 282,236 298,236 298,219 "/></clipPath><image xlink:href="file:/D:/Hypermodel-UML-eclipse/hyperModel-3.1/configuration/org.eclipse.osgi/bundles/269/1/.cp/icons/full/obj16/Class.gif" width="16px" height="17px" preserveAspectRatio="xMidYMid meet" x="282" y="219" clip-path="url(#mypathfile:/D:/Hypermodel-UML-eclipse/hyperModel-3.1/configuration/org.eclipse.osgi/bundles/269/1/.cp/icons/full/obj16/Class.gif2976630)"/><text text-anchor="middle" x="405" y="232" style="font-family:ArialI;font-size:13.00;">tAnyContentFromOtherNamespace</text><polygon style="fill:none;stroke:#a30036;" points="281,239 281,202 511,202 511,239 281,239"/></a><a xlink:href="platform%3A%2Fresource%2FSCL_XSD%2Foriginal%2FSCL&#45;UML.uml%23_1Qo6TdWtEd&#45;l6pFmray_dw" xlink:title="wildcard"><text text-anchor="middle" x="343" y="250" style="font-family:Arial;font-size:11.00;">«any, element» wildcard</text></a><a xlink:href="platform%3A%2Fresource%2FSCL_XSD%2Foriginal%2FSCL&#45;UML.uml%23_1QyrQtWtEd&#45;l6pFmray_dw" xlink:title="wildcard"><text text-anchor="middle" x="344" y="262" style="font-family:Arial;font-size:11.00;">«any, attribute» wildcard</text></a><polygon style="fill:none;stroke:#a30036;" points="281,266 281,239 511,239 511,266 281,266"/></g><!-- 2976630&#45;&gt;19898081 --><g id="edge4" class="edge"><title>2976630&#45;&gt;19898081</title><path style="fill:none;stroke:#000080;" d="M356,277C335,299 312,324 295,343"/><polygon style="fill:none;stroke:#000080;" points="352,274 366,266 360,281 352,274"/></g><!-- 2976630&#45;&gt;28336652 --><g id="edge6" class="edge"><title>2976630&#45;&gt;28336652</title><path style="fill:none;stroke:#000080;" d="M439,277C458,296 479,319 497,337"/><polygon style="fill:none;stroke:#000080;" points="435,280 428,266 442,273 435,280"/></g><!-- 2976630&#45;&gt;8327720 --><g id="edge8" class="edge"><title>2976630&#45;&gt;8327720</title><path style="fill:none;stroke:#000080;" d="M390,281C385,315 377,362 364,401 357,421 348,442 339,461"/><polygon style="fill:none;stroke:#000080;" points="385,280 392,266 395,282 385,280"/></g></g></svg>