<?xml version="1.0" encoding="UTF-8" standalone="no"?><!DOCTYPE svg PUBLIC "-//W3C//DTD SVG 1.0//EN" "http://www.w3.org/TR/2001/REC-SVG-20010904/DTD/svg10.dtd" [ <!ATTLIST svg xmlns:xlink CDATA #FIXED "http://www.w3.org/1999/xlink">]><!-- Generated by dot version 2.7.20051103.0540 (Thu Nov  3 05:48:38 UTC 2005)     For user: Bill Gates --><!-- Title: uml Pages: 1 --><svg width="1503pt" height="540pt" viewBox = "0 0 1503 540" xmlns="http://www.w3.org/2000/svg" xmlns:xlink="http://www.w3.org/1999/xlink"><g id="graph0" class="graph" style="font-family:Times-Roman;font-size:14.00;"><title>uml</title><polygon style="fill:white;stroke:white;" points="-1,541 -1,-1 1504,-1 1504,541 -1,541"/><!-- 32258780 --><g id="node1" class="node"><title>32258780</title><polygon style="fill:#ffffcc;stroke:#ffffcc;" points="522,81 522,5 722,5 722,81 522,81"/><a xlink:href="platform%3A%2Fresource%2FSCL_XSD%2Foriginal%2FSCL&#45;UML.uml%23_1T63ztWtEd&#45;l6pFmray_dw" xlink:title="agDATrgOp"><text text-anchor="middle" x="622" y="17" style="font-family:Arial;font-size:11.00;">«attributeGroup» </text><clipPath id="mypathfile:/D:/Hypermodel-UML-eclipse/hyperModel-3.1/configuration/org.eclipse.osgi/bundles/269/1/.cp/icons/full/obj16/Class.gif32258780"><polygon points="539,22 523,22 523,39 539,39 539,22 "/></clipPath><image xlink:href="file:/D:/Hypermodel-UML-eclipse/hyperModel-3.1/configuration/org.eclipse.osgi/bundles/269/1/.cp/icons/full/obj16/Class.gif" width="16px" height="17px" preserveAspectRatio="xMidYMid meet" x="523" y="22" clip-path="url(#mypathfile:/D:/Hypermodel-UML-eclipse/hyperModel-3.1/configuration/org.eclipse.osgi/bundles/269/1/.cp/icons/full/obj16/Class.gif32258780)"/><text text-anchor="middle" x="630" y="35" style="font-family:Arial;font-size:13.00;">agDATrgOp</text><polygon style="fill:none;stroke:#a30036;" points="522,42 522,5 722,5 722,42 522,42"/></a><a xlink:href="platform%3A%2Fresource%2FSCL_XSD%2Foriginal%2FSCL&#45;UML.uml%23_1T63z9WtEd&#45;l6pFmray_dw" xlink:title="dchg"><text text-anchor="middle" x="622" y="53" style="font-family:Arial;font-size:11.00;">«attribute» dchg : boolean [0..1] = false</text></a><a xlink:href="platform%3A%2Fresource%2FSCL_XSD%2Foriginal%2FSCL&#45;UML.uml%23_1T631NWtEd&#45;l6pFmray_dw" xlink:title="qchg"><text text-anchor="middle" x="622" y="65" style="font-family:Arial;font-size:11.00;">«attribute» qchg : boolean [0..1] = false</text></a><a xlink:href="platform%3A%2Fresource%2FSCL_XSD%2Foriginal%2FSCL&#45;UML.uml%23_1T632dWtEd&#45;l6pFmray_dw" xlink:title="dupd"><text text-anchor="middle" x="622" y="77" style="font-family:Arial;font-size:11.00;">«attribute» dupd : boolean [0..1] = false</text></a><polygon style="fill:none;stroke:#a30036;" points="522,81 522,42 722,42 722,81 522,81"/></g><!-- 1613992 --><g id="node2" class="node"><title>1613992</title><polygon style="fill:#ffffcc;stroke:#ffffcc;" points="838,401 838,291 1072,291 1072,401 838,401"/><a xlink:href="platform%3A%2Fresource%2FSCL_XSD%2Foriginal%2FSCL&#45;UML.uml%23_1T6339WtEd&#45;l6pFmray_dw" xlink:title="tAbstractDataAttribute"><clipPath id="mypathfile:/D:/Hypermodel-UML-eclipse/hyperModel-3.1/configuration/org.eclipse.osgi/bundles/269/1/.cp/icons/full/obj16/Class.gif1613992"><polygon points="855,294 839,294 839,311 855,311 855,294 "/></clipPath><image xlink:href="file:/D:/Hypermodel-UML-eclipse/hyperModel-3.1/configuration/org.eclipse.osgi/bundles/269/1/.cp/icons/full/obj16/Class.gif" width="16px" height="17px" preserveAspectRatio="xMidYMid meet" x="839" y="294" clip-path="url(#mypathfile:/D:/Hypermodel-UML-eclipse/hyperModel-3.1/configuration/org.eclipse.osgi/bundles/269/1/.cp/icons/full/obj16/Class.gif1613992)"/><text text-anchor="middle" x="964" y="307" style="font-family:ArialI;font-size:13.00;">tAbstractDataAttribute</text><polygon style="fill:none;stroke:#a30036;" points="838,314 838,291 1072,291 1072,314 838,314"/></a><a xlink:href="platform%3A%2Fresource%2FSCL_XSD%2Foriginal%2FSCL&#45;UML.uml%23_1T634dWtEd&#45;l6pFmray_dw" xlink:title="Val"><text text-anchor="middle" x="876" y="325" style="font-family:Arial;font-size:11.00;">Val : tVal [0..*]</text></a><a xlink:href="platform%3A%2Fresource%2FSCL_XSD%2Foriginal%2FSCL&#45;UML.uml%23_1T635NWtEd&#45;l6pFmray_dw" xlink:title="name"><text text-anchor="middle" x="939" y="337" style="font-family:Arial;font-size:11.00;">«attribute» name : tAttributeNameEnum</text></a><a xlink:href="platform%3A%2Fresource%2FSCL_XSD%2Foriginal%2FSCL&#45;UML.uml%23_1T636NWtEd&#45;l6pFmray_dw" xlink:title="sAddr"><text text-anchor="middle" x="943" y="349" style="font-family:Arial;font-size:11.00;">«attribute» sAddr : normalizedString [0..1]</text></a><a xlink:href="platform%3A%2Fresource%2FSCL_XSD%2Foriginal%2FSCL&#45;UML.uml%23_1T637NWtEd&#45;l6pFmray_dw" xlink:title="bType"><text text-anchor="middle" x="930" y="361" style="font-family:Arial;font-size:11.00;">«attribute» bType : tBasicTypeEnum</text></a><a xlink:href="platform%3A%2Fresource%2FSCL_XSD%2Foriginal%2FSCL&#45;UML.uml%23_1T638NWtEd&#45;l6pFmray_dw" xlink:title="valKind"><text text-anchor="middle" x="955" y="373" style="font-family:Arial;font-size:11.00;">«attribute» valKind : tValKindEnum [0..1] = Set</text></a><a xlink:href="platform%3A%2Fresource%2FSCL_XSD%2Foriginal%2FSCL&#45;UML.uml%23_1T639dWtEd&#45;l6pFmray_dw" xlink:title="type"><text text-anchor="middle" x="924" y="385" style="font-family:Arial;font-size:11.00;">«attribute» type : tAnyName [0..1]</text></a><a xlink:href="platform%3A%2Fresource%2FSCL_XSD%2Foriginal%2FSCL&#45;UML.uml%23_1T63&#45;dWtEd&#45;l6pFmray_dw" xlink:title="count"><text text-anchor="middle" x="939" y="397" style="font-family:Arial;font-size:11.00;">«attribute» count : unsignedInt [0..1] = 0</text></a><polygon style="fill:none;stroke:#a30036;" points="838,401 838,314 1072,314 1072,401 838,401"/></g><!-- 19403364 --><g id="node7" class="node"><title>19403364</title><polygon style="fill:#ffffcc;stroke:#ffffcc;" points="247,523 247,473 381,473 381,523 247,523"/><a xlink:href="platform%3A%2Fresource%2FSCL_XSD%2Foriginal%2FSCL&#45;UML.uml%23_1UEox9WtEd&#45;l6pFmray_dw" xlink:title="tDA"><clipPath id="mypathfile:/D:/Hypermodel-UML-eclipse/hyperModel-3.1/configuration/org.eclipse.osgi/bundles/269/1/.cp/icons/full/obj16/Class.gif19403364"><polygon points="264,476 248,476 248,493 264,493 264,476 "/></clipPath><image xlink:href="file:/D:/Hypermodel-UML-eclipse/hyperModel-3.1/configuration/org.eclipse.osgi/bundles/269/1/.cp/icons/full/obj16/Class.gif" width="16px" height="17px" preserveAspectRatio="xMidYMid meet" x="248" y="476" clip-path="url(#mypathfile:/D:/Hypermodel-UML-eclipse/hyperModel-3.1/configuration/org.eclipse.osgi/bundles/269/1/.cp/icons/full/obj16/Class.gif19403364)"/><text text-anchor="middle" x="323" y="489" style="font-family:Arial;font-size:13.00;">tDA</text><polygon style="fill:none;stroke:#a30036;" points="247,496 247,473 381,473 381,496 247,496"/></a><a xlink:href="platform%3A%2Fresource%2FSCL_XSD%2Foriginal%2FSCL&#45;UML.uml%23_1UEoydWtEd&#45;l6pFmray_dw" xlink:title="_attrGroup1"><text text-anchor="middle" x="314" y="507" style="font-family:Arial;font-size:11.00;">_attrGroup1 : agDATrgOp</text></a><a xlink:href="platform%3A%2Fresource%2FSCL_XSD%2Foriginal%2FSCL&#45;UML.uml%23_1UEoytWtEd&#45;l6pFmray_dw" xlink:title="fc"><text text-anchor="middle" x="310" y="519" style="font-family:Arial;font-size:11.00;">«attribute» fc : tFCEnum</text></a><polygon style="fill:none;stroke:#a30036;" points="247,523 247,496 381,496 381,523 247,523"/></g><!-- 1613992&#45;&gt;19403364 --><g id="edge12" class="edge"><title>1613992&#45;&gt;19403364</title><path style="fill:none;stroke:#000080;" d="M823,402C722,431 495,469 381,487"/><polygon style="fill:none;stroke:#000080;" points="822,397 838,398 825,407 822,397"/></g><!-- 18965738 --><g id="node9" class="node"><title>18965738</title><polygon style="fill:#ffffcc;stroke:#ffffcc;" points="557,517 557,479 615,479 615,517 557,517"/><a xlink:href="platform%3A%2Fresource%2FSCL_XSD%2Foriginal%2FSCL&#45;UML.uml%23_1UEo3tWtEd&#45;l6pFmray_dw" xlink:title="tBDA"><clipPath id="mypathfile:/D:/Hypermodel-UML-eclipse/hyperModel-3.1/configuration/org.eclipse.osgi/bundles/269/1/.cp/icons/full/obj16/Class.gif18965738"><polygon points="574,482 558,482 558,499 574,499 574,482 "/></clipPath><image xlink:href="file:/D:/Hypermodel-UML-eclipse/hyperModel-3.1/configuration/org.eclipse.osgi/bundles/269/1/.cp/icons/full/obj16/Class.gif" width="16px" height="17px" preserveAspectRatio="xMidYMid meet" x="558" y="482" clip-path="url(#mypathfile:/D:/Hypermodel-UML-eclipse/hyperModel-3.1/configuration/org.eclipse.osgi/bundles/269/1/.cp/icons/full/obj16/Class.gif18965738)"/><text text-anchor="middle" x="594" y="495" style="font-family:Arial;font-size:13.00;">tBDA</text><polygon style="fill:none;stroke:#a30036;" points="557,502 557,479 615,479 615,502 557,502"/></a><text text-anchor="middle" x="586" y="513" style="font-family:Arial;font-size:11.00;"> </text><polygon style="fill:none;stroke:#a30036;" points="557,517 557,502 615,502 615,517 557,517"/></g><!-- 1613992&#45;&gt;18965738 --><g id="edge16" class="edge"><title>1613992&#45;&gt;18965738</title><path style="fill:none;stroke:#000080;" d="M875,410C855,423 834,435 813,443 767,462 751,450 703,461 673,468 639,480 615,488"/><polygon style="fill:none;stroke:#000080;" points="872,406 887,401 878,414 872,406"/></g><!-- 1292795 --><g id="node3" class="node"><title>1292795</title><polygon style="fill:#ffffcc;stroke:#ffffcc;" points="630,371 630,321 820,321 820,371 630,371"/><a xlink:href="platform%3A%2Fresource%2FSCL_XSD%2Foriginal%2FSCL&#45;UML.uml%23_1T63_tWtEd&#45;l6pFmray_dw" xlink:title="tLNodeType"><clipPath id="mypathfile:/D:/Hypermodel-UML-eclipse/hyperModel-3.1/configuration/org.eclipse.osgi/bundles/269/1/.cp/icons/full/obj16/Class.gif1292795"><polygon points="647,324 631,324 631,341 647,341 647,324 "/></clipPath><image xlink:href="file:/D:/Hypermodel-UML-eclipse/hyperModel-3.1/configuration/org.eclipse.osgi/bundles/269/1/.cp/icons/full/obj16/Class.gif" width="16px" height="17px" preserveAspectRatio="xMidYMid meet" x="631" y="324" clip-path="url(#mypathfile:/D:/Hypermodel-UML-eclipse/hyperModel-3.1/configuration/org.eclipse.osgi/bundles/269/1/.cp/icons/full/obj16/Class.gif1292795)"/><text text-anchor="middle" x="734" y="337" style="font-family:Arial;font-size:13.00;">tLNodeType</text><polygon style="fill:none;stroke:#a30036;" points="630,344 630,321 820,321 820,344 630,344"/></a><a xlink:href="platform%3A%2Fresource%2FSCL_XSD%2Foriginal%2FSCL&#45;UML.uml%23_1T64GNWtEd&#45;l6pFmray_dw" xlink:title="iedType"><text text-anchor="middle" x="725" y="355" style="font-family:Arial;font-size:11.00;">«attribute» iedType : tAnyName [0..1]</text></a><a xlink:href="platform%3A%2Fresource%2FSCL_XSD%2Foriginal%2FSCL&#45;UML.uml%23_1T64HNWtEd&#45;l6pFmray_dw" xlink:title="lnClass"><text text-anchor="middle" x="720" y="367" style="font-family:Arial;font-size:11.00;">«attribute» lnClass : tLNClassEnum</text></a><polygon style="fill:none;stroke:#a30036;" points="630,371 630,344 820,344 820,371 630,371"/></g><!-- 16952283 --><g id="node4" class="node"><title>16952283</title><polygon style="fill:#ffffcc;stroke:#ffffcc;" points="712,535 712,461 964,461 964,535 712,535"/><a xlink:href="platform%3A%2Fresource%2FSCL_XSD%2Foriginal%2FSCL&#45;UML.uml%23_1T64AdWtEd&#45;l6pFmray_dw" xlink:title="tDO"><clipPath id="mypathfile:/D:/Hypermodel-UML-eclipse/hyperModel-3.1/configuration/org.eclipse.osgi/bundles/269/1/.cp/icons/full/obj16/Class.gif16952283"><polygon points="729,464 713,464 713,481 729,481 729,464 "/></clipPath><image xlink:href="file:/D:/Hypermodel-UML-eclipse/hyperModel-3.1/configuration/org.eclipse.osgi/bundles/269/1/.cp/icons/full/obj16/Class.gif" width="16px" height="17px" preserveAspectRatio="xMidYMid meet" x="713" y="464" clip-path="url(#mypathfile:/D:/Hypermodel-UML-eclipse/hyperModel-3.1/configuration/org.eclipse.osgi/bundles/269/1/.cp/icons/full/obj16/Class.gif16952283)"/><text text-anchor="middle" x="847" y="477" style="font-family:Arial;font-size:13.00;">tDO</text><polygon style="fill:none;stroke:#a30036;" points="712,484 712,461 964,461 964,484 712,484"/></a><a xlink:href="platform%3A%2Fresource%2FSCL_XSD%2Foriginal%2FSCL&#45;UML.uml%23_1T64A9WtEd&#45;l6pFmray_dw" xlink:title="name"><text text-anchor="middle" x="802" y="495" style="font-family:Arial;font-size:11.00;">«attribute» name : tRestrName1stU</text></a><a xlink:href="platform%3A%2Fresource%2FSCL_XSD%2Foriginal%2FSCL&#45;UML.uml%23_1T64B9WtEd&#45;l6pFmray_dw" xlink:title="type"><text text-anchor="middle" x="774" y="507" style="font-family:Arial;font-size:11.00;">«attribute» type : tName</text></a><a xlink:href="platform%3A%2Fresource%2FSCL_XSD%2Foriginal%2FSCL&#45;UML.uml%23_1T64C9WtEd&#45;l6pFmray_dw" xlink:title="accessControl"><text text-anchor="middle" x="838" y="519" style="font-family:Arial;font-size:11.00;">«attribute» accessControl : normalizedString [0..1]</text></a><a xlink:href="platform%3A%2Fresource%2FSCL_XSD%2Foriginal%2FSCL&#45;UML.uml%23_1T64D9WtEd&#45;l6pFmray_dw" xlink:title="transient"><text text-anchor="middle" x="821" y="531" style="font-family:Arial;font-size:11.00;">«attribute» transient : boolean [0..1] = false</text></a><polygon style="fill:none;stroke:#a30036;" points="712,535 712,484 964,484 964,535 712,535"/></g><!-- 1292795&#45;&gt;16952283 --><g id="edge30" class="edge"><title>1292795&#45;&gt;16952283</title><a xlink:href="platform%3A%2Fresource%2FSCL_XSD%2Foriginal%2FSCL&#45;UML.uml%23_1T64ANWtEd&#45;l6pFmray_dw" xlink:title="DO\n1..*\n"><path style="fill:none;stroke:#a30036;" d="M751,381C767,402 788,430 805,453"/><polygon style="fill:#a30036;stroke:#a30036;" points="751,381 751,374 744,371 744,378 751,381"/><polygon style="fill:#a30036;stroke:#a30036;" points="811,461 809,450 809,459 805,453 809,459 801,456 811,461 811,461"/><text text-anchor="middle" x="801" y="428" style="font-family:Arial;font-size:10.00;">DO</text><text text-anchor="middle" x="801" y="440" style="font-family:Arial;font-size:10.00;">1..*</text></a></g><!-- 472206 --><g id="node5" class="node"><title>472206</title><polygon style="fill:#ffffcc;stroke:#ffffcc;" points="64,378 64,314 254,314 254,378 64,378"/><a xlink:href="platform%3A%2Fresource%2FSCL_XSD%2Foriginal%2FSCL&#45;UML.uml%23_1T64INWtEd&#45;l6pFmray_dw" xlink:title="tDOType"><text text-anchor="middle" x="159" y="326" style="font-family:Arial;font-size:11.00;">«complexType, choice» </text><clipPath id="mypathfile:/D:/Hypermodel-UML-eclipse/hyperModel-3.1/configuration/org.eclipse.osgi/bundles/269/1/.cp/icons/full/obj16/Class.gif472206"><polygon points="81,331 65,331 65,348 81,348 81,331 "/></clipPath><image xlink:href="file:/D:/Hypermodel-UML-eclipse/hyperModel-3.1/configuration/org.eclipse.osgi/bundles/269/1/.cp/icons/full/obj16/Class.gif" width="16px" height="17px" preserveAspectRatio="xMidYMid meet" x="65" y="331" clip-path="url(#mypathfile:/D:/Hypermodel-UML-eclipse/hyperModel-3.1/configuration/org.eclipse.osgi/bundles/269/1/.cp/icons/full/obj16/Class.gif472206)"/><text text-anchor="middle" x="167" y="344" style="font-family:Arial;font-size:13.00;">tDOType</text><polygon style="fill:none;stroke:#a30036;" points="64,351 64,314 254,314 254,351 64,351"/></a><a xlink:href="platform%3A%2Fresource%2FSCL_XSD%2Foriginal%2FSCL&#45;UML.uml%23_1UEo09WtEd&#45;l6pFmray_dw" xlink:title="iedType"><text text-anchor="middle" x="159" y="362" style="font-family:Arial;font-size:11.00;">«attribute» iedType : tAnyName [0..1]</text></a><a xlink:href="platform%3A%2Fresource%2FSCL_XSD%2Foriginal%2FSCL&#45;UML.uml%23_1UEo19WtEd&#45;l6pFmray_dw" xlink:title="cdc"><text text-anchor="middle" x="136" y="374" style="font-family:Arial;font-size:11.00;">«attribute» cdc : tCDCEnum</text></a><polygon style="fill:none;stroke:#a30036;" points="64,378 64,351 254,351 254,378 64,378"/></g><!-- 31737144 --><g id="node6" class="node"><title>31737144</title><polygon style="fill:#ffffcc;stroke:#ffffcc;" points="5,517 5,479 129,479 129,517 5,517"/><a xlink:href="platform%3A%2Fresource%2FSCL_XSD%2Foriginal%2FSCL&#45;UML.uml%23_1T64JNWtEd&#45;l6pFmray_dw" xlink:title="tSDO"><clipPath id="mypathfile:/D:/Hypermodel-UML-eclipse/hyperModel-3.1/configuration/org.eclipse.osgi/bundles/269/1/.cp/icons/full/obj16/Class.gif31737144"><polygon points="22,482 6,482 6,499 22,499 22,482 "/></clipPath><image xlink:href="file:/D:/Hypermodel-UML-eclipse/hyperModel-3.1/configuration/org.eclipse.osgi/bundles/269/1/.cp/icons/full/obj16/Class.gif" width="16px" height="17px" preserveAspectRatio="xMidYMid meet" x="6" y="482" clip-path="url(#mypathfile:/D:/Hypermodel-UML-eclipse/hyperModel-3.1/configuration/org.eclipse.osgi/bundles/269/1/.cp/icons/full/obj16/Class.gif31737144)"/><text text-anchor="middle" x="76" y="495" style="font-family:Arial;font-size:13.00;">tSDO</text><polygon style="fill:none;stroke:#a30036;" points="5,502 5,479 129,479 129,502 5,502"/></a><a xlink:href="platform%3A%2Fresource%2FSCL_XSD%2Foriginal%2FSCL&#45;UML.uml%23_1T64JtWtEd&#45;l6pFmray_dw" xlink:title="type"><text text-anchor="middle" x="67" y="513" style="font-family:Arial;font-size:11.00;">«attribute» type : tName</text></a><polygon style="fill:none;stroke:#a30036;" points="5,517 5,502 129,502 129,517 5,517"/></g><!-- 472206&#45;&gt;31737144 --><g id="edge32" class="edge"><title>472206&#45;&gt;31737144</title><a xlink:href="platform%3A%2Fresource%2FSCL_XSD%2Foriginal%2FSCL&#45;UML.uml%23_1T64I9WtEd&#45;l6pFmray_dw" xlink:title="SDO\n1..1\n"><path style="fill:none;stroke:#a30036;" d="M133,389C117,415 97,448 84,470"/><polygon style="fill:#a30036;stroke:#a30036;" points="133,389 140,385 139,378 133,381 133,389"/><polygon style="fill:#a30036;stroke:#a30036;" points="79,479 88,472 80,476 84,470 80,476 80,468 79,479 79,479"/><text text-anchor="middle" x="124" y="428" style="font-family:Arial;font-size:10.00;">SDO</text><text text-anchor="middle" x="124" y="440" style="font-family:Arial;font-size:10.00;">1..1</text></a></g><!-- 472206&#45;&gt;19403364 --><g id="edge34" class="edge"><title>472206&#45;&gt;19403364</title><a xlink:href="platform%3A%2Fresource%2FSCL_XSD%2Foriginal%2FSCL&#45;UML.uml%23_1UEoxtWtEd&#45;l6pFmray_dw" xlink:title="DA\n1..1\n"><path style="fill:none;stroke:#a30036;" d="M201,387C225,411 258,443 281,466"/><polygon style="fill:#a30036;stroke:#a30036;" points="200,386 199,379 192,378 193,385 200,386"/><polygon style="fill:#a30036;stroke:#a30036;" points="288,473 284,463 286,471 281,466 286,471 278,469 288,473 288,473"/><text text-anchor="middle" x="265" y="428" style="font-family:Arial;font-size:10.00;">DA</text><text text-anchor="middle" x="265" y="440" style="font-family:Arial;font-size:10.00;">1..1</text></a></g><!-- 4592974 --><g id="node8" class="node"><title>4592974</title><polygon style="fill:#ffffcc;stroke:#ffffcc;" points="272,365 272,327 462,327 462,365 272,365"/><a xlink:href="platform%3A%2Fresource%2FSCL_XSD%2Foriginal%2FSCL&#45;UML.uml%23_1UEo29WtEd&#45;l6pFmray_dw" xlink:title="tDAType"><clipPath id="mypathfile:/D:/Hypermodel-UML-eclipse/hyperModel-3.1/configuration/org.eclipse.osgi/bundles/269/1/.cp/icons/full/obj16/Class.gif4592974"><polygon points="289,330 273,330 273,347 289,347 289,330 "/></clipPath><image xlink:href="file:/D:/Hypermodel-UML-eclipse/hyperModel-3.1/configuration/org.eclipse.osgi/bundles/269/1/.cp/icons/full/obj16/Class.gif" width="16px" height="17px" preserveAspectRatio="xMidYMid meet" x="273" y="330" clip-path="url(#mypathfile:/D:/Hypermodel-UML-eclipse/hyperModel-3.1/configuration/org.eclipse.osgi/bundles/269/1/.cp/icons/full/obj16/Class.gif4592974)"/><text text-anchor="middle" x="375" y="343" style="font-family:Arial;font-size:13.00;">tDAType</text><polygon style="fill:none;stroke:#a30036;" points="272,350 272,327 462,327 462,350 272,350"/></a><a xlink:href="platform%3A%2Fresource%2FSCL_XSD%2Foriginal%2FSCL&#45;UML.uml%23_1UEo5NWtEd&#45;l6pFmray_dw" xlink:title="iedType"><text text-anchor="middle" x="367" y="361" style="font-family:Arial;font-size:11.00;">«attribute» iedType : tAnyName [0..1]</text></a><polygon style="fill:none;stroke:#a30036;" points="272,365 272,350 462,350 462,365 272,365"/></g><!-- 4592974&#45;&gt;18965738 --><g id="edge36" class="edge"><title>4592974&#45;&gt;18965738</title><a xlink:href="platform%3A%2Fresource%2FSCL_XSD%2Foriginal%2FSCL&#45;UML.uml%23_1UEo3dWtEd&#45;l6pFmray_dw" xlink:title="BDA\n1..*\n"><path style="fill:none;stroke:#a30036;" d="M405,372C446,400 510,445 551,473"/><polygon style="fill:#a30036;stroke:#a30036;" points="405,372 402,365 395,365 398,372 405,372"/><polygon style="fill:#a30036;stroke:#a30036;" points="559,479 554,469 557,477 551,473 557,477 548,477 559,479 559,479"/><text text-anchor="middle" x="515" y="428" style="font-family:Arial;font-size:10.00;">BDA</text><text text-anchor="middle" x="515" y="440" style="font-family:Arial;font-size:10.00;">1..*</text></a></g><!-- 2150666 --><g id="node10" class="node"><title>2150666</title><polygon style="fill:#ffffcc;stroke:#ffffcc;" points="480,365 480,327 612,327 612,365 480,365"/><a xlink:href="platform%3A%2Fresource%2FSCL_XSD%2Foriginal%2FSCL&#45;UML.uml%23_1UEo6NWtEd&#45;l6pFmray_dw" xlink:title="tEnumType"><clipPath id="mypathfile:/D:/Hypermodel-UML-eclipse/hyperModel-3.1/configuration/org.eclipse.osgi/bundles/269/1/.cp/icons/full/obj16/Class.gif2150666"><polygon points="497,330 481,330 481,347 497,347 497,330 "/></clipPath><image xlink:href="file:/D:/Hypermodel-UML-eclipse/hyperModel-3.1/configuration/org.eclipse.osgi/bundles/269/1/.cp/icons/full/obj16/Class.gif" width="16px" height="17px" preserveAspectRatio="xMidYMid meet" x="481" y="330" clip-path="url(#mypathfile:/D:/Hypermodel-UML-eclipse/hyperModel-3.1/configuration/org.eclipse.osgi/bundles/269/1/.cp/icons/full/obj16/Class.gif2150666)"/><text text-anchor="middle" x="555" y="343" style="font-family:Arial;font-size:13.00;">tEnumType</text><polygon style="fill:none;stroke:#a30036;" points="480,350 480,327 612,327 612,350 480,350"/></a><a xlink:href="platform%3A%2Fresource%2FSCL_XSD%2Foriginal%2FSCL&#45;UML.uml%23_1UEo6tWtEd&#45;l6pFmray_dw" xlink:title="EnumVal"><text text-anchor="middle" x="546" y="361" style="font-family:Arial;font-size:11.00;">EnumVal : tEnumVal [1..*]</text></a><polygon style="fill:none;stroke:#a30036;" points="480,365 480,350 612,350 612,365 480,365"/></g><!-- 17205004 --><g id="node11" class="node"><title>17205004</title><polygon style="fill:#ffffcc;stroke:#ffffcc;" points="308,192 308,154 454,154 454,192 308,192"/><a xlink:href="platform%3A%2Fresource%2FSCL_XSD%2Foriginal%2FSCL&#45;UML.uml%23_1UEo9NWtEd&#45;l6pFmray_dw" xlink:title="tDataTypeTemplates"><clipPath id="mypathfile:/D:/Hypermodel-UML-eclipse/hyperModel-3.1/configuration/org.eclipse.osgi/bundles/269/1/.cp/icons/full/obj16/Class.gif17205004"><polygon points="325,157 309,157 309,174 325,174 325,157 "/></clipPath><image xlink:href="file:/D:/Hypermodel-UML-eclipse/hyperModel-3.1/configuration/org.eclipse.osgi/bundles/269/1/.cp/icons/full/obj16/Class.gif" width="16px" height="17px" preserveAspectRatio="xMidYMid meet" x="309" y="157" clip-path="url(#mypathfile:/D:/Hypermodel-UML-eclipse/hyperModel-3.1/configuration/org.eclipse.osgi/bundles/269/1/.cp/icons/full/obj16/Class.gif17205004)"/><text text-anchor="middle" x="389" y="170" style="font-family:Arial;font-size:13.00;">tDataTypeTemplates</text><polygon style="fill:none;stroke:#a30036;" points="308,177 308,154 454,154 454,177 308,177"/></a><text text-anchor="middle" x="381" y="188" style="font-family:Arial;font-size:11.00;"> </text><polygon style="fill:none;stroke:#a30036;" points="308,192 308,177 454,177 454,192 308,192"/></g><!-- 17205004&#45;&gt;1292795 --><g id="edge38" class="edge"><title>17205004&#45;&gt;1292795</title><a xlink:href="platform%3A%2Fresource%2FSCL_XSD%2Foriginal%2FSCL&#45;UML.uml%23_1UEo9dWtEd&#45;l6pFmray_dw" xlink:title="LNodeType\n1..*\n"><path style="fill:none;stroke:#a30036;" d="M450,196C485,207 521,219 528,223 563,241 567,253 599,273 622,288 649,303 671,316"/><polygon style="fill:#a30036;stroke:#a30036;" points="450,196 446,190 439,192 443,198 450,196"/><polygon style="fill:#a30036;stroke:#a30036;" points="680,321 673,312 677,320 671,316 677,320 669,320 680,321 680,321"/><text text-anchor="middle" x="625" y="245" style="font-family:Arial;font-size:10.00;">LNodeType</text><text text-anchor="middle" x="625" y="257" style="font-family:Arial;font-size:10.00;">1..*</text></a></g><!-- 17205004&#45;&gt;472206 --><g id="edge40" class="edge"><title>17205004&#45;&gt;472206</title><a xlink:href="platform%3A%2Fresource%2FSCL_XSD%2Foriginal%2FSCL&#45;UML.uml%23_1UEo&#45;tWtEd&#45;l6pFmray_dw" xlink:title="DOType\n1..*\n"><path style="fill:none;stroke:#a30036;" d="M346,200C309,228 250,275 208,308"/><polygon style="fill:#a30036;stroke:#a30036;" points="347,199 354,199 356,192 349,193 347,199"/><polygon style="fill:#a30036;stroke:#a30036;" points="200,314 211,312 202,312 208,308 202,312 205,304 200,314 200,314"/><text text-anchor="middle" x="336" y="245" style="font-family:Arial;font-size:10.00;">DOType</text><text text-anchor="middle" x="336" y="257" style="font-family:Arial;font-size:10.00;">1..*</text></a></g><!-- 17205004&#45;&gt;4592974 --><g id="edge42" class="edge"><title>17205004&#45;&gt;4592974</title><a xlink:href="platform%3A%2Fresource%2FSCL_XSD%2Foriginal%2FSCL&#45;UML.uml%23_1UEo_9WtEd&#45;l6pFmray_dw" xlink:title="DAType\n0..*\n"><path style="fill:none;stroke:#a30036;" d="M378,204C376,236 372,286 370,317"/><polygon style="fill:#a30036;stroke:#a30036;" points="378,204 382,198 379,192 375,198 378,204"/><polygon style="fill:#a30036;stroke:#a30036;" points="369,327 374,317 369,324 370,317 369,324 366,317 369,327 369,327"/><text text-anchor="middle" x="396" y="245" style="font-family:Arial;font-size:10.00;">DAType</text><text text-anchor="middle" x="396" y="257" style="font-family:Arial;font-size:10.00;">0..*</text></a></g><!-- 17205004&#45;&gt;2150666 --><g id="edge44" class="edge"><title>17205004&#45;&gt;2150666</title><a xlink:href="platform%3A%2Fresource%2FSCL_XSD%2Foriginal%2FSCL&#45;UML.uml%23_1UEpBNWtEd&#45;l6pFmray_dw" xlink:title="EnumType\n0..*\n"><path style="fill:none;stroke:#a30036;" d="M408,201C438,233 490,288 521,319"/><polygon style="fill:#a30036;stroke:#a30036;" points="407,200 406,193 399,192 400,199 407,200"/><polygon style="fill:#a30036;stroke:#a30036;" points="528,327 525,317 526,325 521,319 526,325 518,322 528,327 528,327"/><text text-anchor="middle" x="500" y="245" style="font-family:Arial;font-size:10.00;">EnumType</text><text text-anchor="middle" x="500" y="257" style="font-family:Arial;font-size:10.00;">0..*</text></a></g><!-- 16403948 --><g id="node12" class="node"><title>16403948</title><polygon style="fill:#ffffcc;stroke:#ffffcc;" points="1198,69 1198,17 1498,17 1498,69 1198,69"/><a xlink:href="platform%3A%2Fresource%2FSCL_XSD%2Foriginal%2FSCL&#45;UML.uml%23_1UEpCdWtEd&#45;l6pFmray_dw" xlink:title="_GlobalElements"><text text-anchor="middle" x="1348" y="29" style="font-family:Arial;font-size:11.00;">«global» </text><clipPath id="mypathfile:/D:/Hypermodel-UML-eclipse/hyperModel-3.1/configuration/org.eclipse.osgi/bundles/269/1/.cp/icons/full/obj16/Class.gif16403948"><polygon points="1215,34 1199,34 1199,51 1215,51 1215,34 "/></clipPath><image xlink:href="file:/D:/Hypermodel-UML-eclipse/hyperModel-3.1/configuration/org.eclipse.osgi/bundles/269/1/.cp/icons/full/obj16/Class.gif" width="16px" height="17px" preserveAspectRatio="xMidYMid meet" x="1199" y="34" clip-path="url(#mypathfile:/D:/Hypermodel-UML-eclipse/hyperModel-3.1/configuration/org.eclipse.osgi/bundles/269/1/.cp/icons/full/obj16/Class.gif16403948)"/><text text-anchor="middle" x="1357" y="47" style="font-family:Arial;font-size:13.00;">_GlobalElements</text><polygon style="fill:none;stroke:#a30036;" points="1198,54 1198,17 1498,17 1498,54 1198,54"/></a><a xlink:href="platform%3A%2Fresource%2FSCL_XSD%2Foriginal%2FSCL&#45;UML.uml%23_1UEpC9WtEd&#45;l6pFmray_dw" xlink:title="DataTypeTemplates"><text text-anchor="middle" x="1348" y="65" style="font-family:Arial;font-size:11.00;">«globalElement» DataTypeTemplates : tDataTypeTemplates</text></a><polygon style="fill:none;stroke:#a30036;" points="1198,69 1198,54 1498,54 1498,69 1198,69"/></g><!-- 7662824 --><g id="node13" class="node"><title>7662824</title><polygon style="fill:#ffffcc;stroke:#ffffcc;" points="759,192 759,154 871,154 871,192 759,192"/><a xlink:href="platform%3A%2Fresource%2FSCL_XSD%2Foriginal%2FSCL&#45;UML.uml%23_1QyrZNWtEd&#45;l6pFmray_dw" xlink:title="tUnNaming"><clipPath id="mypathfile:/D:/Hypermodel-UML-eclipse/hyperModel-3.1/configuration/org.eclipse.osgi/bundles/269/1/.cp/icons/full/obj16/Class.gif7662824"><polygon points="776,157 760,157 760,174 776,174 776,157 "/></clipPath><image xlink:href="file:/D:/Hypermodel-UML-eclipse/hyperModel-3.1/configuration/org.eclipse.osgi/bundles/269/1/.cp/icons/full/obj16/Class.gif" width="16px" height="17px" preserveAspectRatio="xMidYMid meet" x="760" y="157" clip-path="url(#mypathfile:/D:/Hypermodel-UML-eclipse/hyperModel-3.1/configuration/org.eclipse.osgi/bundles/269/1/.cp/icons/full/obj16/Class.gif7662824)"/><text text-anchor="middle" x="824" y="170" style="font-family:ArialI;font-size:13.00;">tUnNaming</text><polygon style="fill:none;stroke:#a30036;" points="759,177 759,154 871,154 871,177 759,177"/></a><a xlink:href="platform%3A%2Fresource%2FSCL_XSD%2Foriginal%2FSCL&#45;UML.uml%23_1QyrZtWtEd&#45;l6pFmray_dw" xlink:title="_attrGroup1"><text text-anchor="middle" x="815" y="188" style="font-family:Arial;font-size:11.00;">_attrGroup1 : agDesc</text></a><polygon style="fill:none;stroke:#a30036;" points="759,192 759,177 871,177 871,192 759,192"/></g><!-- 7662824&#45;&gt;1613992 --><g id="edge2" class="edge"><title>7662824&#45;&gt;1613992</title><path style="fill:none;stroke:#000080;" d="M841,204C860,228 887,262 911,291"/><polygon style="fill:none;stroke:#000080;" points="837,207 831,192 845,200 837,207"/></g><!-- 7662824&#45;&gt;16952283 --><g id="edge6" class="edge"><title>7662824&#45;&gt;16952283</title><path style="fill:none;stroke:#000080;" d="M866,199C870,201 875,203 880,205 968,246 1027,210 1081,291 1107,332 1108,361 1081,401 1054,441 1009,464 964,478"/><polygon style="fill:none;stroke:#000080;" points="863,203 852,192 868,194 863,203"/></g><!-- 21339247 --><g id="node14" class="node"><title>21339247</title><polygon style="fill:#ffffcc;stroke:#ffffcc;" points="490,198 490,148 602,148 602,198 490,198"/><a xlink:href="platform%3A%2Fresource%2FSCL_XSD%2Foriginal%2FSCL&#45;UML.uml%23_1Q8cQNWtEd&#45;l6pFmray_dw" xlink:title="tIDNaming"><clipPath id="mypathfile:/D:/Hypermodel-UML-eclipse/hyperModel-3.1/configuration/org.eclipse.osgi/bundles/269/1/.cp/icons/full/obj16/Class.gif21339247"><polygon points="507,151 491,151 491,168 507,168 507,151 "/></clipPath><image xlink:href="file:/D:/Hypermodel-UML-eclipse/hyperModel-3.1/configuration/org.eclipse.osgi/bundles/269/1/.cp/icons/full/obj16/Class.gif" width="16px" height="17px" preserveAspectRatio="xMidYMid meet" x="491" y="151" clip-path="url(#mypathfile:/D:/Hypermodel-UML-eclipse/hyperModel-3.1/configuration/org.eclipse.osgi/bundles/269/1/.cp/icons/full/obj16/Class.gif21339247)"/><text text-anchor="middle" x="555" y="164" style="font-family:ArialI;font-size:13.00;">tIDNaming</text><polygon style="fill:none;stroke:#a30036;" points="490,171 490,148 602,148 602,171 490,171"/></a><a xlink:href="platform%3A%2Fresource%2FSCL_XSD%2Foriginal%2FSCL&#45;UML.uml%23_1Q8cQtWtEd&#45;l6pFmray_dw" xlink:title="id"><text text-anchor="middle" x="546" y="182" style="font-family:Arial;font-size:11.00;">«attribute» id : tName</text></a><a xlink:href="platform%3A%2Fresource%2FSCL_XSD%2Foriginal%2FSCL&#45;UML.uml%23_1Q8cRtWtEd&#45;l6pFmray_dw" xlink:title="_attrGroup1"><text text-anchor="middle" x="546" y="194" style="font-family:Arial;font-size:11.00;">_attrGroup1 : agDesc</text></a><polygon style="fill:none;stroke:#a30036;" points="490,198 490,171 602,171 602,198 490,198"/></g><!-- 21339247&#45;&gt;1292795 --><g id="edge4" class="edge"><title>21339247&#45;&gt;1292795</title><path style="fill:none;stroke:#000080;" d="M616,197C630,204 644,212 655,223 685,251 706,294 716,321"/><polygon style="fill:none;stroke:#000080;" points="614,202 602,191 618,192 614,202"/></g><!-- 21339247&#45;&gt;472206 --><g id="edge8" class="edge"><title>21339247&#45;&gt;472206</title><path style="fill:none;stroke:#000080;" d="M476,201C458,208 443,217 436,223 418,241 430,259 408,273 355,310 325,272 263,291 246,297 227,305 211,314"/><polygon style="fill:none;stroke:#000080;" points="474,196 490,195 478,206 474,196"/></g><!-- 21339247&#45;&gt;4592974 --><g id="edge14" class="edge"><title>21339247&#45;&gt;4592974</title><path style="fill:none;stroke:#000080;" d="M538,213C532,233 523,256 507,273 495,287 487,283 471,291 448,303 423,316 403,327"/><polygon style="fill:none;stroke:#000080;" points="533,211 542,198 543,214 533,211"/></g><!-- 21339247&#45;&gt;2150666 --><g id="edge18" class="edge"><title>21339247&#45;&gt;2150666</title><path style="fill:none;stroke:#000080;" d="M546,213C546,249 546,300 546,327"/><polygon style="fill:none;stroke:#000080;" points="541,213 546,198 551,213 541,213"/></g><!-- 17712783 --><g id="node15" class="node"><title>17712783</title><polygon style="fill:#ffffcc;stroke:#ffffcc;" points="13,273 13,223 143,223 143,273 13,273"/><a xlink:href="platform%3A%2Fresource%2FSCL_XSD%2Foriginal%2FSCL&#45;UML.uml%23_1QyrZ9WtEd&#45;l6pFmray_dw" xlink:title="tNaming"><clipPath id="mypathfile:/D:/Hypermodel-UML-eclipse/hyperModel-3.1/configuration/org.eclipse.osgi/bundles/269/1/.cp/icons/full/obj16/Class.gif17712783"><polygon points="30,226 14,226 14,243 30,243 30,226 "/></clipPath><image xlink:href="file:/D:/Hypermodel-UML-eclipse/hyperModel-3.1/configuration/org.eclipse.osgi/bundles/269/1/.cp/icons/full/obj16/Class.gif" width="16px" height="17px" preserveAspectRatio="xMidYMid meet" x="14" y="226" clip-path="url(#mypathfile:/D:/Hypermodel-UML-eclipse/hyperModel-3.1/configuration/org.eclipse.osgi/bundles/269/1/.cp/icons/full/obj16/Class.gif17712783)"/><text text-anchor="middle" x="86" y="239" style="font-family:ArialI;font-size:13.00;">tNaming</text><polygon style="fill:none;stroke:#a30036;" points="13,246 13,223 143,223 143,246 13,246"/></a><a xlink:href="platform%3A%2Fresource%2FSCL_XSD%2Foriginal%2FSCL&#45;UML.uml%23_1QyradWtEd&#45;l6pFmray_dw" xlink:title="name"><text text-anchor="middle" x="78" y="257" style="font-family:Arial;font-size:11.00;">«attribute» name : tName</text></a><a xlink:href="platform%3A%2Fresource%2FSCL_XSD%2Foriginal%2FSCL&#45;UML.uml%23_1QyrbdWtEd&#45;l6pFmray_dw" xlink:title="_attrGroup1"><text text-anchor="middle" x="69" y="269" style="font-family:Arial;font-size:11.00;">_attrGroup1 : agDesc</text></a><polygon style="fill:none;stroke:#a30036;" points="13,273 13,246 143,246 143,273 13,273"/></g><!-- 17712783&#45;&gt;31737144 --><g id="edge10" class="edge"><title>17712783&#45;&gt;31737144</title><path style="fill:none;stroke:#000080;" d="M56,287C56,288 55,290 55,291 38,359 54,442 62,479"/><polygon style="fill:none;stroke:#000080;" points="51,285 62,273 61,289 51,285"/></g><!-- 9343370 --><g id="node16" class="node"><title>9343370</title><polygon style="fill:#ffffcc;stroke:#ffffcc;" points="740,68 740,18 890,18 890,68 740,68"/><a xlink:href="platform%3A%2Fresource%2FSCL_XSD%2Foriginal%2FSCL&#45;UML.uml%23_1QfwtdWtEd&#45;l6pFmray_dw" xlink:title="tBaseElement"><clipPath id="mypathfile:/D:/Hypermodel-UML-eclipse/hyperModel-3.1/configuration/org.eclipse.osgi/bundles/269/1/.cp/icons/full/obj16/Class.gif9343370"><polygon points="757,21 741,21 741,38 757,38 757,21 "/></clipPath><image xlink:href="file:/D:/Hypermodel-UML-eclipse/hyperModel-3.1/configuration/org.eclipse.osgi/bundles/269/1/.cp/icons/full/obj16/Class.gif" width="16px" height="17px" preserveAspectRatio="xMidYMid meet" x="741" y="21" clip-path="url(#mypathfile:/D:/Hypermodel-UML-eclipse/hyperModel-3.1/configuration/org.eclipse.osgi/bundles/269/1/.cp/icons/full/obj16/Class.gif9343370)"/><text text-anchor="middle" x="824" y="34" style="font-family:ArialI;font-size:13.00;">tBaseElement</text><polygon style="fill:none;stroke:#a30036;" points="740,41 740,18 890,18 890,41 740,41"/></a><a xlink:href="platform%3A%2Fresource%2FSCL_XSD%2Foriginal%2FSCL&#45;UML.uml%23_1Qo6QNWtEd&#45;l6pFmray_dw" xlink:title="wildcard"><text text-anchor="middle" x="815" y="52" style="font-family:Arial;font-size:11.00;">«any, element» wildcard [0..*]</text></a><a xlink:href="platform%3A%2Fresource%2FSCL_XSD%2Foriginal%2FSCL&#45;UML.uml%23_1QyrYdWtEd&#45;l6pFmray_dw" xlink:title="wildcard"><text text-anchor="middle" x="803" y="64" style="font-family:Arial;font-size:11.00;">«any, attribute» wildcard</text></a><polygon style="fill:none;stroke:#a30036;" points="740,68 740,41 890,41 890,68 740,68"/></g><!-- 9343370&#45;&gt;7662824 --><g id="edge20" class="edge"><title>9343370&#45;&gt;7662824</title><path style="fill:none;stroke:#000080;" d="M815,83C815,107 815,135 815,154"/><polygon style="fill:none;stroke:#000080;" points="810,83 815,68 820,83 810,83"/></g><!-- 9343370&#45;&gt;21339247 --><g id="edge22" class="edge"><title>9343370&#45;&gt;21339247</title><path style="fill:none;stroke:#000080;" d="M750,75C703,97 642,127 598,148"/><polygon style="fill:none;stroke:#000080;" points="747,70 763,68 752,80 747,70"/></g><!-- 9343370&#45;&gt;17712783 --><g id="edge24" class="edge"><title>9343370&#45;&gt;17712783</title><path style="fill:none;stroke:#000080;" d="M752,74C745,77 738,79 731,81 638,108 392,113 299,141 234,161 163,198 120,223"/><polygon style="fill:none;stroke:#000080;" points="750,69 766,68 754,79 750,69"/></g><!-- 19898081 --><g id="node17" class="node"><title>19898081</title><polygon style="fill:#ffffcc;stroke:#ffffcc;" points="1109,199 1109,147 1277,147 1277,199 1109,199"/><a xlink:href="platform%3A%2Fresource%2FSCL_XSD%2Foriginal%2FSCL&#45;UML.uml%23_1Qo6RtWtEd&#45;l6pFmray_dw" xlink:title="tText"><text text-anchor="middle" x="1193" y="159" style="font-family:Arial;font-size:11.00;">«complexType» </text><clipPath id="mypathfile:/D:/Hypermodel-UML-eclipse/hyperModel-3.1/configuration/org.eclipse.osgi/bundles/269/1/.cp/icons/full/obj16/Class.gif19898081"><polygon points="1126,164 1110,164 1110,181 1126,181 1126,164 "/></clipPath><image xlink:href="file:/D:/Hypermodel-UML-eclipse/hyperModel-3.1/configuration/org.eclipse.osgi/bundles/269/1/.cp/icons/full/obj16/Class.gif" width="16px" height="17px" preserveAspectRatio="xMidYMid meet" x="1110" y="164" clip-path="url(#mypathfile:/D:/Hypermodel-UML-eclipse/hyperModel-3.1/configuration/org.eclipse.osgi/bundles/269/1/.cp/icons/full/obj16/Class.gif19898081)"/><text text-anchor="middle" x="1201" y="177" style="font-family:Arial;font-size:13.00;">tText</text><polygon style="fill:none;stroke:#a30036;" points="1109,184 1109,147 1277,147 1277,184 1109,184"/></a><a xlink:href="platform%3A%2Fresource%2FSCL_XSD%2Foriginal%2FSCL&#45;UML.uml%23_1QyrRtWtEd&#45;l6pFmray_dw" xlink:title="source"><text text-anchor="middle" x="1193" y="195" style="font-family:Arial;font-size:11.00;">«attribute» source : anyURI [0..1]</text></a><polygon style="fill:none;stroke:#a30036;" points="1109,199 1109,184 1277,184 1277,199 1109,199"/></g><!-- 9343370&#45;&gt;19898081 --><g id="edge46" class="edge"><title>9343370&#45;&gt;19898081</title><a xlink:href="platform%3A%2Fresource%2FSCL_XSD%2Foriginal%2FSCL&#45;UML.uml%23_1Qo6RdWtEd&#45;l6pFmray_dw" xlink:title="Text\n0..1\n"><path style="fill:none;stroke:#a30036;" d="M899,72C956,92 1032,118 1100,141 1102,142 1105,143 1107,144"/><polygon style="fill:#a30036;stroke:#a30036;" points="898,72 894,66 887,68 891,74 898,72"/><polygon style="fill:#a30036;stroke:#a30036;" points="1117,147 1109,140 1114,146 1107,144 1114,146 1106,148 1117,147 1117,147"/><text text-anchor="middle" x="1053" y="108" style="font-family:Arial;font-size:10.00;">Text</text><text text-anchor="middle" x="1053" y="120" style="font-family:Arial;font-size:10.00;">0..1</text></a></g><!-- 28336652 --><g id="node18" class="node"><title>28336652</title><polygon style="fill:#ffffcc;stroke:#ffffcc;" points="889,205 889,141 1091,141 1091,205 889,205"/><a xlink:href="platform%3A%2Fresource%2FSCL_XSD%2Foriginal%2FSCL&#45;UML.uml%23_1QyrUNWtEd&#45;l6pFmray_dw" xlink:title="tPrivate"><text text-anchor="middle" x="990" y="153" style="font-family:Arial;font-size:11.00;">«complexType» </text><clipPath id="mypathfile:/D:/Hypermodel-UML-eclipse/hyperModel-3.1/configuration/org.eclipse.osgi/bundles/269/1/.cp/icons/full/obj16/Class.gif28336652"><polygon points="906,158 890,158 890,175 906,175 906,158 "/></clipPath><image xlink:href="file:/D:/Hypermodel-UML-eclipse/hyperModel-3.1/configuration/org.eclipse.osgi/bundles/269/1/.cp/icons/full/obj16/Class.gif" width="16px" height="17px" preserveAspectRatio="xMidYMid meet" x="890" y="158" clip-path="url(#mypathfile:/D:/Hypermodel-UML-eclipse/hyperModel-3.1/configuration/org.eclipse.osgi/bundles/269/1/.cp/icons/full/obj16/Class.gif28336652)"/><text text-anchor="middle" x="998" y="171" style="font-family:Arial;font-size:13.00;">tPrivate</text><polygon style="fill:none;stroke:#a30036;" points="889,178 889,141 1091,141 1091,178 889,178"/></a><a xlink:href="platform%3A%2Fresource%2FSCL_XSD%2Foriginal%2FSCL&#45;UML.uml%23_1QyrVNWtEd&#45;l6pFmray_dw" xlink:title="type"><text text-anchor="middle" x="990" y="189" style="font-family:Arial;font-size:11.00;">«attribute» type : normalizedString [0..1]</text></a><a xlink:href="platform%3A%2Fresource%2FSCL_XSD%2Foriginal%2FSCL&#45;UML.uml%23_1QyrWNWtEd&#45;l6pFmray_dw" xlink:title="source"><text text-anchor="middle" x="973" y="201" style="font-family:Arial;font-size:11.00;">«attribute» source : anyURI [0..1]</text></a><polygon style="fill:none;stroke:#a30036;" points="889,205 889,178 1091,178 1091,205 889,205"/></g><!-- 9343370&#45;&gt;28336652 --><g id="edge48" class="edge"><title>9343370&#45;&gt;28336652</title><a xlink:href="platform%3A%2Fresource%2FSCL_XSD%2Foriginal%2FSCL&#45;UML.uml%23_1QyrT9WtEd&#45;l6pFmray_dw" xlink:title="Private\n0..*\n"><path style="fill:none;stroke:#a30036;" d="M843,78C856,93 873,110 891,123 897,128 903,132 910,136"/><polygon style="fill:#a30036;stroke:#a30036;" points="842,77 842,70 835,68 836,75 842,77"/><polygon style="fill:#a30036;stroke:#a30036;" points="919,141 912,132 916,140 910,136 916,140 908,140 919,141 919,141"/><text text-anchor="middle" x="907" y="108" style="font-family:Arial;font-size:10.00;">Private</text><text text-anchor="middle" x="907" y="120" style="font-family:Arial;font-size:10.00;">0..*</text></a></g><!-- 2976630 --><g id="node19" class="node"><title>2976630</title><polygon style="fill:#ffffcc;stroke:#ffffcc;" points="950,75 950,11 1180,11 1180,75 950,75"/><a xlink:href="platform%3A%2Fresource%2FSCL_XSD%2Foriginal%2FSCL&#45;UML.uml%23_1Qo6SdWtEd&#45;l6pFmray_dw" xlink:title="tAnyContentFromOtherNamespace"><text text-anchor="middle" x="1065" y="23" style="font-family:Arial;font-size:11.00;">«complexType» </text><clipPath id="mypathfile:/D:/Hypermodel-UML-eclipse/hyperModel-3.1/configuration/org.eclipse.osgi/bundles/269/1/.cp/icons/full/obj16/Class.gif2976630"><polygon points="967,28 951,28 951,45 967,45 967,28 "/></clipPath><image xlink:href="file:/D:/Hypermodel-UML-eclipse/hyperModel-3.1/configuration/org.eclipse.osgi/bundles/269/1/.cp/icons/full/obj16/Class.gif" width="16px" height="17px" preserveAspectRatio="xMidYMid meet" x="951" y="28" clip-path="url(#mypathfile:/D:/Hypermodel-UML-eclipse/hyperModel-3.1/configuration/org.eclipse.osgi/bundles/269/1/.cp/icons/full/obj16/Class.gif2976630)"/><text text-anchor="middle" x="1074" y="41" style="font-family:ArialI;font-size:13.00;">tAnyContentFromOtherNamespace</text><polygon style="fill:none;stroke:#a30036;" points="950,48 950,11 1180,11 1180,48 950,48"/></a><a xlink:href="platform%3A%2Fresource%2FSCL_XSD%2Foriginal%2FSCL&#45;UML.uml%23_1Qo6TdWtEd&#45;l6pFmray_dw" xlink:title="wildcard"><text text-anchor="middle" x="1012" y="59" style="font-family:Arial;font-size:11.00;">«any, element» wildcard</text></a><a xlink:href="platform%3A%2Fresource%2FSCL_XSD%2Foriginal%2FSCL&#45;UML.uml%23_1QyrQtWtEd&#45;l6pFmray_dw" xlink:title="wildcard"><text text-anchor="middle" x="1013" y="71" style="font-family:Arial;font-size:11.00;">«any, attribute» wildcard</text></a><polygon style="fill:none;stroke:#a30036;" points="950,75 950,48 1180,48 1180,75 950,75"/></g><!-- 2976630&#45;&gt;19898081 --><g id="edge26" class="edge"><title>2976630&#45;&gt;19898081</title><path style="fill:none;stroke:#000080;" d="M1108,86C1128,106 1150,129 1167,147"/><polygon style="fill:none;stroke:#000080;" points="1104,89 1097,75 1111,82 1104,89"/></g><!-- 2976630&#45;&gt;28336652 --><g id="edge28" class="edge"><title>2976630&#45;&gt;28336652</title><path style="fill:none;stroke:#000080;" d="M1039,88C1029,106 1017,125 1008,141"/><polygon style="fill:none;stroke:#000080;" points="1034,86 1046,75 1044,91 1034,86"/></g></g></svg>