<?xml version="1.0" encoding="UTF-8" standalone="no"?><!DOCTYPE svg PUBLIC "-//W3C//DTD SVG 1.0//EN" "http://www.w3.org/TR/2001/REC-SVG-20010904/DTD/svg10.dtd" [ <!ATTLIST svg xmlns:xlink CDATA #FIXED "http://www.w3.org/1999/xlink">]><!-- Generated by dot version 2.7.20051103.0540 (Thu Nov  3 05:48:38 UTC 2005)     For user: Bill Gates --><!-- Title: uml Pages: 1 --><svg width="1108pt" height="714pt" viewBox = "0 0 1108 714" xmlns="http://www.w3.org/2000/svg" xmlns:xlink="http://www.w3.org/1999/xlink"><g id="graph0" class="graph" style="font-family:Times-Roman;font-size:14.00;"><title>uml</title><polygon style="fill:white;stroke:white;" points="-1,715 -1,-1 1109,-1 1109,715 -1,715"/><!-- 7683106 --><g id="node1" class="node"><title>7683106</title><polygon style="fill:#ffffcc;stroke:#ffffcc;" points="542,153 542,129 666,129 666,153 542,153"/><a xlink:href="platform%3A%2Fresource%2FSCL_XSD%2Foriginal%2FSCL&#45;UML.uml%23_1RFmhNWtEd&#45;l6pFmray_dw" xlink:title="tLNodeContainer"><clipPath id="mypathfile:/D:/Hypermodel-UML-eclipse/hyperModel-3.1/configuration/org.eclipse.osgi/bundles/269/1/.cp/icons/full/obj16/Class.gif7683106"><polygon points="559,133 543,133 543,149 559,149 559,133 "/></clipPath><image xlink:href="file:/D:/Hypermodel-UML-eclipse/hyperModel-3.1/configuration/org.eclipse.osgi/bundles/269/1/.cp/icons/full/obj16/Class.gif" width="16px" height="16px" preserveAspectRatio="xMidYMid meet" x="543" y="133" clip-path="url(#mypathfile:/D:/Hypermodel-UML-eclipse/hyperModel-3.1/configuration/org.eclipse.osgi/bundles/269/1/.cp/icons/full/obj16/Class.gif7683106)"/><text text-anchor="middle" x="612" y="145" style="font-family:ArialI;font-size:13.00;">tLNodeContainer</text><polygon style="fill:none;stroke:#a30036;" points="542,153 542,129 666,129 666,153 542,153"/></a></g><!-- 4404549 --><g id="node2" class="node"><title>4404549</title><polygon style="fill:#ffffcc;stroke:#ffffcc;" points="692,311 692,213 906,213 906,311 692,311"/><a xlink:href="platform%3A%2Fresource%2FSCL_XSD%2Foriginal%2FSCL&#45;UML.uml%23_1RPXMdWtEd&#45;l6pFmray_dw" xlink:title="tLNode"><clipPath id="mypathfile:/D:/Hypermodel-UML-eclipse/hyperModel-3.1/configuration/org.eclipse.osgi/bundles/269/1/.cp/icons/full/obj16/Class.gif4404549"><polygon points="709,216 693,216 693,233 709,233 709,216 "/></clipPath><image xlink:href="file:/D:/Hypermodel-UML-eclipse/hyperModel-3.1/configuration/org.eclipse.osgi/bundles/269/1/.cp/icons/full/obj16/Class.gif" width="16px" height="17px" preserveAspectRatio="xMidYMid meet" x="693" y="216" clip-path="url(#mypathfile:/D:/Hypermodel-UML-eclipse/hyperModel-3.1/configuration/org.eclipse.osgi/bundles/269/1/.cp/icons/full/obj16/Class.gif4404549)"/><text text-anchor="middle" x="808" y="229" style="font-family:Arial;font-size:13.00;">tLNode</text><polygon style="fill:none;stroke:#a30036;" points="692,236 692,213 906,213 906,236 692,236"/></a><a xlink:href="platform%3A%2Fresource%2FSCL_XSD%2Foriginal%2FSCL&#45;UML.uml%23_1RPXM9WtEd&#45;l6pFmray_dw" xlink:title="lnInst"><text text-anchor="middle" x="780" y="247" style="font-family:Arial;font-size:11.00;">«attribute» lnInst : tAnyName [0..1]</text></a><a xlink:href="platform%3A%2Fresource%2FSCL_XSD%2Foriginal%2FSCL&#45;UML.uml%23_1RPXN9WtEd&#45;l6pFmray_dw" xlink:title="lnClass"><text text-anchor="middle" x="782" y="259" style="font-family:Arial;font-size:11.00;">«attribute» lnClass : tLNClassEnum</text></a><a xlink:href="platform%3A%2Fresource%2FSCL_XSD%2Foriginal%2FSCL&#45;UML.uml%23_1RPXO9WtEd&#45;l6pFmray_dw" xlink:title="iedName"><text text-anchor="middle" x="799" y="271" style="font-family:Arial;font-size:11.00;">«attribute» iedName : tName [0..1] = None</text></a><a xlink:href="platform%3A%2Fresource%2FSCL_XSD%2Foriginal%2FSCL&#45;UML.uml%23_1RPXQNWtEd&#45;l6pFmray_dw" xlink:title="ldInst"><text text-anchor="middle" x="780" y="283" style="font-family:Arial;font-size:11.00;">«attribute» ldInst : tAnyName [0..1]</text></a><a xlink:href="platform%3A%2Fresource%2FSCL_XSD%2Foriginal%2FSCL&#45;UML.uml%23_1RPXRNWtEd&#45;l6pFmray_dw" xlink:title="prefix"><text text-anchor="middle" x="781" y="295" style="font-family:Arial;font-size:11.00;">«attribute» prefix : tAnyName [0..1]</text></a><a xlink:href="platform%3A%2Fresource%2FSCL_XSD%2Foriginal%2FSCL&#45;UML.uml%23_1RPXSNWtEd&#45;l6pFmray_dw" xlink:title="lnType"><text text-anchor="middle" x="774" y="307" style="font-family:Arial;font-size:11.00;">«attribute» lnType : tName [0..1]</text></a><polygon style="fill:none;stroke:#a30036;" points="692,311 692,236 906,236 906,311 692,311"/></g><!-- 7683106&#45;&gt;4404549 --><g id="edge44" class="edge"><title>7683106&#45;&gt;4404549</title><a xlink:href="platform%3A%2Fresource%2FSCL_XSD%2Foriginal%2FSCL&#45;UML.uml%23_1RPXMNWtEd&#45;l6pFmray_dw" xlink:title="LNode\n0..*\n"><path style="fill:none;stroke:#a30036;" d="M634,159C655,173 683,190 711,208"/><polygon style="fill:#a30036;stroke:#a30036;" points="634,159 630,152 623,153 626,159 634,159"/><polygon style="fill:#a30036;stroke:#a30036;" points="719,213 713,204 716,211 711,208 716,211 708,212 719,213 719,213"/><text text-anchor="middle" x="703" y="180" style="font-family:Arial;font-size:10.00;">LNode</text><text text-anchor="middle" x="703" y="192" style="font-family:Arial;font-size:10.00;">0..*</text></a></g><!-- 4547867 --><g id="node3" class="node"><title>4547867</title><polygon style="fill:#ffffcc;stroke:#ffffcc;" points="508,274 508,250 674,250 674,274 508,274"/><a xlink:href="platform%3A%2Fresource%2FSCL_XSD%2Foriginal%2FSCL&#45;UML.uml%23_1RPXUNWtEd&#45;l6pFmray_dw" xlink:title="tPowerSystemResource"><clipPath id="mypathfile:/D:/Hypermodel-UML-eclipse/hyperModel-3.1/configuration/org.eclipse.osgi/bundles/269/1/.cp/icons/full/obj16/Class.gif4547867"><polygon points="525,254 509,254 509,270 525,270 525,254 "/></clipPath><image xlink:href="file:/D:/Hypermodel-UML-eclipse/hyperModel-3.1/configuration/org.eclipse.osgi/bundles/269/1/.cp/icons/full/obj16/Class.gif" width="16px" height="16px" preserveAspectRatio="xMidYMid meet" x="509" y="254" clip-path="url(#mypathfile:/D:/Hypermodel-UML-eclipse/hyperModel-3.1/configuration/org.eclipse.osgi/bundles/269/1/.cp/icons/full/obj16/Class.gif4547867)"/><text text-anchor="middle" x="600" y="266" style="font-family:ArialI;font-size:13.00;">tPowerSystemResource</text><polygon style="fill:none;stroke:#a30036;" points="508,274 508,250 674,250 674,274 508,274"/></a></g><!-- 7683106&#45;&gt;4547867 --><g id="edge6" class="edge"><title>7683106&#45;&gt;4547867</title><path style="fill:none;stroke:#000080;" d="M601,168C598,193 594,230 592,250"/><polygon style="fill:none;stroke:#000080;" points="596,167 603,153 606,169 596,167"/></g><!-- 11434871 --><g id="node17" class="node"><title>11434871</title><polygon style="fill:#ffffcc;stroke:#ffffcc;" points="5,709 5,685 139,685 139,709 5,709"/><a xlink:href="platform%3A%2Fresource%2FSCL_XSD%2Foriginal%2FSCL&#45;UML.uml%23_1RYhYtWtEd&#45;l6pFmray_dw" xlink:title="tConnectivityNode"><clipPath id="mypathfile:/D:/Hypermodel-UML-eclipse/hyperModel-3.1/configuration/org.eclipse.osgi/bundles/269/1/.cp/icons/full/obj16/Class.gif11434871"><polygon points="22,689 6,689 6,705 22,705 22,689 "/></clipPath><image xlink:href="file:/D:/Hypermodel-UML-eclipse/hyperModel-3.1/configuration/org.eclipse.osgi/bundles/269/1/.cp/icons/full/obj16/Class.gif" width="16px" height="16px" preserveAspectRatio="xMidYMid meet" x="6" y="689" clip-path="url(#mypathfile:/D:/Hypermodel-UML-eclipse/hyperModel-3.1/configuration/org.eclipse.osgi/bundles/269/1/.cp/icons/full/obj16/Class.gif11434871)"/><text text-anchor="middle" x="81" y="701" style="font-family:Arial;font-size:13.00;">tConnectivityNode</text><polygon style="fill:none;stroke:#a30036;" points="5,709 5,685 139,685 139,709 5,709"/></a></g><!-- 7683106&#45;&gt;11434871 --><g id="edge34" class="edge"><title>7683106&#45;&gt;11434871</title><path style="fill:none;stroke:#000080;" d="M527,150C374,168 49,214 49,262 49,262 49,262 49,613 49,640 60,669 66,685"/><polygon style="fill:none;stroke:#000080;" points="526,145 542,148 528,155 526,145"/></g><!-- 15873169 --><g id="node4" class="node"><title>15873169</title><polygon style="fill:#ffffcc;stroke:#ffffcc;" points="258,373 258,349 406,349 406,373 258,373"/><a xlink:href="platform%3A%2Fresource%2FSCL_XSD%2Foriginal%2FSCL&#45;UML.uml%23_1RPXUtWtEd&#45;l6pFmray_dw" xlink:title="tEquipmentContainer"><clipPath id="mypathfile:/D:/Hypermodel-UML-eclipse/hyperModel-3.1/configuration/org.eclipse.osgi/bundles/269/1/.cp/icons/full/obj16/Class.gif15873169"><polygon points="275,353 259,353 259,369 275,369 275,353 "/></clipPath><image xlink:href="file:/D:/Hypermodel-UML-eclipse/hyperModel-3.1/configuration/org.eclipse.osgi/bundles/269/1/.cp/icons/full/obj16/Class.gif" width="16px" height="16px" preserveAspectRatio="xMidYMid meet" x="259" y="353" clip-path="url(#mypathfile:/D:/Hypermodel-UML-eclipse/hyperModel-3.1/configuration/org.eclipse.osgi/bundles/269/1/.cp/icons/full/obj16/Class.gif15873169)"/><text text-anchor="middle" x="340" y="365" style="font-family:ArialI;font-size:13.00;">tEquipmentContainer</text><polygon style="fill:none;stroke:#a30036;" points="258,373 258,349 406,349 406,373 258,373"/></a></g><!-- 4547867&#45;&gt;15873169 --><g id="edge8" class="edge"><title>4547867&#45;&gt;15873169</title><path style="fill:none;stroke:#000080;" d="M546,279C493,299 409,332 363,349"/><polygon style="fill:none;stroke:#000080;" points="544,274 560,274 548,284 544,274"/></g><!-- 11160700 --><g id="node6" class="node"><title>11160700</title><polygon style="fill:#ffffcc;stroke:#ffffcc;" points="695,373 695,349 787,349 787,373 695,373"/><a xlink:href="platform%3A%2Fresource%2FSCL_XSD%2Foriginal%2FSCL&#45;UML.uml%23_1RPXVtWtEd&#45;l6pFmray_dw" xlink:title="tEquipment"><clipPath id="mypathfile:/D:/Hypermodel-UML-eclipse/hyperModel-3.1/configuration/org.eclipse.osgi/bundles/269/1/.cp/icons/full/obj16/Class.gif11160700"><polygon points="712,353 696,353 696,369 712,369 712,353 "/></clipPath><image xlink:href="file:/D:/Hypermodel-UML-eclipse/hyperModel-3.1/configuration/org.eclipse.osgi/bundles/269/1/.cp/icons/full/obj16/Class.gif" width="16px" height="16px" preserveAspectRatio="xMidYMid meet" x="696" y="353" clip-path="url(#mypathfile:/D:/Hypermodel-UML-eclipse/hyperModel-3.1/configuration/org.eclipse.osgi/bundles/269/1/.cp/icons/full/obj16/Class.gif11160700)"/><text text-anchor="middle" x="749" y="365" style="font-family:ArialI;font-size:13.00;">tEquipment</text><polygon style="fill:none;stroke:#a30036;" points="695,373 695,349 787,349 787,373 695,373"/></a></g><!-- 4547867&#45;&gt;11160700 --><g id="edge12" class="edge"><title>4547867&#45;&gt;11160700</title><path style="fill:none;stroke:#000080;" d="M622,282C652,303 697,333 722,349"/><polygon style="fill:none;stroke:#000080;" points="619,286 609,274 625,277 619,286"/></g><!-- 18664654 --><g id="node10" class="node"><title>18664654</title><polygon style="fill:#ffffcc;stroke:#ffffcc;" points="804,541 804,517 920,517 920,541 804,541"/><a xlink:href="platform%3A%2Fresource%2FSCL_XSD%2Foriginal%2FSCL&#45;UML.uml%23_1RPXftWtEd&#45;l6pFmray_dw" xlink:title="tSubEquipment"><clipPath id="mypathfile:/D:/Hypermodel-UML-eclipse/hyperModel-3.1/configuration/org.eclipse.osgi/bundles/269/1/.cp/icons/full/obj16/Class.gif18664654"><polygon points="821,521 805,521 805,537 821,537 821,521 "/></clipPath><image xlink:href="file:/D:/Hypermodel-UML-eclipse/hyperModel-3.1/configuration/org.eclipse.osgi/bundles/269/1/.cp/icons/full/obj16/Class.gif" width="16px" height="16px" preserveAspectRatio="xMidYMid meet" x="805" y="521" clip-path="url(#mypathfile:/D:/Hypermodel-UML-eclipse/hyperModel-3.1/configuration/org.eclipse.osgi/bundles/269/1/.cp/icons/full/obj16/Class.gif18664654)"/><text text-anchor="middle" x="870" y="533" style="font-family:Arial;font-size:13.00;">tSubEquipment</text><polygon style="fill:none;stroke:#a30036;" points="804,541 804,517 920,517 920,541 804,541"/></a></g><!-- 4547867&#45;&gt;18664654 --><g id="edge20" class="edge"><title>4547867&#45;&gt;18664654</title><path style="fill:none;stroke:#000080;" d="M624,282C641,291 663,302 683,311 788,357 858,331 910,433 914,443 910,493 907,499 902,506 896,512 888,517"/><polygon style="fill:none;stroke:#000080;" points="621,286 611,274 627,277 621,286"/></g><!-- 16166428 --><g id="node11" class="node"><title>16166428</title><polygon style="fill:#ffffcc;stroke:#ffffcc;" points="800,625 800,601 902,601 902,625 800,625"/><a xlink:href="platform%3A%2Fresource%2FSCL_XSD%2Foriginal%2FSCL&#45;UML.uml%23_1RYhItWtEd&#45;l6pFmray_dw" xlink:title="tTapChanger"><clipPath id="mypathfile:/D:/Hypermodel-UML-eclipse/hyperModel-3.1/configuration/org.eclipse.osgi/bundles/269/1/.cp/icons/full/obj16/Class.gif16166428"><polygon points="817,605 801,605 801,621 817,621 817,605 "/></clipPath><image xlink:href="file:/D:/Hypermodel-UML-eclipse/hyperModel-3.1/configuration/org.eclipse.osgi/bundles/269/1/.cp/icons/full/obj16/Class.gif" width="16px" height="16px" preserveAspectRatio="xMidYMid meet" x="801" y="605" clip-path="url(#mypathfile:/D:/Hypermodel-UML-eclipse/hyperModel-3.1/configuration/org.eclipse.osgi/bundles/269/1/.cp/icons/full/obj16/Class.gif16166428)"/><text text-anchor="middle" x="860" y="617" style="font-family:Arial;font-size:13.00;">tTapChanger</text><polygon style="fill:none;stroke:#a30036;" points="800,625 800,601 902,601 902,625 800,625"/></a></g><!-- 4547867&#45;&gt;16166428 --><g id="edge22" class="edge"><title>4547867&#45;&gt;16166428</title><path style="fill:none;stroke:#000080;" d="M623,282C640,292 662,303 683,311 779,348 834,313 902,391 946,443 956,479 929,541 917,568 891,589 872,601"/><polygon style="fill:none;stroke:#000080;" points="620,286 610,274 626,277 620,286"/></g><!-- 32347517 --><g id="node18" class="node"><title>32347517</title><polygon style="fill:#ffffcc;stroke:#ffffcc;" points="430,541 430,517 510,517 510,541 430,541"/><a xlink:href="platform%3A%2Fresource%2FSCL_XSD%2Foriginal%2FSCL&#45;UML.uml%23_1RYhddWtEd&#45;l6pFmray_dw" xlink:title="tFunction"><clipPath id="mypathfile:/D:/Hypermodel-UML-eclipse/hyperModel-3.1/configuration/org.eclipse.osgi/bundles/269/1/.cp/icons/full/obj16/Class.gif32347517"><polygon points="447,521 431,521 431,537 447,537 447,521 "/></clipPath><image xlink:href="file:/D:/Hypermodel-UML-eclipse/hyperModel-3.1/configuration/org.eclipse.osgi/bundles/269/1/.cp/icons/full/obj16/Class.gif" width="16px" height="16px" preserveAspectRatio="xMidYMid meet" x="431" y="521" clip-path="url(#mypathfile:/D:/Hypermodel-UML-eclipse/hyperModel-3.1/configuration/org.eclipse.osgi/bundles/269/1/.cp/icons/full/obj16/Class.gif32347517)"/><text text-anchor="middle" x="478" y="533" style="font-family:Arial;font-size:13.00;">tFunction</text><polygon style="fill:none;stroke:#a30036;" points="430,541 430,517 510,517 510,541 430,541"/></a></g><!-- 4547867&#45;&gt;32347517 --><g id="edge36" class="edge"><title>4547867&#45;&gt;32347517</title><path style="fill:none;stroke:#000080;" d="M551,282C532,293 512,309 499,329 462,391 466,484 469,517"/><polygon style="fill:none;stroke:#000080;" points="548,277 564,274 554,286 548,277"/></g><!-- 4552697 --><g id="node19" class="node"><title>4552697</title><polygon style="fill:#ffffcc;stroke:#ffffcc;" points="476,625 476,601 580,601 580,625 476,625"/><a xlink:href="platform%3A%2Fresource%2FSCL_XSD%2Foriginal%2FSCL&#45;UML.uml%23_1RYheNWtEd&#45;l6pFmray_dw" xlink:title="tSubFunction"><clipPath id="mypathfile:/D:/Hypermodel-UML-eclipse/hyperModel-3.1/configuration/org.eclipse.osgi/bundles/269/1/.cp/icons/full/obj16/Class.gif4552697"><polygon points="493,605 477,605 477,621 493,621 493,605 "/></clipPath><image xlink:href="file:/D:/Hypermodel-UML-eclipse/hyperModel-3.1/configuration/org.eclipse.osgi/bundles/269/1/.cp/icons/full/obj16/Class.gif" width="16px" height="16px" preserveAspectRatio="xMidYMid meet" x="477" y="605" clip-path="url(#mypathfile:/D:/Hypermodel-UML-eclipse/hyperModel-3.1/configuration/org.eclipse.osgi/bundles/269/1/.cp/icons/full/obj16/Class.gif4552697)"/><text text-anchor="middle" x="537" y="617" style="font-family:Arial;font-size:13.00;">tSubFunction</text><polygon style="fill:none;stroke:#a30036;" points="476,625 476,601 580,601 580,625 476,625"/></a></g><!-- 4547867&#45;&gt;4552697 --><g id="edge38" class="edge"><title>4547867&#45;&gt;4552697</title><path style="fill:none;stroke:#000080;" d="M579,288C565,321 542,380 532,433 521,495 525,571 527,601"/><polygon style="fill:none;stroke:#000080;" points="574,286 585,274 584,290 574,286"/></g><!-- 32846483 --><g id="node5" class="node"><title>32846483</title><polygon style="fill:#ffffcc;stroke:#ffffcc;" points="541,457 541,433 679,433 679,457 541,457"/><a xlink:href="platform%3A%2Fresource%2FSCL_XSD%2Foriginal%2FSCL&#45;UML.uml%23_1RPXVdWtEd&#45;l6pFmray_dw" xlink:title="tPowerTransformer"><clipPath id="mypathfile:/D:/Hypermodel-UML-eclipse/hyperModel-3.1/configuration/org.eclipse.osgi/bundles/269/1/.cp/icons/full/obj16/Class.gif32846483"><polygon points="558,437 542,437 542,453 558,453 558,437 "/></clipPath><image xlink:href="file:/D:/Hypermodel-UML-eclipse/hyperModel-3.1/configuration/org.eclipse.osgi/bundles/269/1/.cp/icons/full/obj16/Class.gif" width="16px" height="16px" preserveAspectRatio="xMidYMid meet" x="542" y="437" clip-path="url(#mypathfile:/D:/Hypermodel-UML-eclipse/hyperModel-3.1/configuration/org.eclipse.osgi/bundles/269/1/.cp/icons/full/obj16/Class.gif32846483)"/><text text-anchor="middle" x="618" y="449" style="font-family:Arial;font-size:13.00;">tPowerTransformer</text><polygon style="fill:none;stroke:#a30036;" points="541,457 541,433 679,433 679,457 541,457"/></a></g><!-- 15873169&#45;&gt;32846483 --><g id="edge46" class="edge"><title>15873169&#45;&gt;32846483</title><a xlink:href="platform%3A%2Fresource%2FSCL_XSD%2Foriginal%2FSCL&#45;UML.uml%23_1RPXVNWtEd&#45;l6pFmray_dw" xlink:title="PowerTransformer\n0..*\n"><path style="fill:none;stroke:#a30036;" d="M384,377C435,392 511,415 560,430"/><polygon style="fill:#a30036;stroke:#a30036;" points="383,377 379,371 372,373 376,379 383,377"/><polygon style="fill:#a30036;stroke:#a30036;" points="570,433 562,426 567,432 560,430 567,432 559,434 570,433 570,433"/><text text-anchor="middle" x="547" y="400" style="font-family:Arial;font-size:10.00;">PowerTransformer</text><text text-anchor="middle" x="547" y="412" style="font-family:Arial;font-size:10.00;">0..*</text></a></g><!-- 18816786 --><g id="node12" class="node"><title>18816786</title><polygon style="fill:#ffffcc;stroke:#ffffcc;" points="511,709 511,685 651,685 651,709 511,709"/><a xlink:href="platform%3A%2Fresource%2FSCL_XSD%2Foriginal%2FSCL&#45;UML.uml%23_1RYhQdWtEd&#45;l6pFmray_dw" xlink:title="tGeneralEquipment"><clipPath id="mypathfile:/D:/Hypermodel-UML-eclipse/hyperModel-3.1/configuration/org.eclipse.osgi/bundles/269/1/.cp/icons/full/obj16/Class.gif18816786"><polygon points="528,689 512,689 512,705 528,705 528,689 "/></clipPath><image xlink:href="file:/D:/Hypermodel-UML-eclipse/hyperModel-3.1/configuration/org.eclipse.osgi/bundles/269/1/.cp/icons/full/obj16/Class.gif" width="16px" height="16px" preserveAspectRatio="xMidYMid meet" x="512" y="689" clip-path="url(#mypathfile:/D:/Hypermodel-UML-eclipse/hyperModel-3.1/configuration/org.eclipse.osgi/bundles/269/1/.cp/icons/full/obj16/Class.gif18816786)"/><text text-anchor="middle" x="590" y="701" style="font-family:Arial;font-size:13.00;">tGeneralEquipment</text><polygon style="fill:none;stroke:#a30036;" points="511,709 511,685 651,685 651,709 511,709"/></a></g><!-- 15873169&#45;&gt;18816786 --><g id="edge48" class="edge"><title>15873169&#45;&gt;18816786</title><a xlink:href="platform%3A%2Fresource%2FSCL_XSD%2Foriginal%2FSCL&#45;UML.uml%23_1RYhQNWtEd&#45;l6pFmray_dw" xlink:title="GeneralEquipment\n0..*\n"><path style="fill:none;stroke:#a30036;" d="M330,385C327,421 325,486 336,541 350,603 348,633 400,667 418,678 461,686 501,690"/><polygon style="fill:#a30036;stroke:#a30036;" points="330,385 334,379 331,373 327,379 330,385"/><polygon style="fill:#a30036;stroke:#a30036;" points="511,691 501,686 508,691 501,690 508,691 501,694 511,691 511,691"/><text text-anchor="middle" x="379" y="526" style="font-family:Arial;font-size:10.00;">GeneralEquipment</text><text text-anchor="middle" x="379" y="538" style="font-family:Arial;font-size:10.00;">0..*</text></a></g><!-- 23848942 --><g id="node14" class="node"><title>23848942</title><polygon style="fill:#ffffcc;stroke:#ffffcc;" points="224,457 224,433 316,433 316,457 224,457"/><a xlink:href="platform%3A%2Fresource%2FSCL_XSD%2Foriginal%2FSCL&#45;UML.uml%23_1RYhUdWtEd&#45;l6pFmray_dw" xlink:title="tSubstation"><clipPath id="mypathfile:/D:/Hypermodel-UML-eclipse/hyperModel-3.1/configuration/org.eclipse.osgi/bundles/269/1/.cp/icons/full/obj16/Class.gif23848942"><polygon points="241,437 225,437 225,453 241,453 241,437 "/></clipPath><image xlink:href="file:/D:/Hypermodel-UML-eclipse/hyperModel-3.1/configuration/org.eclipse.osgi/bundles/269/1/.cp/icons/full/obj16/Class.gif" width="16px" height="16px" preserveAspectRatio="xMidYMid meet" x="225" y="437" clip-path="url(#mypathfile:/D:/Hypermodel-UML-eclipse/hyperModel-3.1/configuration/org.eclipse.osgi/bundles/269/1/.cp/icons/full/obj16/Class.gif23848942)"/><text text-anchor="middle" x="278" y="449" style="font-family:Arial;font-size:13.00;">tSubstation</text><polygon style="fill:none;stroke:#a30036;" points="224,457 224,433 316,433 316,457 224,457"/></a></g><!-- 15873169&#45;&gt;23848942 --><g id="edge28" class="edge"><title>15873169&#45;&gt;23848942</title><path style="fill:none;stroke:#000080;" d="M314,385C302,401 288,421 279,433"/><polygon style="fill:none;stroke:#000080;" points="310,382 323,373 318,388 310,382"/></g><!-- 31353833 --><g id="node15" class="node"><title>31353833</title><polygon style="fill:#ffffcc;stroke:#ffffcc;" points="77,541 77,517 183,517 183,541 77,541"/><a xlink:href="platform%3A%2Fresource%2FSCL_XSD%2Foriginal%2FSCL&#45;UML.uml%23_1RYhVNWtEd&#45;l6pFmray_dw" xlink:title="tVoltageLevel"><clipPath id="mypathfile:/D:/Hypermodel-UML-eclipse/hyperModel-3.1/configuration/org.eclipse.osgi/bundles/269/1/.cp/icons/full/obj16/Class.gif31353833"><polygon points="94,521 78,521 78,537 94,537 94,521 "/></clipPath><image xlink:href="file:/D:/Hypermodel-UML-eclipse/hyperModel-3.1/configuration/org.eclipse.osgi/bundles/269/1/.cp/icons/full/obj16/Class.gif" width="16px" height="16px" preserveAspectRatio="xMidYMid meet" x="78" y="521" clip-path="url(#mypathfile:/D:/Hypermodel-UML-eclipse/hyperModel-3.1/configuration/org.eclipse.osgi/bundles/269/1/.cp/icons/full/obj16/Class.gif31353833)"/><text text-anchor="middle" x="138" y="533" style="font-family:Arial;font-size:13.00;">tVoltageLevel</text><polygon style="fill:none;stroke:#a30036;" points="77,541 77,517 183,517 183,541 77,541"/></a></g><!-- 15873169&#45;&gt;31353833 --><g id="edge30" class="edge"><title>15873169&#45;&gt;31353833</title><path style="fill:none;stroke:#000080;" d="M243,371C216,376 192,383 182,391 144,425 134,490 131,517"/><polygon style="fill:none;stroke:#000080;" points="242,366 258,369 244,376 242,366"/></g><!-- 23347240 --><g id="node16" class="node"><title>23347240</title><polygon style="fill:#ffffcc;stroke:#ffffcc;" points="152,625 152,601 206,601 206,625 152,625"/><a xlink:href="platform%3A%2Fresource%2FSCL_XSD%2Foriginal%2FSCL&#45;UML.uml%23_1RYhWtWtEd&#45;l6pFmray_dw" xlink:title="tBay"><clipPath id="mypathfile:/D:/Hypermodel-UML-eclipse/hyperModel-3.1/configuration/org.eclipse.osgi/bundles/269/1/.cp/icons/full/obj16/Class.gif23347240"><polygon points="169,605 153,605 153,621 169,621 169,605 "/></clipPath><image xlink:href="file:/D:/Hypermodel-UML-eclipse/hyperModel-3.1/configuration/org.eclipse.osgi/bundles/269/1/.cp/icons/full/obj16/Class.gif" width="16px" height="16px" preserveAspectRatio="xMidYMid meet" x="153" y="605" clip-path="url(#mypathfile:/D:/Hypermodel-UML-eclipse/hyperModel-3.1/configuration/org.eclipse.osgi/bundles/269/1/.cp/icons/full/obj16/Class.gif23347240)"/><text text-anchor="middle" x="187" y="617" style="font-family:Arial;font-size:13.00;">tBay</text><polygon style="fill:none;stroke:#a30036;" points="152,625 152,601 206,601 206,625 152,625"/></a></g><!-- 15873169&#45;&gt;23347240 --><g id="edge32" class="edge"><title>15873169&#45;&gt;23347240</title><path style="fill:none;stroke:#000080;" d="M284,379C260,391 232,409 215,433 211,441 188,562 181,601"/><polygon style="fill:none;stroke:#000080;" points="282,374 298,373 286,384 282,374"/></g><!-- 24570304 --><g id="node7" class="node"><title>24570304</title><polygon style="fill:#ffffcc;stroke:#ffffcc;" points="636,541 636,517 786,517 786,541 636,541"/><a xlink:href="platform%3A%2Fresource%2FSCL_XSD%2Foriginal%2FSCL&#45;UML.uml%23_1RPXW9WtEd&#45;l6pFmray_dw" xlink:title="tTransformerWinding"><clipPath id="mypathfile:/D:/Hypermodel-UML-eclipse/hyperModel-3.1/configuration/org.eclipse.osgi/bundles/269/1/.cp/icons/full/obj16/Class.gif24570304"><polygon points="653,521 637,521 637,537 653,537 653,521 "/></clipPath><image xlink:href="file:/D:/Hypermodel-UML-eclipse/hyperModel-3.1/configuration/org.eclipse.osgi/bundles/269/1/.cp/icons/full/obj16/Class.gif" width="16px" height="16px" preserveAspectRatio="xMidYMid meet" x="637" y="521" clip-path="url(#mypathfile:/D:/Hypermodel-UML-eclipse/hyperModel-3.1/configuration/org.eclipse.osgi/bundles/269/1/.cp/icons/full/obj16/Class.gif24570304)"/><text text-anchor="middle" x="720" y="533" style="font-family:Arial;font-size:13.00;">tTransformerWinding</text><polygon style="fill:none;stroke:#a30036;" points="636,541 636,517 786,517 786,541 636,541"/></a></g><!-- 32846483&#45;&gt;24570304 --><g id="edge50" class="edge"><title>32846483&#45;&gt;24570304</title><a xlink:href="platform%3A%2Fresource%2FSCL_XSD%2Foriginal%2FSCL&#45;UML.uml%23_1RPXWtWtEd&#45;l6pFmray_dw" xlink:title="TransformerWinding\n1..*\n"><path style="fill:none;stroke:#a30036;" d="M627,467C635,477 647,490 658,499 663,504 670,508 676,512"/><polygon style="fill:#a30036;stroke:#a30036;" points="626,466 626,459 619,457 620,464 626,466"/><polygon style="fill:#a30036;stroke:#a30036;" points="685,517 678,508 682,516 676,512 682,516 674,516 685,517 685,517"/><text text-anchor="middle" x="704" y="484" style="font-family:Arial;font-size:10.00;">TransformerWinding</text><text text-anchor="middle" x="704" y="496" style="font-family:Arial;font-size:10.00;">1..*</text></a></g><!-- 11160700&#45;&gt;32846483 --><g id="edge10" class="edge"><title>11160700&#45;&gt;32846483</title><path style="fill:none;stroke:#000080;" d="M709,381C684,397 650,419 629,433"/><polygon style="fill:none;stroke:#000080;" points="706,376 722,373 712,385 706,376"/></g><!-- 2523263 --><g id="node8" class="node"><title>2523263</title><polygon style="fill:#ffffcc;stroke:#ffffcc;" points="697,457 697,433 901,433 901,457 697,457"/><a xlink:href="platform%3A%2Fresource%2FSCL_XSD%2Foriginal%2FSCL&#45;UML.uml%23_1RPXXNWtEd&#45;l6pFmray_dw" xlink:title="tAbstractConductingEquipment"><clipPath id="mypathfile:/D:/Hypermodel-UML-eclipse/hyperModel-3.1/configuration/org.eclipse.osgi/bundles/269/1/.cp/icons/full/obj16/Class.gif2523263"><polygon points="714,437 698,437 698,453 714,453 714,437 "/></clipPath><image xlink:href="file:/D:/Hypermodel-UML-eclipse/hyperModel-3.1/configuration/org.eclipse.osgi/bundles/269/1/.cp/icons/full/obj16/Class.gif" width="16px" height="16px" preserveAspectRatio="xMidYMid meet" x="698" y="437" clip-path="url(#mypathfile:/D:/Hypermodel-UML-eclipse/hyperModel-3.1/configuration/org.eclipse.osgi/bundles/269/1/.cp/icons/full/obj16/Class.gif2523263)"/><text text-anchor="middle" x="807" y="449" style="font-family:ArialI;font-size:13.00;">tAbstractConductingEquipment</text><polygon style="fill:none;stroke:#a30036;" points="697,457 697,433 901,433 901,457 697,457"/></a></g><!-- 11160700&#45;&gt;2523263 --><g id="edge16" class="edge"><title>11160700&#45;&gt;2523263</title><path style="fill:none;stroke:#000080;" d="M758,385C769,401 782,421 791,433"/><polygon style="fill:none;stroke:#000080;" points="754,388 749,373 762,382 754,388"/></g><!-- 11160700&#45;&gt;18816786 --><g id="edge24" class="edge"><title>11160700&#45;&gt;18816786</title><path style="fill:none;stroke:#000080;" d="M802,375C837,385 880,403 910,433 959,484 992,520 962,583 949,610 937,613 911,625 827,666 720,684 651,691"/><polygon style="fill:none;stroke:#000080;" points="800,380 787,371 803,370 800,380"/></g><!-- 24570304&#45;&gt;16166428 --><g id="edge52" class="edge"><title>24570304&#45;&gt;16166428</title><a xlink:href="platform%3A%2Fresource%2FSCL_XSD%2Foriginal%2FSCL&#45;UML.uml%23_1RYhIdWtEd&#45;l6pFmray_dw" xlink:title="TapChanger\n0..1\n"><path style="fill:none;stroke:#a30036;" d="M742,547C766,562 799,582 822,596"/><polygon style="fill:#a30036;stroke:#a30036;" points="742,547 738,540 731,541 734,547 742,547"/><polygon style="fill:#a30036;stroke:#a30036;" points="831,601 824,592 828,600 822,596 828,600 820,600 831,601 831,601"/><text text-anchor="middle" x="824" y="568" style="font-family:Arial;font-size:10.00;">TapChanger</text><text text-anchor="middle" x="824" y="580" style="font-family:Arial;font-size:10.00;">0..1</text></a></g><!-- 2523263&#45;&gt;24570304 --><g id="edge14" class="edge"><title>2523263&#45;&gt;24570304</title><path style="fill:none;stroke:#000080;" d="M781,469C773,479 764,490 754,499 747,506 738,512 730,517"/><polygon style="fill:none;stroke:#000080;" points="777,466 790,457 785,472 777,466"/></g><!-- 24340171 --><g id="node9" class="node"><title>24340171</title><polygon style="fill:#ffffcc;stroke:#ffffcc;" points="1023,541 1023,517 1103,517 1103,541 1023,541"/><a xlink:href="platform%3A%2Fresource%2FSCL_XSD%2Foriginal%2FSCL&#45;UML.uml%23_1RPXX9WtEd&#45;l6pFmray_dw" xlink:title="tTerminal"><clipPath id="mypathfile:/D:/Hypermodel-UML-eclipse/hyperModel-3.1/configuration/org.eclipse.osgi/bundles/269/1/.cp/icons/full/obj16/Class.gif24340171"><polygon points="1040,521 1024,521 1024,537 1040,537 1040,521 "/></clipPath><image xlink:href="file:/D:/Hypermodel-UML-eclipse/hyperModel-3.1/configuration/org.eclipse.osgi/bundles/269/1/.cp/icons/full/obj16/Class.gif" width="16px" height="16px" preserveAspectRatio="xMidYMid meet" x="1024" y="521" clip-path="url(#mypathfile:/D:/Hypermodel-UML-eclipse/hyperModel-3.1/configuration/org.eclipse.osgi/bundles/269/1/.cp/icons/full/obj16/Class.gif24340171)"/><text text-anchor="middle" x="1071" y="533" style="font-family:Arial;font-size:13.00;">tTerminal</text><polygon style="fill:none;stroke:#a30036;" points="1023,541 1023,517 1103,517 1103,541 1023,541"/></a></g><!-- 2523263&#45;&gt;24340171 --><g id="edge54" class="edge"><title>2523263&#45;&gt;24340171</title><a xlink:href="platform%3A%2Fresource%2FSCL_XSD%2Foriginal%2FSCL&#45;UML.uml%23_1RPXXtWtEd&#45;l6pFmray_dw" xlink:title="Terminal\n0..2\n"><path style="fill:none;stroke:#a30036;" d="M855,460C872,465 890,470 907,475 946,487 989,503 1020,514"/><polygon style="fill:#a30036;stroke:#a30036;" points="855,460 850,455 843,457 848,462 855,460"/><polygon style="fill:#a30036;stroke:#a30036;" points="1030,517 1022,510 1027,516 1020,514 1027,516 1019,518 1030,517 1030,517"/><text text-anchor="middle" x="994" y="484" style="font-family:Arial;font-size:10.00;">Terminal</text><text text-anchor="middle" x="994" y="496" style="font-family:Arial;font-size:10.00;">0..2</text></a></g><!-- 2523263&#45;&gt;18664654 --><g id="edge56" class="edge"><title>2523263&#45;&gt;18664654</title><a xlink:href="platform%3A%2Fresource%2FSCL_XSD%2Foriginal%2FSCL&#45;UML.uml%23_1RPXfdWtEd&#45;l6pFmray_dw" xlink:title="SubEquipment\n0..*\n"><path style="fill:none;stroke:#a30036;" d="M815,467C825,480 837,496 847,509"/><polygon style="fill:#a30036;stroke:#a30036;" points="815,467 815,460 808,457 808,464 815,467"/><polygon style="fill:#a30036;stroke:#a30036;" points="853,517 851,506 851,515 847,509 851,515 843,512 853,517 853,517"/><text text-anchor="middle" x="869" y="484" style="font-family:Arial;font-size:10.00;">SubEquipment</text><text text-anchor="middle" x="869" y="496" style="font-family:Arial;font-size:10.00;">0..*</text></a></g><!-- 2020896 --><g id="node13" class="node"><title>2020896</title><polygon style="fill:#ffffcc;stroke:#ffffcc;" points="276,709 276,685 434,685 434,709 276,709"/><a xlink:href="platform%3A%2Fresource%2FSCL_XSD%2Foriginal%2FSCL&#45;UML.uml%23_1RYhS9WtEd&#45;l6pFmray_dw" xlink:title="tConductingEquipment"><clipPath id="mypathfile:/D:/Hypermodel-UML-eclipse/hyperModel-3.1/configuration/org.eclipse.osgi/bundles/269/1/.cp/icons/full/obj16/Class.gif2020896"><polygon points="293,689 277,689 277,705 293,705 293,689 "/></clipPath><image xlink:href="file:/D:/Hypermodel-UML-eclipse/hyperModel-3.1/configuration/org.eclipse.osgi/bundles/269/1/.cp/icons/full/obj16/Class.gif" width="16px" height="16px" preserveAspectRatio="xMidYMid meet" x="277" y="689" clip-path="url(#mypathfile:/D:/Hypermodel-UML-eclipse/hyperModel-3.1/configuration/org.eclipse.osgi/bundles/269/1/.cp/icons/full/obj16/Class.gif2020896)"/><text text-anchor="middle" x="363" y="701" style="font-family:Arial;font-size:13.00;">tConductingEquipment</text><polygon style="fill:none;stroke:#a30036;" points="276,709 276,685 434,685 434,709 276,709"/></a></g><!-- 2523263&#45;&gt;2020896 --><g id="edge26" class="edge"><title>2523263&#45;&gt;2020896</title><path style="fill:none;stroke:#000080;" d="M691,459C660,465 633,470 628,475 578,522 636,576 589,625 566,650 479,672 418,685"/><polygon style="fill:none;stroke:#000080;" points="690,454 706,457 692,464 690,454"/></g><!-- 23848942&#45;&gt;31353833 --><g id="edge58" class="edge"><title>23848942&#45;&gt;31353833</title><a xlink:href="platform%3A%2Fresource%2FSCL_XSD%2Foriginal%2FSCL&#45;UML.uml%23_1RYhU9WtEd&#45;l6pFmray_dw" xlink:title="VoltageLevel\n1..*\n"><path style="fill:none;stroke:#a30036;" d="M222,461C212,465 202,470 193,475 177,485 161,499 149,510"/><polygon style="fill:#a30036;stroke:#a30036;" points="222,461 229,463 233,457 226,455 222,461"/><polygon style="fill:#a30036;stroke:#a30036;" points="142,517 152,513 144,515 149,510 144,515 146,507 142,517 142,517"/><text text-anchor="middle" x="229" y="484" style="font-family:Arial;font-size:10.00;">VoltageLevel</text><text text-anchor="middle" x="229" y="496" style="font-family:Arial;font-size:10.00;">1..*</text></a></g><!-- 23848942&#45;&gt;32347517 --><g id="edge60" class="edge"><title>23848942&#45;&gt;32347517</title><a xlink:href="platform%3A%2Fresource%2FSCL_XSD%2Foriginal%2FSCL&#45;UML.uml%23_1RYhdNWtEd&#45;l6pFmray_dw" xlink:title="Function\n0..*\n"><path style="fill:none;stroke:#a30036;" d="M310,462C346,477 397,498 432,513"/><polygon style="fill:#a30036;stroke:#a30036;" points="310,462 306,456 299,457 303,463 310,462"/><polygon style="fill:#a30036;stroke:#a30036;" points="441,517 434,509 438,516 432,513 438,516 430,517 441,517 441,517"/><text text-anchor="middle" x="415" y="484" style="font-family:Arial;font-size:10.00;">Function</text><text text-anchor="middle" x="415" y="496" style="font-family:Arial;font-size:10.00;">0..*</text></a></g><!-- 31353833&#45;&gt;23347240 --><g id="edge62" class="edge"><title>31353833&#45;&gt;23347240</title><a xlink:href="platform%3A%2Fresource%2FSCL_XSD%2Foriginal%2FSCL&#45;UML.uml%23_1RYhWdWtEd&#45;l6pFmray_dw" xlink:title="Bay\n1..*\n"><path style="fill:none;stroke:#a30036;" d="M143,552C151,564 160,580 167,592"/><polygon style="fill:#a30036;stroke:#a30036;" points="143,552 143,544 137,541 136,548 143,552"/><polygon style="fill:#a30036;stroke:#a30036;" points="172,601 171,590 171,598 167,592 171,598 163,594 172,601 172,601"/><text text-anchor="middle" x="170" y="568" style="font-family:Arial;font-size:10.00;">Bay</text><text text-anchor="middle" x="170" y="580" style="font-family:Arial;font-size:10.00;">1..*</text></a></g><!-- 23347240&#45;&gt;2020896 --><g id="edge64" class="edge"><title>23347240&#45;&gt;2020896</title><a xlink:href="platform%3A%2Fresource%2FSCL_XSD%2Foriginal%2FSCL&#45;UML.uml%23_1RYhXNWtEd&#45;l6pFmray_dw" xlink:title="ConductingEquipment\n0..*\n"><path style="fill:none;stroke:#a30036;" d="M188,636C194,647 202,660 213,667 223,674 243,679 266,684"/><polygon style="fill:#a30036;stroke:#a30036;" points="188,636 189,629 183,625 182,632 188,636"/><polygon style="fill:#a30036;stroke:#a30036;" points="276,686 267,680 273,685 266,684 273,685 265,688 276,686 276,686"/><text text-anchor="middle" x="263" y="652" style="font-family:Arial;font-size:10.00;">ConductingEquipment</text><text text-anchor="middle" x="263" y="664" style="font-family:Arial;font-size:10.00;">0..*</text></a></g><!-- 23347240&#45;&gt;11434871 --><g id="edge66" class="edge"><title>23347240&#45;&gt;11434871</title><a xlink:href="platform%3A%2Fresource%2FSCL_XSD%2Foriginal%2FSCL&#45;UML.uml%23_1RYhYdWtEd&#45;l6pFmray_dw" xlink:title="ConnectivityNode\n0..*\n"><path style="fill:none;stroke:#a30036;" d="M141,623C128,628 115,634 104,643 94,652 86,665 81,676"/><polygon style="fill:#a30036;stroke:#a30036;" points="141,623 148,625 152,619 145,617 141,623"/><polygon style="fill:#a30036;stroke:#a30036;" points="77,685 85,678 78,682 81,676 78,682 77,674 77,685 77,685"/><text text-anchor="middle" x="150" y="652" style="font-family:Arial;font-size:10.00;">ConnectivityNode</text><text text-anchor="middle" x="150" y="664" style="font-family:Arial;font-size:10.00;">0..*</text></a></g><!-- 32347517&#45;&gt;18816786 --><g id="edge70" class="edge"><title>32347517&#45;&gt;18816786</title><a xlink:href="platform%3A%2Fresource%2FSCL_XSD%2Foriginal%2FSCL&#45;UML.uml%23_1RYhg9WtEd&#45;l6pFmray_dw" xlink:title="GeneralEquipment\n0..*\n"><path style="fill:none;stroke:#a30036;" d="M433,547C401,565 361,595 382,625 399,648 466,669 517,682"/><polygon style="fill:#a30036;stroke:#a30036;" points="433,547 441,547 444,541 437,540 433,547"/><polygon style="fill:#a30036;stroke:#a30036;" points="527,685 519,678 524,684 517,682 524,684 516,686 527,685 527,685"/><text text-anchor="middle" x="425" y="610" style="font-family:Arial;font-size:10.00;">GeneralEquipment</text><text text-anchor="middle" x="425" y="622" style="font-family:Arial;font-size:10.00;">0..*</text></a></g><!-- 32347517&#45;&gt;4552697 --><g id="edge68" class="edge"><title>32347517&#45;&gt;4552697</title><a xlink:href="platform%3A%2Fresource%2FSCL_XSD%2Foriginal%2FSCL&#45;UML.uml%23_1RYhd9WtEd&#45;l6pFmray_dw" xlink:title="SubFunction\n0..*\n"><path style="fill:none;stroke:#a30036;" d="M463,553C462,563 462,575 467,583 470,588 474,592 478,596"/><polygon style="fill:#a30036;stroke:#a30036;" points="463,553 468,548 466,541 461,546 463,553"/><polygon style="fill:#a30036;stroke:#a30036;" points="487,601 480,592 484,600 478,596 484,600 476,600 487,601 487,601"/><text text-anchor="middle" x="496" y="568" style="font-family:Arial;font-size:10.00;">SubFunction</text><text text-anchor="middle" x="496" y="580" style="font-family:Arial;font-size:10.00;">0..*</text></a></g><!-- 4552697&#45;&gt;18816786 --><g id="edge72" class="edge"><title>4552697&#45;&gt;18816786</title><a xlink:href="platform%3A%2Fresource%2FSCL_XSD%2Foriginal%2FSCL&#45;UML.uml%23_1RYhetWtEd&#45;l6pFmray_dw" xlink:title="GeneralEquipment\n0..*\n"><path style="fill:none;stroke:#a30036;" d="M543,636C550,648 560,664 568,676"/><polygon style="fill:#a30036;stroke:#a30036;" points="542,635 543,628 536,625 536,632 542,635"/><polygon style="fill:#a30036;stroke:#a30036;" points="573,685 572,674 572,682 568,676 572,682 564,678 573,685 573,685"/><text text-anchor="middle" x="604" y="652" style="font-family:Arial;font-size:10.00;">GeneralEquipment</text><text text-anchor="middle" x="604" y="664" style="font-family:Arial;font-size:10.00;">0..*</text></a></g><!-- 17712783 --><g id="node20" class="node"><title>17712783</title><polygon style="fill:#ffffcc;stroke:#ffffcc;" points="674,91 674,67 748,67 748,91 674,91"/><a xlink:href="platform%3A%2Fresource%2FSCL_XSD%2Foriginal%2FSCL&#45;UML.uml%23_1QyrZ9WtEd&#45;l6pFmray_dw" xlink:title="tNaming"><clipPath id="mypathfile:/D:/Hypermodel-UML-eclipse/hyperModel-3.1/configuration/org.eclipse.osgi/bundles/269/1/.cp/icons/full/obj16/Class.gif17712783"><polygon points="691,71 675,71 675,87 691,87 691,71 "/></clipPath><image xlink:href="file:/D:/Hypermodel-UML-eclipse/hyperModel-3.1/configuration/org.eclipse.osgi/bundles/269/1/.cp/icons/full/obj16/Class.gif" width="16px" height="16px" preserveAspectRatio="xMidYMid meet" x="675" y="71" clip-path="url(#mypathfile:/D:/Hypermodel-UML-eclipse/hyperModel-3.1/configuration/org.eclipse.osgi/bundles/269/1/.cp/icons/full/obj16/Class.gif17712783)"/><text text-anchor="middle" x="719" y="83" style="font-family:ArialI;font-size:13.00;">tNaming</text><polygon style="fill:none;stroke:#a30036;" points="674,91 674,67 748,67 748,91 674,91"/></a></g><!-- 17712783&#45;&gt;7683106 --><g id="edge2" class="edge"><title>17712783&#45;&gt;7683106</title><path style="fill:none;stroke:#000080;" d="M677,99C660,109 640,120 625,129"/><polygon style="fill:none;stroke:#000080;" points="674,94 690,91 680,103 674,94"/></g><!-- 7662824 --><g id="node21" class="node"><title>7662824</title><polygon style="fill:#ffffcc;stroke:#ffffcc;" points="753,153 753,129 845,129 845,153 753,153"/><a xlink:href="platform%3A%2Fresource%2FSCL_XSD%2Foriginal%2FSCL&#45;UML.uml%23_1QyrZNWtEd&#45;l6pFmray_dw" xlink:title="tUnNaming"><clipPath id="mypathfile:/D:/Hypermodel-UML-eclipse/hyperModel-3.1/configuration/org.eclipse.osgi/bundles/269/1/.cp/icons/full/obj16/Class.gif7662824"><polygon points="770,133 754,133 754,149 770,149 770,133 "/></clipPath><image xlink:href="file:/D:/Hypermodel-UML-eclipse/hyperModel-3.1/configuration/org.eclipse.osgi/bundles/269/1/.cp/icons/full/obj16/Class.gif" width="16px" height="16px" preserveAspectRatio="xMidYMid meet" x="754" y="133" clip-path="url(#mypathfile:/D:/Hypermodel-UML-eclipse/hyperModel-3.1/configuration/org.eclipse.osgi/bundles/269/1/.cp/icons/full/obj16/Class.gif7662824)"/><text text-anchor="middle" x="808" y="145" style="font-family:ArialI;font-size:13.00;">tUnNaming</text><polygon style="fill:none;stroke:#a30036;" points="753,153 753,129 845,129 845,153 753,153"/></a></g><!-- 7662824&#45;&gt;4404549 --><g id="edge4" class="edge"><title>7662824&#45;&gt;4404549</title><path style="fill:none;stroke:#000080;" d="M799,168C799,181 799,198 799,213"/><polygon style="fill:none;stroke:#000080;" points="794,168 799,153 804,168 794,168"/></g><!-- 7662824&#45;&gt;24340171 --><g id="edge18" class="edge"><title>7662824&#45;&gt;24340171</title><path style="fill:none;stroke:#000080;" d="M860,156C939,176 1066,217 1066,262 1066,262 1066,262 1066,445 1066,471 1065,501 1064,517"/><polygon style="fill:none;stroke:#000080;" points="858,161 845,152 861,151 858,161"/></g><!-- 9343370 --><g id="node22" class="node"><title>9343370</title><polygon style="fill:#ffffcc;stroke:#ffffcc;" points="713,29 713,5 821,5 821,29 713,29"/><a xlink:href="platform%3A%2Fresource%2FSCL_XSD%2Foriginal%2FSCL&#45;UML.uml%23_1QfwtdWtEd&#45;l6pFmray_dw" xlink:title="tBaseElement"><clipPath id="mypathfile:/D:/Hypermodel-UML-eclipse/hyperModel-3.1/configuration/org.eclipse.osgi/bundles/269/1/.cp/icons/full/obj16/Class.gif9343370"><polygon points="730,9 714,9 714,25 730,25 730,9 "/></clipPath><image xlink:href="file:/D:/Hypermodel-UML-eclipse/hyperModel-3.1/configuration/org.eclipse.osgi/bundles/269/1/.cp/icons/full/obj16/Class.gif" width="16px" height="16px" preserveAspectRatio="xMidYMid meet" x="714" y="9" clip-path="url(#mypathfile:/D:/Hypermodel-UML-eclipse/hyperModel-3.1/configuration/org.eclipse.osgi/bundles/269/1/.cp/icons/full/obj16/Class.gif9343370)"/><text text-anchor="middle" x="776" y="21" style="font-family:ArialI;font-size:13.00;">tBaseElement</text><polygon style="fill:none;stroke:#a30036;" points="713,29 713,5 821,5 821,29 713,29"/></a></g><!-- 9343370&#45;&gt;17712783 --><g id="edge40" class="edge"><title>9343370&#45;&gt;17712783</title><path style="fill:none;stroke:#000080;" d="M746,40C738,49 729,59 722,67"/><polygon style="fill:none;stroke:#000080;" points="742,37 756,29 750,44 742,37"/></g><!-- 9343370&#45;&gt;7662824 --><g id="edge42" class="edge"><title>9343370&#45;&gt;7662824</title><path style="fill:none;stroke:#000080;" d="M774,44C781,70 791,109 796,129"/><polygon style="fill:none;stroke:#000080;" points="769,45 770,29 779,42 769,45"/></g></g></svg>