<?xml version="1.0" encoding="UTF-8" standalone="no"?><!DOCTYPE svg PUBLIC "-//W3C//DTD SVG 1.0//EN" "http://www.w3.org/TR/2001/REC-SVG-20010904/DTD/svg10.dtd" [ <!ATTLIST svg xmlns:xlink CDATA #FIXED "http://www.w3.org/1999/xlink">]><!-- Generated by dot version 2.7.20051103.0540 (Thu Nov  3 05:48:38 UTC 2005)     For user: Bill Gates --><!-- Title: uml Pages: 1 --><svg width="260pt" height="324pt" viewBox = "0 0 260 324" xmlns="http://www.w3.org/2000/svg" xmlns:xlink="http://www.w3.org/1999/xlink"><g id="graph0" class="graph" style="font-family:Times-Roman;font-size:14.00;"><title>uml</title><polygon style="fill:white;stroke:white;" points="-1,325 -1,-1 261,-1 261,325 -1,325"/><!-- 31214809 --><g id="node1" class="node"><title>31214809</title><polygon style="fill:#ffffcc;stroke:#ffffcc;" points="77,29 77,5 129,5 129,29 77,29"/><a xlink:href="platform%3A%2Fresource%2FSCL_XSD%2Foriginal%2FSCL&#45;UML.uml%23_1UEpDdWtEd&#45;l6pFmray_dw" xlink:title="SCL"><clipPath id="mypathfile:/D:/Hypermodel-UML-eclipse/hyperModel-3.1/configuration/org.eclipse.osgi/bundles/269/1/.cp/icons/full/obj16/Class.gif31214809"><polygon points="94,9 78,9 78,25 94,25 94,9 "/></clipPath><image xlink:href="file:/D:/Hypermodel-UML-eclipse/hyperModel-3.1/configuration/org.eclipse.osgi/bundles/269/1/.cp/icons/full/obj16/Class.gif" width="16px" height="16px" preserveAspectRatio="xMidYMid meet" x="78" y="9" clip-path="url(#mypathfile:/D:/Hypermodel-UML-eclipse/hyperModel-3.1/configuration/org.eclipse.osgi/bundles/269/1/.cp/icons/full/obj16/Class.gif31214809)"/><text text-anchor="middle" x="111" y="21" style="font-family:Arial;font-size:13.00;">SCL</text><polygon style="fill:none;stroke:#a30036;" points="77,29 77,5 129,5 129,29 77,29"/></a></g><!-- 19898081 --><g id="node2" class="node"><title>19898081</title><polygon style="fill:#ffffcc;stroke:#ffffcc;" points="12,222 12,186 98,186 98,222 12,222"/><a xlink:href="platform%3A%2Fresource%2FSCL_XSD%2Foriginal%2FSCL&#45;UML.uml%23_1Qo6RtWtEd&#45;l6pFmray_dw" xlink:title="tText"><text text-anchor="middle" x="55" y="197" style="font-family:Arial;font-size:11.00;">«complexType» </text><clipPath id="mypathfile:/D:/Hypermodel-UML-eclipse/hyperModel-3.1/configuration/org.eclipse.osgi/bundles/269/1/.cp/icons/full/obj16/Class.gif19898081"><polygon points="29,202 13,202 13,219 29,219 29,202 "/></clipPath><image xlink:href="file:/D:/Hypermodel-UML-eclipse/hyperModel-3.1/configuration/org.eclipse.osgi/bundles/269/1/.cp/icons/full/obj16/Class.gif" width="16px" height="17px" preserveAspectRatio="xMidYMid meet" x="13" y="202" clip-path="url(#mypathfile:/D:/Hypermodel-UML-eclipse/hyperModel-3.1/configuration/org.eclipse.osgi/bundles/269/1/.cp/icons/full/obj16/Class.gif19898081)"/><text text-anchor="middle" x="63" y="215" style="font-family:Arial;font-size:13.00;">tText</text><polygon style="fill:none;stroke:#a30036;" points="12,222 12,186 98,186 98,222 12,222"/></a></g><!-- 31214809&#45;&gt;19898081 --><g id="edge2" class="edge"><title>31214809&#45;&gt;19898081</title><a xlink:href="platform%3A%2Fresource%2FSCL_XSD%2Foriginal%2FSCL&#45;UML.uml%23_1Qo6RdWtEd&#45;l6pFmray_dw" xlink:title="Text\n0..1\n"><path style="fill:none;stroke:#a30036;" d="M75,37C59,50 41,68 32,89 21,118 31,153 41,177"/><polygon style="fill:#a30036;stroke:#a30036;" points="76,36 83,36 85,29 78,30 76,36"/><polygon style="fill:#a30036;stroke:#a30036;" points="45,186 45,175 44,183 41,177 44,183 37,179 45,186 45,186"/><text text-anchor="middle" x="45" y="104" style="font-family:Arial;font-size:10.00;">Text</text><text text-anchor="middle" x="45" y="116" style="font-family:Arial;font-size:10.00;">0..1</text></a></g><!-- 28336652 --><g id="node3" class="node"><title>28336652</title><polygon style="fill:#ffffcc;stroke:#ffffcc;" points="60,125 60,89 146,89 146,125 60,125"/><a xlink:href="platform%3A%2Fresource%2FSCL_XSD%2Foriginal%2FSCL&#45;UML.uml%23_1QyrUNWtEd&#45;l6pFmray_dw" xlink:title="tPrivate"><text text-anchor="middle" x="103" y="100" style="font-family:Arial;font-size:11.00;">«complexType» </text><clipPath id="mypathfile:/D:/Hypermodel-UML-eclipse/hyperModel-3.1/configuration/org.eclipse.osgi/bundles/269/1/.cp/icons/full/obj16/Class.gif28336652"><polygon points="77,105 61,105 61,122 77,122 77,105 "/></clipPath><image xlink:href="file:/D:/Hypermodel-UML-eclipse/hyperModel-3.1/configuration/org.eclipse.osgi/bundles/269/1/.cp/icons/full/obj16/Class.gif" width="16px" height="17px" preserveAspectRatio="xMidYMid meet" x="61" y="105" clip-path="url(#mypathfile:/D:/Hypermodel-UML-eclipse/hyperModel-3.1/configuration/org.eclipse.osgi/bundles/269/1/.cp/icons/full/obj16/Class.gif28336652)"/><text text-anchor="middle" x="111" y="118" style="font-family:Arial;font-size:13.00;">tPrivate</text><polygon style="fill:none;stroke:#a30036;" points="60,125 60,89 146,89 146,125 60,125"/></a></g><!-- 31214809&#45;&gt;28336652 --><g id="edge4" class="edge"><title>31214809&#45;&gt;28336652</title><a xlink:href="platform%3A%2Fresource%2FSCL_XSD%2Foriginal%2FSCL&#45;UML.uml%23_1QyrT9WtEd&#45;l6pFmray_dw" xlink:title="Private\n0..*\n"><path style="fill:none;stroke:#a30036;" d="M103,41C103,53 103,67 103,79"/><polygon style="fill:#a30036;stroke:#a30036;" points="103,41 107,35 103,29 99,35 103,41"/><polygon style="fill:#a30036;stroke:#a30036;" points="103,89 108,79 103,86 103,79 103,86 99,79 103,89 103,89"/><text text-anchor="middle" x="120" y="56" style="font-family:Arial;font-size:10.00;">Private</text><text text-anchor="middle" x="120" y="68" style="font-family:Arial;font-size:10.00;">0..*</text></a></g><!-- 6251340 --><g id="node4" class="node"><title>6251340</title><polygon style="fill:#ffffcc;stroke:#ffffcc;" points="164,119 164,95 238,95 238,119 164,119"/><a xlink:href="platform%3A%2Fresource%2FSCL_XSD%2Foriginal%2FSCL&#45;UML.uml%23_1Q8cR9WtEd&#45;l6pFmray_dw" xlink:title="tHeader"><clipPath id="mypathfile:/D:/Hypermodel-UML-eclipse/hyperModel-3.1/configuration/org.eclipse.osgi/bundles/269/1/.cp/icons/full/obj16/Class.gif6251340"><polygon points="181,99 165,99 165,115 181,115 181,99 "/></clipPath><image xlink:href="file:/D:/Hypermodel-UML-eclipse/hyperModel-3.1/configuration/org.eclipse.osgi/bundles/269/1/.cp/icons/full/obj16/Class.gif" width="16px" height="16px" preserveAspectRatio="xMidYMid meet" x="165" y="99" clip-path="url(#mypathfile:/D:/Hypermodel-UML-eclipse/hyperModel-3.1/configuration/org.eclipse.osgi/bundles/269/1/.cp/icons/full/obj16/Class.gif6251340)"/><text text-anchor="middle" x="209" y="111" style="font-family:Arial;font-size:13.00;">tHeader</text><polygon style="fill:none;stroke:#a30036;" points="164,119 164,95 238,95 238,119 164,119"/></a></g><!-- 31214809&#45;&gt;6251340 --><g id="edge6" class="edge"><title>31214809&#45;&gt;6251340</title><a xlink:href="platform%3A%2Fresource%2FSCL_XSD%2Foriginal%2FSCL&#45;UML.uml%23_1UEpD9WtEd&#45;l6pFmray_dw" xlink:title="Header\n1..1\n"><path style="fill:none;stroke:#a30036;" d="M129,37C133,40 137,44 140,47 155,60 170,76 182,88"/><polygon style="fill:#a30036;stroke:#a30036;" points="128,36 126,30 119,29 121,36 128,36"/><polygon style="fill:#a30036;stroke:#a30036;" points="189,95 185,85 187,93 182,88 187,93 179,91 189,95 189,95"/><text text-anchor="middle" x="183" y="56" style="font-family:Arial;font-size:10.00;">Header</text><text text-anchor="middle" x="183" y="68" style="font-family:Arial;font-size:10.00;">1..1</text></a></g><!-- 6251340&#45;&gt;19898081 --><g id="edge8" class="edge"><title>6251340&#45;&gt;19898081</title><a xlink:href="platform%3A%2Fresource%2FSCL_XSD%2Foriginal%2FSCL&#45;UML.uml%23_1Q8cSNWtEd&#45;l6pFmray_dw" xlink:title="Text\n0..1\n"><path style="fill:none;stroke:#a30036;" d="M173,126C150,141 116,163 90,180"/><polygon style="fill:#a30036;stroke:#a30036;" points="173,126 180,126 183,119 176,119 173,126"/><polygon style="fill:#a30036;stroke:#a30036;" points="82,186 93,184 84,184 90,180 84,184 87,176 82,186 82,186"/><text text-anchor="middle" x="157" y="152" style="font-family:Arial;font-size:10.00;">Text</text><text text-anchor="middle" x="157" y="164" style="font-family:Arial;font-size:10.00;">0..1</text></a></g><!-- 19185043 --><g id="node5" class="node"><title>19185043</title><polygon style="fill:#ffffcc;stroke:#ffffcc;" points="147,223 147,185 255,185 255,223 147,223"/><a xlink:href="platform%3A%2Fresource%2FSCL_XSD%2Foriginal%2FSCL&#45;UML.uml%23_1Q8cTtWtEd&#45;l6pFmray_dw" xlink:title="anonymous_1"><clipPath id="mypathfile:/D:/Hypermodel-UML-eclipse/hyperModel-3.1/configuration/org.eclipse.osgi/bundles/269/1/.cp/icons/full/obj16/Class.gif19185043"><polygon points="164,188 148,188 148,205 164,205 164,188 "/></clipPath><image xlink:href="file:/D:/Hypermodel-UML-eclipse/hyperModel-3.1/configuration/org.eclipse.osgi/bundles/269/1/.cp/icons/full/obj16/Class.gif" width="16px" height="17px" preserveAspectRatio="xMidYMid meet" x="148" y="188" clip-path="url(#mypathfile:/D:/Hypermodel-UML-eclipse/hyperModel-3.1/configuration/org.eclipse.osgi/bundles/269/1/.cp/icons/full/obj16/Class.gif19185043)"/><text text-anchor="middle" x="210" y="201" style="font-family:Arial;font-size:13.00;">anonymous_1</text><polygon style="fill:none;stroke:#a30036;" points="147,208 147,185 255,185 255,208 147,208"/></a><text text-anchor="middle" x="201" y="219" style="font-family:Arial;font-size:11.00;"> </text><polygon style="fill:none;stroke:#a30036;" points="147,223 147,208 255,208 255,223 147,223"/></g><!-- 6251340&#45;&gt;19185043 --><g id="edge10" class="edge"><title>6251340&#45;&gt;19185043</title><a xlink:href="platform%3A%2Fresource%2FSCL_XSD%2Foriginal%2FSCL&#45;UML.uml%23_1Q8cTdWtEd&#45;l6pFmray_dw" xlink:title="History\n0..1\n"><path style="fill:none;stroke:#a30036;" d="M201,131C201,145 201,161 201,175"/><polygon style="fill:#a30036;stroke:#a30036;" points="201,131 205,125 201,119 197,125 201,131"/><polygon style="fill:#a30036;stroke:#a30036;" points="201,185 206,175 201,182 201,175 201,182 197,175 201,185 201,185"/><text text-anchor="middle" x="217" y="152" style="font-family:Arial;font-size:10.00;">History</text><text text-anchor="middle" x="217" y="164" style="font-family:Arial;font-size:10.00;">0..1</text></a></g><!-- 8327720 --><g id="node6" class="node"><title>8327720</title><polygon style="fill:#ffffcc;stroke:#ffffcc;" points="158,319 158,283 244,283 244,319 158,319"/><a xlink:href="platform%3A%2Fresource%2FSCL_XSD%2Foriginal%2FSCL&#45;UML.uml%23_1Q8cUNWtEd&#45;l6pFmray_dw" xlink:title="tHitem"><text text-anchor="middle" x="201" y="294" style="font-family:Arial;font-size:11.00;">«complexType» </text><clipPath id="mypathfile:/D:/Hypermodel-UML-eclipse/hyperModel-3.1/configuration/org.eclipse.osgi/bundles/269/1/.cp/icons/full/obj16/Class.gif8327720"><polygon points="175,299 159,299 159,316 175,316 175,299 "/></clipPath><image xlink:href="file:/D:/Hypermodel-UML-eclipse/hyperModel-3.1/configuration/org.eclipse.osgi/bundles/269/1/.cp/icons/full/obj16/Class.gif" width="16px" height="17px" preserveAspectRatio="xMidYMid meet" x="159" y="299" clip-path="url(#mypathfile:/D:/Hypermodel-UML-eclipse/hyperModel-3.1/configuration/org.eclipse.osgi/bundles/269/1/.cp/icons/full/obj16/Class.gif8327720)"/><text text-anchor="middle" x="209" y="312" style="font-family:Arial;font-size:13.00;">tHitem</text><polygon style="fill:none;stroke:#a30036;" points="158,319 158,283 244,283 244,319 158,319"/></a></g><!-- 19185043&#45;&gt;8327720 --><g id="edge12" class="edge"><title>19185043&#45;&gt;8327720</title><a xlink:href="platform%3A%2Fresource%2FSCL_XSD%2Foriginal%2FSCL&#45;UML.uml%23_1Q8cT9WtEd&#45;l6pFmray_dw" xlink:title="Hitem\n1..*\n"><path style="fill:none;stroke:#a30036;" d="M201,235C201,247 201,261 201,273"/><polygon style="fill:#a30036;stroke:#a30036;" points="201,235 205,229 201,223 197,229 201,235"/><polygon style="fill:#a30036;stroke:#a30036;" points="201,283 206,273 201,280 201,273 201,280 197,273 201,283 201,283"/><text text-anchor="middle" x="214" y="250" style="font-family:Arial;font-size:10.00;">Hitem</text><text text-anchor="middle" x="214" y="262" style="font-family:Arial;font-size:10.00;">1..*</text></a></g></g></svg>